<svg width="24.526367" height="23.437500" viewBox="2.377930 -46.816406 24.526367 23.437500" xmlns="http://www.w3.org/2000/svg"><path d="M9.550781 -46.816406C7.675781 -46.816406 5.732422 -46.269531 3.720703 -45.175781C3.193359 -44.882812 2.841797 -44.438477 2.666016 -43.842773C2.490234 -43.247070 2.543945 -42.685547 2.827148 -42.158203C3.110352 -41.630859 3.554688 -41.328125 4.160156 -41.250000C4.707031 -41.191406 5.273438 -41.318359 5.859375 -41.630859C6.992188 -42.236328 8.017578 -42.626953 8.935547 -42.802734C9.736328 -42.939453 10.566406 -42.919922 11.425781 -42.744141C11.933594 -42.626953 12.734375 -42.382812 13.828125 -42.011719L15.527344 -41.337891C16.250000 -41.025391 16.875000 -40.800781 17.402344 -40.664062C18.144531 -40.468750 18.867188 -40.371094 19.570312 -40.371094C21.406250 -40.371094 23.339844 -40.810547 25.371094 -41.689453C25.937500 -41.923828 26.337891 -42.324219 26.572266 -42.890625C26.806641 -43.457031 26.806641 -44.018555 26.572266 -44.575195C26.337891 -45.131836 25.927734 -45.478516 25.341797 -45.615234C24.814453 -45.732422 24.248047 -45.664062 23.642578 -45.410156C22.451172 -44.902344 21.357422 -44.599609 20.361328 -44.501953C19.521484 -44.404297 18.652344 -44.462891 17.753906 -44.677734C17.207031 -44.794922 16.376953 -45.048828 15.263672 -45.439453C14.052734 -45.888672 13.496094 -46.093750 13.593750 -46.054688C12.910156 -46.289062 12.275391 -46.464844 11.689453 -46.582031C10.966797 -46.738281 10.253906 -46.816406 9.550781 -46.816406ZM9.404297 -38.232422C7.548828 -38.251953 5.634766 -37.734375 3.662109 -36.679688C3.115234 -36.386719 2.749023 -35.947266 2.563477 -35.361328C2.377930 -34.775391 2.426758 -34.213867 2.709961 -33.676758C2.993164 -33.139648 3.437500 -32.832031 4.042969 -32.753906C4.589844 -32.695312 5.156250 -32.822266 5.742188 -33.134766C6.855469 -33.720703 7.871094 -34.091797 8.789062 -34.248047C9.570312 -34.365234 10.380859 -34.335938 11.220703 -34.160156C11.728516 -34.062500 12.529297 -33.818359 13.623047 -33.427734L15.292969 -32.753906C16.035156 -32.460938 16.669922 -32.246094 17.197266 -32.109375C17.939453 -31.914062 18.652344 -31.816406 19.335938 -31.816406C21.289062 -31.816406 23.349609 -32.294922 25.517578 -33.251953C26.064453 -33.505859 26.450195 -33.920898 26.674805 -34.497070C26.899414 -35.073242 26.889648 -35.634766 26.645508 -36.181641C26.401367 -36.728516 25.986328 -37.060547 25.400391 -37.177734C24.853516 -37.294922 24.287109 -37.216797 23.701172 -36.943359C22.451172 -36.396484 21.318359 -36.064453 20.302734 -35.947266C19.423828 -35.849609 18.525391 -35.898438 17.607422 -36.093750C17.041016 -36.210938 16.191406 -36.474609 15.058594 -36.884766C13.769531 -37.333984 13.212891 -37.539062 13.388672 -37.500000C12.705078 -37.714844 12.080078 -37.880859 11.513672 -37.998047C10.791016 -38.154297 10.087891 -38.232422 9.404297 -38.232422ZM9.082031 -29.736328C7.343750 -29.736328 5.546875 -29.267578 3.691406 -28.330078C3.144531 -28.056641 2.773438 -27.636719 2.578125 -27.070312C2.382812 -26.503906 2.421875 -25.952148 2.695312 -25.415039C2.968750 -24.877930 3.408203 -24.570312 4.013672 -24.492188C4.560547 -24.394531 5.126953 -24.501953 5.712891 -24.814453C6.767578 -25.341797 7.744141 -25.673828 8.642578 -25.810547C9.404297 -25.908203 10.195312 -25.869141 11.015625 -25.693359C11.523438 -25.595703 12.285156 -25.361328 13.300781 -24.990234L15.000000 -24.316406C15.722656 -24.023438 16.347656 -23.798828 16.875000 -23.642578C17.617188 -23.466797 18.339844 -23.378906 19.042969 -23.378906C21.074219 -23.378906 23.242188 -23.906250 25.546875 -24.960938C26.093750 -25.234375 26.474609 -25.649414 26.689453 -26.206055C26.904297 -26.762695 26.884766 -27.314453 26.630859 -27.861328C26.376953 -28.408203 25.957031 -28.730469 25.371094 -28.828125C24.824219 -28.925781 24.248047 -28.837891 23.642578 -28.564453C22.353516 -27.958984 21.181641 -27.587891 20.126953 -27.451172C19.208984 -27.333984 18.281250 -27.373047 17.343750 -27.568359C16.777344 -27.685547 15.908203 -27.949219 14.736328 -28.359375C13.427734 -28.847656 12.871094 -29.052734 13.066406 -28.974609C12.382812 -29.208984 11.757812 -29.384766 11.191406 -29.501953C10.468750 -29.658203 9.765625 -29.736328 9.082031 -29.736328ZM9.082031 -29.736328"></path></svg>