<svg width="23.437500" height="23.437500" viewBox="2.929688 -46.816406 23.437500 23.437500" xmlns="http://www.w3.org/2000/svg"><path d="M7.353516 -46.816406C7.333984 -46.816406 7.294922 -46.816406 7.236328 -46.816406L7.001953 -46.816406L6.474609 -46.728516L6.035156 -46.611328L5.449219 -46.376953L4.980469 -46.113281L4.541016 -45.820312C4.287109 -45.605469 4.062500 -45.371094 3.867188 -45.117188L3.750000 -44.970703C3.671875 -44.833984 3.593750 -44.707031 3.515625 -44.589844L3.369141 -44.326172L3.134766 -43.710938C3.095703 -43.574219 3.056641 -43.437500 3.017578 -43.300781C2.978516 -43.066406 2.949219 -42.841797 2.929688 -42.626953L2.929688 -27.568359L2.958984 -27.246094L3.076172 -26.689453C3.115234 -26.513672 3.164062 -26.347656 3.222656 -26.191406L3.457031 -25.693359C3.632812 -25.380859 3.837891 -25.097656 4.072266 -24.843750L4.160156 -24.755859C4.296875 -24.599609 4.453125 -24.453125 4.628906 -24.316406L4.804688 -24.199219C4.941406 -24.101562 5.087891 -24.003906 5.244141 -23.906250L5.742188 -23.701172L6.474609 -23.466797L7.119141 -23.378906L22.177734 -23.378906L22.734375 -23.437500L23.056641 -23.525391C23.232422 -23.564453 23.398438 -23.623047 23.554688 -23.701172L23.847656 -23.818359C24.082031 -23.935547 24.296875 -24.062500 24.492188 -24.199219L24.667969 -24.316406C24.843750 -24.453125 25.000000 -24.599609 25.136719 -24.755859L25.224609 -24.843750C25.478516 -25.117188 25.693359 -25.429688 25.869141 -25.781250L26.074219 -26.191406C26.132812 -26.347656 26.181641 -26.513672 26.220703 -26.689453L26.337891 -27.246094C26.357422 -27.421875 26.367188 -27.607422 26.367188 -27.802734L26.367188 -42.509766C26.367188 -42.705078 26.347656 -42.890625 26.308594 -43.066406L26.279297 -43.300781C26.240234 -43.437500 26.201172 -43.574219 26.162109 -43.710938C26.123047 -43.886719 26.064453 -44.052734 25.986328 -44.208984L25.781250 -44.589844C25.703125 -44.707031 25.625000 -44.824219 25.546875 -44.941406L25.429688 -45.117188C25.234375 -45.371094 25.009766 -45.605469 24.755859 -45.820312L24.580078 -45.937500L24.140625 -46.230469L23.759766 -46.435547C23.603516 -46.513672 23.437500 -46.572266 23.261719 -46.611328L22.822266 -46.728516L22.294922 -46.816406L22.060547 -46.816406ZM11.513672 -42.304688C12.119141 -42.304688 12.763672 -42.207031 13.447266 -42.011719C13.642578 -41.953125 14.169922 -41.777344 15.029297 -41.484375C15.712891 -41.230469 16.220703 -41.064453 16.552734 -40.986328C17.099609 -40.869141 17.636719 -40.839844 18.164062 -40.898438C18.769531 -40.957031 19.433594 -41.142578 20.156250 -41.455078C20.546875 -41.611328 20.913086 -41.650391 21.254883 -41.572266C21.596680 -41.494141 21.835938 -41.284180 21.972656 -40.942383C22.109375 -40.600586 22.109375 -40.253906 21.972656 -39.902344C21.835938 -39.550781 21.591797 -39.296875 21.240234 -39.140625C19.990234 -38.613281 18.798828 -38.349609 17.666016 -38.349609C17.236328 -38.349609 16.796875 -38.408203 16.347656 -38.525391C16.015625 -38.623047 15.625000 -38.759766 15.175781 -38.935547L14.150391 -39.345703C13.486328 -39.580078 12.988281 -39.736328 12.656250 -39.814453C12.128906 -39.912109 11.621094 -39.921875 11.132812 -39.843750C10.566406 -39.746094 9.941406 -39.501953 9.257812 -39.111328C8.886719 -38.935547 8.525391 -38.867188 8.173828 -38.906250C7.822266 -38.945312 7.558594 -39.125977 7.382812 -39.448242C7.207031 -39.770508 7.172852 -40.112305 7.280273 -40.473633C7.387695 -40.834961 7.607422 -41.113281 7.939453 -41.308594C9.169922 -41.972656 10.361328 -42.304688 11.513672 -42.304688ZM11.337891 -37.031250C11.357422 -37.031250 11.386719 -37.031250 11.425781 -37.031250C12.031250 -37.031250 12.666016 -36.933594 13.330078 -36.738281C13.525391 -36.699219 14.052734 -36.523438 14.912109 -36.210938C15.595703 -35.957031 16.113281 -35.791016 16.464844 -35.712891C17.031250 -35.595703 17.578125 -35.566406 18.105469 -35.625000C18.750000 -35.703125 19.453125 -35.908203 20.214844 -36.240234C20.585938 -36.416016 20.942383 -36.464844 21.284180 -36.386719C21.625977 -36.308594 21.870117 -36.103516 22.016602 -35.771484C22.163086 -35.439453 22.167969 -35.097656 22.031250 -34.746094C21.894531 -34.394531 21.660156 -34.140625 21.328125 -33.984375C20.000000 -33.398438 18.740234 -33.105469 17.548828 -33.105469C17.119141 -33.105469 16.669922 -33.164062 16.201172 -33.281250C15.888672 -33.359375 15.507812 -33.486328 15.058594 -33.662109L14.003906 -34.072266C13.339844 -34.326172 12.851562 -34.482422 12.539062 -34.541016C12.031250 -34.638672 11.533203 -34.648438 11.044922 -34.570312C10.478516 -34.472656 9.853516 -34.248047 9.169922 -33.896484C8.818359 -33.701172 8.466797 -33.627930 8.115234 -33.676758C7.763672 -33.725586 7.500000 -33.911133 7.324219 -34.233398C7.148438 -34.555664 7.114258 -34.897461 7.221680 -35.258789C7.329102 -35.620117 7.548828 -35.888672 7.880859 -36.064453C9.072266 -36.708984 10.224609 -37.031250 11.337891 -37.031250ZM11.250000 -31.816406C11.835938 -31.816406 12.460938 -31.718750 13.125000 -31.523438C13.320312 -31.464844 13.847656 -31.279297 14.707031 -30.966797C15.429688 -30.712891 15.966797 -30.546875 16.318359 -30.468750C16.884766 -30.351562 17.451172 -30.332031 18.017578 -30.410156C18.662109 -30.488281 19.384766 -30.712891 20.185547 -31.083984C20.556641 -31.259766 20.913086 -31.313477 21.254883 -31.245117C21.596680 -31.176758 21.845703 -30.976562 22.001953 -30.644531C22.158203 -30.312500 22.172852 -29.975586 22.045898 -29.633789C21.918945 -29.291992 21.689453 -29.042969 21.357422 -28.886719C19.931641 -28.222656 18.593750 -27.890625 17.343750 -27.890625C16.914062 -27.890625 16.474609 -27.949219 16.025391 -28.066406C15.693359 -28.164062 15.302734 -28.300781 14.853516 -28.476562L13.828125 -28.886719C13.203125 -29.121094 12.734375 -29.267578 12.421875 -29.326172C11.914062 -29.443359 11.425781 -29.462891 10.957031 -29.384766C10.410156 -29.306641 9.804688 -29.101562 9.140625 -28.769531C8.789062 -28.593750 8.437500 -28.530273 8.085938 -28.579102C7.734375 -28.627930 7.475586 -28.818359 7.309570 -29.150391C7.143555 -29.482422 7.119141 -29.824219 7.236328 -30.175781C7.353516 -30.527344 7.578125 -30.791016 7.910156 -30.966797C9.003906 -31.513672 10.068359 -31.796875 11.103516 -31.816406ZM11.250000 -31.816406"></path></svg>