<svg width="23.437500" height="23.437500" viewBox="2.929688 -46.845703 23.437500 23.437500" xmlns="http://www.w3.org/2000/svg"><path d="M7.939453 -46.845703C7.021484 -46.845703 6.181641 -46.621094 5.419922 -46.171875C4.658203 -45.722656 4.052734 -45.117188 3.603516 -44.355469C3.154297 -43.593750 2.929688 -42.763672 2.929688 -41.865234L2.929688 -28.417969C2.929688 -27.519531 3.154297 -26.684570 3.603516 -25.913086C4.052734 -25.141602 4.658203 -24.531250 5.419922 -24.082031C6.181641 -23.632812 7.021484 -23.408203 7.939453 -23.408203L21.357422 -23.408203C22.275391 -23.408203 23.115234 -23.632812 23.876953 -24.082031C24.638672 -24.531250 25.244141 -25.141602 25.693359 -25.913086C26.142578 -26.684570 26.367188 -27.519531 26.367188 -28.417969L26.367188 -41.865234C26.367188 -42.763672 26.142578 -43.593750 25.693359 -44.355469C25.244141 -45.117188 24.638672 -45.722656 23.876953 -46.171875C23.115234 -46.621094 22.275391 -46.845703 21.357422 -46.845703ZM14.707031 -37.031250C15.273438 -37.031250 15.761719 -36.826172 16.171875 -36.416016C16.582031 -36.005859 16.787109 -35.512695 16.787109 -34.936523C16.787109 -34.360352 16.582031 -33.867188 16.171875 -33.457031C15.761719 -33.046875 15.268555 -32.841797 14.692383 -32.841797C14.116211 -32.841797 13.623047 -33.046875 13.212891 -33.457031C12.802734 -33.867188 12.597656 -34.360352 12.597656 -34.936523C12.597656 -35.512695 12.802734 -36.005859 13.212891 -36.416016C13.623047 -36.826172 14.121094 -37.031250 14.707031 -37.031250ZM14.707031 -37.031250"></path></svg>