<svg width="28.251953" height="25.048828" viewBox="0.556641 -49.912109 28.251953 25.048828" xmlns="http://www.w3.org/2000/svg"><path d="M19.248047 -49.892578C18.603516 -49.892578 17.919922 -49.814453 17.197266 -49.658203C17.763672 -49.443359 18.427734 -49.091797 19.189453 -48.603516C19.619141 -48.330078 19.921875 -48.105469 20.097656 -47.929688C20.351562 -47.656250 20.429688 -47.392578 20.332031 -47.138672C19.980469 -46.513672 19.365234 -46.230469 18.486328 -46.289062C17.900391 -46.328125 17.216797 -46.523438 16.435547 -46.875000L15.498047 -47.343750C15.087891 -47.539062 14.746094 -47.695312 14.472656 -47.812500C14.101562 -47.949219 13.750000 -48.046875 13.417969 -48.105469C13.046875 -48.164062 12.695312 -48.164062 12.363281 -48.105469C11.269531 -47.910156 10.380859 -46.835938 9.697266 -44.882812C10.693359 -45.175781 11.572266 -45.283203 12.333984 -45.205078C13.369141 -45.107422 14.091797 -44.677734 14.501953 -43.916016C14.736328 -43.466797 14.873047 -42.934570 14.912109 -42.319336C14.951172 -41.704102 14.873047 -41.152344 14.677734 -40.664062C14.443359 -40.097656 14.082031 -39.716797 13.593750 -39.521484C13.183594 -39.365234 12.783203 -39.316406 12.392578 -39.375000C12.041016 -39.414062 11.679688 -39.541016 11.308594 -39.755859C11.074219 -39.892578 10.742188 -40.122070 10.312500 -40.444336C9.882812 -40.766602 9.570312 -40.986328 9.375000 -41.103516C8.457031 -41.611328 7.724609 -41.933594 7.177734 -42.070312C6.201172 -42.304688 5.527344 -42.070312 5.156250 -41.367188C5.000000 -41.093750 4.902344 -40.771484 4.863281 -40.400391C4.843750 -40.185547 4.843750 -39.853516 4.863281 -39.404297C4.882812 -38.955078 4.882812 -38.623047 4.863281 -38.408203C4.824219 -38.056641 4.736328 -37.744141 4.599609 -37.470703C4.345703 -36.982422 3.974609 -36.650391 3.486328 -36.474609C3.095703 -36.318359 2.617188 -36.259766 2.050781 -36.298828C1.777344 -36.318359 1.279297 -36.376953 0.556641 -36.474609C1.064453 -35.986328 1.396484 -35.673828 1.552734 -35.537109C2.392578 -34.892578 3.173828 -34.628906 3.896484 -34.746094C4.248047 -34.824219 4.570312 -34.951172 4.863281 -35.126953C5.097656 -35.283203 5.361328 -35.498047 5.654297 -35.771484C5.771484 -35.888672 5.927734 -36.069336 6.123047 -36.313477C6.318359 -36.557617 6.474609 -36.738281 6.591797 -36.855469C6.767578 -37.011719 6.972656 -37.128906 7.207031 -37.207031C7.812500 -37.382812 8.427734 -37.314453 9.052734 -37.001953C9.677734 -36.689453 10.205078 -36.240234 10.634766 -35.654297C11.083984 -35.009766 11.279297 -34.355469 11.220703 -33.691406C11.181641 -33.066406 10.800781 -32.490234 10.078125 -31.962891C9.687500 -31.689453 9.082031 -31.494141 8.261719 -31.376953C8.750000 -30.712891 9.414062 -30.292969 10.253906 -30.117188C10.820312 -30.000000 11.689453 -30.000000 12.861328 -30.117188C13.232422 -30.136719 13.750000 -30.234375 14.414062 -30.410156C15.175781 -30.625000 15.703125 -30.761719 15.996094 -30.820312C16.601562 -30.917969 17.128906 -30.908203 17.578125 -30.791016C18.105469 -30.673828 18.437500 -30.419922 18.574219 -30.029297C18.710938 -29.697266 18.686523 -29.316406 18.500977 -28.886719C18.315430 -28.457031 18.046875 -28.095703 17.695312 -27.802734C16.660156 -26.962891 15.205078 -26.621094 13.330078 -26.777344C14.521484 -26.191406 15.644531 -25.751953 16.699219 -25.458984C18.554688 -24.931641 20.244141 -24.863281 21.767578 -25.253906C23.173828 -25.605469 24.404297 -26.337891 25.458984 -27.451172C26.435547 -28.466797 27.207031 -29.746094 27.773438 -31.289062C28.300781 -32.753906 28.613281 -34.340820 28.710938 -36.049805C28.808594 -37.758789 28.671875 -39.423828 28.300781 -41.044922C27.929688 -42.724609 27.363281 -44.208984 26.601562 -45.498047C25.761719 -46.884766 24.746094 -47.949219 23.554688 -48.691406C22.265625 -49.511719 20.830078 -49.912109 19.248047 -49.892578ZM24.902344 -44.355469C25.117188 -44.355469 25.283203 -44.277344 25.400391 -44.121094C26.083984 -43.066406 26.611328 -41.938477 26.982422 -40.737305C27.353516 -39.536133 27.539062 -38.295898 27.539062 -37.016602C27.539062 -35.737305 27.348633 -34.487305 26.967773 -33.266602C26.586914 -32.045898 26.025391 -30.908203 25.283203 -29.853516C25.205078 -29.716797 25.087891 -29.633789 24.931641 -29.604492C24.775391 -29.575195 24.633789 -29.609375 24.506836 -29.707031C24.379883 -29.804688 24.301758 -29.926758 24.272461 -30.073242C24.243164 -30.219727 24.267578 -30.361328 24.345703 -30.498047C25.029297 -31.455078 25.541992 -32.490234 25.883789 -33.603516C26.225586 -34.716797 26.396484 -35.854492 26.396484 -37.016602C26.396484 -38.178711 26.230469 -39.306641 25.898438 -40.400391C25.566406 -41.494141 25.078125 -42.519531 24.433594 -43.476562C24.355469 -43.613281 24.331055 -43.759766 24.360352 -43.916016C24.389648 -44.072266 24.462891 -44.184570 24.580078 -44.252930C24.697266 -44.321289 24.804688 -44.355469 24.902344 -44.355469ZM22.822266 -42.978516C23.017578 -42.978516 23.173828 -42.890625 23.291016 -42.714844C24.443359 -40.996094 25.019531 -39.096680 25.019531 -37.016602C25.019531 -34.936523 24.414062 -33.027344 23.203125 -31.289062C23.125000 -31.152344 23.007812 -31.069336 22.851562 -31.040039C22.695312 -31.010742 22.553711 -31.040039 22.426758 -31.127930C22.299805 -31.215820 22.221680 -31.337891 22.192383 -31.494141C22.163086 -31.650391 22.197266 -31.787109 22.294922 -31.904297C23.349609 -33.466797 23.876953 -35.170898 23.876953 -37.016602C23.876953 -38.862305 23.369141 -40.546875 22.353516 -42.070312C22.255859 -42.207031 22.226562 -42.353516 22.265625 -42.509766C22.304688 -42.666016 22.382812 -42.783203 22.500000 -42.861328C22.617188 -42.939453 22.724609 -42.978516 22.822266 -42.978516ZM20.625000 -41.484375C20.820312 -41.484375 20.976562 -41.406250 21.093750 -41.250000C21.933594 -39.980469 22.353516 -38.574219 22.353516 -37.031250C22.353516 -35.488281 21.914062 -34.072266 21.035156 -32.783203C20.937500 -32.646484 20.815430 -32.563477 20.668945 -32.534180C20.522461 -32.504883 20.385742 -32.534180 20.258789 -32.622070C20.131836 -32.709961 20.053711 -32.832031 20.024414 -32.988281C19.995117 -33.144531 20.019531 -33.291016 20.097656 -33.427734C20.859375 -34.501953 21.240234 -35.698242 21.240234 -37.016602C21.240234 -38.334961 20.878906 -39.531250 20.156250 -40.605469C20.058594 -40.742188 20.024414 -40.883789 20.053711 -41.030273C20.083008 -41.176758 20.156250 -41.289062 20.273438 -41.367188C20.390625 -41.445312 20.507812 -41.484375 20.625000 -41.484375ZM20.625000 -41.484375"></path></svg>