<svg width="18.076172" height="24.902344" viewBox="5.654297 -49.716797 18.076172 24.902344" xmlns="http://www.w3.org/2000/svg"><path d="M10.283203 -49.716797L10.283203 -45.937500L8.818359 -45.937500L5.654297 -45.937500L5.654297 -43.476562L6.503906 -43.505859C7.070312 -43.505859 7.343750 -43.496094 7.324219 -43.476562C8.085938 -43.476562 8.525391 -43.144531 8.642578 -42.480469L8.642578 -38.173828L8.876953 -38.173828L8.642578 -38.173828L8.642578 -32.138672C8.623047 -31.943359 8.554688 -31.787109 8.437500 -31.669922C8.281250 -31.474609 8.066406 -31.376953 7.792969 -31.376953C7.792969 -31.376953 7.509766 -31.376953 6.943359 -31.376953L6.123047 -31.376953L5.654297 -28.652344L10.283203 -28.623047L10.283203 -24.814453L12.568359 -24.814453L12.568359 -28.593750C13.173828 -28.574219 13.789062 -28.564453 14.414062 -28.564453L14.414062 -24.814453L16.699219 -24.814453L16.699219 -28.623047C18.847656 -28.740234 20.439453 -29.121094 21.474609 -29.765625C22.744141 -30.527344 23.457031 -31.757812 23.613281 -33.457031C23.730469 -34.843750 23.486328 -35.927734 22.880859 -36.708984C22.333984 -37.412109 21.474609 -37.910156 20.302734 -38.203125C21.806641 -38.964844 22.470703 -40.244141 22.294922 -42.041016C22.158203 -43.310547 21.562500 -44.267578 20.507812 -44.912109C19.628906 -45.458984 18.359375 -45.800781 16.699219 -45.937500L16.699219 -49.716797L14.414062 -49.716797L14.414062 -46.054688L12.568359 -46.025391L12.568359 -49.716797ZM13.798828 -43.359375C14.970703 -43.359375 15.888672 -43.232422 16.552734 -42.978516C17.529297 -42.607422 18.007812 -41.953125 17.988281 -41.015625C17.988281 -40.703125 17.934570 -40.429688 17.827148 -40.195312C17.719727 -39.960938 17.563477 -39.760742 17.358398 -39.594727C17.153320 -39.428711 16.923828 -39.291992 16.669922 -39.184570C16.416016 -39.077148 16.137695 -38.989258 15.834961 -38.920898C15.532227 -38.852539 15.224609 -38.808594 14.912109 -38.789062C14.638672 -38.750000 14.345703 -38.730469 14.033203 -38.730469L12.626953 -38.730469L12.626953 -43.330078ZM14.033203 -36.445312C15.439453 -36.445312 16.533203 -36.308594 17.314453 -36.035156C18.486328 -35.644531 19.072266 -34.931641 19.072266 -33.896484C19.072266 -33.544922 19.003906 -33.237305 18.867188 -32.973633C18.730469 -32.709961 18.540039 -32.485352 18.295898 -32.299805C18.051758 -32.114258 17.773438 -31.962891 17.460938 -31.845703C17.148438 -31.728516 16.806641 -31.630859 16.435547 -31.552734C16.103516 -31.494141 15.742188 -31.445312 15.351562 -31.406250C15.019531 -31.386719 14.667969 -31.376953 14.296875 -31.376953L12.626953 -31.376953L12.626953 -36.416016ZM14.033203 -36.445312"></path></svg>