<svg width="25.234375" height="25.087891" viewBox="2.031250 -49.921875 25.234375 25.087891" xmlns="http://www.w3.org/2000/svg"><path d="M14.560547 -49.902344C12.705078 -49.882812 10.952148 -49.477539 9.301758 -48.686523C7.651367 -47.895508 6.240234 -46.806641 5.068359 -45.419922C3.857422 -43.955078 3.027344 -42.304688 2.578125 -40.468750C2.031250 -38.281250 2.070312 -36.113281 2.695312 -33.964844C3.300781 -31.875000 4.384766 -30.068359 5.947266 -28.544922C7.548828 -26.982422 9.443359 -25.927734 11.630859 -25.380859C13.818359 -24.833984 15.986328 -24.873047 18.134766 -25.498047C20.224609 -26.123047 22.031250 -27.207031 23.554688 -28.750000C25.117188 -30.351562 26.171875 -32.246094 26.718750 -34.433594C27.265625 -36.621094 27.226562 -38.798828 26.601562 -40.966797C25.976562 -43.037109 24.892578 -44.833984 23.349609 -46.357422C21.748047 -47.939453 19.853516 -48.994141 17.666016 -49.521484C16.630859 -49.794922 15.595703 -49.921875 14.560547 -49.902344ZM14.150391 -45.566406L15.498047 -45.214844L14.941406 -43.017578L16.054688 -42.783203L16.582031 -44.951172L17.958984 -44.628906L17.402344 -42.373047C18.359375 -42.041016 19.062500 -41.650391 19.511719 -41.201172C20.039062 -40.654297 20.244141 -40.000000 20.126953 -39.238281C19.970703 -38.125000 19.394531 -37.451172 18.398438 -37.216797C19.042969 -36.884766 19.472656 -36.464844 19.687500 -35.957031C19.941406 -35.390625 19.931641 -34.707031 19.658203 -33.906250C19.306641 -32.929688 18.701172 -32.304688 17.841797 -32.031250C17.119141 -31.816406 16.113281 -31.826172 14.824219 -32.060547L14.267578 -29.804688L12.890625 -30.156250L13.447266 -32.382812L12.363281 -32.646484L11.806641 -30.419922L10.429688 -30.742188L11.015625 -33.027344L8.261719 -33.730469L8.935547 -35.283203L9.433594 -35.136719C9.765625 -35.058594 9.931641 -35.029297 9.931641 -35.048828C10.224609 -34.970703 10.429688 -35.078125 10.546875 -35.371094L11.455078 -38.945312L11.601562 -38.916016L11.455078 -38.945312L12.070312 -41.523438C12.109375 -41.933594 11.904297 -42.197266 11.455078 -42.314453C11.455078 -42.314453 11.289062 -42.353516 10.957031 -42.431641L10.458984 -42.548828L10.810547 -44.013672L12.714844 -43.544922L12.685547 -43.544922L13.564453 -43.310547ZM14.589844 -41.406250L13.916016 -38.681641C14.580078 -38.525391 14.970703 -38.437500 15.087891 -38.417969C15.673828 -38.300781 16.152344 -38.291016 16.523438 -38.388672C17.011719 -38.505859 17.314453 -38.798828 17.431641 -39.267578C17.509766 -39.560547 17.490234 -39.824219 17.373047 -40.058594C17.255859 -40.292969 17.070312 -40.488281 16.816406 -40.644531C16.621094 -40.800781 16.357422 -40.927734 16.025391 -41.025391C15.810547 -41.123047 15.537109 -41.201172 15.205078 -41.259766C14.443359 -41.455078 14.238281 -41.503906 14.589844 -41.406250ZM13.564453 -37.304688L12.802734 -34.316406C13.603516 -34.101562 13.935547 -34.013672 13.798828 -34.052734C14.287109 -33.935547 14.716797 -33.867188 15.087891 -33.847656C15.595703 -33.828125 16.005859 -33.886719 16.318359 -34.023438C16.689453 -34.179688 16.923828 -34.453125 17.021484 -34.843750C17.099609 -35.175781 17.070312 -35.473633 16.933594 -35.737305C16.796875 -36.000977 16.572266 -36.230469 16.259766 -36.425781C16.005859 -36.582031 15.683594 -36.728516 15.292969 -36.865234C15.019531 -36.962891 14.697266 -37.050781 14.326172 -37.128906C13.369141 -37.363281 13.115234 -37.421875 13.564453 -37.304688ZM13.564453 -37.304688"></path></svg>