<svg width="29.296875" height="22.470703" viewBox="0.000000 -44.882812 29.296875 22.470703" xmlns="http://www.w3.org/2000/svg"><path d="M1.083984 -44.882812C0.771484 -44.882812 0.512695 -44.775391 0.307617 -44.560547C0.102539 -44.345703 0.000000 -44.091797 0.000000 -43.798828L0.000000 -23.466797C0.000000 -23.173828 0.102539 -22.924805 0.307617 -22.719727C0.512695 -22.514648 0.771484 -22.412109 1.083984 -22.412109L19.335938 -22.412109C19.414062 -22.412109 19.521484 -22.519531 19.658203 -22.734375L19.658203 -22.412109L29.296875 -33.632812L19.658203 -44.882812L19.658203 -44.531250C19.501953 -44.765625 19.394531 -44.882812 19.335938 -44.882812ZM3.222656 -41.484375L7.236328 -41.484375L7.236328 -26.132812L3.222656 -26.132812ZM10.166016 -41.484375L15.585938 -41.484375C16.269531 -41.484375 16.855469 -41.435547 17.343750 -41.337891C18.066406 -41.181641 18.701172 -40.908203 19.248047 -40.517578C20.107422 -39.931641 20.742188 -39.106445 21.152344 -38.041992C21.562500 -36.977539 21.767578 -35.654297 21.767578 -34.072266C21.767578 -32.763672 21.650391 -31.660156 21.416016 -30.761719C21.142578 -29.687500 20.673828 -28.759766 20.009766 -27.978516C19.501953 -27.353516 18.925781 -26.894531 18.281250 -26.601562C17.578125 -26.289062 16.728516 -26.132812 15.732422 -26.132812L10.166016 -26.132812ZM14.121094 -38.232422L14.121094 -29.414062L15.439453 -29.414062C15.869141 -29.414062 16.201172 -29.511719 16.435547 -29.707031C16.748047 -29.960938 16.982422 -30.419922 17.138672 -31.083984C17.333984 -31.826172 17.431641 -32.871094 17.431641 -34.218750C17.431641 -35.351562 17.333984 -36.220703 17.138672 -36.826172C16.982422 -37.392578 16.738281 -37.783203 16.406250 -37.998047C16.132812 -38.154297 15.771484 -38.232422 15.322266 -38.232422ZM14.121094 -38.232422"></path></svg>