<svg width="23.437500" height="23.437500" viewBox="2.929688 -46.816406 23.437500 23.437500" xmlns="http://www.w3.org/2000/svg"><path d="M14.648438 -46.816406C12.519531 -46.816406 10.546875 -46.279297 8.730469 -45.205078C6.972656 -44.169922 5.576172 -42.763672 4.541016 -40.986328C3.466797 -39.169922 2.929688 -37.202148 2.929688 -35.083008C2.929688 -32.963867 3.466797 -30.996094 4.541016 -29.179688C5.576172 -27.402344 6.972656 -25.996094 8.730469 -24.960938C10.546875 -23.906250 12.519531 -23.378906 14.648438 -23.378906C16.777344 -23.378906 18.750000 -23.906250 20.566406 -24.960938C22.343750 -25.996094 23.750000 -27.402344 24.785156 -29.179688C25.839844 -30.996094 26.367188 -32.968750 26.367188 -35.097656L26.367188 -35.214844L20.419922 -35.214844C19.853516 -35.214844 19.331055 -35.356445 18.852539 -35.639648C18.374023 -35.922852 17.993164 -36.303711 17.709961 -36.782227C17.426758 -37.260742 17.285156 -37.783203 17.285156 -38.349609C17.285156 -39.150391 17.553711 -39.848633 18.090820 -40.444336C18.627930 -41.040039 19.287109 -41.386719 20.068359 -41.484375C20.146484 -41.660156 20.268555 -41.806641 20.434570 -41.923828C20.600586 -42.041016 20.786133 -42.099609 20.991211 -42.099609C21.196289 -42.099609 21.381836 -42.045898 21.547852 -41.938477C21.713867 -41.831055 21.835938 -41.689453 21.914062 -41.513672L24.462891 -41.513672C23.408203 -43.134766 22.021484 -44.414062 20.302734 -45.351562C18.564453 -46.328125 16.679688 -46.816406 14.648438 -46.816406ZM21.914062 -40.751953C21.835938 -40.576172 21.713867 -40.429688 21.547852 -40.312500C21.381836 -40.195312 21.196289 -40.136719 20.991211 -40.136719C20.786133 -40.136719 20.605469 -40.190430 20.449219 -40.297852C20.292969 -40.405273 20.175781 -40.546875 20.097656 -40.722656C19.511719 -40.644531 19.018555 -40.380859 18.618164 -39.931641C18.217773 -39.482422 18.017578 -38.955078 18.017578 -38.349609C18.017578 -37.685547 18.251953 -37.124023 18.720703 -36.665039C19.189453 -36.206055 19.755859 -35.976562 20.419922 -35.976562L26.337891 -35.976562C26.220703 -37.675781 25.742188 -39.267578 24.902344 -40.751953ZM21.914062 -40.751953"></path></svg>