<svg width="23.437500" height="23.437500" viewBox="2.929688 -46.757812 23.437500 23.437500" xmlns="http://www.w3.org/2000/svg"><path d="M14.619141 -46.757812C11.396484 -46.757812 8.652344 -45.625000 6.386719 -43.359375C4.082031 -41.015625 2.929688 -38.242188 2.929688 -35.039062C2.929688 -31.835938 4.086914 -29.082031 6.401367 -26.777344C8.715820 -24.472656 11.455078 -23.320312 14.619141 -23.320312C17.841797 -23.320312 20.644531 -24.482422 23.027344 -26.806641C25.253906 -28.994141 26.367188 -31.733398 26.367188 -35.024414C26.367188 -38.315430 25.234375 -41.093750 22.968750 -43.359375C20.703125 -45.625000 17.919922 -46.757812 14.619141 -46.757812ZM14.677734 -44.648438C17.314453 -44.648438 19.570312 -43.710938 21.445312 -41.835938C23.320312 -39.960938 24.257812 -37.695312 24.257812 -35.039062C24.257812 -32.324219 23.339844 -30.087891 21.503906 -28.330078C19.550781 -26.416016 17.265625 -25.458984 14.648438 -25.458984C12.031250 -25.458984 9.775391 -26.406250 7.880859 -28.300781C5.986328 -30.195312 5.039062 -32.436523 5.039062 -35.024414C5.039062 -37.612305 5.996094 -39.882812 7.910156 -41.835938C9.746094 -43.710938 12.001953 -44.648438 14.677734 -44.648438ZM14.648438 -42.597656C13.554688 -42.597656 13.007812 -42.050781 13.007812 -40.957031C13.007812 -39.863281 13.554688 -39.316406 14.648438 -39.316406C15.742188 -39.316406 16.289062 -39.863281 16.289062 -40.957031C16.289062 -42.050781 15.742188 -42.597656 14.648438 -42.597656ZM12.246094 -38.701172C12.031250 -38.701172 11.850586 -38.627930 11.704102 -38.481445C11.557617 -38.334961 11.484375 -38.154297 11.484375 -37.939453L11.484375 -33.164062L12.832031 -33.164062L12.832031 -27.451172L16.464844 -27.451172L16.464844 -33.164062L17.812500 -33.164062L17.812500 -37.939453C17.812500 -38.154297 17.734375 -38.334961 17.578125 -38.481445C17.421875 -38.627930 17.246094 -38.701172 17.050781 -38.701172ZM12.246094 -38.701172"></path></svg>