<svg width="23.437500" height="23.437500" viewBox="2.929688 -46.787109 23.437500 23.437500" xmlns="http://www.w3.org/2000/svg"><path d="M14.619141 -46.787109C11.396484 -46.787109 8.652344 -45.644531 6.386719 -43.359375C4.082031 -41.015625 2.929688 -38.242188 2.929688 -35.039062C2.929688 -31.835938 4.086914 -29.086914 6.401367 -26.791992C8.715820 -24.497070 11.455078 -23.349609 14.619141 -23.349609C17.861328 -23.349609 20.664062 -24.501953 23.027344 -26.806641C25.253906 -29.033203 26.367188 -31.782227 26.367188 -35.053711C26.367188 -38.325195 25.229492 -41.098633 22.954102 -43.374023C20.678711 -45.649414 17.900391 -46.787109 14.619141 -46.787109ZM14.677734 -44.648438C17.333984 -44.648438 19.589844 -43.710938 21.445312 -41.835938C23.320312 -40.000000 24.257812 -37.739258 24.257812 -35.053711C24.257812 -32.368164 23.339844 -30.126953 21.503906 -28.330078C19.550781 -26.416016 17.265625 -25.458984 14.648438 -25.458984C12.031250 -25.458984 9.775391 -26.406250 7.880859 -28.300781C5.986328 -30.195312 5.039062 -32.441406 5.039062 -35.039062C5.039062 -37.636719 5.996094 -39.902344 7.910156 -41.835938C9.746094 -43.710938 12.001953 -44.648438 14.677734 -44.648438ZM10.576172 -37.822266L10.576172 -35.800781L19.072266 -35.800781L19.072266 -37.822266ZM10.576172 -34.042969L10.576172 -32.050781L19.072266 -32.050781L19.072266 -34.042969ZM10.576172 -34.042969"></path></svg>