<svg width="23.437500" height="23.437500" viewBox="2.929688 -46.757812 23.437500 23.437500" xmlns="http://www.w3.org/2000/svg"><path d="M14.648438 -46.757812C11.386719 -46.757812 8.632812 -45.625000 6.386719 -43.359375C4.082031 -41.015625 2.929688 -38.242188 2.929688 -35.039062C2.929688 -31.835938 4.082031 -29.082031 6.386719 -26.777344C8.691406 -24.472656 11.450195 -23.320312 14.663086 -23.320312C17.875977 -23.320312 20.664062 -24.482422 23.027344 -26.806641C25.253906 -29.013672 26.367188 -31.757812 26.367188 -35.039062C26.367188 -38.320312 25.234375 -41.093750 22.968750 -43.359375C20.703125 -45.625000 17.929688 -46.757812 14.648438 -46.757812ZM14.677734 -44.648438C17.333984 -44.648438 19.594727 -43.715820 21.459961 -41.850586C23.325195 -39.985352 24.257812 -37.714844 24.257812 -35.039062C24.257812 -34.160156 24.160156 -33.330078 23.964844 -32.548828L17.519531 -35.390625L17.695312 -35.390625L17.695312 -36.796875L14.384766 -36.796875L13.037109 -37.382812C13.154297 -37.656250 13.291016 -37.880859 13.447266 -38.056641C14.013672 -38.759766 14.814453 -39.111328 15.849609 -39.111328C16.572266 -39.111328 17.294922 -38.955078 18.017578 -38.642578L18.574219 -40.898438C17.695312 -41.289062 16.718750 -41.484375 15.644531 -41.484375C14.726562 -41.484375 13.881836 -41.308594 13.110352 -40.957031C12.338867 -40.605469 11.669922 -40.107422 11.103516 -39.462891C10.888672 -39.208984 10.673828 -38.896484 10.458984 -38.525391L6.591797 -40.224609C6.962891 -40.791016 7.402344 -41.328125 7.910156 -41.835938C9.746094 -43.710938 12.001953 -44.648438 14.677734 -44.648438ZM5.566406 -38.144531L8.671875 -36.796875L8.437500 -36.796875L8.437500 -35.390625L9.550781 -35.390625L9.521484 -34.482422L8.437500 -34.482422L8.437500 -33.076172L9.726562 -33.076172C9.882812 -32.080078 10.239258 -31.225586 10.795898 -30.512695C11.352539 -29.799805 12.050781 -29.252930 12.890625 -28.872070C13.730469 -28.491211 14.628906 -28.300781 15.585938 -28.300781C16.171875 -28.300781 16.757812 -28.378906 17.343750 -28.535156C17.851562 -28.652344 18.291016 -28.818359 18.662109 -29.033203L18.193359 -31.201172C17.939453 -31.083984 17.626953 -30.976562 17.255859 -30.878906C16.806641 -30.761719 16.367188 -30.703125 15.937500 -30.703125C14.843750 -30.703125 14.003906 -31.035156 13.417969 -31.699219C13.125000 -32.031250 12.910156 -32.490234 12.773438 -33.076172L17.050781 -33.076172L23.085938 -30.380859C22.675781 -29.638672 22.148438 -28.955078 21.503906 -28.330078C19.570312 -26.416016 17.290039 -25.458984 14.663086 -25.458984C12.036133 -25.458984 9.775391 -26.406250 7.880859 -28.300781C5.986328 -30.195312 5.039062 -32.441406 5.039062 -35.039062C5.039062 -36.132812 5.214844 -37.167969 5.566406 -38.144531ZM5.566406 -38.144531"></path></svg>