<svg width="23.437500" height="23.437500" viewBox="2.929688 -46.757812 23.437500 23.437500" xmlns="http://www.w3.org/2000/svg"><path d="M14.619141 -46.757812C11.396484 -46.757812 8.652344 -45.625000 6.386719 -43.359375C4.082031 -41.015625 2.929688 -38.242188 2.929688 -35.039062C2.929688 -31.835938 4.082031 -29.082031 6.386719 -26.777344C8.691406 -24.472656 11.445312 -23.320312 14.648438 -23.320312C17.851562 -23.320312 20.644531 -24.482422 23.027344 -26.806641C25.253906 -28.994141 26.367188 -31.733398 26.367188 -35.024414C26.367188 -38.315430 25.234375 -41.093750 22.968750 -43.359375C20.703125 -45.625000 17.919922 -46.757812 14.619141 -46.757812ZM14.677734 -44.648438C17.333984 -44.648438 19.589844 -43.710938 21.445312 -41.835938C23.320312 -40.000000 24.257812 -37.734375 24.257812 -35.039062C24.257812 -34.179688 24.160156 -33.339844 23.964844 -32.519531L13.564453 -37.177734C13.486328 -37.275391 13.447266 -37.373047 13.447266 -37.470703C13.447266 -37.802734 13.593750 -38.037109 13.886719 -38.173828C14.179688 -38.310547 14.501953 -38.378906 14.853516 -38.378906C15.537109 -38.378906 16.210938 -38.154297 16.875000 -37.705078L18.398438 -39.257812C17.519531 -39.921875 16.542969 -40.283203 15.468750 -40.341797L15.468750 -42.158203L14.091797 -42.158203L14.091797 -40.341797C13.369141 -40.302734 12.739258 -40.097656 12.202148 -39.726562C11.665039 -39.355469 11.298828 -38.867188 11.103516 -38.261719L6.621094 -40.253906C7.011719 -40.839844 7.441406 -41.367188 7.910156 -41.835938C9.746094 -43.710938 12.001953 -44.648438 14.677734 -44.648438ZM5.566406 -38.203125L11.542969 -35.507812L13.417969 -34.687500L14.794922 -34.072266L15.937500 -33.603516C16.132812 -33.408203 16.230469 -33.164062 16.230469 -32.871094C16.230469 -32.460938 16.088867 -32.163086 15.805664 -31.977539C15.522461 -31.791992 15.175781 -31.699219 14.765625 -31.699219C13.789062 -31.699219 12.919922 -32.060547 12.158203 -32.783203L10.546875 -31.142578C11.621094 -30.224609 12.802734 -29.755859 14.091797 -29.736328L14.091797 -27.949219L15.468750 -27.949219L15.468750 -29.736328C16.269531 -29.814453 16.967773 -30.087891 17.563477 -30.556641C18.159180 -31.025391 18.535156 -31.621094 18.691406 -32.343750L23.115234 -30.380859C22.724609 -29.677734 22.187500 -28.994141 21.503906 -28.330078C19.589844 -26.416016 17.319336 -25.458984 14.692383 -25.458984C12.065430 -25.458984 9.799805 -26.406250 7.895508 -28.300781C5.991211 -30.195312 5.039062 -32.441406 5.039062 -35.039062C5.039062 -36.171875 5.214844 -37.226562 5.566406 -38.203125ZM5.566406 -38.203125"></path></svg>