<svg width="23.437500" height="23.437500" viewBox="2.929688 -46.757812 23.437500 23.437500" xmlns="http://www.w3.org/2000/svg"><path d="M14.619141 -46.757812C11.376953 -46.757812 8.632812 -45.625000 6.386719 -43.359375C4.082031 -41.015625 2.929688 -38.242188 2.929688 -35.039062C2.929688 -31.835938 4.082031 -29.082031 6.386719 -26.777344C8.691406 -24.472656 11.450195 -23.320312 14.663086 -23.320312C17.875977 -23.320312 20.664062 -24.482422 23.027344 -26.806641C25.253906 -29.013672 26.367188 -31.757812 26.367188 -35.039062C26.367188 -38.320312 25.234375 -41.093750 22.968750 -43.359375C20.703125 -45.625000 17.919922 -46.757812 14.619141 -46.757812ZM14.677734 -44.648438C17.333984 -44.648438 19.594727 -43.715820 21.459961 -41.850586C23.325195 -39.985352 24.257812 -37.714844 24.257812 -35.039062C24.257812 -34.042969 24.130859 -33.115234 23.876953 -32.255859L19.101562 -34.365234L19.101562 -35.214844L17.285156 -35.214844L20.273438 -40.693359L17.138672 -40.693359L15.117188 -36.152344L14.003906 -36.650391L12.158203 -40.693359L9.023438 -40.693359L10.312500 -38.291016L6.445312 -39.990234C6.855469 -40.634766 7.343750 -41.250000 7.910156 -41.835938C9.746094 -43.710938 12.001953 -44.648438 14.677734 -44.648438ZM5.478516 -37.880859L11.455078 -35.214844L10.136719 -35.214844L10.136719 -33.369141L12.890625 -33.369141L13.154297 -32.812500L13.154297 -31.933594L10.136719 -31.933594L10.136719 -30.117188L13.154297 -30.117188L13.154297 -27.480469L16.083984 -27.480469L16.083984 -30.117188L19.101562 -30.117188L19.101562 -31.816406L22.939453 -30.087891C22.548828 -29.462891 22.070312 -28.876953 21.503906 -28.330078C19.570312 -26.416016 17.290039 -25.458984 14.663086 -25.458984C12.036133 -25.458984 9.775391 -26.406250 7.880859 -28.300781C5.986328 -30.195312 5.039062 -32.441406 5.039062 -35.039062C5.039062 -36.035156 5.185547 -36.982422 5.478516 -37.880859ZM16.230469 -33.105469L18.808594 -31.933594L16.083984 -31.933594L16.083984 -32.812500ZM16.230469 -33.105469"></path></svg>