<svg width="23.437500" height="23.437500" viewBox="2.929688 -46.787109 23.437500 23.437500" xmlns="http://www.w3.org/2000/svg"><path d="M14.648438 -46.787109C12.519531 -46.787109 10.546875 -46.250000 8.730469 -45.175781C6.972656 -44.140625 5.576172 -42.744141 4.541016 -40.986328C3.466797 -39.169922 2.929688 -37.197266 2.929688 -35.068359C2.929688 -32.939453 3.466797 -30.966797 4.541016 -29.150391C5.576172 -27.392578 6.972656 -25.996094 8.730469 -24.960938C10.546875 -23.886719 12.519531 -23.349609 14.648438 -23.349609C16.777344 -23.349609 18.750000 -23.886719 20.566406 -24.960938C22.324219 -25.996094 23.720703 -27.392578 24.755859 -29.150391C25.830078 -30.966797 26.367188 -32.939453 26.367188 -35.068359C26.367188 -37.197266 25.830078 -39.169922 24.755859 -40.986328C23.720703 -42.744141 22.324219 -44.140625 20.566406 -45.175781C18.750000 -46.250000 16.777344 -46.787109 14.648438 -46.787109ZM14.648438 -44.589844C16.367188 -44.589844 17.968750 -44.160156 19.453125 -43.300781C20.878906 -42.441406 22.021484 -41.298828 22.880859 -39.873047C23.740234 -38.388672 24.169922 -36.787109 24.169922 -35.068359C24.169922 -34.228516 24.062500 -33.408203 23.847656 -32.607422L23.818359 -32.636719L13.242188 -37.353516C13.691406 -38.173828 14.326172 -38.583984 15.146484 -38.583984C15.595703 -38.583984 16.015625 -38.447266 16.406250 -38.173828C16.542969 -38.076172 16.660156 -37.978516 16.757812 -37.880859L18.691406 -39.843750C17.675781 -40.703125 16.435547 -41.132812 14.970703 -41.132812C13.896484 -41.132812 12.949219 -40.908203 12.128906 -40.458984C11.347656 -40.048828 10.712891 -39.462891 10.224609 -38.701172L6.679688 -40.283203C7.558594 -41.611328 8.681641 -42.656250 10.048828 -43.417969C11.474609 -44.199219 13.007812 -44.589844 14.648438 -44.589844ZM5.654297 -38.203125L9.375000 -36.533203C9.277344 -36.025391 9.228516 -35.507812 9.228516 -34.980469C9.228516 -33.535156 9.560547 -32.324219 10.224609 -31.347656C10.771484 -30.527344 11.523438 -29.912109 12.480469 -29.501953C13.261719 -29.169922 14.072266 -29.003906 14.912109 -29.003906C16.123047 -29.003906 17.226562 -29.345703 18.222656 -30.029297C18.378906 -30.146484 18.525391 -30.263672 18.662109 -30.380859L16.962891 -32.460938L16.816406 -32.314453C16.367188 -31.884766 15.839844 -31.669922 15.234375 -31.669922C14.414062 -31.669922 13.769531 -32.050781 13.300781 -32.812500C12.910156 -33.437500 12.714844 -34.189453 12.714844 -35.068359L22.998047 -30.498047C22.177734 -28.994141 21.035156 -27.802734 19.570312 -26.923828C18.066406 -26.005859 16.425781 -25.546875 14.648438 -25.546875C12.929688 -25.546875 11.328125 -25.976562 9.843750 -26.835938C8.417969 -27.695312 7.275391 -28.837891 6.416016 -30.263672C5.556641 -31.748047 5.126953 -33.349609 5.126953 -35.068359C5.126953 -36.142578 5.302734 -37.187500 5.654297 -38.203125ZM5.654297 -38.203125"></path></svg>