<svg width="23.437500" height="23.437500" viewBox="2.929688 -46.757812 23.437500 23.437500" xmlns="http://www.w3.org/2000/svg"><path d="M14.619141 -46.757812C11.396484 -46.757812 8.652344 -45.625000 6.386719 -43.359375C4.082031 -41.015625 2.929688 -38.242188 2.929688 -35.039062C2.929688 -31.835938 4.086914 -29.082031 6.401367 -26.777344C8.715820 -24.472656 11.455078 -23.320312 14.619141 -23.320312C17.861328 -23.320312 20.664062 -24.482422 23.027344 -26.806641C25.253906 -29.013672 26.367188 -31.757812 26.367188 -35.039062C26.367188 -38.320312 25.229492 -41.093750 22.954102 -43.359375C20.678711 -45.625000 17.900391 -46.757812 14.619141 -46.757812ZM14.677734 -44.648438C17.333984 -44.648438 19.589844 -43.701172 21.445312 -41.806641C23.320312 -39.970703 24.257812 -37.709961 24.257812 -35.024414C24.257812 -32.338867 23.339844 -30.107422 21.503906 -28.330078C19.550781 -26.416016 17.265625 -25.458984 14.648438 -25.458984C12.031250 -25.458984 9.775391 -26.401367 7.880859 -28.286133C5.986328 -30.170898 5.039062 -32.412109 5.039062 -35.009766C5.039062 -37.607422 5.996094 -39.873047 7.910156 -41.806641C9.746094 -43.701172 12.001953 -44.648438 14.677734 -44.648438ZM12.802734 -41.660156L9.638672 -40.283203L9.638672 -36.972656L9.638672 -36.943359L6.855469 -35.771484L6.855469 -32.753906L9.843750 -31.464844L12.861328 -32.724609L19.218750 -30.087891L19.365234 -30.058594L19.482422 -30.087891L22.324219 -31.318359L22.529297 -31.406250L22.529297 -34.716797L19.980469 -35.800781L19.980469 -38.701172ZM13.593750 -35.332031L18.955078 -33.134766L18.955078 -33.046875L18.984375 -33.046875L18.984375 -30.966797L18.955078 -30.996094L18.955078 -30.966797L13.593750 -33.193359ZM19.482422 -35.214844L21.210938 -34.482422L19.335938 -33.691406L17.636719 -34.423828ZM21.796875 -33.925781L21.796875 -31.904297L19.716797 -30.996094L19.716797 -33.046875ZM21.796875 -33.925781"></path></svg>