<svg width="23.437500" height="23.437500" viewBox="2.929688 -46.757812 23.437500 23.437500" xmlns="http://www.w3.org/2000/svg"><path d="M14.619141 -46.757812C11.396484 -46.757812 8.652344 -45.625000 6.386719 -43.359375C4.082031 -41.015625 2.929688 -38.242188 2.929688 -35.039062C2.929688 -31.835938 4.086914 -29.082031 6.401367 -26.777344C8.715820 -24.472656 11.455078 -23.320312 14.619141 -23.320312C17.861328 -23.320312 20.664062 -24.482422 23.027344 -26.806641C25.253906 -29.013672 26.367188 -31.757812 26.367188 -35.039062C26.367188 -38.320312 25.229492 -41.093750 22.954102 -43.359375C20.678711 -45.625000 17.900391 -46.757812 14.619141 -46.757812ZM14.677734 -44.648438C17.333984 -44.648438 19.589844 -43.701172 21.445312 -41.806641C23.320312 -39.970703 24.257812 -37.709961 24.257812 -35.024414C24.257812 -32.338867 23.339844 -30.107422 21.503906 -28.330078C19.550781 -26.416016 17.265625 -25.458984 14.648438 -25.458984C12.031250 -25.458984 9.775391 -26.401367 7.880859 -28.286133C5.986328 -30.170898 5.039062 -32.412109 5.039062 -35.009766C5.039062 -37.607422 5.996094 -39.873047 7.910156 -41.806641C9.746094 -43.701172 12.001953 -44.648438 14.677734 -44.648438ZM9.785156 -41.601562C9.628906 -41.562500 9.492188 -41.484375 9.375000 -41.367188C9.257812 -41.250000 9.199219 -41.103516 9.199219 -40.927734L9.199219 -32.314453C9.199219 -32.138672 9.262695 -31.987305 9.389648 -31.860352C9.516602 -31.733398 9.667969 -31.669922 9.843750 -31.669922L12.421875 -31.669922L12.421875 -29.121094C12.421875 -28.945312 12.480469 -28.793945 12.597656 -28.666992C12.714844 -28.540039 12.871094 -28.476562 13.066406 -28.476562L19.453125 -28.476562C19.628906 -28.476562 19.780273 -28.540039 19.907227 -28.666992C20.034180 -28.793945 20.097656 -28.945312 20.097656 -29.121094L20.097656 -37.734375C20.097656 -37.910156 20.034180 -38.061523 19.907227 -38.188477C19.780273 -38.315430 19.628906 -38.378906 19.453125 -38.378906L16.875000 -38.378906L16.875000 -40.927734C16.875000 -41.123047 16.816406 -41.284180 16.699219 -41.411133C16.582031 -41.538086 16.425781 -41.601562 16.230469 -41.601562ZM10.488281 -40.283203L15.615234 -40.283203L15.615234 -38.378906L12.978516 -38.378906C12.822266 -38.359375 12.690430 -38.291016 12.583008 -38.173828C12.475586 -38.056641 12.421875 -37.910156 12.421875 -37.734375L12.421875 -32.958984L10.488281 -32.958984ZM13.681641 -37.119141L18.808594 -37.119141L18.808594 -29.765625L13.681641 -29.765625ZM13.681641 -37.119141"></path></svg>