<svg width="23.437500" height="23.437500" viewBox="2.548828 -46.757812 23.437500 23.437500" xmlns="http://www.w3.org/2000/svg"><path d="M14.238281 -46.757812C10.996094 -46.757812 8.261719 -45.625000 6.035156 -43.359375C4.902344 -42.226562 4.038086 -40.942383 3.442383 -39.506836C2.846680 -38.071289 2.548828 -36.577148 2.548828 -35.024414C2.548828 -33.471680 2.841797 -31.992188 3.427734 -30.585938C4.013672 -29.179688 4.868164 -27.915039 5.991211 -26.791992C7.114258 -25.668945 8.383789 -24.809570 9.799805 -24.213867C11.215820 -23.618164 12.700195 -23.320312 14.252930 -23.320312C15.805664 -23.320312 17.304688 -23.623047 18.750000 -24.228516C20.195312 -24.833984 21.494141 -25.693359 22.646484 -26.806641C23.759766 -27.900391 24.594727 -29.145508 25.151367 -30.541992C25.708008 -31.938477 25.986328 -33.437500 25.986328 -35.039062C25.986328 -36.640625 25.703125 -38.144531 25.136719 -39.550781C24.570312 -40.957031 23.730469 -42.216797 22.617188 -43.330078C20.332031 -45.615234 17.539062 -46.757812 14.238281 -46.757812ZM14.296875 -44.648438C16.953125 -44.648438 19.218750 -43.710938 21.093750 -41.835938C22.011719 -40.917969 22.705078 -39.877930 23.173828 -38.715820C23.642578 -37.553711 23.876953 -36.328125 23.876953 -35.039062C23.876953 -32.363281 22.958984 -30.126953 21.123047 -28.330078C20.185547 -27.392578 19.125977 -26.684570 17.944336 -26.206055C16.762695 -25.727539 15.541992 -25.488281 14.282227 -25.488281C13.022461 -25.488281 11.811523 -25.727539 10.649414 -26.206055C9.487305 -26.684570 8.447266 -27.377930 7.529297 -28.286133C6.611328 -29.194336 5.903320 -30.234375 5.405273 -31.406250C4.907227 -32.578125 4.658203 -33.793945 4.658203 -35.053711C4.658203 -36.313477 4.907227 -37.524414 5.405273 -38.686523C5.903320 -39.848633 6.611328 -40.898438 7.529297 -41.835938C9.365234 -43.710938 11.621094 -44.648438 14.296875 -44.648438ZM14.267578 -41.777344C12.509766 -41.777344 11.220703 -41.044922 10.400391 -39.580078C9.755859 -38.427734 9.433594 -36.914062 9.433594 -35.039062C9.433594 -33.164062 9.755859 -31.650391 10.400391 -30.498047C11.220703 -29.033203 12.509766 -28.300781 14.267578 -28.300781C16.025391 -28.300781 17.314453 -29.033203 18.134766 -30.498047C18.798828 -31.650391 19.130859 -33.164062 19.130859 -35.039062C19.130859 -36.914062 18.798828 -38.427734 18.134766 -39.580078C17.314453 -41.044922 16.025391 -41.777344 14.267578 -41.777344ZM14.267578 -39.228516C14.404297 -39.228516 14.550781 -39.208984 14.707031 -39.169922C15.039062 -38.896484 15.087891 -38.554688 14.853516 -38.144531L12.275391 -33.427734C12.216797 -33.876953 12.187500 -34.414062 12.187500 -35.039062C12.187500 -36.152344 12.285156 -37.021484 12.480469 -37.646484C12.812500 -38.701172 13.408203 -39.228516 14.267578 -39.228516ZM16.201172 -37.060547C16.298828 -36.513672 16.347656 -35.839844 16.347656 -35.039062C16.347656 -33.925781 16.250000 -33.056641 16.054688 -32.431641C15.722656 -31.376953 15.126953 -30.849609 14.267578 -30.849609C14.111328 -30.849609 13.964844 -30.859375 13.828125 -30.878906L13.652344 -30.937500C13.085938 -31.191406 12.978516 -31.572266 13.330078 -32.080078ZM16.201172 -37.060547"></path></svg>