<svg width="23.437500" height="23.437500" viewBox="2.929688 -46.816406 23.437500 23.437500" xmlns="http://www.w3.org/2000/svg"><path d="M14.619141 -46.816406C11.376953 -46.816406 8.642578 -45.673828 6.416016 -43.388672C5.283203 -42.255859 4.418945 -40.976562 3.823242 -39.550781C3.227539 -38.125000 2.929688 -36.635742 2.929688 -35.083008C2.929688 -33.530273 3.222656 -32.045898 3.808594 -30.629883C4.394531 -29.213867 5.249023 -27.944336 6.372070 -26.821289C7.495117 -25.698242 8.764648 -24.843750 10.180664 -24.257812C11.596680 -23.671875 13.081055 -23.378906 14.633789 -23.378906C16.186523 -23.378906 17.685547 -23.676758 19.130859 -24.272461C20.576172 -24.868164 21.875000 -25.732422 23.027344 -26.865234C24.121094 -27.939453 24.951172 -29.179688 25.517578 -30.585938C26.083984 -31.992188 26.367188 -33.491211 26.367188 -35.083008C26.367188 -36.674805 26.079102 -38.178711 25.502930 -39.594727C24.926758 -41.010742 24.091797 -42.265625 22.998047 -43.359375C20.693359 -45.664062 17.900391 -46.816406 14.619141 -46.816406ZM14.677734 -44.677734C17.314453 -44.677734 19.580078 -43.740234 21.474609 -41.865234C22.373047 -40.947266 23.061523 -39.912109 23.540039 -38.759766C24.018555 -37.607422 24.257812 -36.386719 24.257812 -35.097656C24.257812 -32.402344 23.339844 -30.156250 21.503906 -28.359375C20.566406 -27.441406 19.506836 -26.738281 18.325195 -26.250000C17.143555 -25.761719 15.922852 -25.517578 14.663086 -25.517578C13.403320 -25.517578 12.192383 -25.756836 11.030273 -26.235352C9.868164 -26.713867 8.828125 -27.412109 7.910156 -28.330078C6.992188 -29.248047 6.284180 -30.288086 5.786133 -31.450195C5.288086 -32.612305 5.039062 -33.828125 5.039062 -35.097656C5.039062 -36.367188 5.288086 -37.583008 5.786133 -38.745117C6.284180 -39.907227 6.992188 -40.957031 7.910156 -41.894531C9.746094 -43.750000 12.001953 -44.677734 14.677734 -44.677734ZM11.396484 -38.730469C10.419922 -38.730469 9.604492 -38.403320 8.950195 -37.749023C8.295898 -37.094727 7.968750 -36.201172 7.968750 -35.068359C7.968750 -33.935547 8.291016 -33.046875 8.935547 -32.402344C9.580078 -31.757812 10.419922 -31.435547 11.455078 -31.435547C12.119141 -31.435547 12.724609 -31.601562 13.271484 -31.933594C13.818359 -32.265625 14.238281 -32.714844 14.531250 -33.281250L13.095703 -34.013672C12.822266 -33.349609 12.343750 -33.017578 11.660156 -33.017578C11.132812 -33.017578 10.737305 -33.203125 10.473633 -33.574219C10.209961 -33.945312 10.078125 -34.453125 10.078125 -35.097656C10.078125 -36.464844 10.605469 -37.148438 11.660156 -37.148438C11.875000 -37.148438 12.104492 -37.080078 12.348633 -36.943359C12.592773 -36.806641 12.792969 -36.562500 12.949219 -36.210938L14.531250 -37.031250C13.906250 -38.164062 12.861328 -38.730469 11.396484 -38.730469ZM18.193359 -38.730469C17.197266 -38.730469 16.376953 -38.403320 15.732422 -37.749023C15.087891 -37.094727 14.765625 -36.201172 14.765625 -35.068359C14.765625 -33.935547 15.083008 -33.046875 15.717773 -32.402344C16.352539 -31.757812 17.197266 -31.435547 18.251953 -31.435547C18.896484 -31.435547 19.487305 -31.601562 20.024414 -31.933594C20.561523 -32.265625 20.996094 -32.714844 21.328125 -33.281250L19.863281 -34.013672C19.589844 -33.349609 19.111328 -33.017578 18.427734 -33.017578C17.900391 -33.017578 17.504883 -33.203125 17.241211 -33.574219C16.977539 -33.945312 16.845703 -34.453125 16.845703 -35.097656C16.845703 -36.464844 17.373047 -37.148438 18.427734 -37.148438C18.642578 -37.148438 18.872070 -37.080078 19.116211 -36.943359C19.360352 -36.806641 19.570312 -36.562500 19.746094 -36.210938L21.269531 -37.031250C20.664062 -38.164062 19.638672 -38.730469 18.193359 -38.730469ZM18.193359 -38.730469"></path></svg>