<svg width="24.960938" height="24.902344" viewBox="2.158203 -49.716797 24.960938 24.902344" xmlns="http://www.w3.org/2000/svg"><path d="M14.648438 -49.716797C14.316406 -49.716797 13.984375 -49.707031 13.652344 -49.687500C12.226562 -49.570312 10.844727 -49.213867 9.506836 -48.618164C8.168945 -48.022461 6.992188 -47.216797 5.976562 -46.201172C4.765625 -45.048828 3.823242 -43.681641 3.149414 -42.099609C2.475586 -40.517578 2.158203 -38.896484 2.197266 -37.236328C2.177734 -35.966797 2.368164 -34.711914 2.768555 -33.471680C3.168945 -32.231445 3.750000 -31.083984 4.511719 -30.029297C5.585938 -28.505859 6.962891 -27.285156 8.642578 -26.367188C10.322266 -25.449219 12.089844 -24.941406 13.945312 -24.843750C14.160156 -24.824219 14.384766 -24.814453 14.619141 -24.814453C14.794922 -24.814453 15.019531 -24.824219 15.292969 -24.843750L15.966797 -24.902344C17.177734 -25.019531 18.354492 -25.322266 19.497070 -25.810547C20.639648 -26.298828 21.679688 -26.933594 22.617188 -27.714844C23.945312 -28.828125 25.004883 -30.180664 25.795898 -31.772461C26.586914 -33.364258 27.011719 -35.009766 27.070312 -36.708984C27.109375 -36.943359 27.119141 -37.216797 27.099609 -37.529297L27.041016 -38.378906C26.923828 -39.863281 26.533203 -41.289062 25.869141 -42.656250C25.205078 -44.023438 24.326172 -45.224609 23.232422 -46.259766C22.099609 -47.353516 20.781250 -48.203125 19.277344 -48.808594C17.773438 -49.414062 16.230469 -49.716797 14.648438 -49.716797ZM14.619141 -47.226562C14.658203 -47.226562 14.707031 -47.226562 14.765625 -47.226562C15.625000 -47.226562 16.376953 -47.138672 17.021484 -46.962891C17.958984 -46.728516 18.847656 -46.367188 19.687500 -45.878906C20.527344 -45.390625 21.269531 -44.794922 21.914062 -44.091797C22.675781 -43.291016 23.286133 -42.387695 23.745117 -41.381836C24.204102 -40.375977 24.487305 -39.335938 24.594727 -38.261719C24.702148 -37.187500 24.619141 -36.093750 24.345703 -34.980469C24.072266 -33.789062 23.583984 -32.675781 22.880859 -31.640625C22.177734 -30.605469 21.318359 -29.746094 20.302734 -29.062500C19.462891 -28.476562 18.554688 -28.032227 17.578125 -27.729492C16.601562 -27.426758 15.620117 -27.275391 14.633789 -27.275391C13.647461 -27.275391 12.670898 -27.426758 11.704102 -27.729492C10.737305 -28.032227 9.833984 -28.466797 8.994141 -29.033203C8.154297 -29.599609 7.416992 -30.288086 6.782227 -31.098633C6.147461 -31.909180 5.644531 -32.792969 5.273438 -33.750000C4.863281 -34.824219 4.648438 -35.947266 4.628906 -37.119141C4.609375 -38.291016 4.794922 -39.414062 5.185547 -40.488281C5.732422 -42.128906 6.679688 -43.544922 8.027344 -44.736328C8.789062 -45.419922 9.648438 -45.976562 10.605469 -46.406250C11.562500 -46.835938 12.548828 -47.099609 13.564453 -47.197266ZM18.808594 -41.777344C18.730469 -41.777344 18.662109 -41.767578 18.603516 -41.748047C18.408203 -41.708984 18.247070 -41.606445 18.120117 -41.440430C17.993164 -41.274414 17.929688 -41.093750 17.929688 -40.898438L17.929688 -38.906250C17.910156 -38.496094 18.017578 -38.203125 18.251953 -38.027344C18.408203 -37.890625 18.598633 -37.827148 18.823242 -37.836914C19.047852 -37.846680 19.248047 -37.919922 19.423828 -38.056641C19.599609 -38.193359 19.697266 -38.369141 19.716797 -38.583984C19.736328 -38.896484 19.746094 -39.277344 19.746094 -39.726562C19.726562 -41.347656 19.726562 -41.738281 19.746094 -40.898438C19.746094 -41.152344 19.648438 -41.362305 19.453125 -41.528320C19.257812 -41.694336 19.042969 -41.777344 18.808594 -41.777344ZM21.357422 -41.777344C21.337891 -41.777344 21.328125 -41.777344 21.328125 -41.777344C21.250000 -41.777344 21.181641 -41.767578 21.123047 -41.748047C20.947266 -41.689453 20.795898 -41.591797 20.668945 -41.455078C20.541992 -41.318359 20.488281 -41.162109 20.507812 -40.986328L20.507812 -38.554688C20.507812 -38.417969 20.551758 -38.291016 20.639648 -38.173828C20.727539 -38.056641 20.849609 -37.968750 21.005859 -37.910156C21.279297 -37.773438 21.552734 -37.788086 21.826172 -37.954102C22.099609 -38.120117 22.246094 -38.349609 22.265625 -38.642578C22.285156 -39.013672 22.285156 -39.765625 22.265625 -40.898438C22.265625 -41.132812 22.172852 -41.337891 21.987305 -41.513672C21.801758 -41.689453 21.591797 -41.777344 21.357422 -41.777344ZM16.289062 -41.777344C16.210938 -41.777344 16.142578 -41.767578 16.083984 -41.748047C15.888672 -41.708984 15.722656 -41.606445 15.585938 -41.440430C15.449219 -41.274414 15.390625 -41.093750 15.410156 -40.898438L15.410156 -38.730469C15.390625 -38.554688 15.434570 -38.388672 15.541992 -38.232422C15.649414 -38.076172 15.791016 -37.958984 15.966797 -37.880859C16.240234 -37.783203 16.513672 -37.812500 16.787109 -37.968750C17.060547 -38.125000 17.197266 -38.349609 17.197266 -38.642578C17.197266 -39.443359 17.197266 -40.224609 17.197266 -40.986328C17.197266 -41.201172 17.104492 -41.386719 16.918945 -41.542969C16.733398 -41.699219 16.523438 -41.777344 16.289062 -41.777344ZM10.693359 -41.777344C9.814453 -41.738281 9.067383 -41.523438 8.452148 -41.132812C7.836914 -40.742188 7.348633 -40.205078 6.987305 -39.521484C6.625977 -38.837891 6.445312 -38.125000 6.445312 -37.382812L6.445312 -36.650391C6.464844 -36.357422 6.503906 -36.103516 6.562500 -35.888672C6.679688 -35.322266 6.918945 -34.799805 7.280273 -34.321289C7.641602 -33.842773 8.076172 -33.471680 8.583984 -33.208008C9.091797 -32.944336 9.633789 -32.802734 10.209961 -32.783203C10.786133 -32.763672 11.347656 -32.851562 11.894531 -33.046875C12.246094 -33.183594 12.597656 -33.408203 12.949219 -33.720703C13.183594 -33.916016 13.476562 -34.208984 13.828125 -34.599609C13.867188 -34.658203 13.872070 -34.711914 13.842773 -34.760742C13.813477 -34.809570 13.769531 -34.863281 13.710938 -34.921875L13.564453 -35.039062C13.310547 -34.765625 13.076172 -34.550781 12.861328 -34.394531C12.509766 -34.140625 12.109375 -34.013672 11.660156 -34.013672C11.210938 -34.013672 10.800781 -34.130859 10.429688 -34.365234C9.960938 -34.697266 9.599609 -35.224609 9.345703 -35.947266C9.189453 -36.416016 9.091797 -36.943359 9.052734 -37.529297C9.033203 -37.939453 9.042969 -38.476562 9.082031 -39.140625C9.140625 -39.531250 9.218750 -39.843750 9.316406 -40.078125C9.433594 -40.410156 9.589844 -40.668945 9.785156 -40.854492C9.980469 -41.040039 10.205078 -41.152344 10.458984 -41.191406C10.712891 -41.230469 10.937500 -41.162109 11.132812 -40.986328C11.210938 -40.908203 11.264648 -40.815430 11.293945 -40.708008C11.323242 -40.600586 11.337891 -40.478516 11.337891 -40.341797L11.337891 -39.990234C11.357422 -39.697266 11.386719 -39.472656 11.425781 -39.316406C11.484375 -39.082031 11.582031 -38.906250 11.718750 -38.789062C11.855469 -38.671875 12.031250 -38.603516 12.246094 -38.583984C12.343750 -38.583984 12.524414 -38.603516 12.788086 -38.642578C13.051758 -38.681641 13.266602 -38.818359 13.432617 -39.052734C13.598633 -39.287109 13.671875 -39.541016 13.652344 -39.814453C13.593750 -40.283203 13.417969 -40.659180 13.125000 -40.942383C12.832031 -41.225586 12.460938 -41.435547 12.011719 -41.572266C11.601562 -41.708984 11.162109 -41.777344 10.693359 -41.777344ZM10.693359 -41.777344"></path></svg>