<svg width="31.230469" height="23.437500" viewBox="-0.966797 -46.816406 31.230469 23.437500" xmlns="http://www.w3.org/2000/svg"><path d="M-0.966797 -46.816406L2.900391 -42.949219L10.927734 -42.949219L13.740234 -40.107422L9.609375 -35.976562L6.767578 -38.789062L6.767578 -40.986328L2.900391 -40.986328L2.900391 -37.177734L9.609375 -30.468750L6.884766 -27.744141L11.250000 -23.378906L30.263672 -23.378906L26.396484 -27.216797L12.861328 -27.216797L9.638672 -30.468750L11.015625 -31.816406L13.681641 -29.150391L19.189453 -29.150391L13.769531 -34.570312L15.146484 -35.976562L20.566406 -30.556641L20.566406 -36.035156L17.900391 -38.701172L19.248047 -40.078125L12.539062 -46.816406ZM22.031250 -42.861328L19.277344 -40.107422L22.500000 -36.884766L22.500000 -29.179688L26.396484 -29.179688L26.396484 -38.466797ZM22.031250 -42.861328"></path></svg>