<svg width="24.902344" height="24.902344" viewBox="2.197266 -49.716797 24.902344 24.902344" xmlns="http://www.w3.org/2000/svg"><path d="M14.648438 -49.716797C12.402344 -49.716797 10.312500 -49.150391 8.378906 -48.017578C6.503906 -46.904297 5.009766 -45.410156 3.896484 -43.535156C2.763672 -41.601562 2.197266 -39.511719 2.197266 -37.265625C2.197266 -35.019531 2.763672 -32.929688 3.896484 -30.996094C5.009766 -29.121094 6.503906 -27.626953 8.378906 -26.513672C10.312500 -25.380859 12.402344 -24.814453 14.648438 -24.814453C16.894531 -24.814453 18.984375 -25.380859 20.917969 -26.513672C22.792969 -27.626953 24.287109 -29.121094 25.400391 -30.996094C26.533203 -32.929688 27.099609 -35.019531 27.099609 -37.265625C27.099609 -39.511719 26.533203 -41.601562 25.400391 -43.535156C24.287109 -45.410156 22.792969 -46.904297 20.917969 -48.017578C18.984375 -49.150391 16.894531 -49.716797 14.648438 -49.716797ZM14.531250 -47.167969C14.531250 -47.167969 14.570312 -47.167969 14.648438 -47.167969C16.445312 -47.167969 18.115234 -46.718750 19.658203 -45.820312C21.142578 -44.941406 22.324219 -43.759766 23.203125 -42.275391C24.101562 -40.732422 24.550781 -39.062500 24.550781 -37.265625C24.550781 -35.468750 24.101562 -33.798828 23.203125 -32.255859C22.324219 -30.771484 21.142578 -29.589844 19.658203 -28.710938C18.115234 -27.812500 16.445312 -27.363281 14.648438 -27.363281C12.851562 -27.363281 11.181641 -27.812500 9.638672 -28.710938C8.154297 -29.589844 6.972656 -30.771484 6.093750 -32.255859C5.195312 -33.798828 4.746094 -35.463867 4.746094 -37.250977C4.746094 -39.038086 5.185547 -40.703125 6.064453 -42.246094C6.923828 -43.730469 8.095703 -44.912109 9.580078 -45.791016C11.083984 -46.689453 12.734375 -47.148438 14.531250 -47.167969ZM14.560547 -44.267578C13.466797 -44.267578 12.446289 -44.033203 11.499023 -43.564453C10.551758 -43.095703 9.750977 -42.446289 9.096680 -41.616211C8.442383 -40.786133 7.998047 -39.863281 7.763672 -38.847656L11.103516 -38.847656C11.396484 -39.511719 11.855469 -40.048828 12.480469 -40.458984C13.105469 -40.869141 13.798828 -41.074219 14.560547 -41.074219C15.244141 -41.074219 15.878906 -40.903320 16.464844 -40.561523C17.050781 -40.219727 17.514648 -39.755859 17.856445 -39.169922C18.198242 -38.583984 18.369141 -37.949219 18.369141 -37.265625C18.369141 -36.582031 18.198242 -35.947266 17.856445 -35.361328C17.514648 -34.775391 17.050781 -34.311523 16.464844 -33.969727C15.878906 -33.627930 15.244141 -33.457031 14.560547 -33.457031C13.798828 -33.457031 13.105469 -33.662109 12.480469 -34.072266C11.855469 -34.482422 11.396484 -35.009766 11.103516 -35.654297L7.763672 -35.654297C7.998047 -34.638672 8.442383 -33.720703 9.096680 -32.900391C9.750977 -32.080078 10.551758 -31.435547 11.499023 -30.966797C12.446289 -30.498047 13.466797 -30.263672 14.560547 -30.263672C15.810547 -30.263672 16.972656 -30.581055 18.046875 -31.215820C19.121094 -31.850586 19.970703 -32.700195 20.595703 -33.764648C21.220703 -34.829102 21.533203 -35.996094 21.533203 -37.265625C21.533203 -38.535156 21.220703 -39.702148 20.595703 -40.766602C19.970703 -41.831055 19.121094 -42.680664 18.046875 -43.315430C16.972656 -43.950195 15.810547 -44.267578 14.560547 -44.267578ZM14.560547 -44.267578"></path></svg>