<svg width="25.014648" height="23.496094" viewBox="2.138672 -46.875000 25.014648 23.496094" xmlns="http://www.w3.org/2000/svg"><path d="M15.263672 -46.875000C13.427734 -46.835938 11.708984 -46.416016 10.107422 -45.615234C8.837891 -44.970703 7.709961 -44.106445 6.723633 -43.022461C5.737305 -41.938477 4.990234 -40.732422 4.482422 -39.404297C5.009766 -39.560547 5.551758 -39.609375 6.108398 -39.550781C6.665039 -39.492188 7.197266 -39.335938 7.705078 -39.082031C8.291016 -40.195312 9.033203 -41.113281 9.931641 -41.835938C10.654297 -42.421875 11.455078 -42.880859 12.333984 -43.212891C13.212891 -43.544922 14.111328 -43.730469 15.029297 -43.769531C16.103516 -43.828125 17.163086 -43.671875 18.208008 -43.300781C19.252930 -42.929688 20.185547 -42.392578 21.005859 -41.689453C21.669922 -41.123047 22.241211 -40.449219 22.719727 -39.667969C23.198242 -38.886719 23.544922 -38.056641 23.759766 -37.177734C24.267578 -37.041016 24.677734 -36.748047 24.990234 -36.298828C25.302734 -35.849609 25.419922 -35.380859 25.341797 -34.892578C25.283203 -34.462891 25.112305 -34.086914 24.829102 -33.764648C24.545898 -33.442383 24.199219 -33.232422 23.789062 -33.134766C23.496094 -32.158203 23.183594 -31.396484 22.851562 -30.849609C22.246094 -29.775391 21.430664 -28.867188 20.405273 -28.125000C19.379883 -27.382812 18.271484 -26.894531 17.080078 -26.660156C16.259766 -26.503906 15.429688 -26.464844 14.589844 -26.542969C13.750000 -26.621094 12.939453 -26.816406 12.158203 -27.128906C11.201172 -27.519531 10.336914 -28.066406 9.565430 -28.769531C8.793945 -29.472656 8.173828 -30.283203 7.705078 -31.201172C7.216797 -30.947266 6.694336 -30.791016 6.137695 -30.732422C5.581055 -30.673828 5.029297 -30.722656 4.482422 -30.878906C5.107422 -29.257812 6.069336 -27.836914 7.368164 -26.616211C8.666992 -25.395508 10.136719 -24.521484 11.777344 -23.994141C13.085938 -23.564453 14.448242 -23.378906 15.864258 -23.437500C17.280273 -23.496094 18.623047 -23.789062 19.892578 -24.316406C21.162109 -24.843750 22.309570 -25.585938 23.334961 -26.542969C24.360352 -27.500000 25.185547 -28.593750 25.810547 -29.824219C26.396484 -30.957031 26.782227 -32.167969 26.967773 -33.457031C27.153320 -34.746094 27.128906 -36.015625 26.894531 -37.265625C26.660156 -38.515625 26.235352 -39.697266 25.620117 -40.810547C25.004883 -41.923828 24.238281 -42.900391 23.320312 -43.740234C22.500000 -44.521484 21.577148 -45.166016 20.551758 -45.673828C19.526367 -46.181641 18.447266 -46.523438 17.314453 -46.699219C16.650391 -46.816406 15.957031 -46.875000 15.234375 -46.875000ZM5.625000 -38.613281C5.371094 -38.593750 5.107422 -38.564453 4.833984 -38.525391C4.365234 -38.408203 3.935547 -38.198242 3.544922 -37.895508C3.154297 -37.592773 2.841797 -37.226562 2.607422 -36.796875C2.255859 -36.191406 2.138672 -35.419922 2.255859 -34.482422C2.353516 -33.974609 2.563477 -33.500977 2.885742 -33.061523C3.208008 -32.622070 3.603516 -32.285156 4.072266 -32.050781C4.775391 -31.679688 5.541992 -31.582031 6.372070 -31.757812C7.202148 -31.933594 7.861328 -32.343750 8.349609 -32.988281C8.681641 -33.378906 8.906250 -33.833008 9.023438 -34.350586C9.140625 -34.868164 9.140625 -35.395508 9.023438 -35.932617C8.906250 -36.469727 8.657227 -36.962891 8.276367 -37.412109C7.895508 -37.861328 7.441406 -38.183594 6.914062 -38.378906C6.503906 -38.535156 6.074219 -38.613281 5.625000 -38.613281ZM13.212891 -37.500000C12.998047 -37.500000 12.783203 -37.470703 12.568359 -37.412109C12.158203 -37.294922 11.796875 -37.070312 11.484375 -36.738281C11.171875 -36.406250 10.976562 -36.035156 10.898438 -35.625000C10.800781 -35.253906 10.795898 -34.877930 10.883789 -34.497070C10.971680 -34.116211 11.142578 -33.774414 11.396484 -33.471680C11.650391 -33.168945 11.962891 -32.944336 12.333984 -32.797852C12.705078 -32.651367 13.076172 -32.597656 13.447266 -32.636719C13.916016 -32.656250 14.340820 -32.812500 14.721680 -33.105469C15.102539 -33.398438 15.380859 -33.764648 15.556641 -34.204102C15.732422 -34.643555 15.761719 -35.087891 15.644531 -35.537109C15.566406 -36.103516 15.283203 -36.577148 14.794922 -36.958008C14.306641 -37.338867 13.779297 -37.519531 13.212891 -37.500000ZM18.750000 -37.001953C18.613281 -37.001953 18.466797 -36.992188 18.310547 -36.972656C17.880859 -36.855469 17.524414 -36.621094 17.241211 -36.269531C16.958008 -35.917969 16.816406 -35.527344 16.816406 -35.097656C16.816406 -34.667969 16.948242 -34.267578 17.211914 -33.896484C17.475586 -33.525391 17.812500 -33.291016 18.222656 -33.193359C18.496094 -33.095703 18.784180 -33.071289 19.086914 -33.120117C19.389648 -33.168945 19.667969 -33.281250 19.921875 -33.457031C20.175781 -33.632812 20.375977 -33.867188 20.522461 -34.160156C20.668945 -34.453125 20.742188 -34.755859 20.742188 -35.068359C20.742188 -35.458984 20.629883 -35.825195 20.405273 -36.166992C20.180664 -36.508789 19.882812 -36.748047 19.511719 -36.884766C19.296875 -36.982422 19.042969 -37.021484 18.750000 -37.001953ZM23.261719 -36.357422C23.105469 -36.357422 22.958984 -36.337891 22.822266 -36.298828C22.587891 -36.220703 22.373047 -36.040039 22.177734 -35.756836C21.982422 -35.473633 21.923828 -35.146484 22.001953 -34.775391C22.080078 -34.404297 22.260742 -34.130859 22.543945 -33.955078C22.827148 -33.779297 23.134766 -33.715820 23.466797 -33.764648C23.798828 -33.813477 24.072266 -33.964844 24.287109 -34.218750C24.501953 -34.472656 24.594727 -34.790039 24.565430 -35.170898C24.536133 -35.551758 24.384766 -35.849609 24.111328 -36.064453C23.896484 -36.259766 23.613281 -36.357422 23.261719 -36.357422ZM25.517578 -25.078125L25.136719 -23.525391L25.371094 -23.525391L25.576172 -24.375000L25.576172 -24.462891L25.634766 -24.375000L26.103516 -23.496094L26.572266 -24.375000L26.601562 -24.462891C26.601562 -24.462891 26.601562 -24.453125 26.601562 -24.433594L26.806641 -23.525391L27.070312 -23.525391L26.660156 -25.078125L26.103516 -23.935547ZM23.847656 -25.019531L23.847656 -24.814453L24.287109 -24.814453L24.287109 -23.525391L24.550781 -23.525391L24.550781 -24.814453L24.990234 -24.814453L24.990234 -25.019531ZM23.847656 -25.019531"></path></svg>