<svg width="24.946289" height="24.140625" viewBox="2.148438 -48.369141 24.946289 24.140625" xmlns="http://www.w3.org/2000/svg"><path d="M14.707031 -48.369141C12.832031 -48.369141 11.889648 -48.354492 11.879883 -48.325195C11.870117 -48.295898 11.855469 -46.958008 11.835938 -44.311523C11.816406 -41.665039 11.801758 -40.317383 11.791992 -40.268555C11.782227 -40.219727 11.762695 -40.195312 11.733398 -40.195312C11.704102 -40.195312 10.390625 -40.620117 7.792969 -41.469727C5.195312 -42.319336 3.891602 -42.734375 3.881836 -42.714844C3.872070 -42.695312 3.579102 -41.777344 3.002930 -39.960938C2.426758 -38.144531 2.148438 -37.226562 2.167969 -37.207031L8.964844 -34.951172C9.375000 -34.794922 9.580078 -34.697266 9.580078 -34.658203C9.580078 -34.619141 8.803711 -33.471680 7.250977 -31.215820C5.698242 -28.959961 4.921875 -27.822266 4.921875 -27.802734C4.921875 -27.783203 5.698242 -27.231445 7.250977 -26.147461C8.803711 -25.063477 9.589844 -24.521484 9.609375 -24.521484C9.628906 -24.521484 10.419922 -25.595703 11.982422 -27.744141C13.544922 -29.892578 14.345703 -30.966797 14.384766 -30.966797C14.423828 -30.966797 14.824219 -30.429688 15.585938 -29.355469L18.017578 -25.986328C18.857422 -24.814453 19.287109 -24.228516 19.306641 -24.228516C19.326172 -24.228516 20.102539 -24.794922 21.635742 -25.927734C23.168945 -27.060547 23.940430 -27.636719 23.950195 -27.656250C23.959961 -27.675781 23.217773 -28.774414 21.723633 -30.952148C20.229492 -33.129883 19.487305 -34.238281 19.497070 -34.277344C19.506836 -34.316406 20.771484 -34.760742 23.291016 -35.610352C25.810547 -36.459961 27.075195 -36.889648 27.084961 -36.899414C27.094727 -36.909180 26.821289 -37.827148 26.264648 -39.653320C25.708008 -41.479492 25.419922 -42.402344 25.400391 -42.421875C25.380859 -42.441406 24.130859 -42.031250 21.650391 -41.191406C19.169922 -40.351562 17.915039 -39.931641 17.885742 -39.931641C17.856445 -39.931641 17.832031 -40.004883 17.812500 -40.151367C17.792969 -40.297852 17.783203 -40.673828 17.783203 -41.279297L17.695312 -44.443359C17.617188 -47.041016 17.568359 -48.344727 17.548828 -48.354492C17.529297 -48.364258 16.582031 -48.369141 14.707031 -48.369141ZM14.707031 -48.369141"></path></svg>