<svg width="23.437500" height="23.437500" viewBox="2.929688 -46.787109 23.437500 23.437500" xmlns="http://www.w3.org/2000/svg"><path d="M14.648438 -46.787109C14.277344 -46.787109 13.964844 -46.660156 13.710938 -46.406250L3.310547 -36.035156C3.056641 -35.761719 2.929688 -35.439453 2.929688 -35.068359C2.929688 -34.697266 3.056641 -34.384766 3.310547 -34.130859L13.710938 -23.759766C13.964844 -23.486328 14.277344 -23.349609 14.648438 -23.349609C15.019531 -23.349609 15.332031 -23.486328 15.585938 -23.759766L25.986328 -34.130859C26.240234 -34.384766 26.367188 -34.697266 26.367188 -35.068359C26.367188 -35.439453 26.240234 -35.761719 25.986328 -36.035156L24.462891 -37.529297L14.648438 -27.714844L7.294922 -35.068359L14.648438 -42.451172L17.109375 -39.990234L12.187500 -35.068359L14.648438 -32.636719L22.001953 -39.990234L15.585938 -46.406250C15.332031 -46.660156 15.019531 -46.787109 14.648438 -46.787109ZM14.648438 -46.787109"></path></svg>