<svg width="29.296875" height="22.753906" viewBox="0.000000 -45.810547 29.296875 22.753906" xmlns="http://www.w3.org/2000/svg"><path d="M12.041016 -45.810547C11.435547 -45.791016 10.810547 -45.693359 10.166016 -45.517578C9.638672 -45.361328 9.111328 -45.146484 8.583984 -44.873047C8.193359 -44.697266 7.822266 -44.501953 7.470703 -44.287109L7.060547 -43.994141C6.083984 -43.349609 4.912109 -42.431641 3.544922 -41.240234C2.236328 -40.126953 1.181641 -39.150391 0.380859 -38.310547C0.517578 -38.291016 0.712891 -38.320312 0.966797 -38.398438C1.259766 -38.515625 1.464844 -38.583984 1.582031 -38.603516L4.482422 -39.394531C4.521484 -39.433594 4.003906 -39.013672 2.929688 -38.134766C2.207031 -37.548828 1.640625 -37.041016 1.230469 -36.611328C0.625000 -36.025391 0.214844 -35.517578 0.000000 -35.087891C0.214844 -35.166016 0.605469 -35.341797 1.171875 -35.615234C1.816406 -35.927734 2.275391 -36.142578 2.548828 -36.259766C3.076172 -36.474609 3.476562 -36.591797 3.750000 -36.611328C4.062500 -36.884766 3.710938 -36.572266 2.695312 -35.673828C2.207031 -35.224609 1.816406 -34.843750 1.523438 -34.531250C1.113281 -34.121094 0.830078 -33.779297 0.673828 -33.505859C0.693359 -33.486328 0.703125 -33.452148 0.703125 -33.403320C0.703125 -33.354492 0.703125 -33.330078 0.703125 -33.330078L2.285156 -34.238281C3.027344 -34.628906 3.564453 -34.843750 3.896484 -34.882812C2.392578 -33.261719 1.523438 -32.041016 1.289062 -31.220703C1.660156 -31.474609 2.197266 -31.791992 2.900391 -32.172852C3.603516 -32.553711 4.140625 -32.812500 4.511719 -32.949219C4.453125 -32.792969 4.335938 -32.597656 4.160156 -32.363281C3.925781 -32.070312 3.774414 -31.860352 3.706055 -31.733398C3.637695 -31.606445 3.486328 -31.396484 3.251953 -31.103516C3.017578 -30.810547 2.851562 -30.585938 2.753906 -30.429688C2.597656 -30.156250 2.509766 -29.912109 2.490234 -29.697266C3.076172 -30.263672 3.789062 -30.781250 4.628906 -31.250000C4.550781 -31.074219 4.414062 -30.839844 4.218750 -30.546875C4.003906 -30.214844 3.867188 -29.970703 3.808594 -29.814453C3.652344 -29.541016 3.554688 -29.277344 3.515625 -29.023438C3.730469 -29.238281 4.052734 -29.443359 4.482422 -29.638672L5.595703 -30.019531L5.507812 -29.960938C5.566406 -30.000000 5.488281 -29.931641 5.273438 -29.755859C5.097656 -29.619141 4.931641 -29.472656 4.775391 -29.316406C4.560547 -29.121094 4.384766 -28.935547 4.248047 -28.759766L4.482422 -28.789062C4.521484 -28.808594 4.550781 -28.813477 4.570312 -28.803711C4.589844 -28.793945 4.707031 -28.769531 4.921875 -28.730469L3.984375 -28.349609C6.777344 -24.677734 10.634766 -23.056641 15.556641 -23.486328L15.175781 -24.306641C15.371094 -24.658203 15.556641 -25.273438 15.732422 -26.152344C15.908203 -27.031250 16.093750 -27.666016 16.289062 -28.056641C16.601562 -28.740234 17.070312 -29.248047 17.695312 -29.580078L18.574219 -30.078125C18.847656 -30.234375 19.072266 -30.341797 19.248047 -30.400391C19.462891 -30.478516 19.697266 -30.522461 19.951172 -30.532227C20.205078 -30.541992 20.537109 -30.507812 20.947266 -30.429688C21.083984 -30.410156 21.474609 -30.322266 22.119141 -30.166016C22.724609 -30.009766 23.203125 -29.902344 23.554688 -29.843750C24.062500 -29.746094 24.462891 -29.736328 24.755859 -29.814453L25.781250 -30.429688C26.113281 -30.625000 26.435547 -30.849609 26.748047 -31.103516C27.216797 -31.005859 27.553711 -30.991211 27.758789 -31.059570C27.963867 -31.127930 28.144531 -31.289062 28.300781 -31.542969C27.812500 -30.175781 27.949219 -30.546875 28.710938 -32.656250C28.925781 -33.261719 29.111328 -33.730469 29.267578 -34.062500L29.296875 -34.501953C29.199219 -34.814453 29.121094 -35.234375 29.062500 -35.761719L28.945312 -37.021484C28.925781 -37.431641 28.886719 -37.675781 28.828125 -37.753906C28.574219 -38.125000 28.105469 -38.466797 27.421875 -38.779297C27.070312 -38.955078 26.376953 -39.238281 25.341797 -39.628906C24.384766 -39.980469 23.652344 -40.283203 23.144531 -40.537109C22.343750 -40.947266 21.728516 -41.396484 21.298828 -41.884766C21.455078 -42.373047 21.406250 -42.871094 21.152344 -43.378906C20.957031 -43.750000 20.644531 -44.140625 20.214844 -44.550781C19.726562 -44.902344 19.111328 -45.058594 18.369141 -45.019531C17.900391 -45.000000 17.275391 -44.882812 16.494141 -44.667969C15.966797 -44.765625 15.332031 -44.931641 14.589844 -45.166016L12.685547 -45.781250C12.529297 -45.800781 12.353516 -45.810547 12.158203 -45.810547ZM12.011719 -44.404297C12.421875 -44.404297 12.939453 -44.316406 13.564453 -44.140625C14.365234 -43.925781 14.873047 -43.808594 15.087891 -43.789062C15.068359 -43.710938 15.004883 -43.627930 14.897461 -43.540039C14.790039 -43.452148 14.726562 -43.388672 14.707031 -43.349609L14.560547 -43.144531C14.501953 -43.046875 14.458008 -42.968750 14.428711 -42.910156C14.399414 -42.851562 14.404297 -42.783203 14.443359 -42.705078L15.380859 -43.056641C15.615234 -43.115234 16.044922 -43.251953 16.669922 -43.466797C17.216797 -43.642578 17.656250 -43.769531 17.988281 -43.847656C18.496094 -43.945312 18.964844 -43.964844 19.394531 -43.906250L20.097656 -42.998047C19.648438 -43.369141 19.130859 -43.515625 18.544922 -43.437500C18.173828 -43.398438 17.646484 -43.222656 16.962891 -42.910156C16.240234 -42.578125 15.732422 -42.382812 15.439453 -42.324219C15.205078 -42.285156 14.912109 -42.216797 14.560547 -42.119141C14.150391 -42.001953 13.867188 -41.923828 13.710938 -41.884766C14.277344 -41.455078 15.009766 -41.289062 15.908203 -41.386719C15.966797 -41.093750 16.142578 -40.756836 16.435547 -40.375977C16.728516 -39.995117 17.011719 -39.775391 17.285156 -39.716797C17.265625 -39.833984 17.197266 -40.039062 17.080078 -40.332031C16.962891 -40.625000 16.894531 -40.849609 16.875000 -41.005859C16.835938 -41.259766 16.875000 -41.494141 16.992188 -41.708984L17.402344 -41.972656C17.578125 -42.070312 17.734375 -42.148438 17.871094 -42.207031C18.046875 -42.285156 18.212891 -42.324219 18.369141 -42.324219C18.525391 -42.324219 18.671875 -42.265625 18.808594 -42.148438C18.691406 -42.128906 18.579102 -42.099609 18.471680 -42.060547C18.364258 -42.021484 18.242188 -41.962891 18.105469 -41.884766L17.812500 -41.679688C17.695312 -41.601562 17.612305 -41.464844 17.563477 -41.269531C17.514648 -41.074219 17.509766 -40.937500 17.548828 -40.859375C17.685547 -40.468750 18.066406 -40.146484 18.691406 -39.892578C19.394531 -39.619141 20.273438 -39.482422 21.328125 -39.482422C21.269531 -39.560547 21.123047 -39.726562 20.888672 -39.980469C20.615234 -40.273438 20.429688 -40.488281 20.332031 -40.625000C20.156250 -40.859375 20.078125 -41.035156 20.097656 -41.152344C20.507812 -40.742188 21.015625 -40.361328 21.621094 -40.009766C22.109375 -39.716797 22.685547 -39.433594 23.349609 -39.160156C23.759766 -39.003906 24.335938 -38.789062 25.078125 -38.515625C25.761719 -38.281250 26.240234 -38.105469 26.513672 -37.988281C26.943359 -37.792969 27.246094 -37.607422 27.421875 -37.431641C27.441406 -37.353516 27.402344 -37.255859 27.304688 -37.138672C27.265625 -37.060547 27.177734 -36.938477 27.041016 -36.772461C26.904297 -36.606445 26.806641 -36.484375 26.748047 -36.406250C26.689453 -36.269531 26.679688 -36.171875 26.718750 -36.113281C26.660156 -35.957031 26.738281 -35.732422 26.953125 -35.439453C27.050781 -35.283203 27.285156 -34.970703 27.656250 -34.501953C27.597656 -34.990234 27.583008 -35.346680 27.612305 -35.571289C27.641602 -35.795898 27.700195 -35.888672 27.788086 -35.849609C27.875977 -35.810547 27.958984 -35.668945 28.037109 -35.424805C28.115234 -35.180664 28.144531 -34.902344 28.125000 -34.589844C28.125000 -34.218750 28.056641 -33.857422 27.919922 -33.505859L26.894531 -33.740234C26.269531 -33.779297 25.693359 -33.857422 25.166016 -33.974609C24.638672 -34.091797 24.150391 -34.238281 23.701172 -34.414062C23.291016 -34.589844 22.861328 -34.804688 22.412109 -35.058594C22.080078 -35.253906 21.660156 -35.517578 21.152344 -35.849609C19.648438 -36.845703 19.169922 -37.167969 19.716797 -36.816406C19.306641 -37.089844 18.808594 -37.451172 18.222656 -37.900391C18.535156 -37.646484 18.125000 -37.978516 16.992188 -38.896484L15.527344 -39.453125C15.781250 -39.140625 16.171875 -38.691406 16.699219 -38.105469C17.050781 -37.734375 17.265625 -37.470703 17.343750 -37.314453C17.460938 -37.080078 17.495117 -36.845703 17.446289 -36.611328C17.397461 -36.376953 17.246094 -36.035156 16.992188 -35.585938L16.494141 -36.494141L16.289062 -38.105469C16.074219 -37.324219 15.947266 -36.679688 15.908203 -36.171875C15.869141 -35.468750 15.996094 -34.863281 16.289062 -34.355469C16.621094 -33.769531 17.187500 -33.291016 17.988281 -32.919922L19.453125 -32.714844C19.023438 -33.066406 18.730469 -33.349609 18.574219 -33.564453C18.339844 -33.876953 18.261719 -34.179688 18.339844 -34.472656C18.476562 -34.179688 18.730469 -33.906250 19.101562 -33.652344C19.433594 -33.417969 19.853516 -33.193359 20.361328 -32.978516C20.771484 -32.802734 21.250000 -32.626953 21.796875 -32.451172C22.207031 -32.333984 22.685547 -32.197266 23.232422 -32.041016C24.033203 -31.826172 24.423828 -31.728516 24.404297 -31.748047C24.697266 -31.630859 24.931641 -31.484375 25.107422 -31.308594C24.990234 -31.191406 24.863281 -31.103516 24.726562 -31.044922C24.648438 -31.005859 24.521484 -30.961914 24.345703 -30.913086C24.169922 -30.864258 24.023438 -30.820312 23.906250 -30.781250C23.945312 -30.761719 23.515625 -30.898438 22.617188 -31.191406C22.089844 -31.347656 21.679688 -31.503906 21.386719 -31.660156C20.976562 -31.855469 20.693359 -32.070312 20.537109 -32.304688C20.595703 -32.207031 20.390625 -32.089844 19.921875 -31.953125C19.589844 -31.855469 19.072266 -31.738281 18.369141 -31.601562L16.962891 -31.337891C16.591797 -31.259766 16.513672 -31.210938 16.728516 -31.191406C16.044922 -31.210938 15.341797 -31.435547 14.619141 -31.865234C13.974609 -32.236328 13.378906 -32.724609 12.832031 -33.330078L12.568359 -33.417969C12.568359 -33.085938 12.675781 -32.744141 12.890625 -32.392578C13.007812 -32.177734 13.227539 -31.865234 13.549805 -31.455078C13.872070 -31.044922 14.091797 -30.742188 14.208984 -30.546875L15.322266 -30.048828C15.712891 -30.283203 15.527344 -30.166016 14.765625 -29.697266C14.550781 -29.560547 14.375000 -29.433594 14.238281 -29.316406C14.042969 -29.140625 13.896484 -28.964844 13.798828 -28.789062C13.857422 -28.906250 13.808594 -28.798828 13.652344 -28.466797C13.613281 -28.330078 13.583984 -28.208008 13.564453 -28.100586C13.544922 -27.993164 13.554688 -27.890625 13.593750 -27.792969C14.003906 -28.242188 14.599609 -28.564453 15.380859 -28.759766L14.912109 -28.027344C14.951172 -27.675781 14.863281 -27.197266 14.648438 -26.591797C14.609375 -26.689453 14.560547 -26.787109 14.501953 -26.884766C13.583984 -27.275391 12.890625 -27.656250 12.421875 -28.027344C12.539062 -27.636719 12.783203 -27.207031 13.154297 -26.738281C13.466797 -26.328125 13.828125 -25.957031 14.238281 -25.625000C14.140625 -25.390625 14.023438 -25.166016 13.886719 -24.951172C13.183594 -25.439453 12.656250 -25.849609 12.304688 -26.181641C12.382812 -26.025391 12.509766 -25.712891 12.685547 -25.244141C12.822266 -24.853516 12.949219 -24.570312 13.066406 -24.394531C10.468750 -24.589844 8.349609 -25.390625 6.708984 -26.796875L8.466797 -27.792969C8.271484 -27.773438 7.929688 -27.695312 7.441406 -27.558594L6.210938 -27.236328L6.005859 -27.470703L7.031250 -27.968750C7.480469 -28.203125 7.832031 -28.398438 8.085938 -28.554688C8.437500 -28.789062 8.671875 -29.013672 8.789062 -29.228516L8.613281 -29.169922L6.826172 -29.082031C6.748047 -29.355469 6.757812 -29.638672 6.855469 -29.931641C6.894531 -30.068359 7.001953 -30.302734 7.177734 -30.634766C7.314453 -30.927734 7.392578 -31.152344 7.412109 -31.308594C7.451172 -31.562500 7.382812 -31.796875 7.207031 -32.011719C6.523438 -32.910156 6.044922 -33.691406 5.771484 -34.355469C5.380859 -35.253906 5.234375 -36.132812 5.332031 -36.992188C5.488281 -36.660156 5.625000 -36.445312 5.742188 -36.347656L5.830078 -36.992188C5.869141 -37.265625 5.908203 -37.470703 5.947266 -37.607422C6.064453 -37.197266 6.162109 -36.914062 6.240234 -36.757812C6.396484 -36.425781 6.611328 -36.181641 6.884766 -36.025391L6.914062 -36.083984C6.640625 -37.060547 6.621094 -37.988281 6.855469 -38.867188C7.109375 -39.863281 7.656250 -40.625000 8.496094 -41.152344C8.378906 -41.113281 8.105469 -41.064453 7.675781 -41.005859C7.246094 -40.947266 6.894531 -40.859375 6.621094 -40.742188C6.660156 -40.761719 6.718750 -40.883789 6.796875 -41.108398C6.875000 -41.333008 6.953125 -41.513672 7.031250 -41.650391C7.167969 -41.884766 7.304688 -42.060547 7.441406 -42.177734C7.558594 -42.255859 7.714844 -42.392578 7.910156 -42.587891C8.105469 -42.783203 8.281250 -42.919922 8.437500 -42.998047C8.906250 -43.369141 9.326172 -43.642578 9.697266 -43.818359C10.205078 -44.091797 10.781250 -44.277344 11.425781 -44.375000C11.582031 -44.394531 11.738281 -44.404297 11.894531 -44.404297ZM12.451172 -43.027344C11.904297 -43.027344 11.318359 -42.910156 10.693359 -42.675781L10.312500 -42.382812C10.039062 -42.050781 9.853516 -41.796875 9.755859 -41.621094C9.560547 -41.347656 9.443359 -41.064453 9.404297 -40.771484L9.492188 -40.654297C9.746094 -40.966797 10.107422 -41.240234 10.576172 -41.474609C10.576172 -41.123047 10.668945 -40.795898 10.854492 -40.493164C11.040039 -40.190430 11.289062 -39.951172 11.601562 -39.775391L11.689453 -39.775391C11.630859 -40.146484 11.621094 -40.532227 11.660156 -40.932617C11.699219 -41.333008 11.787109 -41.699219 11.923828 -42.031250C12.060547 -42.148438 12.294922 -42.294922 12.626953 -42.470703C12.958984 -42.646484 13.193359 -42.802734 13.330078 -42.939453C13.056641 -43.017578 12.763672 -43.046875 12.451172 -43.027344ZM18.310547 -41.298828C18.466797 -41.298828 18.613281 -41.269531 18.750000 -41.210938C18.632812 -41.152344 18.554688 -41.044922 18.515625 -40.888672C18.496094 -40.810547 18.496094 -40.742188 18.515625 -40.683594C18.300781 -40.839844 18.193359 -41.044922 18.193359 -41.298828ZM13.535156 -41.269531C13.574219 -41.152344 13.671875 -40.996094 13.828125 -40.800781C14.082031 -40.449219 14.208984 -40.283203 14.208984 -40.302734C13.662109 -40.263672 13.076172 -40.156250 12.451172 -39.980469C12.548828 -39.902344 12.690430 -39.814453 12.875977 -39.716797C13.061523 -39.619141 13.193359 -39.531250 13.271484 -39.453125C13.369141 -39.492188 13.115234 -39.404297 12.509766 -39.189453C12.216797 -39.072266 11.972656 -38.964844 11.777344 -38.867188C11.503906 -38.750000 11.269531 -38.593750 11.074219 -38.398438L11.220703 -38.339844C11.826172 -38.457031 12.470703 -38.510742 13.154297 -38.500977C13.837891 -38.491211 14.492188 -38.417969 15.117188 -38.281250L15.205078 -38.339844L14.472656 -39.687500L15.585938 -39.921875C14.824219 -40.644531 14.140625 -41.093750 13.535156 -41.269531ZM19.394531 -40.859375C19.550781 -40.722656 19.697266 -40.566406 19.833984 -40.390625C19.619141 -40.332031 19.404297 -40.332031 19.189453 -40.390625C19.287109 -40.449219 19.355469 -40.546875 19.394531 -40.683594C19.394531 -40.742188 19.394531 -40.800781 19.394531 -40.859375ZM17.548828 -40.156250C17.802734 -39.394531 18.164062 -38.994141 18.632812 -38.955078C19.277344 -38.837891 19.882812 -38.828125 20.449219 -38.925781C20.214844 -39.042969 19.882812 -39.160156 19.453125 -39.277344C18.945312 -39.414062 18.603516 -39.511719 18.427734 -39.570312C18.076172 -39.726562 17.783203 -39.921875 17.548828 -40.156250ZM10.781250 -38.339844C10.332031 -38.007812 10.014648 -37.597656 9.829102 -37.109375C9.643555 -36.621094 9.589844 -36.103516 9.667969 -35.556641C9.707031 -35.400391 9.707031 -35.205078 9.667969 -34.970703L9.550781 -34.355469C9.492188 -34.101562 9.472656 -33.896484 9.492188 -33.740234C9.511719 -33.525391 9.589844 -33.339844 9.726562 -33.183594C10.156250 -32.695312 10.771484 -32.158203 11.572266 -31.572266L11.513672 -31.806641C10.830078 -32.607422 10.380859 -33.330078 10.166016 -33.974609L10.839844 -33.740234C11.113281 -33.642578 11.347656 -33.564453 11.542969 -33.505859C11.816406 -33.427734 12.060547 -33.369141 12.275391 -33.330078C12.158203 -33.525391 11.914062 -33.837891 11.542969 -34.267578C11.210938 -34.697266 10.976562 -35.029297 10.839844 -35.263672C10.605469 -35.634766 10.449219 -35.996094 10.371094 -36.347656C10.292969 -36.738281 10.322266 -37.138672 10.458984 -37.548828C10.458984 -37.626953 10.522461 -37.753906 10.649414 -37.929688C10.776367 -38.105469 10.820312 -38.242188 10.781250 -38.339844ZM21.328125 -34.560547C21.328125 -34.560547 21.406250 -34.541016 21.562500 -34.501953C21.660156 -34.482422 21.718750 -34.453125 21.738281 -34.414062C21.679688 -34.375000 21.596680 -34.306641 21.489258 -34.208984C21.381836 -34.111328 21.298828 -34.052734 21.240234 -34.033203C21.240234 -34.033203 21.250000 -34.130859 21.269531 -34.326172C21.269531 -34.423828 21.289062 -34.501953 21.328125 -34.560547ZM22.500000 -33.945312C22.578125 -33.945312 22.675781 -33.906250 22.792969 -33.828125L22.412109 -33.447266L22.441406 -33.945312ZM23.378906 -33.623047L23.671875 -33.447266C23.652344 -33.447266 23.593750 -33.378906 23.496094 -33.242188C23.398438 -33.105469 23.330078 -33.037109 23.291016 -33.037109L23.320312 -33.359375C23.320312 -33.535156 23.339844 -33.623047 23.378906 -33.623047ZM24.287109 -33.212891L24.550781 -33.154297C24.550781 -33.134766 24.492188 -33.037109 24.375000 -32.861328C24.296875 -32.705078 24.208984 -32.626953 24.111328 -32.626953L24.228516 -32.861328L24.228516 -33.125000C24.228516 -33.183594 24.248047 -33.212891 24.287109 -33.212891ZM25.224609 -33.037109L25.576172 -32.949219L25.195312 -32.304688ZM26.250000 -32.861328C26.269531 -32.861328 26.376953 -32.822266 26.572266 -32.744141L26.162109 -32.421875C26.142578 -32.597656 26.137695 -32.714844 26.147461 -32.773438C26.157227 -32.832031 26.191406 -32.861328 26.250000 -32.861328ZM27.333984 -32.685547C27.431641 -32.685547 27.500000 -32.666016 27.539062 -32.626953C27.539062 -32.548828 27.485352 -32.446289 27.377930 -32.319336C27.270508 -32.192383 27.207031 -32.109375 27.187500 -32.070312C27.167969 -31.699219 27.177734 -31.806641 27.216797 -32.392578C27.216797 -32.509766 27.207031 -32.607422 27.187500 -32.685547ZM27.333984 -32.685547"></path></svg>