<svg width="24.643555" height="23.471680" viewBox="2.333984 -46.850586 24.643555 23.471680" xmlns="http://www.w3.org/2000/svg"><path d="M13.330078 -46.850586C12.900391 -46.850586 12.509766 -46.772461 12.158203 -46.616211C11.650391 -46.420898 11.259766 -46.103516 10.986328 -45.664062C10.712891 -45.224609 10.566406 -44.702148 10.546875 -44.096680C10.527344 -43.081055 10.878906 -42.036133 11.601562 -40.961914L11.630859 -40.932617C11.201172 -41.831055 11.074219 -42.661133 11.250000 -43.422852C11.425781 -44.184570 11.865234 -44.711914 12.568359 -45.004883C13.095703 -45.200195 13.701172 -45.224609 14.384766 -45.078125C15.068359 -44.931641 15.737305 -44.624023 16.391602 -44.155273C17.045898 -43.686523 17.597656 -43.120117 18.046875 -42.456055C18.574219 -41.674805 18.872070 -40.898438 18.940430 -40.126953C19.008789 -39.355469 18.847656 -38.725586 18.457031 -38.237305C18.945312 -38.549805 19.282227 -38.999023 19.467773 -39.584961C19.653320 -40.170898 19.667969 -40.820312 19.511719 -41.533203C19.355469 -42.246094 19.033203 -42.963867 18.544922 -43.686523C17.900391 -44.643555 17.094727 -45.410156 16.127930 -45.986328C15.161133 -46.562500 14.228516 -46.850586 13.330078 -46.850586ZM14.794922 -42.690430C14.423828 -42.690430 14.082031 -42.573242 13.769531 -42.338867C13.457031 -42.104492 13.242188 -41.796875 13.125000 -41.416016C13.007812 -41.035156 13.017578 -40.659180 13.154297 -40.288086L10.107422 -38.061523C10.244141 -37.944336 10.361328 -37.817383 10.458984 -37.680664C10.556641 -37.543945 10.634766 -37.397461 10.693359 -37.241211L13.740234 -39.467773C14.052734 -39.213867 14.409180 -39.086914 14.809570 -39.086914C15.209961 -39.086914 15.576172 -39.204102 15.908203 -39.438477C16.318359 -39.731445 16.562500 -40.122070 16.640625 -40.610352C16.718750 -41.098633 16.611328 -41.547852 16.318359 -41.958008C16.142578 -42.192383 15.927734 -42.373047 15.673828 -42.500000C15.419922 -42.626953 15.156250 -42.690430 14.882812 -42.690430ZM24.023438 -42.309570C23.574219 -42.309570 23.115234 -42.192383 22.646484 -41.958008C21.728516 -41.489258 20.966797 -40.678711 20.361328 -39.526367C20.947266 -40.327148 21.616211 -40.825195 22.368164 -41.020508C23.120117 -41.215820 23.789062 -41.069336 24.375000 -40.581055C24.804688 -40.209961 25.112305 -39.687500 25.297852 -39.013672C25.483398 -38.339844 25.522461 -37.607422 25.415039 -36.816406C25.307617 -36.025391 25.068359 -35.268555 24.697266 -34.545898C24.423828 -34.057617 24.111328 -33.627930 23.759766 -33.256836L23.789062 -33.198242C23.984375 -33.041992 24.160156 -32.856445 24.316406 -32.641602C24.980469 -33.129883 25.537109 -33.798828 25.986328 -34.648438C26.435547 -35.498047 26.723633 -36.381836 26.850586 -37.299805C26.977539 -38.217773 26.933594 -39.072266 26.718750 -39.863281C26.503906 -40.654297 26.142578 -41.264648 25.634766 -41.694336C25.166016 -42.104492 24.628906 -42.309570 24.023438 -42.309570ZM8.730469 -41.284180C7.773438 -41.284180 6.796875 -40.971680 5.800781 -40.346680C4.980469 -39.858398 4.287109 -39.248047 3.720703 -38.515625C3.154297 -37.783203 2.763672 -37.026367 2.548828 -36.245117C2.333984 -35.463867 2.333984 -34.750977 2.548828 -34.106445C2.724609 -33.598633 3.027344 -33.193359 3.457031 -32.890625C3.886719 -32.587891 4.394531 -32.416992 4.980469 -32.377930C6.015625 -32.319336 7.080078 -32.622070 8.173828 -33.286133L8.203125 -33.315430C7.285156 -32.924805 6.450195 -32.832031 5.698242 -33.037109C4.946289 -33.242188 4.443359 -33.706055 4.189453 -34.428711C4.013672 -34.975586 4.013672 -35.585938 4.189453 -36.259766C4.365234 -36.933594 4.702148 -37.587891 5.200195 -38.222656C5.698242 -38.857422 6.289062 -39.379883 6.972656 -39.790039C7.792969 -40.278320 8.588867 -40.541992 9.360352 -40.581055C10.131836 -40.620117 10.751953 -40.434570 11.220703 -40.024414C10.986328 -40.415039 10.664062 -40.717773 10.253906 -40.932617C9.843750 -41.147461 9.365234 -41.264648 8.818359 -41.284180ZM15.380859 -38.471680C15.048828 -38.393555 14.716797 -38.393555 14.384766 -38.471680L14.384766 -35.922852C14.189453 -35.864258 14.003906 -35.776367 13.828125 -35.659180C13.417969 -35.366211 13.173828 -34.975586 13.095703 -34.487305C13.017578 -33.999023 13.125000 -33.549805 13.417969 -33.139648C13.652344 -32.807617 13.959961 -32.583008 14.340820 -32.465820C14.721680 -32.348633 15.097656 -32.358398 15.468750 -32.495117L17.431641 -29.799805C17.275391 -29.624023 17.167969 -29.418945 17.109375 -29.184570L17.080078 -29.067383L17.050781 -28.627930L17.109375 -28.159180C17.167969 -27.983398 17.255859 -27.807617 17.373047 -27.631836C17.666016 -27.241211 18.061523 -27.006836 18.559570 -26.928711C19.057617 -26.850586 19.506836 -26.958008 19.907227 -27.250977C20.307617 -27.543945 20.546875 -27.934570 20.625000 -28.422852C20.703125 -28.911133 20.595703 -29.360352 20.302734 -29.770508C20.126953 -30.004883 19.916992 -30.185547 19.672852 -30.312500C19.428711 -30.439453 19.160156 -30.502930 18.867188 -30.502930C18.652344 -30.502930 18.447266 -30.473633 18.251953 -30.415039L16.289062 -33.081055C16.542969 -33.393555 16.674805 -33.750000 16.684570 -34.150391C16.694336 -34.550781 16.577148 -34.916992 16.333008 -35.249023C16.088867 -35.581055 15.771484 -35.805664 15.380859 -35.922852ZM21.240234 -38.061523C20.869141 -38.041992 20.527344 -37.924805 20.214844 -37.709961C19.980469 -37.534180 19.794922 -37.314453 19.658203 -37.050781C19.521484 -36.787109 19.462891 -36.508789 19.482422 -36.215820L17.021484 -35.424805C17.197266 -35.112305 17.304688 -34.790039 17.343750 -34.458008L18.867188 -34.956055L19.804688 -35.190430C20.097656 -34.780273 20.493164 -34.536133 20.991211 -34.458008C21.489258 -34.379883 21.938477 -34.487305 22.338867 -34.780273C22.739258 -35.073242 22.978516 -35.468750 23.056641 -35.966797C23.134766 -36.464844 23.027344 -36.909180 22.734375 -37.299805C22.558594 -37.534180 22.348633 -37.719727 22.104492 -37.856445C21.860352 -37.993164 21.591797 -38.061523 21.298828 -38.061523ZM8.408203 -38.032227C8.037109 -38.012695 7.695312 -37.895508 7.382812 -37.680664C6.972656 -37.387695 6.728516 -36.997070 6.650391 -36.508789C6.572266 -36.020508 6.679688 -35.571289 6.972656 -35.161133C7.265625 -34.750977 7.661133 -34.506836 8.159180 -34.428711C8.657227 -34.350586 9.106445 -34.458008 9.506836 -34.750977C9.907227 -35.043945 10.146484 -35.434570 10.224609 -35.922852C10.302734 -36.411133 10.195312 -36.860352 9.902344 -37.270508C9.726562 -37.504883 9.511719 -37.685547 9.257812 -37.812500C9.003906 -37.939453 8.740234 -38.012695 8.466797 -38.032227ZM21.328125 -33.286133C21.191406 -33.266602 21.044922 -33.256836 20.888672 -33.256836C19.873047 -33.120117 18.886719 -32.612305 17.929688 -31.733398C18.750000 -32.280273 19.550781 -32.524414 20.332031 -32.465820C21.113281 -32.407227 21.689453 -32.045898 22.060547 -31.381836C22.353516 -30.874023 22.470703 -30.273438 22.412109 -29.580078C22.353516 -28.886719 22.143555 -28.183594 21.782227 -27.470703C21.420898 -26.757812 20.937500 -26.127930 20.332031 -25.581055C19.628906 -24.956055 18.901367 -24.555664 18.149414 -24.379883C17.397461 -24.204102 16.748047 -24.272461 16.201172 -24.584961C16.591797 -24.135742 17.084961 -23.862305 17.680664 -23.764648C18.276367 -23.666992 18.920898 -23.750000 19.614258 -24.013672C20.307617 -24.277344 20.976562 -24.692383 21.621094 -25.258789C22.304688 -25.903320 22.861328 -26.635742 23.291016 -27.456055C23.720703 -28.276367 23.969727 -29.091797 24.038086 -29.902344C24.106445 -30.712891 23.964844 -31.411133 23.613281 -31.997070C23.378906 -32.426758 23.061523 -32.749023 22.661133 -32.963867C22.260742 -33.178711 21.816406 -33.286133 21.328125 -33.286133ZM13.037109 -32.524414L11.923828 -30.942383C12.236328 -30.805664 12.509766 -30.610352 12.744141 -30.356445L13.886719 -31.938477C13.554688 -32.075195 13.271484 -32.270508 13.037109 -32.524414ZM7.792969 -31.967773C7.753906 -31.967773 7.705078 -31.967773 7.646484 -31.967773C7.451172 -31.948242 7.265625 -31.928711 7.089844 -31.909180C6.503906 -31.811523 6.010742 -31.591797 5.610352 -31.250000C5.209961 -30.908203 4.941406 -30.473633 4.804688 -29.946289C4.667969 -29.282227 4.741211 -28.574219 5.024414 -27.822266C5.307617 -27.070312 5.771484 -26.357422 6.416016 -25.683594C7.060547 -25.009766 7.812500 -24.467773 8.671875 -24.057617C9.433594 -23.686523 10.180664 -23.476562 10.913086 -23.427734C11.645508 -23.378906 12.290039 -23.486328 12.846680 -23.750000C13.403320 -24.013672 13.798828 -24.409180 14.033203 -24.936523C13.603516 -24.467773 13.002930 -24.213867 12.231445 -24.174805C11.459961 -24.135742 10.644531 -24.321289 9.785156 -24.731445C9.062500 -25.083008 8.422852 -25.546875 7.866211 -26.123047C7.309570 -26.699219 6.909180 -27.314453 6.665039 -27.968750C6.420898 -28.623047 6.367188 -29.233398 6.503906 -29.799805C6.660156 -30.522461 7.104492 -31.025391 7.836914 -31.308594C8.569336 -31.591797 9.414062 -31.586914 10.371094 -31.293945L10.341797 -31.323242C9.462891 -31.733398 8.613281 -31.948242 7.792969 -31.967773ZM10.869141 -30.473633C10.498047 -30.473633 10.166016 -30.366211 9.873047 -30.151367C9.462891 -29.858398 9.218750 -29.462891 9.140625 -28.964844C9.062500 -28.466797 9.169922 -28.017578 9.462891 -27.617188C9.755859 -27.216797 10.146484 -26.977539 10.634766 -26.899414C11.123047 -26.821289 11.572266 -26.928711 11.982422 -27.221680C12.314453 -27.456055 12.539062 -27.768555 12.656250 -28.159180L16.435547 -28.159180L16.376953 -28.803711C16.376953 -28.920898 16.386719 -29.047852 16.406250 -29.184570L12.656250 -29.184570C12.597656 -29.379883 12.509766 -29.565430 12.392578 -29.741211L12.333984 -29.799805L12.011719 -30.122070L11.513672 -30.385742C11.318359 -30.444336 11.132812 -30.473633 10.957031 -30.473633ZM10.869141 -30.473633"></path></svg>