<svg width="24.550781" height="23.378906" viewBox="0.878906 -47.841797 24.550781 23.378906" xmlns="http://www.w3.org/2000/svg"><path d="M9.228516 -47.841797C7.705078 -47.841797 6.298828 -47.460938 5.009766 -46.699219C3.759766 -45.976562 2.763672 -44.980469 2.021484 -43.710938C1.259766 -42.421875 0.878906 -41.030273 0.878906 -39.536133C0.878906 -38.041992 1.240234 -36.660156 1.962891 -35.390625C2.666016 -34.140625 3.632812 -33.139648 4.863281 -32.387695C6.093750 -31.635742 7.441406 -31.230469 8.906250 -31.171875C9.160156 -29.902344 9.677734 -28.754883 10.458984 -27.729492C11.240234 -26.704102 12.207031 -25.908203 13.359375 -25.341797C14.531250 -24.755859 15.781250 -24.462891 17.109375 -24.462891C18.613281 -24.462891 20.009766 -24.843750 21.298828 -25.605469C22.568359 -26.328125 23.574219 -27.324219 24.316406 -28.593750C25.058594 -29.882812 25.429688 -31.274414 25.429688 -32.768555C25.429688 -34.262695 25.068359 -35.644531 24.345703 -36.914062C23.642578 -38.164062 22.675781 -39.165039 21.445312 -39.916992C20.214844 -40.668945 18.867188 -41.074219 17.402344 -41.132812C17.148438 -42.402344 16.630859 -43.544922 15.849609 -44.560547C15.068359 -45.576172 14.111328 -46.376953 12.978516 -46.962891C11.806641 -47.548828 10.556641 -47.841797 9.228516 -47.841797ZM9.228516 -46.376953C10.458984 -46.376953 11.601562 -46.069336 12.656250 -45.454102C13.710938 -44.838867 14.545898 -44.003906 15.161133 -42.949219C15.776367 -41.894531 16.083984 -40.747070 16.083984 -39.506836C16.083984 -38.266602 15.776367 -37.119141 15.161133 -36.064453C14.545898 -35.009766 13.710938 -34.174805 12.656250 -33.559570C11.601562 -32.944336 10.454102 -32.636719 9.213867 -32.636719C7.973633 -32.636719 6.826172 -32.944336 5.771484 -33.559570C4.716797 -34.174805 3.881836 -35.009766 3.266602 -36.064453C2.651367 -37.119141 2.343750 -38.266602 2.343750 -39.506836C2.343750 -40.747070 2.651367 -41.894531 3.266602 -42.949219C3.881836 -44.003906 4.716797 -44.838867 5.771484 -45.454102C6.826172 -46.069336 7.978516 -46.376953 9.228516 -46.376953ZM6.650391 -42.011719C6.181641 -42.011719 5.786133 -41.845703 5.463867 -41.513672C5.141602 -41.181641 4.980469 -40.786133 4.980469 -40.327148C4.980469 -39.868164 5.141602 -39.472656 5.463867 -39.140625C5.786133 -38.808594 6.181641 -38.642578 6.650391 -38.642578C7.119141 -38.642578 7.514648 -38.808594 7.836914 -39.140625C8.159180 -39.472656 8.320312 -39.868164 8.320312 -40.327148C8.320312 -40.786133 8.159180 -41.181641 7.836914 -41.513672C7.514648 -41.845703 7.119141 -42.011719 6.650391 -42.011719ZM11.777344 -42.011719C11.308594 -42.011719 10.908203 -41.845703 10.576172 -41.513672C10.244141 -41.181641 10.078125 -40.786133 10.078125 -40.327148C10.078125 -39.868164 10.244141 -39.472656 10.576172 -39.140625C10.908203 -38.808594 11.303711 -38.642578 11.762695 -38.642578C12.221680 -38.642578 12.617188 -38.808594 12.949219 -39.140625C13.281250 -39.472656 13.447266 -39.868164 13.447266 -40.327148C13.447266 -40.786133 13.281250 -41.181641 12.949219 -41.513672C12.617188 -41.845703 12.226562 -42.011719 11.777344 -42.011719ZM17.548828 -39.638672C18.740234 -39.560547 19.824219 -39.208984 20.800781 -38.583984C21.777344 -37.958984 22.548828 -37.133789 23.115234 -36.108398C23.681641 -35.083008 23.964844 -33.974609 23.964844 -32.783203C23.964844 -31.552734 23.657227 -30.410156 23.041992 -29.355469C22.426758 -28.300781 21.591797 -27.465820 20.537109 -26.850586C19.482422 -26.235352 18.339844 -25.927734 17.109375 -25.927734C16.035156 -25.927734 15.029297 -26.157227 14.091797 -26.616211C13.154297 -27.075195 12.363281 -27.709961 11.718750 -28.520508C11.074219 -29.331055 10.634766 -30.244141 10.400391 -31.259766C11.494141 -31.416016 12.509766 -31.767578 13.447266 -32.314453C13.759766 -32.060547 14.121094 -31.933594 14.531250 -31.933594C15.000000 -31.933594 15.395508 -32.099609 15.717773 -32.431641C16.040039 -32.763672 16.201172 -33.154297 16.201172 -33.603516C16.201172 -33.955078 16.113281 -34.267578 15.937500 -34.541016C16.445312 -35.244141 16.840820 -36.020508 17.124023 -36.870117C17.407227 -37.719727 17.548828 -38.593750 17.548828 -39.492188ZM19.658203 -35.273438C19.189453 -35.273438 18.789062 -35.112305 18.457031 -34.790039C18.125000 -34.467773 17.958984 -34.077148 17.958984 -33.618164C17.958984 -33.159180 18.125000 -32.763672 18.457031 -32.431641C18.789062 -32.099609 19.184570 -31.933594 19.643555 -31.933594C20.102539 -31.933594 20.498047 -32.099609 20.830078 -32.431641C21.162109 -32.763672 21.328125 -33.159180 21.328125 -33.618164C21.328125 -34.077148 21.162109 -34.467773 20.830078 -34.790039C20.498047 -35.112305 20.107422 -35.273438 19.658203 -35.273438ZM19.658203 -35.273438"></path></svg>