<svg width="23.437500" height="23.437500" viewBox="2.929688 -46.816406 23.437500 23.437500" xmlns="http://www.w3.org/2000/svg"><path d="M7.500000 -46.816406C6.679688 -46.816406 5.917969 -46.611328 5.214844 -46.201172C4.511719 -45.791016 3.955078 -45.234375 3.544922 -44.531250C3.134766 -43.828125 2.929688 -43.066406 2.929688 -42.246094L2.929688 -27.949219C2.929688 -27.128906 3.134766 -26.367188 3.544922 -25.664062C3.955078 -24.960938 4.511719 -24.404297 5.214844 -23.994141C5.917969 -23.583984 6.679688 -23.378906 7.500000 -23.378906L21.796875 -23.378906C22.617188 -23.378906 23.378906 -23.583984 24.082031 -23.994141C24.785156 -24.404297 25.341797 -24.960938 25.751953 -25.664062C26.162109 -26.367188 26.367188 -27.128906 26.367188 -27.949219L26.367188 -42.246094C26.367188 -43.066406 26.162109 -43.828125 25.751953 -44.531250C25.341797 -45.234375 24.785156 -45.791016 24.082031 -46.201172C23.378906 -46.611328 22.617188 -46.816406 21.796875 -46.816406ZM18.251953 -44.296875C18.544922 -44.296875 18.798828 -44.199219 19.013672 -44.003906L23.408203 -39.580078C23.642578 -39.365234 23.759766 -39.106445 23.759766 -38.803711C23.759766 -38.500977 23.652344 -38.242188 23.437500 -38.027344C23.222656 -37.812500 22.958984 -37.705078 22.646484 -37.705078C22.333984 -37.705078 22.070312 -37.812500 21.855469 -38.027344L21.357422 -38.525391L17.958984 -35.156250C18.232422 -34.316406 18.271484 -33.466797 18.076172 -32.607422C17.880859 -31.748047 17.460938 -31.005859 16.816406 -30.380859L9.843750 -37.382812C10.468750 -38.007812 11.206055 -38.417969 12.055664 -38.613281C12.905273 -38.808594 13.750000 -38.779297 14.589844 -38.525391L17.988281 -41.894531L17.460938 -42.451172C17.246094 -42.666016 17.138672 -42.919922 17.138672 -43.212891C17.138672 -43.505859 17.246094 -43.759766 17.460938 -43.974609C17.675781 -44.189453 17.939453 -44.296875 18.251953 -44.296875ZM5.507812 -35.507812C6.582031 -35.527344 7.631836 -35.356445 8.657227 -34.995117C9.682617 -34.633789 10.615234 -34.101562 11.455078 -33.398438L7.646484 -29.560547C7.451172 -29.345703 7.353516 -29.091797 7.353516 -28.798828C7.353516 -28.505859 7.460938 -28.251953 7.675781 -28.037109C7.890625 -27.822266 8.144531 -27.714844 8.437500 -27.714844C8.730469 -27.714844 8.984375 -27.812500 9.199219 -28.007812L12.978516 -31.787109C13.662109 -30.869141 14.150391 -29.863281 14.443359 -28.769531C14.736328 -27.675781 14.824219 -26.572266 14.707031 -25.458984L8.583984 -25.458984C7.939453 -25.439453 7.353516 -25.585938 6.826172 -25.898438C6.298828 -26.210938 5.878906 -26.635742 5.566406 -27.172852C5.253906 -27.709961 5.097656 -28.291016 5.097656 -28.916016L5.097656 -35.507812ZM5.507812 -35.507812"></path></svg>