<svg width="23.437500" height="23.437500" viewBox="2.929688 -46.757812 23.437500 23.437500" xmlns="http://www.w3.org/2000/svg"><path d="M14.619141 -46.757812C14.208984 -46.757812 13.857422 -46.611328 13.564453 -46.318359L11.425781 -44.179688L14.121094 -41.484375C14.453125 -41.601562 14.785156 -41.621094 15.117188 -41.542969C15.449219 -41.464844 15.737305 -41.303711 15.981445 -41.059570C16.225586 -40.815430 16.381836 -40.527344 16.450195 -40.195312C16.518555 -39.863281 16.503906 -39.531250 16.406250 -39.199219L18.984375 -36.621094C19.316406 -36.718750 19.648438 -36.733398 19.980469 -36.665039C20.312500 -36.596680 20.605469 -36.435547 20.859375 -36.181641C21.210938 -35.830078 21.386719 -35.405273 21.386719 -34.907227C21.386719 -34.409180 21.210938 -33.989258 20.859375 -33.647461C20.507812 -33.305664 20.083008 -33.134766 19.584961 -33.134766C19.086914 -33.134766 18.662109 -33.300781 18.310547 -33.632812C18.056641 -33.906250 17.895508 -34.218750 17.827148 -34.570312C17.758789 -34.921875 17.792969 -35.263672 17.929688 -35.595703L15.498047 -38.027344L15.498047 -31.640625C15.673828 -31.562500 15.830078 -31.455078 15.966797 -31.318359C16.318359 -30.966797 16.494141 -30.541992 16.494141 -30.043945C16.494141 -29.545898 16.318359 -29.121094 15.966797 -28.769531C15.615234 -28.417969 15.190430 -28.242188 14.692383 -28.242188C14.194336 -28.242188 13.774414 -28.417969 13.432617 -28.769531C13.090820 -29.121094 12.919922 -29.545898 12.919922 -30.043945C12.919922 -30.541992 13.095703 -30.966797 13.447266 -31.318359C13.603516 -31.474609 13.798828 -31.601562 14.033203 -31.699219L14.033203 -38.144531C13.798828 -38.222656 13.603516 -38.349609 13.447266 -38.525391C13.173828 -38.779297 13.002930 -39.086914 12.934570 -39.448242C12.866211 -39.809570 12.900391 -40.156250 13.037109 -40.488281L10.400391 -43.154297L3.369141 -36.123047C3.076172 -35.830078 2.929688 -35.473633 2.929688 -35.053711C2.929688 -34.633789 3.076172 -34.277344 3.369141 -33.984375L13.593750 -23.759766C13.886719 -23.466797 14.243164 -23.320312 14.663086 -23.320312C15.083008 -23.320312 15.439453 -23.466797 15.732422 -23.759766L25.927734 -33.955078C26.220703 -34.248047 26.367188 -34.604492 26.367188 -35.024414C26.367188 -35.444336 26.220703 -35.800781 25.927734 -36.093750L15.703125 -46.318359C15.410156 -46.611328 15.048828 -46.757812 14.619141 -46.757812ZM14.619141 -46.757812"></path></svg>