<svg width="25.493164" height="25.263672" viewBox="1.899414 -50.048828 25.493164 25.263672" xmlns="http://www.w3.org/2000/svg"><path d="M7.851562 -50.048828C6.738281 -50.048828 5.742188 -49.814453 4.863281 -49.345703C4.296875 -49.052734 3.842773 -48.740234 3.500977 -48.408203C3.159180 -48.076172 2.841797 -47.631836 2.548828 -47.075195C2.255859 -46.518555 2.070312 -45.966797 1.992188 -45.419922C1.914062 -44.951172 1.899414 -44.355469 1.948242 -43.632812C1.997070 -42.910156 2.119141 -42.290039 2.314453 -41.772461C2.509766 -41.254883 2.827148 -40.722656 3.266602 -40.175781C3.706055 -39.628906 4.155273 -39.228516 4.614258 -38.974609C5.073242 -38.720703 5.654297 -38.544922 6.357422 -38.447266C6.376953 -37.900391 6.386719 -37.744141 6.386719 -37.978516C6.386719 -37.841797 6.367188 -37.724609 6.328125 -37.626953C6.289062 -37.529297 6.206055 -37.416992 6.079102 -37.290039C5.952148 -37.163086 5.888672 -37.021484 5.888672 -36.865234C5.869141 -36.650391 5.849609 -36.533203 5.830078 -36.513672C5.771484 -36.357422 5.634766 -36.220703 5.419922 -36.103516C5.126953 -35.927734 4.951172 -35.634766 4.892578 -35.224609C4.853516 -35.048828 4.892578 -34.926758 5.009766 -34.858398C5.126953 -34.790039 5.263672 -34.804688 5.419922 -34.902344C5.634766 -35.058594 5.898438 -35.087891 6.210938 -34.990234C6.289062 -34.951172 6.381836 -34.951172 6.489258 -34.990234C6.596680 -35.029297 6.679688 -35.097656 6.738281 -35.195312C6.875000 -35.410156 7.060547 -35.527344 7.294922 -35.546875C7.255859 -34.589844 7.246094 -33.945312 7.265625 -33.613281C7.304688 -32.929688 7.441406 -32.275391 7.675781 -31.650391C7.949219 -30.947266 8.325195 -30.302734 8.803711 -29.716797C9.282227 -29.130859 9.960938 -28.505859 10.839844 -27.841797C9.960938 -28.740234 9.375000 -29.365234 9.082031 -29.716797C8.574219 -30.380859 8.212891 -31.074219 7.998047 -31.796875C7.841797 -32.285156 7.734375 -32.753906 7.675781 -33.203125C7.636719 -33.554688 7.626953 -33.955078 7.646484 -34.404297C7.626953 -33.974609 7.636719 -34.414062 7.675781 -35.722656C7.988281 -35.781250 8.251953 -35.849609 8.466797 -35.927734C8.681641 -36.005859 8.925781 -36.132812 9.199219 -36.308594L9.345703 -35.341797C9.365234 -35.244141 9.375000 -35.068359 9.375000 -34.814453C9.355469 -34.619141 9.360352 -34.477539 9.389648 -34.389648C9.418945 -34.301758 9.477539 -34.257812 9.565430 -34.257812C9.653320 -34.257812 9.711914 -34.213867 9.741211 -34.125977C9.770508 -34.038086 9.794922 -33.852539 9.814453 -33.569336C9.833984 -33.286133 9.853516 -33.110352 9.873047 -33.041992C9.892578 -32.973633 9.912109 -32.934570 9.931641 -32.924805C9.951172 -32.915039 9.975586 -32.915039 10.004883 -32.924805C10.034180 -32.934570 10.058594 -32.939453 10.078125 -32.939453L10.283203 -32.910156C10.380859 -32.890625 10.449219 -32.861328 10.488281 -32.822266C10.527344 -32.783203 10.551758 -32.695312 10.561523 -32.558594C10.571289 -32.421875 10.605469 -32.333984 10.664062 -32.294922C10.722656 -32.255859 10.815430 -32.236328 10.942383 -32.236328C11.069336 -32.236328 11.142578 -32.216797 11.162109 -32.177734C11.220703 -32.119141 11.210938 -32.050781 11.132812 -31.972656C11.132812 -31.992188 11.103516 -31.977539 11.044922 -31.928711C10.986328 -31.879883 10.947266 -31.835938 10.927734 -31.796875C10.888672 -31.660156 10.898438 -31.499023 10.957031 -31.313477C11.015625 -31.127930 11.103516 -30.986328 11.220703 -30.888672C11.259766 -30.869141 11.352539 -30.849609 11.499023 -30.830078C11.645508 -30.810547 11.738281 -30.781250 11.777344 -30.742188C11.816406 -30.703125 11.831055 -30.634766 11.821289 -30.537109C11.811523 -30.439453 11.826172 -30.375977 11.865234 -30.346680C11.904297 -30.317383 11.977539 -30.302734 12.084961 -30.302734C12.192383 -30.302734 12.265625 -30.302734 12.304688 -30.302734L12.480469 -30.214844C12.519531 -30.175781 12.534180 -30.126953 12.524414 -30.068359C12.514648 -30.009766 12.456055 -29.921875 12.348633 -29.804688C12.241211 -29.687500 12.177734 -29.619141 12.158203 -29.599609C12.080078 -29.462891 12.055664 -29.340820 12.084961 -29.233398C12.114258 -29.125977 12.192383 -29.008789 12.319336 -28.881836C12.446289 -28.754883 12.607422 -28.613281 12.802734 -28.457031C13.154297 -28.222656 13.330078 -28.105469 13.330078 -28.105469C13.486328 -27.988281 13.564453 -27.890625 13.564453 -27.812500C13.564453 -27.734375 13.505859 -27.646484 13.388672 -27.548828C13.369141 -27.509766 13.300781 -27.465820 13.183594 -27.416992C13.066406 -27.368164 12.988281 -27.324219 12.949219 -27.285156C12.890625 -27.187500 12.871094 -27.060547 12.890625 -26.904297C12.890625 -26.845703 12.910156 -26.777344 12.949219 -26.699219C13.359375 -26.171875 13.408203 -26.123047 13.095703 -26.552734C13.193359 -26.416016 13.310547 -26.318359 13.447266 -26.259766L13.154297 -26.669922C13.095703 -26.787109 13.105469 -26.914062 13.183594 -27.050781C13.203125 -27.089844 13.261719 -27.114258 13.359375 -27.124023C13.457031 -27.133789 13.525391 -27.148438 13.564453 -27.167969C13.505859 -27.128906 13.554688 -27.158203 13.710938 -27.255859C13.789062 -27.294922 13.837891 -27.333984 13.857422 -27.373047C13.974609 -27.548828 14.013672 -27.705078 13.974609 -27.841797C13.974609 -27.919922 13.925781 -28.046875 13.828125 -28.222656C13.671875 -28.515625 13.593750 -28.662109 13.593750 -28.662109C13.593750 -28.662109 13.671875 -28.603516 13.828125 -28.486328C13.925781 -28.408203 13.994141 -28.339844 14.033203 -28.281250C14.072266 -28.222656 14.121094 -28.134766 14.179688 -28.017578C14.238281 -27.900391 14.291992 -27.812500 14.340820 -27.753906C14.389648 -27.695312 14.453125 -27.626953 14.531250 -27.548828L14.765625 -27.343750L14.531250 -27.021484C14.433594 -26.865234 14.365234 -26.748047 14.326172 -26.669922C14.267578 -26.513672 14.252930 -26.372070 14.282227 -26.245117C14.311523 -26.118164 14.375000 -26.005859 14.472656 -25.908203L14.853516 -25.585938C15.322266 -24.785156 15.263672 -24.882812 14.677734 -25.878906C14.619141 -25.976562 14.580078 -26.069336 14.560547 -26.157227C14.541016 -26.245117 14.580078 -26.347656 14.677734 -26.464844C14.697266 -26.503906 14.736328 -26.542969 14.794922 -26.582031C14.892578 -26.640625 14.941406 -26.669922 14.941406 -26.669922C14.941406 -26.669922 14.931641 -26.611328 14.912109 -26.494141C14.892578 -26.416016 14.892578 -26.347656 14.912109 -26.289062C14.951172 -26.191406 15.068359 -26.035156 15.263672 -25.820312C15.400391 -25.664062 15.551758 -25.527344 15.717773 -25.410156C15.883789 -25.292969 16.044922 -25.214844 16.201172 -25.175781C16.279297 -25.156250 16.357422 -25.146484 16.435547 -25.146484C16.591797 -25.146484 16.669922 -25.146484 16.669922 -25.146484C16.669922 -25.146484 16.591797 -25.185547 16.435547 -25.263672C16.337891 -25.283203 16.269531 -25.317383 16.230469 -25.366211C16.191406 -25.415039 16.152344 -25.478516 16.113281 -25.556641C16.054688 -25.673828 16.025391 -25.732422 16.025391 -25.732422C16.025391 -25.732422 16.093750 -25.683594 16.230469 -25.585938C16.308594 -25.527344 16.376953 -25.488281 16.435547 -25.468750C16.591797 -25.390625 16.767578 -25.332031 16.962891 -25.292969C17.060547 -25.273438 17.197266 -25.253906 17.373047 -25.234375C17.744141 -25.195312 17.900391 -25.175781 17.841797 -25.175781C17.958984 -25.117188 17.841797 -25.166016 17.490234 -25.322266C17.392578 -25.380859 17.309570 -25.439453 17.241211 -25.498047C17.172852 -25.556641 17.109375 -25.683594 17.050781 -25.878906C17.128906 -25.839844 17.275391 -25.751953 17.490234 -25.615234C17.666016 -25.498047 17.802734 -25.429688 17.900391 -25.410156C18.173828 -25.332031 18.432617 -25.307617 18.676758 -25.336914C18.920898 -25.366211 19.150391 -25.439453 19.365234 -25.556641C19.052734 -25.498047 18.750000 -25.498047 18.457031 -25.556641L18.662109 -25.673828C18.740234 -25.712891 18.857422 -25.800781 19.013672 -25.937500C19.384766 -26.230469 19.609375 -26.513672 19.687500 -26.787109C19.472656 -26.533203 19.169922 -26.357422 18.779297 -26.259766C19.013672 -26.513672 19.091797 -26.591797 19.013672 -26.494141C19.091797 -26.591797 19.130859 -26.689453 19.130859 -26.787109C18.916016 -26.689453 18.730469 -26.669922 18.574219 -26.728516C18.417969 -26.787109 18.261719 -26.904297 18.105469 -27.080078C17.949219 -27.255859 17.851562 -27.402344 17.812500 -27.519531C17.812500 -27.578125 17.822266 -27.626953 17.841797 -27.666016C17.861328 -27.705078 17.890625 -27.734375 17.929688 -27.753906L18.046875 -27.841797C18.085938 -27.880859 18.173828 -27.939453 18.310547 -28.017578C18.447266 -28.095703 18.544922 -28.164062 18.603516 -28.222656C18.720703 -28.359375 18.798828 -28.500977 18.837891 -28.647461C18.876953 -28.793945 18.876953 -28.955078 18.837891 -29.130859C18.818359 -29.189453 18.774414 -29.277344 18.706055 -29.394531C18.637695 -29.511719 18.603516 -29.589844 18.603516 -29.628906C18.564453 -29.746094 18.554688 -29.838867 18.574219 -29.907227C18.593750 -29.975586 18.642578 -30.058594 18.720703 -30.156250L18.896484 -30.390625L19.394531 -30.478516L19.775391 -30.507812C19.951172 -30.507812 20.078125 -30.527344 20.156250 -30.566406C20.273438 -30.625000 20.361328 -30.810547 20.419922 -31.123047C20.458984 -31.279297 20.478516 -31.445312 20.478516 -31.621094C20.458984 -31.699219 20.439453 -31.855469 20.419922 -32.089844C20.771484 -32.246094 20.917969 -32.314453 20.859375 -32.294922C21.035156 -32.373047 21.171875 -32.480469 21.269531 -32.617188C21.328125 -32.714844 21.357422 -32.841797 21.357422 -32.998047C21.357422 -33.095703 21.308594 -33.193359 21.210938 -33.291016C21.191406 -33.330078 21.132812 -33.388672 21.035156 -33.466797L20.830078 -33.613281C20.791016 -33.652344 20.751953 -33.706055 20.712891 -33.774414C20.673828 -33.842773 20.654297 -33.876953 20.654297 -33.876953C20.927734 -34.052734 21.220703 -34.287109 21.533203 -34.580078C21.708984 -34.755859 21.826172 -34.931641 21.884766 -35.107422C21.943359 -35.283203 21.972656 -35.498047 21.972656 -35.751953C21.953125 -36.083984 21.904297 -36.367188 21.826172 -36.601562C21.787109 -36.679688 21.748047 -36.738281 21.708984 -36.777344C21.806641 -36.679688 21.757812 -36.708984 21.562500 -36.865234C21.445312 -36.962891 21.352539 -37.016602 21.284180 -37.026367C21.215820 -37.036133 21.152344 -37.031250 21.093750 -37.011719L20.917969 -36.953125C19.785156 -36.796875 19.697266 -36.787109 20.654297 -36.923828C20.556641 -36.904297 20.478516 -36.904297 20.419922 -36.923828C20.361328 -36.943359 20.312500 -36.972656 20.273438 -37.011719C20.195312 -37.089844 20.156250 -37.128906 20.156250 -37.128906L20.097656 -37.480469L20.068359 -37.685547C20.068359 -37.763672 20.058594 -37.832031 20.039062 -37.890625L19.892578 -38.388672L20.039062 -38.330078C20.097656 -38.310547 20.156250 -38.271484 20.214844 -38.212891L20.625000 -37.949219C20.800781 -37.832031 20.947266 -37.744141 21.064453 -37.685547C21.220703 -37.607422 21.367188 -37.558594 21.503906 -37.539062C21.640625 -37.519531 21.791992 -37.460938 21.958008 -37.363281C22.124023 -37.265625 22.255859 -37.207031 22.353516 -37.187500C22.568359 -37.148438 22.900391 -37.138672 23.349609 -37.158203C23.642578 -37.158203 23.862305 -37.197266 24.008789 -37.275391C24.155273 -37.353516 24.252930 -37.475586 24.301758 -37.641602C24.350586 -37.807617 24.345703 -37.915039 24.287109 -37.963867C24.228516 -38.012695 24.184570 -38.041992 24.155273 -38.051758C24.125977 -38.061523 24.082031 -38.056641 24.023438 -38.037109C23.828125 -37.978516 23.691406 -38.085938 23.613281 -38.359375L23.525391 -38.798828C24.404297 -38.974609 25.107422 -39.316406 25.634766 -39.824219C25.947266 -40.117188 26.259766 -40.517578 26.572266 -41.025391C26.884766 -41.533203 27.089844 -41.982422 27.187500 -42.373047C27.324219 -42.841797 27.392578 -43.427734 27.392578 -44.130859C27.373047 -44.755859 27.304688 -45.341797 27.187500 -45.888672C27.089844 -46.259766 26.972656 -46.596680 26.835938 -46.899414C26.699219 -47.202148 26.503906 -47.509766 26.250000 -47.822266C25.761719 -48.427734 25.263672 -48.876953 24.755859 -49.169922C24.462891 -49.345703 24.130859 -49.492188 23.759766 -49.609375C23.388672 -49.726562 23.056641 -49.804688 22.763672 -49.843750C21.728516 -49.941406 20.908203 -49.873047 20.302734 -49.638672C20.185547 -49.580078 20.039062 -49.501953 19.863281 -49.404297C19.550781 -49.208984 19.423828 -49.121094 19.482422 -49.140625C19.482422 -49.160156 19.384766 -49.101562 19.189453 -48.964844C19.072266 -48.886719 18.964844 -48.828125 18.867188 -48.789062C18.769531 -48.750000 18.671875 -48.740234 18.574219 -48.759766C18.398438 -48.759766 18.251953 -48.808594 18.134766 -48.906250C18.154297 -48.730469 18.183594 -48.588867 18.222656 -48.481445C18.261719 -48.374023 18.349609 -48.261719 18.486328 -48.144531C18.662109 -47.968750 18.964844 -47.871094 19.394531 -47.851562C19.550781 -47.851562 19.873047 -47.861328 20.361328 -47.880859C20.478516 -47.900391 20.678711 -47.939453 20.961914 -47.998047C21.245117 -48.056641 21.474609 -48.081055 21.650391 -48.071289C21.826172 -48.061523 22.050781 -48.007812 22.324219 -47.910156C22.558594 -47.851562 22.753906 -47.773438 22.910156 -47.675781C23.144531 -47.558594 23.364258 -47.397461 23.569336 -47.192383C23.774414 -46.987305 23.955078 -46.777344 24.111328 -46.562500C24.287109 -46.250000 24.418945 -45.942383 24.506836 -45.639648C24.594727 -45.336914 24.638672 -44.990234 24.638672 -44.599609C24.638672 -44.482422 24.599609 -44.199219 24.521484 -43.750000C24.482422 -43.437500 24.345703 -43.144531 24.111328 -42.871094C23.837891 -42.558594 23.549805 -42.451172 23.247070 -42.548828C22.944336 -42.646484 22.656250 -42.832031 22.382812 -43.105469C22.226562 -43.261719 22.011719 -43.525391 21.738281 -43.896484C21.328125 -44.501953 21.054688 -44.882812 20.917969 -45.039062C20.566406 -45.488281 20.234375 -45.849609 19.921875 -46.123047C19.707031 -46.298828 19.443359 -46.455078 19.130859 -46.591797C18.818359 -46.728516 18.525391 -46.816406 18.251953 -46.855469C17.783203 -46.894531 17.407227 -46.870117 17.124023 -46.782227C16.840820 -46.694336 16.494141 -46.494141 16.083984 -46.181641C16.025391 -46.142578 15.927734 -46.059570 15.791016 -45.932617C15.654297 -45.805664 15.546875 -45.712891 15.468750 -45.654297C15.351562 -45.732422 15.126953 -45.898438 14.794922 -46.152344C14.501953 -46.386719 14.248047 -46.542969 14.033203 -46.621094C13.740234 -46.738281 13.505859 -46.811523 13.330078 -46.840820C13.154297 -46.870117 12.880859 -46.884766 12.509766 -46.884766C11.689453 -46.884766 10.986328 -46.640625 10.400391 -46.152344C10.166016 -45.957031 9.609375 -45.361328 8.730469 -44.365234C7.890625 -43.408203 7.402344 -42.890625 7.265625 -42.812500L6.826172 -42.519531C6.689453 -42.460938 6.523438 -42.431641 6.328125 -42.431641C6.074219 -42.431641 5.800781 -42.587891 5.507812 -42.900391C5.195312 -43.251953 5.029297 -43.642578 5.009766 -44.072266C4.990234 -44.580078 5.009766 -44.960938 5.068359 -45.214844C5.126953 -45.546875 5.312500 -45.976562 5.625000 -46.503906C6.113281 -47.363281 7.031250 -47.900391 8.378906 -48.115234C8.671875 -48.173828 9.033203 -48.154297 9.462891 -48.056641C9.951172 -47.958984 10.322266 -47.910156 10.576172 -47.910156C11.162109 -47.929688 11.582031 -47.998047 11.835938 -48.115234C12.226562 -48.291016 12.412109 -48.623047 12.392578 -49.111328C12.197266 -48.974609 11.962891 -48.906250 11.689453 -48.906250C11.572266 -48.906250 11.435547 -48.945312 11.279297 -49.023438C11.181641 -49.082031 11.025391 -49.179688 10.810547 -49.316406L10.283203 -49.638672C10.009766 -49.794922 9.687500 -49.902344 9.316406 -49.960938C9.003906 -50.019531 8.583984 -50.048828 8.056641 -50.048828ZM7.851562 -49.814453C7.910156 -49.814453 7.968750 -49.814453 8.027344 -49.814453C8.515625 -49.794922 8.886719 -49.765625 9.140625 -49.726562C9.511719 -49.687500 9.833984 -49.599609 10.107422 -49.462891L10.927734 -48.994141C11.220703 -48.818359 11.445312 -48.720703 11.601562 -48.701172C11.855469 -48.701172 12.050781 -48.740234 12.187500 -48.818359C12.031250 -48.369141 11.503906 -48.144531 10.605469 -48.144531C10.429688 -48.144531 10.205078 -48.173828 9.931641 -48.232422C9.560547 -48.310547 9.326172 -48.349609 9.228516 -48.349609C8.935547 -48.388672 8.652344 -48.388672 8.378906 -48.349609C6.972656 -48.173828 5.996094 -47.597656 5.449219 -46.621094C5.117188 -46.054688 4.912109 -45.595703 4.833984 -45.244141C4.775391 -45.009766 4.755859 -44.599609 4.775391 -44.013672C4.794922 -43.701172 4.887695 -43.403320 5.053711 -43.120117C5.219727 -42.836914 5.419922 -42.612305 5.654297 -42.446289C5.888672 -42.280273 6.103516 -42.197266 6.298828 -42.197266C6.552734 -42.197266 6.757812 -42.226562 6.914062 -42.285156C6.992188 -42.324219 7.167969 -42.431641 7.441406 -42.607422C7.597656 -42.705078 8.076172 -43.232422 8.876953 -44.189453C9.736328 -45.166016 10.283203 -45.761719 10.517578 -45.976562C10.849609 -46.269531 11.201172 -46.464844 11.572266 -46.562500C11.806641 -46.640625 12.119141 -46.679688 12.509766 -46.679688C12.841797 -46.699219 13.100586 -46.689453 13.286133 -46.650391C13.471680 -46.611328 13.696289 -46.533203 13.959961 -46.416016C14.223633 -46.298828 14.453125 -46.162109 14.648438 -46.005859L15.205078 -45.507812L15.410156 -45.273438C15.546875 -45.312500 15.673828 -45.332031 15.791016 -45.332031C16.005859 -45.332031 16.220703 -45.175781 16.435547 -44.863281C16.513672 -44.746094 16.547852 -44.599609 16.538086 -44.423828C16.528320 -44.248047 16.538086 -44.125977 16.567383 -44.057617C16.596680 -43.989258 16.640625 -43.935547 16.699219 -43.896484C16.816406 -43.837891 16.875000 -43.808594 16.875000 -43.808594C16.953125 -43.750000 16.992188 -43.681641 16.992188 -43.603516C17.050781 -43.701172 17.050781 -43.779297 16.992188 -43.837891C16.992188 -43.818359 16.933594 -43.857422 16.816406 -43.955078C16.757812 -44.013672 16.728516 -44.072266 16.728516 -44.130859L16.757812 -44.482422C16.777344 -44.619141 16.757812 -44.755859 16.699219 -44.892578C16.640625 -45.068359 16.523438 -45.214844 16.347656 -45.332031C16.308594 -45.371094 16.162109 -45.468750 15.908203 -45.625000L16.113281 -45.566406C16.191406 -45.546875 16.269531 -45.517578 16.347656 -45.478516C17.089844 -45.166016 17.529297 -44.824219 17.666016 -44.453125C17.744141 -44.296875 17.763672 -44.155273 17.724609 -44.028320C17.685547 -43.901367 17.607422 -43.769531 17.490234 -43.632812C17.470703 -43.593750 17.353516 -43.505859 17.138672 -43.369141C16.982422 -43.232422 16.884766 -43.125000 16.845703 -43.046875C16.826172 -42.910156 16.845703 -42.792969 16.904297 -42.695312C16.923828 -42.656250 16.977539 -42.607422 17.065430 -42.548828C17.153320 -42.490234 17.207031 -42.441406 17.226562 -42.402344C17.285156 -42.285156 17.270508 -42.182617 17.182617 -42.094727C17.094727 -42.006836 17.001953 -41.962891 16.904297 -41.962891C16.962891 -42.001953 17.006836 -42.060547 17.036133 -42.138672C17.065430 -42.216797 17.070312 -42.285156 17.050781 -42.343750C16.992188 -42.480469 16.855469 -42.617188 16.640625 -42.753906C16.562500 -42.792969 16.416016 -42.846680 16.201172 -42.915039C15.986328 -42.983398 15.800781 -43.076172 15.644531 -43.193359C15.527344 -43.271484 15.444336 -43.349609 15.395508 -43.427734C15.346680 -43.505859 15.312500 -43.623047 15.292969 -43.779297C15.214844 -44.111328 15.185547 -44.394531 15.205078 -44.628906L15.322266 -45.097656C15.244141 -45.039062 15.185547 -44.960938 15.146484 -44.863281L14.619141 -45.361328C14.423828 -45.537109 14.257812 -45.664062 14.121094 -45.742188C13.925781 -45.878906 13.701172 -45.966797 13.447266 -46.005859C13.017578 -46.064453 12.631836 -46.059570 12.290039 -45.991211C11.948242 -45.922852 11.582031 -45.781250 11.191406 -45.566406C10.859375 -45.390625 10.556641 -45.166016 10.283203 -44.892578C10.087891 -44.716797 9.843750 -44.462891 9.550781 -44.130859C9.199219 -43.701172 8.955078 -43.417969 8.818359 -43.281250C8.486328 -42.910156 8.188477 -42.631836 7.924805 -42.446289C7.661133 -42.260742 7.294922 -42.050781 6.826172 -41.816406L6.328125 -41.318359L5.947266 -41.787109L5.273438 -41.699219L5.156250 -42.373047L4.541016 -42.548828L4.658203 -43.427734L4.218750 -43.720703L4.541016 -44.277344L4.218750 -44.892578L4.628906 -45.595703L4.482422 -46.269531L4.980469 -46.679688L5.039062 -47.382812L5.712891 -47.617188L6.005859 -48.261719L6.767578 -48.261719L7.148438 -48.730469L7.675781 -48.701172L8.261719 -48.759766L8.583984 -48.964844L9.082031 -48.671875L9.638672 -48.964844L10.810547 -48.554688L10.048828 -49.169922L9.287109 -49.287109L8.671875 -49.404297L7.880859 -49.169922L7.177734 -49.345703L6.474609 -48.964844L5.771484 -48.994141L5.419922 -48.408203L4.687500 -48.349609L4.306641 -47.675781L3.837891 -47.470703L3.720703 -46.621094L3.339844 -46.269531L3.515625 -45.537109L3.046875 -45.009766L3.486328 -44.394531L2.988281 -44.042969L3.603516 -43.544922L2.988281 -42.958984L3.750000 -42.724609L3.251953 -42.109375L3.867188 -41.992188L3.457031 -41.318359L4.160156 -41.318359L3.808594 -40.791016L4.541016 -40.878906L4.365234 -40.146484L4.951172 -40.585938L5.126953 -39.677734L5.537109 -40.322266L5.742188 -39.531250L6.210938 -40.117188L6.210938 -39.267578L6.738281 -40.029297L6.445312 -38.710938C5.742188 -38.808594 5.166016 -38.979492 4.716797 -39.223633C4.267578 -39.467773 3.842773 -39.838867 3.442383 -40.336914C3.041992 -40.834961 2.739258 -41.342773 2.534180 -41.860352C2.329102 -42.377930 2.197266 -42.968750 2.138672 -43.632812C2.099609 -44.335938 2.119141 -44.912109 2.197266 -45.361328C2.275391 -45.888672 2.456055 -46.416016 2.739258 -46.943359C3.022461 -47.470703 3.359375 -47.910156 3.750000 -48.261719C4.101562 -48.593750 4.550781 -48.906250 5.097656 -49.199219C5.859375 -49.609375 6.777344 -49.814453 7.851562 -49.814453ZM21.650391 -49.697266C22.861328 -49.697266 23.828125 -49.482422 24.550781 -49.052734C24.804688 -48.896484 25.068359 -48.691406 25.341797 -48.437500L26.044922 -47.705078C26.318359 -47.314453 26.513672 -47.011719 26.630859 -46.796875C26.787109 -46.503906 26.914062 -46.171875 27.011719 -45.800781C27.109375 -45.351562 27.158203 -44.794922 27.158203 -44.130859C27.158203 -43.466797 27.099609 -42.919922 26.982422 -42.490234C26.884766 -42.119141 26.689453 -41.684570 26.396484 -41.186523C26.103516 -40.688477 25.805664 -40.292969 25.502930 -40.000000C25.200195 -39.707031 24.897461 -39.492188 24.594727 -39.355469C24.291992 -39.218750 23.916016 -39.121094 23.466797 -39.062500C23.388672 -39.179688 23.330078 -39.316406 23.291016 -39.472656C23.251953 -39.570312 23.222656 -39.707031 23.203125 -39.882812L23.115234 -40.322266L23.583984 -39.589844L23.583984 -40.410156L23.994141 -39.824219L24.199219 -40.615234L24.521484 -39.970703L24.697266 -40.849609L25.195312 -40.410156L25.048828 -41.113281L25.693359 -41.054688L25.400391 -41.552734L25.986328 -41.523438L25.634766 -42.197266L26.162109 -42.285156L25.751953 -42.871094L26.396484 -43.105469L25.869141 -43.662109L26.396484 -44.130859L25.986328 -44.482422L26.367188 -45.039062L25.957031 -45.566406L26.103516 -46.269531L25.751953 -46.591797L25.664062 -47.382812L25.253906 -47.587891L24.902344 -48.232422L24.287109 -48.291016L23.964844 -48.847656L23.349609 -48.818359L22.734375 -49.169922L22.119141 -49.023438L21.416016 -49.228516L20.917969 -49.111328L20.214844 -48.994141L19.570312 -48.437500L20.566406 -48.818359L21.093750 -48.554688L21.503906 -48.818359L21.796875 -48.613281L22.294922 -48.554688L22.763672 -48.583984L23.085938 -48.144531L23.759766 -48.144531L24.023438 -47.529297L24.609375 -47.324219L24.667969 -46.621094L25.107422 -46.269531L24.960938 -45.625000L25.341797 -44.951172L25.048828 -44.365234L25.341797 -43.837891L24.960938 -43.544922L25.048828 -42.695312L24.521484 -42.548828L24.404297 -41.904297L23.818359 -41.992188L23.466797 -41.552734L23.027344 -41.992188L22.617188 -42.197266C22.460938 -42.275391 22.324219 -42.363281 22.207031 -42.460938C21.992188 -42.636719 21.689453 -42.949219 21.298828 -43.398438C21.201172 -43.515625 21.015625 -43.759766 20.742188 -44.130859C20.488281 -44.462891 20.302734 -44.697266 20.185547 -44.833984C19.912109 -45.126953 19.589844 -45.380859 19.218750 -45.595703C18.906250 -45.791016 18.618164 -45.922852 18.354492 -45.991211C18.090820 -46.059570 17.822266 -46.064453 17.548828 -46.005859C17.451172 -45.986328 17.333984 -45.947266 17.197266 -45.888672C16.962891 -45.791016 16.845703 -45.742188 16.845703 -45.742188L17.138672 -45.537109C17.294922 -45.458984 17.402344 -45.390625 17.460938 -45.332031C17.734375 -45.097656 17.910156 -44.912109 17.988281 -44.775391C18.125000 -44.560547 18.164062 -44.326172 18.105469 -44.072266C18.085938 -43.916016 17.968750 -43.740234 17.753906 -43.544922C18.085938 -43.564453 18.388672 -43.544922 18.662109 -43.486328L18.750000 -43.164062C18.808594 -42.890625 18.837891 -42.763672 18.837891 -42.783203C18.857422 -42.666016 18.906250 -42.568359 18.984375 -42.490234L19.160156 -42.314453C19.238281 -42.255859 19.301758 -42.197266 19.350586 -42.138672C19.399414 -42.080078 19.453125 -41.992188 19.511719 -41.875000C19.531250 -41.816406 19.545898 -41.689453 19.555664 -41.494141C19.565430 -41.298828 19.560547 -41.171875 19.541016 -41.113281C19.521484 -41.054688 19.482422 -40.986328 19.423828 -40.908203C19.287109 -40.712891 19.238281 -40.644531 19.277344 -40.703125L18.867188 -40.703125C18.652344 -40.703125 18.388672 -40.634766 18.076172 -40.498047C18.056641 -40.673828 18.066406 -40.810547 18.105469 -40.908203C18.125000 -40.947266 18.154297 -40.976562 18.193359 -40.996094C18.232422 -41.015625 18.261719 -41.044922 18.281250 -41.083984C18.300781 -41.123047 18.320312 -41.171875 18.339844 -41.230469L18.398438 -41.435547L18.691406 -41.464844C18.769531 -41.464844 18.837891 -41.450195 18.896484 -41.420898C18.955078 -41.391602 19.023438 -41.337891 19.101562 -41.259766C19.042969 -41.416016 18.935547 -41.523438 18.779297 -41.582031C18.740234 -41.582031 18.623047 -41.582031 18.427734 -41.582031C18.466797 -41.718750 18.525391 -41.835938 18.603516 -41.933594L18.720703 -42.021484C18.759766 -42.041016 18.789062 -42.080078 18.808594 -42.138672C18.828125 -42.197266 18.823242 -42.250977 18.793945 -42.299805C18.764648 -42.348633 18.720703 -42.382812 18.662109 -42.402344C18.564453 -42.441406 18.447266 -42.431641 18.310547 -42.373047C18.115234 -42.294922 17.958984 -42.089844 17.841797 -41.757812C17.763672 -41.484375 17.744141 -41.142578 17.783203 -40.732422C17.802734 -40.615234 17.841797 -40.439453 17.900391 -40.205078C18.525391 -39.345703 18.945312 -38.740234 19.160156 -38.388672C19.218750 -38.291016 19.306641 -38.095703 19.423828 -37.802734C19.541016 -37.548828 19.638672 -37.363281 19.716797 -37.246094C19.912109 -36.972656 20.126953 -36.777344 20.361328 -36.660156C20.419922 -36.640625 20.478516 -36.630859 20.537109 -36.630859C20.595703 -36.630859 20.654297 -36.630859 20.712891 -36.630859L20.859375 -36.660156C20.878906 -36.679688 20.932617 -36.704102 21.020508 -36.733398C21.108398 -36.762695 21.171875 -36.767578 21.210938 -36.748047C21.425781 -36.689453 21.562500 -36.591797 21.621094 -36.455078C21.679688 -36.318359 21.708984 -36.083984 21.708984 -35.751953C21.689453 -35.458984 21.650391 -35.244141 21.591797 -35.107422C21.533203 -35.048828 21.464844 -34.970703 21.386719 -34.873047C20.488281 -33.916016 20.410156 -33.837891 21.152344 -34.638672C21.074219 -34.541016 20.913086 -34.414062 20.668945 -34.257812C20.424805 -34.101562 20.195312 -33.984375 19.980469 -33.906250L19.277344 -33.642578C19.628906 -33.662109 20.000000 -33.701172 20.390625 -33.759766L20.507812 -33.613281C20.546875 -33.535156 20.585938 -33.481445 20.625000 -33.452148C20.664062 -33.422852 20.732422 -33.378906 20.830078 -33.320312C20.927734 -33.261719 20.986328 -33.212891 21.005859 -33.173828C21.083984 -33.056641 21.098633 -32.944336 21.049805 -32.836914C21.000977 -32.729492 20.893555 -32.646484 20.727539 -32.587891C20.561523 -32.529297 20.419922 -32.509766 20.302734 -32.529297L19.482422 -32.558594C19.208984 -32.558594 18.974609 -32.529297 18.779297 -32.470703L17.812500 -32.236328C17.441406 -32.177734 17.109375 -32.167969 16.816406 -32.207031C16.484375 -32.246094 16.240234 -32.294922 16.083984 -32.353516C15.849609 -32.451172 15.615234 -32.666016 15.380859 -32.998047C15.283203 -33.095703 15.097656 -33.369141 14.824219 -33.818359C14.902344 -34.169922 14.951172 -34.375000 14.970703 -34.433594C15.029297 -34.648438 15.136719 -34.843750 15.292969 -35.019531C15.156250 -34.921875 15.053711 -34.829102 14.985352 -34.741211C14.916992 -34.653320 14.873047 -34.550781 14.853516 -34.433594C14.580078 -33.496094 14.541016 -33.349609 14.736328 -33.994141L14.560547 -34.316406C14.462891 -34.472656 14.384766 -34.589844 14.326172 -34.667969C14.228516 -34.804688 14.150391 -34.892578 14.091797 -34.931641C14.033203 -34.970703 13.945312 -34.990234 13.828125 -34.990234L13.564453 -34.990234L13.798828 -34.902344C13.896484 -34.882812 13.974609 -34.843750 14.033203 -34.785156C14.091797 -34.726562 14.189453 -34.580078 14.326172 -34.345703L14.619141 -33.789062C14.736328 -33.496094 14.833984 -33.291016 14.912109 -33.173828C15.068359 -32.939453 15.185547 -32.783203 15.263672 -32.705078C15.439453 -32.451172 15.615234 -32.270508 15.791016 -32.163086C15.966797 -32.055664 16.191406 -31.977539 16.464844 -31.928711C16.738281 -31.879883 16.982422 -31.855469 17.197266 -31.855469C17.373047 -31.875000 17.631836 -31.923828 17.973633 -32.001953C18.315430 -32.080078 18.554688 -32.128906 18.691406 -32.148438C18.984375 -32.167969 19.472656 -32.138672 20.156250 -32.060547C20.195312 -31.826172 20.214844 -31.660156 20.214844 -31.562500C20.234375 -31.386719 20.214844 -31.220703 20.156250 -31.064453L20.126953 -30.947266C20.107422 -30.908203 20.087891 -30.874023 20.068359 -30.844727C20.048828 -30.815430 20.014648 -30.795898 19.965820 -30.786133C19.916992 -30.776367 19.814453 -30.781250 19.658203 -30.800781L19.277344 -30.830078C18.769531 -30.810547 18.251953 -30.761719 17.724609 -30.683594L16.728516 -30.507812C16.357422 -30.429688 16.123047 -30.351562 16.025391 -30.273438C16.025391 -30.273438 16.113281 -30.263672 16.289062 -30.244141C16.406250 -30.224609 16.489258 -30.209961 16.538086 -30.200195C16.586914 -30.190430 16.669922 -30.146484 16.787109 -30.068359C16.904297 -29.990234 17.001953 -29.951172 17.080078 -29.951172C17.158203 -29.951172 17.270508 -29.990234 17.416992 -30.068359C17.563477 -30.146484 17.670898 -30.190430 17.739258 -30.200195C17.807617 -30.209961 17.900391 -30.205078 18.017578 -30.185547L18.281250 -30.126953L18.222656 -29.833984C18.222656 -29.736328 18.232422 -29.658203 18.251953 -29.599609L18.427734 -29.335938C18.505859 -29.238281 18.544922 -29.160156 18.544922 -29.101562C18.603516 -28.925781 18.613281 -28.793945 18.574219 -28.706055C18.535156 -28.618164 18.447266 -28.505859 18.310547 -28.369141L17.988281 -28.105469L17.988281 -28.339844C17.988281 -28.378906 17.978516 -28.408203 17.958984 -28.427734C17.841797 -28.173828 17.656250 -27.988281 17.402344 -27.871094C17.500000 -28.105469 17.548828 -28.222656 17.548828 -28.222656C17.587891 -28.378906 17.607422 -28.505859 17.607422 -28.603516C17.587891 -28.779297 17.548828 -28.945312 17.490234 -29.101562C17.509766 -29.199219 17.509766 -29.101562 17.490234 -28.808594C17.470703 -28.671875 17.451172 -28.574219 17.431641 -28.515625C17.353516 -28.339844 17.226562 -28.183594 17.050781 -28.046875C16.972656 -27.988281 16.821289 -27.900391 16.596680 -27.783203C16.372070 -27.666016 16.220703 -27.578125 16.142578 -27.519531C15.966797 -27.363281 15.878906 -27.177734 15.878906 -26.962891C15.878906 -26.884766 15.908203 -26.787109 15.966797 -26.669922C16.083984 -26.474609 16.142578 -26.376953 16.142578 -26.376953C15.771484 -26.630859 15.693359 -26.679688 15.908203 -26.523438C15.810547 -26.582031 15.742188 -26.650391 15.703125 -26.728516C15.605469 -26.865234 15.546875 -27.021484 15.527344 -27.197266C15.527344 -27.255859 15.527344 -27.353516 15.527344 -27.490234L15.527344 -27.753906C15.527344 -27.753906 15.468750 -27.783203 15.351562 -27.841797C15.292969 -27.861328 15.224609 -27.900391 15.146484 -27.958984C14.873047 -28.134766 14.697266 -28.281250 14.619141 -28.398438C14.501953 -28.554688 14.453125 -28.750000 14.472656 -28.984375C14.492188 -29.062500 14.531250 -29.150391 14.589844 -29.248047C14.707031 -29.384766 14.765625 -29.453125 14.765625 -29.453125C14.921875 -29.511719 14.833984 -29.482422 14.501953 -29.365234C14.404297 -29.326172 14.326172 -29.306641 14.267578 -29.306641C14.111328 -29.326172 14.023438 -29.384766 14.003906 -29.482422C13.984375 -29.521484 13.984375 -29.628906 14.003906 -29.804688L14.003906 -30.244141L13.857422 -30.068359C13.798828 -29.990234 13.740234 -29.931641 13.681641 -29.892578C13.701172 -29.892578 13.603516 -29.843750 13.388672 -29.746094C13.271484 -29.687500 13.193359 -29.609375 13.154297 -29.511719C13.115234 -29.414062 13.115234 -29.296875 13.154297 -29.160156L13.212891 -28.720703C13.154297 -28.779297 13.095703 -28.828125 13.037109 -28.867188C12.978516 -28.906250 12.895508 -28.979492 12.788086 -29.086914C12.680664 -29.194336 12.636719 -29.296875 12.656250 -29.394531C12.656250 -29.433594 12.700195 -29.526367 12.788086 -29.672852C12.875977 -29.819336 12.919922 -29.960938 12.919922 -30.097656C12.919922 -30.234375 12.880859 -30.371094 12.802734 -30.507812C12.666016 -30.703125 12.519531 -30.839844 12.363281 -30.917969C12.304688 -30.957031 12.202148 -30.986328 12.055664 -31.005859C11.909180 -31.025391 11.816406 -31.044922 11.777344 -31.064453C11.542969 -31.142578 11.396484 -31.240234 11.337891 -31.357422C11.279297 -31.474609 11.279297 -31.601562 11.337891 -31.738281C11.357422 -31.777344 11.396484 -31.835938 11.455078 -31.914062C11.513672 -31.992188 11.552734 -32.050781 11.572266 -32.089844C11.611328 -32.285156 11.572266 -32.412109 11.455078 -32.470703C11.396484 -32.509766 11.313477 -32.529297 11.206055 -32.529297C11.098633 -32.529297 11.020508 -32.543945 10.971680 -32.573242C10.922852 -32.602539 10.893555 -32.666016 10.883789 -32.763672C10.874023 -32.861328 10.869141 -32.919922 10.869141 -32.939453C10.732422 -33.134766 10.693359 -33.183594 10.751953 -33.085938C10.732422 -33.144531 10.703125 -33.183594 10.664062 -33.203125C10.625000 -33.222656 10.541992 -33.232422 10.415039 -33.232422C10.288086 -33.232422 10.205078 -33.276367 10.166016 -33.364258C10.126953 -33.452148 10.107422 -33.608398 10.107422 -33.833008C10.107422 -34.057617 10.097656 -34.204102 10.078125 -34.272461C10.058594 -34.340820 10.000000 -34.394531 9.902344 -34.433594C9.804688 -34.472656 9.746094 -34.526367 9.726562 -34.594727C9.707031 -34.663086 9.707031 -34.809570 9.726562 -35.034180C9.746094 -35.258789 9.736328 -35.429688 9.697266 -35.546875C9.619141 -35.800781 9.589844 -36.152344 9.609375 -36.601562C9.960938 -36.894531 10.209961 -37.119141 10.356445 -37.275391C10.502930 -37.431641 10.703125 -37.714844 10.957031 -38.125000L11.191406 -37.509766C11.230469 -37.392578 11.318359 -37.246094 11.455078 -37.070312C12.236328 -35.996094 12.343750 -35.849609 11.777344 -36.630859L11.484375 -37.187500C11.347656 -37.441406 11.259766 -37.705078 11.220703 -37.978516C11.201172 -38.212891 11.210938 -38.466797 11.250000 -38.740234C11.230469 -38.603516 11.269531 -38.818359 11.367188 -39.384766C11.425781 -39.775391 11.435547 -40.156250 11.396484 -40.527344C11.318359 -39.863281 11.176758 -39.291992 10.971680 -38.813477C10.766602 -38.334961 10.478516 -37.880859 10.107422 -37.451172C9.560547 -36.845703 8.906250 -36.416016 8.144531 -36.162109C8.046875 -36.142578 7.890625 -36.108398 7.675781 -36.059570C7.460938 -36.010742 7.294922 -35.966797 7.177734 -35.927734C7.001953 -35.869141 6.865234 -35.791016 6.767578 -35.693359C6.591797 -35.517578 6.459961 -35.410156 6.372070 -35.371094C6.284180 -35.332031 6.201172 -35.327148 6.123047 -35.356445C6.044922 -35.385742 5.986328 -35.400391 5.947266 -35.400391C5.732422 -35.400391 5.478516 -35.302734 5.185547 -35.107422C5.185547 -35.263672 5.195312 -35.375977 5.214844 -35.444336C5.234375 -35.512695 5.273438 -35.566406 5.332031 -35.605469L5.537109 -35.810547C5.615234 -35.888672 5.703125 -35.952148 5.800781 -36.000977C5.898438 -36.049805 5.961914 -36.098633 5.991211 -36.147461C6.020508 -36.196289 6.054688 -36.308594 6.093750 -36.484375C6.132812 -36.660156 6.171875 -36.796875 6.210938 -36.894531C6.269531 -37.050781 6.347656 -37.167969 6.445312 -37.246094C6.542969 -37.324219 6.601562 -37.412109 6.621094 -37.509766C6.640625 -37.607422 6.650391 -37.734375 6.650391 -37.890625C6.650391 -38.105469 6.650391 -38.261719 6.650391 -38.359375C6.865234 -39.199219 7.143555 -39.960938 7.485352 -40.644531C7.827148 -41.328125 8.154297 -41.796875 8.466797 -42.050781C8.662109 -42.226562 8.911133 -42.402344 9.213867 -42.578125C9.516602 -42.753906 9.785156 -42.880859 10.019531 -42.958984C10.136719 -42.998047 10.302734 -43.027344 10.517578 -43.046875L10.898438 -43.076172C11.367188 -43.232422 11.699219 -43.330078 11.894531 -43.369141C12.265625 -43.447266 12.568359 -43.457031 12.802734 -43.398438C12.978516 -43.339844 13.105469 -43.310547 13.183594 -43.310547C13.320312 -43.310547 13.515625 -43.339844 13.769531 -43.398438C13.847656 -43.417969 13.969727 -43.471680 14.135742 -43.559570C14.301758 -43.647461 14.423828 -43.701172 14.501953 -43.720703C14.619141 -43.759766 14.814453 -43.789062 15.087891 -43.808594C15.146484 -43.554688 15.195312 -43.398438 15.234375 -43.339844C15.292969 -43.222656 15.400391 -43.105469 15.556641 -42.988281C15.712891 -42.871094 15.888672 -42.783203 16.083984 -42.724609C16.337891 -42.646484 16.503906 -42.597656 16.582031 -42.578125C16.796875 -42.480469 16.904297 -42.377930 16.904297 -42.270508C16.904297 -42.163086 16.875000 -42.094727 16.816406 -42.065430C16.757812 -42.036133 16.650391 -42.011719 16.494141 -41.992188C16.591797 -41.894531 16.708984 -41.840820 16.845703 -41.831055C16.982422 -41.821289 17.104492 -41.845703 17.211914 -41.904297C17.319336 -41.962891 17.387695 -42.070312 17.416992 -42.226562C17.446289 -42.382812 17.421875 -42.490234 17.343750 -42.548828C17.343750 -42.548828 17.294922 -42.578125 17.197266 -42.636719C17.158203 -42.675781 17.119141 -42.714844 17.080078 -42.753906C17.001953 -42.832031 16.992188 -42.919922 17.050781 -43.017578C17.070312 -43.056641 17.128906 -43.115234 17.226562 -43.193359L17.607422 -43.544922C17.744141 -43.662109 17.841797 -43.759766 17.900391 -43.837891C17.998047 -43.974609 18.046875 -44.101562 18.046875 -44.218750C18.027344 -44.414062 17.988281 -44.570312 17.929688 -44.687500C17.871094 -44.804688 17.753906 -44.941406 17.578125 -45.097656C17.304688 -45.371094 16.972656 -45.585938 16.582031 -45.742188C16.523438 -45.781250 16.445312 -45.810547 16.347656 -45.830078L16.113281 -45.917969C16.542969 -46.269531 16.865234 -46.484375 17.080078 -46.562500C17.373047 -46.679688 17.763672 -46.718750 18.251953 -46.679688C18.837891 -46.621094 19.355469 -46.386719 19.804688 -45.976562C20.097656 -45.703125 20.419922 -45.351562 20.771484 -44.921875L21.591797 -43.779297C21.826172 -43.486328 22.070312 -43.212891 22.324219 -42.958984C22.695312 -42.587891 22.988281 -42.382812 23.203125 -42.343750C23.613281 -42.304688 23.955078 -42.421875 24.228516 -42.695312C24.443359 -42.929688 24.599609 -43.251953 24.697266 -43.662109C24.775391 -43.935547 24.814453 -44.257812 24.814453 -44.628906C24.814453 -45.000000 24.765625 -45.351562 24.667969 -45.683594C24.570312 -46.054688 24.433594 -46.376953 24.257812 -46.650391C23.964844 -47.138672 23.544922 -47.539062 22.998047 -47.851562C22.548828 -48.105469 22.099609 -48.242188 21.650391 -48.261719C21.416016 -48.261719 21.171875 -48.232422 20.917969 -48.173828C20.605469 -48.115234 20.410156 -48.085938 20.332031 -48.085938C19.648438 -48.027344 19.218750 -48.022461 19.042969 -48.071289C18.867188 -48.120117 18.730469 -48.183594 18.632812 -48.261719C18.535156 -48.339844 18.447266 -48.447266 18.369141 -48.583984C18.505859 -48.505859 18.666992 -48.505859 18.852539 -48.583984C19.038086 -48.662109 19.301758 -48.808594 19.643555 -49.023438C19.985352 -49.238281 20.253906 -49.384766 20.449219 -49.462891C20.839844 -49.599609 21.240234 -49.677734 21.650391 -49.697266ZM19.335938 -43.310547C19.335938 -43.310547 19.482422 -43.281250 19.775391 -43.222656C19.970703 -43.183594 20.117188 -43.134766 20.214844 -43.076172C20.488281 -42.958984 20.712891 -42.812500 20.888672 -42.636719C21.044922 -42.500000 21.220703 -42.294922 21.416016 -42.021484C20.712891 -42.998047 20.791016 -42.880859 21.650391 -41.669922C21.767578 -41.513672 21.850586 -41.381836 21.899414 -41.274414C21.948242 -41.166992 22.001953 -41.000977 22.060547 -40.776367C22.119141 -40.551758 22.177734 -40.380859 22.236328 -40.263672C22.333984 -40.087891 22.539062 -39.775391 22.851562 -39.326172C22.910156 -39.248047 22.988281 -39.160156 23.085938 -39.062500C23.183594 -38.964844 23.251953 -38.881836 23.291016 -38.813477C23.330078 -38.745117 23.354492 -38.627930 23.364258 -38.461914C23.374023 -38.295898 23.388672 -38.193359 23.408203 -38.154297C23.486328 -37.978516 23.588867 -37.866211 23.715820 -37.817383C23.842773 -37.768555 23.964844 -37.753906 24.082031 -37.773438C24.062500 -37.656250 23.994141 -37.563477 23.876953 -37.495117C23.759766 -37.426758 23.632812 -37.382812 23.496094 -37.363281C23.183594 -37.343750 22.851562 -37.353516 22.500000 -37.392578C22.421875 -37.412109 22.299805 -37.465820 22.133789 -37.553711C21.967773 -37.641602 21.835938 -37.695312 21.738281 -37.714844C21.542969 -37.753906 21.308594 -37.832031 21.035156 -37.949219C20.937500 -37.988281 20.810547 -38.066406 20.654297 -38.183594L20.332031 -38.417969L19.833984 -38.681641L19.599609 -39.355469L19.863281 -39.619141L19.511719 -39.560547C19.472656 -39.541016 19.414062 -39.511719 19.335938 -39.472656L19.189453 -39.384766C19.150391 -39.365234 19.091797 -39.345703 19.013672 -39.326172C18.837891 -39.306641 18.769531 -39.306641 18.808594 -39.326172L18.662109 -39.560547C18.818359 -39.521484 18.925781 -39.501953 18.984375 -39.501953C19.179688 -39.541016 19.296875 -39.658203 19.335938 -39.853516C19.355469 -39.951172 19.345703 -40.058594 19.306641 -40.175781C19.423828 -40.175781 19.492188 -40.166016 19.511719 -40.146484C19.531250 -40.126953 19.560547 -40.097656 19.599609 -40.058594L19.658203 -39.941406C19.677734 -39.921875 19.711914 -39.912109 19.760742 -39.912109C19.809570 -39.912109 19.833984 -39.912109 19.833984 -39.912109C19.853516 -40.068359 19.843750 -40.205078 19.804688 -40.322266C19.765625 -40.380859 19.687500 -40.458984 19.570312 -40.556641C19.511719 -40.595703 19.453125 -40.625000 19.394531 -40.644531C19.531250 -40.781250 19.589844 -40.839844 19.570312 -40.820312C19.628906 -40.898438 19.672852 -40.971680 19.702148 -41.040039C19.731445 -41.108398 19.741211 -41.259766 19.731445 -41.494141C19.721680 -41.728516 19.702148 -41.884766 19.672852 -41.962891C19.643555 -42.041016 19.599609 -42.119141 19.541016 -42.197266C19.482422 -42.275391 19.414062 -42.353516 19.335938 -42.431641C19.218750 -42.548828 19.160156 -42.607422 19.160156 -42.607422C19.101562 -42.666016 19.062500 -42.739258 19.042969 -42.827148C19.023438 -42.915039 19.018555 -42.998047 19.028320 -43.076172C19.038086 -43.154297 19.140625 -43.232422 19.335938 -43.310547ZM13.125000 -43.076172C12.968750 -42.861328 12.832031 -42.724609 12.714844 -42.666016C12.675781 -42.646484 12.617188 -42.631836 12.539062 -42.622070C12.460938 -42.612305 12.407227 -42.602539 12.377930 -42.592773C12.348633 -42.583008 12.329102 -42.553711 12.319336 -42.504883C12.309570 -42.456055 12.290039 -42.426758 12.260742 -42.416992C12.231445 -42.407227 12.158203 -42.407227 12.041016 -42.416992C11.923828 -42.426758 11.831055 -42.416992 11.762695 -42.387695C11.694336 -42.358398 11.601562 -42.270508 11.484375 -42.124023C11.367188 -41.977539 11.308594 -41.894531 11.308594 -41.875000C11.308594 -41.855469 11.298828 -41.796875 11.279297 -41.699219C11.259766 -41.640625 11.230469 -41.606445 11.191406 -41.596680C11.152344 -41.586914 11.113281 -41.562500 11.074219 -41.523438C11.093750 -41.542969 11.064453 -41.513672 10.986328 -41.435547C10.947266 -41.396484 10.917969 -41.333008 10.898438 -41.245117C10.878906 -41.157227 10.859375 -41.103516 10.839844 -41.083984C10.800781 -41.025391 10.712891 -40.947266 10.576172 -40.849609C8.642578 -39.423828 8.544922 -39.345703 10.283203 -40.615234C10.908203 -40.927734 11.025391 -40.986328 10.634766 -40.791016C10.791016 -40.869141 10.908203 -40.937500 10.986328 -40.996094L11.132812 -41.171875C11.210938 -41.230469 11.264648 -41.274414 11.293945 -41.303711C11.323242 -41.333008 11.372070 -41.357422 11.440430 -41.376953C11.508789 -41.396484 11.552734 -41.420898 11.572266 -41.450195C11.591797 -41.479492 11.601562 -41.523438 11.601562 -41.582031C11.601562 -41.640625 11.611328 -41.689453 11.630859 -41.728516C11.728516 -41.923828 11.811523 -42.055664 11.879883 -42.124023C11.948242 -42.192383 12.050781 -42.207031 12.187500 -42.167969L12.158203 -41.992188L12.158203 -41.728516C12.158203 -41.611328 12.148438 -41.523438 12.128906 -41.464844C12.109375 -41.406250 12.080078 -41.347656 12.041016 -41.289062L11.923828 -41.171875L12.304688 -41.318359C12.500000 -41.435547 12.646484 -41.552734 12.744141 -41.669922C12.841797 -41.787109 12.929688 -41.943359 13.007812 -42.138672C13.085938 -42.373047 13.125000 -42.685547 13.125000 -43.076172ZM14.707031 -42.636719C14.726562 -42.441406 14.765625 -42.314453 14.824219 -42.255859C14.863281 -42.236328 14.912109 -42.216797 14.970703 -42.197266C15.029297 -42.177734 15.068359 -42.163086 15.087891 -42.153320C15.107422 -42.143555 15.126953 -42.119141 15.146484 -42.080078C15.166016 -42.041016 15.190430 -42.016602 15.219727 -42.006836C15.249023 -41.997070 15.332031 -42.001953 15.468750 -42.021484L15.849609 -41.230469C15.888672 -41.152344 15.913086 -41.074219 15.922852 -40.996094C15.932617 -40.917969 15.947266 -40.839844 15.966797 -40.761719C16.044922 -40.644531 16.230469 -40.371094 16.523438 -39.941406L16.289062 -40.468750L16.201172 -40.820312C16.181641 -40.976562 16.157227 -41.079102 16.127930 -41.127930C16.098633 -41.176758 16.064453 -41.215820 16.025391 -41.245117C15.986328 -41.274414 15.947266 -41.318359 15.908203 -41.376953C15.771484 -41.630859 15.615234 -42.031250 15.439453 -42.578125C15.478516 -42.597656 15.449219 -42.568359 15.351562 -42.490234C15.292969 -42.451172 15.229492 -42.431641 15.161133 -42.431641C15.092773 -42.431641 14.941406 -42.500000 14.707031 -42.636719ZM14.355469 -41.611328C14.121094 -41.611328 13.901367 -41.577148 13.696289 -41.508789C13.491211 -41.440430 13.203125 -41.279297 12.832031 -41.025391C12.792969 -41.005859 12.949219 -41.074219 13.300781 -41.230469C13.496094 -41.308594 13.647461 -41.357422 13.754883 -41.376953C13.862305 -41.396484 13.994141 -41.416016 14.150391 -41.435547C14.345703 -41.435547 14.472656 -41.416016 14.531250 -41.376953C14.589844 -41.337891 14.638672 -41.230469 14.677734 -41.054688C14.658203 -41.171875 14.667969 -41.044922 14.707031 -40.673828L14.355469 -40.615234L14.121094 -40.644531C14.023438 -40.644531 13.950195 -40.644531 13.901367 -40.644531C13.852539 -40.644531 13.789062 -40.634766 13.710938 -40.615234L13.505859 -40.556641L13.242188 -40.527344C13.144531 -40.507812 13.066406 -40.488281 13.007812 -40.468750C12.949219 -40.449219 12.871094 -40.410156 12.773438 -40.351562C12.773438 -40.351562 12.773438 -40.263672 12.773438 -40.087891C12.773438 -39.970703 12.783203 -39.882812 12.802734 -39.824219C12.841797 -39.726562 12.929688 -39.624023 13.066406 -39.516602C13.203125 -39.409180 13.330078 -39.326172 13.447266 -39.267578C13.740234 -39.150391 14.057617 -39.091797 14.399414 -39.091797C14.741211 -39.091797 14.970703 -39.218750 15.087891 -39.472656C15.126953 -39.531250 15.156250 -39.658203 15.175781 -39.853516C15.234375 -40.029297 15.214844 -39.960938 15.117188 -39.648438C15.078125 -39.550781 15.029297 -39.472656 14.970703 -39.414062C14.853516 -39.316406 14.716797 -39.252930 14.560547 -39.223633C14.404297 -39.194336 14.199219 -39.208984 13.945312 -39.267578C13.828125 -39.287109 13.681641 -39.340820 13.505859 -39.428711C13.330078 -39.516602 13.173828 -39.667969 13.037109 -39.882812C13.154297 -40.000000 13.237305 -40.068359 13.286133 -40.087891C13.334961 -40.107422 13.457031 -40.117188 13.652344 -40.117188C13.652344 -40.136719 13.652344 -40.078125 13.652344 -39.941406C13.652344 -39.863281 13.662109 -39.804688 13.681641 -39.765625C13.740234 -39.628906 13.813477 -39.541016 13.901367 -39.501953C13.989258 -39.462891 14.101562 -39.448242 14.238281 -39.458008C14.375000 -39.467773 14.482422 -39.516602 14.560547 -39.604492C14.638672 -39.692383 14.677734 -39.794922 14.677734 -39.912109C14.677734 -40.068359 14.609375 -40.205078 14.472656 -40.322266C14.921875 -40.361328 15.019531 -40.371094 14.765625 -40.351562C14.863281 -40.351562 14.941406 -40.341797 15.000000 -40.322266C15.058594 -40.302734 15.102539 -40.258789 15.131836 -40.190430C15.161133 -40.122070 15.175781 -40.097656 15.175781 -40.117188C15.156250 -40.253906 15.126953 -40.351562 15.087891 -40.410156L14.970703 -40.615234L14.882812 -41.054688C14.863281 -41.191406 14.804688 -41.318359 14.707031 -41.435547C14.648438 -41.513672 14.594727 -41.562500 14.545898 -41.582031C14.497070 -41.601562 14.433594 -41.611328 14.355469 -41.611328ZM18.574219 -40.322266C18.515625 -40.224609 18.476562 -40.146484 18.457031 -40.087891C18.437500 -40.029297 18.427734 -39.941406 18.427734 -39.824219L18.193359 -40.205078C18.251953 -40.263672 18.310547 -40.292969 18.369141 -40.292969C18.349609 -40.292969 18.417969 -40.302734 18.574219 -40.322266ZM15.468750 -39.531250C15.468750 -39.531250 15.439453 -39.433594 15.380859 -39.238281C15.341797 -39.121094 15.302734 -39.033203 15.263672 -38.974609C15.224609 -38.916016 15.166016 -38.857422 15.087891 -38.798828L14.912109 -38.681641L15.058594 -38.710938C15.136719 -38.730469 15.200195 -38.750000 15.249023 -38.769531C15.297852 -38.789062 15.341797 -38.828125 15.380859 -38.886719C15.419922 -38.945312 15.439453 -39.042969 15.439453 -39.179688C15.458984 -39.472656 15.468750 -39.589844 15.468750 -39.531250ZM19.453125 -39.238281C19.492188 -39.121094 19.541016 -38.974609 19.599609 -38.798828L19.775391 -38.154297C19.814453 -38.056641 19.843750 -37.978516 19.863281 -37.919922L19.863281 -37.480469L19.453125 -38.271484L18.955078 -39.033203L19.277344 -39.121094C19.316406 -39.121094 19.375000 -39.160156 19.453125 -39.238281ZM16.289062 -37.480469C16.230469 -37.480469 16.181641 -37.480469 16.142578 -37.480469C15.947266 -37.460938 15.732422 -37.382812 15.498047 -37.246094C15.205078 -37.089844 15.058594 -36.816406 15.058594 -36.425781C15.039062 -36.250000 15.078125 -36.064453 15.175781 -35.869141C15.234375 -35.771484 15.351562 -35.634766 15.527344 -35.458984L15.439453 -35.722656L15.439453 -35.986328C15.478516 -35.927734 15.537109 -35.888672 15.615234 -35.869141L15.703125 -36.074219L15.703125 -36.250000C15.703125 -36.308594 15.712891 -36.357422 15.732422 -36.396484C15.751953 -36.435547 15.791016 -36.474609 15.849609 -36.513672C16.005859 -36.591797 16.162109 -36.601562 16.318359 -36.542969C16.337891 -36.542969 16.416016 -36.494141 16.552734 -36.396484C16.474609 -36.630859 16.323242 -36.762695 16.098633 -36.791992C15.874023 -36.821289 15.693359 -36.777344 15.556641 -36.660156C15.537109 -36.640625 15.507812 -36.601562 15.468750 -36.542969L15.351562 -36.396484C15.312500 -36.611328 15.400391 -36.806641 15.615234 -36.982422C15.771484 -37.138672 16.054688 -37.226562 16.464844 -37.246094C16.738281 -37.246094 16.972656 -37.197266 17.167969 -37.099609C17.226562 -37.080078 17.314453 -37.021484 17.431641 -36.923828L17.695312 -36.718750L18.193359 -36.484375C18.349609 -36.386719 18.515625 -36.259766 18.691406 -36.103516C18.867188 -35.947266 19.033203 -35.849609 19.189453 -35.810547C19.267578 -35.791016 19.394531 -35.800781 19.570312 -35.839844L19.335938 -35.869141C19.257812 -35.888672 19.189453 -35.917969 19.130859 -35.957031C19.072266 -35.996094 18.969727 -36.083984 18.823242 -36.220703C18.676758 -36.357422 18.549805 -36.464844 18.442383 -36.542969C18.334961 -36.621094 18.134766 -36.748047 17.841797 -36.923828L17.548828 -37.128906C17.431641 -37.226562 17.324219 -37.294922 17.226562 -37.333984C16.992188 -37.431641 16.679688 -37.480469 16.289062 -37.480469ZM16.699219 -36.132812C16.406250 -36.132812 16.230469 -36.064453 16.171875 -35.927734C16.132812 -35.849609 16.123047 -35.766602 16.142578 -35.678711C16.162109 -35.590820 16.210938 -35.517578 16.289062 -35.458984C16.445312 -35.322266 16.611328 -35.292969 16.787109 -35.371094C16.865234 -35.410156 16.904297 -35.488281 16.904297 -35.605469C16.904297 -35.625000 16.875000 -35.673828 16.816406 -35.751953C16.914062 -35.751953 16.992188 -35.742188 17.050781 -35.722656C17.343750 -35.585938 17.578125 -35.341797 17.753906 -34.990234C17.792969 -34.912109 17.832031 -34.804688 17.871094 -34.667969C17.968750 -34.355469 17.998047 -34.248047 17.958984 -34.345703C17.939453 -34.716797 17.919922 -34.941406 17.900391 -35.019531C17.822266 -35.332031 17.675781 -35.605469 17.460938 -35.839844C17.421875 -35.859375 17.324219 -35.927734 17.167969 -36.044922C17.070312 -36.103516 16.933594 -36.132812 16.757812 -36.132812ZM13.154297 -35.634766C13.056641 -35.634766 12.983398 -35.615234 12.934570 -35.576172C12.885742 -35.537109 12.861328 -35.498047 12.861328 -35.458984C12.861328 -35.419922 12.861328 -35.371094 12.861328 -35.312500L12.861328 -35.136719C12.861328 -35.136719 12.890625 -35.151367 12.949219 -35.180664C13.007812 -35.209961 13.041992 -35.234375 13.051758 -35.253906C13.061523 -35.273438 13.071289 -35.307617 13.081055 -35.356445C13.090820 -35.405273 13.095703 -35.429688 13.095703 -35.429688L13.652344 -35.576172ZM13.154297 -35.634766"></path></svg>