<svg width="18.359375" height="25.102539" viewBox="5.458984 -50.004883 18.359375 25.102539" xmlns="http://www.w3.org/2000/svg"><path d="M8.789062 -49.916992C8.496094 -49.916992 8.105469 -49.697266 7.617188 -49.257812C7.128906 -48.818359 6.708984 -48.315430 6.357422 -47.749023C5.966797 -47.104492 5.771484 -46.528320 5.771484 -46.020508C5.771484 -45.356445 5.781250 -44.868164 5.800781 -44.555664C5.878906 -43.950195 6.035156 -43.422852 6.269531 -42.973633C6.562500 -42.426758 6.992188 -41.997070 7.558594 -41.684570C6.757812 -40.883789 6.181641 -39.877930 5.830078 -38.666992C5.576172 -37.690430 5.458984 -36.567383 5.478516 -35.297852C5.498047 -33.715820 5.742188 -32.270508 6.210938 -30.961914C6.816406 -29.282227 7.744141 -27.954102 8.994141 -26.977539C10.478516 -25.805664 12.382812 -25.156250 14.707031 -25.029297C17.031250 -24.902344 18.935547 -25.366211 20.419922 -26.420898C21.650391 -27.299805 22.558594 -28.540039 23.144531 -30.141602C23.593750 -31.430664 23.818359 -32.827148 23.818359 -34.331055L15.937500 -34.331055L17.226562 -30.874023L19.541016 -30.991211L19.541016 -30.698242C19.521484 -30.483398 19.462891 -30.258789 19.365234 -30.024414C19.228516 -29.731445 19.023438 -29.477539 18.750000 -29.262695C18.398438 -28.969727 17.949219 -28.754883 17.402344 -28.618164C16.738281 -28.461914 15.947266 -28.403320 15.029297 -28.442383C13.349609 -28.500977 12.089844 -28.999023 11.250000 -29.936523C10.312500 -30.971680 9.843750 -32.612305 9.843750 -34.858398C9.843750 -36.108398 9.892578 -37.045898 9.990234 -37.670898C10.107422 -38.413086 10.336914 -38.974609 10.678711 -39.355469C11.020508 -39.736328 11.523438 -40.014648 12.187500 -40.190430C12.792969 -40.346680 13.681641 -40.454102 14.853516 -40.512695C15.673828 -40.532227 16.416016 -40.424805 17.080078 -40.190430C17.646484 -39.995117 18.154297 -39.702148 18.603516 -39.311523C18.955078 -38.999023 19.267578 -38.637695 19.541016 -38.227539C19.716797 -37.934570 19.863281 -37.622070 19.980469 -37.290039L20.097656 -36.909180L23.759766 -36.850586L23.701172 -37.290039C23.623047 -37.680664 23.505859 -38.081055 23.349609 -38.491211C23.154297 -39.038086 22.919922 -39.555664 22.646484 -40.043945C22.275391 -40.668945 21.855469 -41.215820 21.386719 -41.684570C22.207031 -42.133789 22.744141 -42.827148 22.998047 -43.764648C23.154297 -44.331055 23.212891 -45.083008 23.173828 -46.020508C23.154297 -46.411133 22.900391 -46.958008 22.412109 -47.661133C21.982422 -48.344727 21.513672 -48.911133 21.005859 -49.360352C20.478516 -49.848633 20.117188 -50.004883 19.921875 -49.829102C19.785156 -49.711914 19.755859 -49.575195 19.833984 -49.418945L20.185547 -48.774414C20.380859 -48.442383 20.527344 -48.100586 20.625000 -47.749023C20.761719 -47.260742 20.820312 -46.723633 20.800781 -46.137695L20.771484 -45.493164C20.771484 -45.258789 20.751953 -45.073242 20.712891 -44.936523C20.673828 -44.741211 20.590820 -44.584961 20.463867 -44.467773C20.336914 -44.350586 20.146484 -44.257812 19.892578 -44.189453C19.638672 -44.121094 19.296875 -44.086914 18.867188 -44.086914C18.535156 -44.086914 18.271484 -44.155273 18.076172 -44.291992C17.978516 -44.370117 17.836914 -44.521484 17.651367 -44.746094C17.465820 -44.970703 17.294922 -45.122070 17.138672 -45.200195C16.884766 -45.336914 16.552734 -45.405273 16.142578 -45.405273C15.263672 -45.405273 14.707031 -44.985352 14.472656 -44.145508C14.238281 -44.985352 13.681641 -45.405273 12.802734 -45.405273C12.373047 -45.405273 12.031250 -45.336914 11.777344 -45.200195C11.621094 -45.122070 11.455078 -44.970703 11.279297 -44.746094C11.103516 -44.521484 10.957031 -44.370117 10.839844 -44.291992C10.644531 -44.155273 10.390625 -44.086914 10.078125 -44.086914C9.648438 -44.086914 9.301758 -44.121094 9.038086 -44.189453C8.774414 -44.257812 8.579102 -44.350586 8.452148 -44.467773C8.325195 -44.584961 8.242188 -44.741211 8.203125 -44.936523C8.164062 -45.073242 8.144531 -45.258789 8.144531 -45.493164L8.144531 -46.137695C8.105469 -46.723633 8.154297 -47.260742 8.291016 -47.749023C8.388672 -48.100586 8.544922 -48.442383 8.759766 -48.774414L9.111328 -49.418945C9.169922 -49.575195 9.130859 -49.711914 8.994141 -49.829102C8.955078 -49.887695 8.886719 -49.916992 8.789062 -49.916992ZM8.789062 -49.916992"></path></svg>