<svg width="22.675781" height="24.902344" viewBox="3.310547 -49.775391 22.675781 24.902344" xmlns="http://www.w3.org/2000/svg"><path d="M6.562500 -49.775391C5.976562 -49.775391 5.434570 -49.628906 4.936523 -49.335938C4.438477 -49.042969 4.042969 -48.647461 3.750000 -48.149414C3.457031 -47.651367 3.310547 -47.099609 3.310547 -46.494141L3.310547 -33.398438C3.310547 -32.812500 3.457031 -32.270508 3.750000 -31.772461C4.042969 -31.274414 4.438477 -30.878906 4.936523 -30.585938C5.434570 -30.292969 5.976562 -30.146484 6.562500 -30.146484L16.318359 -30.146484C16.318359 -29.443359 16.142578 -28.779297 15.791016 -28.154297C15.498047 -27.626953 15.078125 -27.138672 14.531250 -26.689453C14.101562 -26.318359 13.603516 -25.976562 13.037109 -25.664062C12.646484 -25.429688 12.236328 -25.224609 11.806641 -25.048828L11.279297 -24.873047L12.158203 -24.902344C12.900391 -24.960938 13.632812 -25.068359 14.355469 -25.224609C15.332031 -25.419922 16.220703 -25.683594 17.021484 -26.015625C18.037109 -26.445312 18.857422 -26.962891 19.482422 -27.568359C20.244141 -28.310547 20.732422 -29.169922 20.947266 -30.146484L22.734375 -30.146484C23.320312 -30.146484 23.862305 -30.292969 24.360352 -30.585938C24.858398 -30.878906 25.253906 -31.274414 25.546875 -31.772461C25.839844 -32.270508 25.986328 -32.812500 25.986328 -33.398438L25.986328 -46.494141C25.986328 -47.099609 25.839844 -47.651367 25.546875 -48.149414C25.253906 -48.647461 24.858398 -49.042969 24.360352 -49.335938C23.862305 -49.628906 23.320312 -49.775391 22.734375 -49.775391ZM11.337891 -47.138672C11.376953 -47.138672 11.416016 -47.128906 11.455078 -47.109375C11.533203 -47.050781 11.552734 -46.962891 11.513672 -46.845703L11.308594 -46.494141C11.191406 -46.298828 11.103516 -46.103516 11.044922 -45.908203C10.966797 -45.615234 10.937500 -45.302734 10.957031 -44.970703L10.957031 -44.589844C10.957031 -44.453125 10.966797 -44.335938 10.986328 -44.238281C11.005859 -44.140625 11.054688 -44.057617 11.132812 -43.989258C11.210938 -43.920898 11.323242 -43.867188 11.469727 -43.828125C11.616211 -43.789062 11.816406 -43.769531 12.070312 -43.769531C12.246094 -43.769531 12.392578 -43.808594 12.509766 -43.886719C12.568359 -43.945312 12.651367 -44.038086 12.758789 -44.165039C12.866211 -44.291992 12.968750 -44.375000 13.066406 -44.414062C13.203125 -44.492188 13.398438 -44.531250 13.652344 -44.531250C14.160156 -44.531250 14.482422 -44.287109 14.619141 -43.798828C14.755859 -44.287109 15.078125 -44.531250 15.585938 -44.531250C15.820312 -44.531250 16.015625 -44.492188 16.171875 -44.414062C16.269531 -44.375000 16.367188 -44.291992 16.464844 -44.165039C16.562500 -44.038086 16.640625 -43.945312 16.699219 -43.886719C16.816406 -43.808594 16.972656 -43.769531 17.167969 -43.769531C17.421875 -43.769531 17.622070 -43.789062 17.768555 -43.828125C17.915039 -43.867188 18.022461 -43.920898 18.090820 -43.989258C18.159180 -44.057617 18.208008 -44.140625 18.237305 -44.238281C18.266602 -44.335938 18.281250 -44.453125 18.281250 -44.589844L18.281250 -44.970703C18.300781 -45.302734 18.271484 -45.615234 18.193359 -45.908203C18.134766 -46.103516 18.046875 -46.298828 17.929688 -46.494141L17.724609 -46.845703C17.685547 -46.962891 17.705078 -47.050781 17.783203 -47.109375C17.880859 -47.207031 18.081055 -47.119141 18.383789 -46.845703C18.686523 -46.572266 18.969727 -46.235352 19.233398 -45.834961C19.497070 -45.434570 19.638672 -45.117188 19.658203 -44.882812C19.677734 -44.355469 19.648438 -43.925781 19.570312 -43.593750C19.414062 -43.046875 19.101562 -42.646484 18.632812 -42.392578C18.984375 -42.021484 19.277344 -41.601562 19.511719 -41.132812C19.687500 -40.781250 19.824219 -40.419922 19.921875 -40.048828L20.009766 -39.580078L17.871094 -39.609375L17.753906 -39.960938C17.656250 -40.234375 17.509766 -40.478516 17.314453 -40.693359C17.060547 -41.005859 16.757812 -41.250000 16.406250 -41.425781C15.937500 -41.640625 15.410156 -41.728516 14.824219 -41.689453C13.945312 -41.650391 13.320312 -41.552734 12.949219 -41.396484C12.539062 -41.220703 12.255859 -40.908203 12.099609 -40.458984C11.982422 -40.068359 11.923828 -39.384766 11.923828 -38.408203C11.923828 -37.119141 12.197266 -36.171875 12.744141 -35.566406C13.232422 -35.019531 13.964844 -34.726562 14.941406 -34.687500C15.605469 -34.667969 16.142578 -34.736328 16.552734 -34.892578C16.884766 -35.009766 17.138672 -35.175781 17.314453 -35.390625C17.431641 -35.566406 17.509766 -35.751953 17.548828 -35.947266L17.548828 -36.181641L16.201172 -36.123047L15.468750 -38.115234L20.039062 -38.115234C20.039062 -37.236328 19.902344 -36.435547 19.628906 -35.712891C19.296875 -34.775391 18.779297 -34.052734 18.076172 -33.544922C17.216797 -32.939453 16.113281 -32.666016 14.765625 -32.724609C12.812500 -32.822266 11.376953 -33.554688 10.458984 -34.921875C9.775391 -35.937500 9.423828 -37.187500 9.404297 -38.671875C9.384766 -40.332031 9.785156 -41.572266 10.605469 -42.392578C10.136719 -42.646484 9.833984 -43.046875 9.697266 -43.593750C9.619141 -43.867188 9.580078 -44.296875 9.580078 -44.882812C9.580078 -45.195312 9.687500 -45.537109 9.902344 -45.908203C10.117188 -46.240234 10.366211 -46.528320 10.649414 -46.772461C10.932617 -47.016602 11.162109 -47.138672 11.337891 -47.138672ZM11.337891 -47.138672"></path></svg>