<svg width="29.296875" height="17.783203" viewBox="0.000000 -38.291016 29.296875 17.783203" xmlns="http://www.w3.org/2000/svg"><path d="M4.687500 -38.291016C3.378906 -38.291016 2.270508 -37.832031 1.362305 -36.914062C0.454102 -35.996094 0.000000 -34.892578 0.000000 -33.603516L0.000000 -25.195312C0.000000 -23.906250 0.454102 -22.802734 1.362305 -21.884766C2.270508 -20.966797 3.378906 -20.507812 4.687500 -20.507812L24.609375 -20.507812C25.917969 -20.507812 27.026367 -20.966797 27.934570 -21.884766C28.842773 -22.802734 29.296875 -23.906250 29.296875 -25.195312L29.296875 -33.603516C29.296875 -34.892578 28.842773 -35.996094 27.934570 -36.914062C27.026367 -37.832031 25.917969 -38.291016 24.609375 -38.291016ZM9.375000 -35.917969C10.937500 -35.917969 11.718750 -35.087891 11.718750 -33.427734C11.718750 -33.095703 11.528320 -32.392578 11.147461 -31.318359C10.766602 -30.244141 10.576172 -29.609375 10.576172 -29.414062C10.576172 -28.886719 10.815430 -28.417969 11.293945 -28.007812C11.772461 -27.597656 12.304688 -27.294922 12.890625 -27.099609C13.476562 -26.904297 14.008789 -26.684570 14.487305 -26.440430C14.965820 -26.196289 15.205078 -25.947266 15.205078 -25.693359L15.205078 -24.140625L3.632812 -24.140625L3.632812 -25.693359C3.632812 -25.966797 3.872070 -26.235352 4.350586 -26.499023C4.829102 -26.762695 5.351562 -26.997070 5.917969 -27.202148C6.484375 -27.407227 7.011719 -27.700195 7.500000 -28.081055C7.988281 -28.461914 8.232422 -28.896484 8.232422 -29.384766C8.232422 -29.501953 8.037109 -30.112305 7.646484 -31.215820C7.255859 -32.319336 7.060547 -33.056641 7.060547 -33.427734C7.060547 -34.345703 7.265625 -34.990234 7.675781 -35.361328C8.085938 -35.732422 8.652344 -35.917969 9.375000 -35.917969ZM17.841797 -33.662109C20.146484 -33.662109 22.124023 -32.836914 23.774414 -31.186523C25.424805 -29.536133 26.250000 -27.539062 26.250000 -25.195312L24.638672 -25.195312C24.638672 -27.089844 23.974609 -28.706055 22.646484 -30.043945C21.318359 -31.381836 19.716797 -32.050781 17.841797 -32.050781ZM17.841797 -30.791016C19.365234 -30.791016 20.668945 -30.249023 21.752930 -29.165039C22.836914 -28.081055 23.378906 -26.767578 23.378906 -25.224609L21.767578 -25.224609C21.767578 -26.298828 21.381836 -27.226562 20.610352 -28.007812C19.838867 -28.789062 18.916016 -29.179688 17.841797 -29.179688ZM18.955078 -27.480469C19.267578 -27.480469 19.531250 -27.368164 19.746094 -27.143555C19.960938 -26.918945 20.068359 -26.650391 20.068359 -26.337891C20.068359 -26.025391 19.960938 -25.761719 19.746094 -25.546875C19.531250 -25.332031 19.267578 -25.224609 18.955078 -25.224609C18.642578 -25.224609 18.378906 -25.332031 18.164062 -25.546875C17.949219 -25.761719 17.841797 -26.025391 17.841797 -26.337891C17.841797 -26.650391 17.949219 -26.918945 18.164062 -27.143555C18.378906 -27.368164 18.642578 -27.480469 18.955078 -27.480469ZM18.955078 -27.480469"></path></svg>