<svg width="29.296875" height="17.753906" viewBox="0.000000 -38.232422 29.296875 17.753906" xmlns="http://www.w3.org/2000/svg"><path d="M4.687500 -38.232422C3.378906 -38.232422 2.270508 -37.778320 1.362305 -36.870117C0.454102 -35.961914 0.000000 -34.863281 0.000000 -33.574219L0.000000 -25.166016C0.000000 -23.876953 0.454102 -22.773438 1.362305 -21.855469C2.270508 -20.937500 3.378906 -20.478516 4.687500 -20.478516L24.609375 -20.478516C25.917969 -20.478516 27.026367 -20.937500 27.934570 -21.855469C28.842773 -22.773438 29.296875 -23.876953 29.296875 -25.166016L29.296875 -33.574219C29.296875 -34.863281 28.842773 -35.961914 27.934570 -36.870117C27.026367 -37.778320 25.917969 -38.232422 24.609375 -38.232422ZM9.375000 -35.888672C10.937500 -35.888672 11.718750 -35.058594 11.718750 -33.398438C11.718750 -33.066406 11.528320 -32.363281 11.147461 -31.289062C10.766602 -30.214844 10.576172 -29.580078 10.576172 -29.384766C10.576172 -28.837891 10.815430 -28.364258 11.293945 -27.963867C11.772461 -27.563477 12.304688 -27.265625 12.890625 -27.070312C13.476562 -26.875000 14.008789 -26.655273 14.487305 -26.411133C14.965820 -26.166992 15.205078 -25.917969 15.205078 -25.664062L15.205078 -24.111328L3.632812 -24.111328L3.632812 -25.664062C3.632812 -25.937500 3.872070 -26.206055 4.350586 -26.469727C4.829102 -26.733398 5.351562 -26.962891 5.917969 -27.158203C6.484375 -27.353516 7.011719 -27.646484 7.500000 -28.037109C7.988281 -28.427734 8.232422 -28.867188 8.232422 -29.355469C8.232422 -29.472656 8.037109 -30.078125 7.646484 -31.171875C7.255859 -32.265625 7.060547 -33.007812 7.060547 -33.398438C7.060547 -34.316406 7.265625 -34.960938 7.675781 -35.332031C8.085938 -35.703125 8.652344 -35.888672 9.375000 -35.888672ZM21.005859 -33.339844L22.500000 -33.339844L22.500000 -30.000000L25.722656 -30.000000L25.722656 -28.535156L22.500000 -28.535156L22.500000 -25.166016L21.005859 -25.166016L21.005859 -28.535156L17.783203 -28.535156L17.783203 -30.000000L21.005859 -30.000000ZM21.005859 -33.339844"></path></svg>