<svg width="29.296875" height="17.753906" viewBox="0.000000 -38.291016 29.296875 17.753906" xmlns="http://www.w3.org/2000/svg"><path d="M4.687500 -38.291016C3.378906 -38.291016 2.270508 -37.836914 1.362305 -36.928711C0.454102 -36.020508 0.000000 -34.921875 0.000000 -33.632812L0.000000 -25.224609C0.000000 -23.935547 0.454102 -22.832031 1.362305 -21.914062C2.270508 -20.996094 3.378906 -20.537109 4.687500 -20.537109L24.609375 -20.537109C25.917969 -20.537109 27.026367 -20.996094 27.934570 -21.914062C28.842773 -22.832031 29.296875 -23.935547 29.296875 -25.224609L29.296875 -33.632812C29.296875 -34.921875 28.842773 -36.020508 27.934570 -36.928711C27.026367 -37.836914 25.917969 -38.291016 24.609375 -38.291016ZM9.375000 -35.917969C10.019531 -35.917969 10.517578 -35.791016 10.869141 -35.537109C10.947266 -35.498047 11.005859 -35.458984 11.044922 -35.419922C11.494141 -35.029297 11.718750 -34.375000 11.718750 -33.457031C11.718750 -33.164062 11.601562 -32.656250 11.367188 -31.933594C11.328125 -31.855469 11.284180 -31.743164 11.235352 -31.596680C11.186523 -31.450195 11.152344 -31.367188 11.132812 -31.347656C10.761719 -30.273438 10.576172 -29.638672 10.576172 -29.443359L10.576172 -29.208984C10.595703 -29.130859 10.605469 -29.062500 10.605469 -29.003906C10.644531 -28.886719 10.703125 -28.759766 10.781250 -28.623047C10.898438 -28.408203 11.064453 -28.203125 11.279297 -28.007812L11.308594 -28.007812C11.503906 -27.832031 11.748047 -27.666016 12.041016 -27.509766C12.275391 -27.392578 12.558594 -27.265625 12.890625 -27.128906L14.150391 -26.630859C14.560547 -26.455078 14.843750 -26.289062 15.000000 -26.132812L15.087891 -26.044922L15.087891 -26.015625L15.205078 -25.839844L15.205078 -24.140625L3.632812 -24.140625L3.632812 -25.722656C3.632812 -26.035156 3.984375 -26.357422 4.687500 -26.689453C4.746094 -26.708984 4.833984 -26.748047 4.951172 -26.806641C5.009766 -26.826172 5.048828 -26.845703 5.068359 -26.865234C6.357422 -27.412109 7.167969 -27.822266 7.500000 -28.095703C7.597656 -28.173828 7.695312 -28.261719 7.792969 -28.359375L7.851562 -28.447266C7.871094 -28.447266 7.890625 -28.457031 7.910156 -28.476562L7.939453 -28.564453C7.939453 -28.564453 7.949219 -28.564453 7.968750 -28.564453L8.173828 -29.003906L8.203125 -29.208984C8.222656 -29.267578 8.232422 -29.345703 8.232422 -29.443359C8.232422 -29.541016 8.164062 -29.765625 8.027344 -30.117188C7.988281 -30.253906 7.895508 -30.517578 7.749023 -30.908203C7.602539 -31.298828 7.500000 -31.611328 7.441406 -31.845703C7.324219 -32.158203 7.255859 -32.363281 7.236328 -32.460938C7.177734 -32.656250 7.138672 -32.841797 7.119141 -33.017578L7.060547 -33.222656L7.060547 -33.457031C7.060547 -33.691406 7.080078 -33.916016 7.119141 -34.130859L7.119141 -34.160156C7.158203 -34.375000 7.197266 -34.541016 7.236328 -34.658203C7.353516 -34.970703 7.519531 -35.224609 7.734375 -35.419922C7.773438 -35.458984 7.832031 -35.498047 7.910156 -35.537109C8.183594 -35.732422 8.515625 -35.859375 8.906250 -35.917969ZM19.980469 -33.164062L23.466797 -33.164062L23.466797 -29.326172L25.693359 -29.326172L21.738281 -25.195312L17.753906 -29.326172L19.980469 -29.326172ZM19.980469 -33.164062"></path></svg>