<svg width="29.296875" height="17.753906" viewBox="0.000000 -38.261719 29.296875 17.753906" xmlns="http://www.w3.org/2000/svg"><path d="M4.687500 -38.261719C3.378906 -38.261719 2.270508 -37.807617 1.362305 -36.899414C0.454102 -35.991211 0.000000 -34.882812 0.000000 -33.574219L0.000000 -25.195312C0.000000 -23.906250 0.454102 -22.802734 1.362305 -21.884766C2.270508 -20.966797 3.378906 -20.507812 4.687500 -20.507812L24.609375 -20.507812C25.917969 -20.507812 27.026367 -20.966797 27.934570 -21.884766C28.842773 -22.802734 29.296875 -23.906250 29.296875 -25.195312L29.296875 -33.574219C29.296875 -34.882812 28.842773 -35.991211 27.934570 -36.899414C27.026367 -37.807617 25.917969 -38.261719 24.609375 -38.261719ZM9.375000 -35.888672C10.019531 -35.888672 10.517578 -35.761719 10.869141 -35.507812C10.947266 -35.468750 11.005859 -35.429688 11.044922 -35.390625C11.494141 -35.000000 11.718750 -34.345703 11.718750 -33.427734C11.718750 -33.115234 11.601562 -32.607422 11.367188 -31.904297C11.328125 -31.826172 11.284180 -31.713867 11.235352 -31.567383C11.186523 -31.420898 11.152344 -31.337891 11.132812 -31.318359C10.761719 -30.244141 10.576172 -29.609375 10.576172 -29.414062L10.576172 -29.179688C10.595703 -29.101562 10.605469 -29.033203 10.605469 -28.974609C10.644531 -28.857422 10.703125 -28.730469 10.781250 -28.593750C10.898438 -28.378906 11.064453 -28.173828 11.279297 -27.978516L11.308594 -27.978516C11.503906 -27.802734 11.748047 -27.636719 12.041016 -27.480469C12.275391 -27.363281 12.558594 -27.236328 12.890625 -27.099609L14.150391 -26.601562C14.560547 -26.406250 14.843750 -26.230469 15.000000 -26.074219L15.087891 -26.015625L15.087891 -25.986328L15.205078 -25.810547L15.205078 -24.111328L3.632812 -24.111328L3.632812 -25.693359C3.632812 -26.005859 3.984375 -26.328125 4.687500 -26.660156C4.746094 -26.679688 4.833984 -26.718750 4.951172 -26.777344C5.009766 -26.796875 5.048828 -26.816406 5.068359 -26.835938C6.357422 -27.363281 7.167969 -27.773438 7.500000 -28.066406C7.597656 -28.144531 7.695312 -28.232422 7.792969 -28.330078L7.851562 -28.417969C7.871094 -28.417969 7.885742 -28.422852 7.895508 -28.432617C7.905273 -28.442383 7.910156 -28.457031 7.910156 -28.476562L7.939453 -28.535156C7.939453 -28.535156 7.949219 -28.535156 7.968750 -28.535156L8.173828 -28.974609L8.203125 -29.179688C8.222656 -29.238281 8.232422 -29.311523 8.232422 -29.399414C8.232422 -29.487305 8.164062 -29.716797 8.027344 -30.087891L7.763672 -30.878906C7.607422 -31.269531 7.500000 -31.582031 7.441406 -31.816406C7.324219 -32.148438 7.255859 -32.353516 7.236328 -32.431641C7.177734 -32.626953 7.138672 -32.812500 7.119141 -32.988281L7.060547 -33.193359L7.060547 -33.427734C7.060547 -33.662109 7.080078 -33.886719 7.119141 -34.101562L7.119141 -34.130859C7.158203 -34.326172 7.197266 -34.492188 7.236328 -34.628906C7.353516 -34.941406 7.519531 -35.195312 7.734375 -35.390625C7.773438 -35.429688 7.832031 -35.468750 7.910156 -35.507812C8.183594 -35.703125 8.515625 -35.830078 8.906250 -35.888672ZM21.767578 -33.164062C22.451172 -33.164062 23.085938 -32.998047 23.671875 -32.666016C24.257812 -32.333984 24.736328 -31.894531 25.107422 -31.347656L26.132812 -32.343750L26.132812 -29.179688L22.939453 -29.179688L23.935547 -30.175781C23.740234 -30.585938 23.447266 -30.917969 23.056641 -31.171875C22.666016 -31.425781 22.236328 -31.552734 21.767578 -31.552734C21.103516 -31.552734 20.537109 -31.318359 20.068359 -30.849609C19.599609 -30.380859 19.365234 -29.819336 19.365234 -29.165039C19.365234 -28.510742 19.599609 -27.949219 20.068359 -27.480469C20.537109 -27.011719 21.113281 -26.777344 21.796875 -26.777344C22.480469 -26.777344 23.066406 -27.050781 23.554688 -27.597656L25.429688 -27.597656C25.097656 -26.875000 24.604492 -26.293945 23.950195 -25.854492C23.295898 -25.415039 22.568359 -25.195312 21.767578 -25.195312C20.654297 -25.195312 19.711914 -25.581055 18.940430 -26.352539C18.168945 -27.124023 17.783203 -28.061523 17.783203 -29.165039C17.783203 -30.268555 18.168945 -31.210938 18.940430 -31.992188C19.711914 -32.773438 20.654297 -33.164062 21.767578 -33.164062ZM21.767578 -33.164062"></path></svg>