<svg width="25.019531" height="34.365234" viewBox="2.197266 -63.632812 25.019531 34.365234" xmlns="http://www.w3.org/2000/svg"><path d="M13.007812 -63.632812C12.617188 -63.632812 12.207031 -63.583984 11.777344 -63.486328C10.488281 -63.193359 9.550781 -62.470703 8.964844 -61.318359C8.437500 -60.302734 8.232422 -59.062500 8.349609 -57.597656C8.447266 -56.250000 8.779297 -54.990234 9.345703 -53.818359C9.794922 -52.861328 10.458984 -51.787109 11.337891 -50.595703C12.099609 -49.541016 12.890625 -48.569336 13.710938 -47.680664C14.531250 -46.791992 15.136719 -46.230469 15.527344 -45.996094C15.527344 -45.976562 15.517578 -45.947266 15.498047 -45.908203C15.400391 -45.302734 15.249023 -44.765625 15.043945 -44.296875C14.838867 -43.828125 14.570312 -43.369141 14.238281 -42.919922C13.925781 -42.548828 13.549805 -42.148438 13.110352 -41.718750C12.670898 -41.289062 11.982422 -40.664062 11.044922 -39.843750C10.517578 -39.394531 10.097656 -38.906250 9.785156 -38.378906C9.472656 -37.851562 9.208984 -37.226562 8.994141 -36.503906C8.935547 -36.250000 8.837891 -35.839844 8.701172 -35.273438C8.486328 -34.316406 8.266602 -33.598633 8.041992 -33.120117C7.817383 -32.641602 7.490234 -32.197266 7.060547 -31.787109C6.533203 -31.318359 6.069336 -30.991211 5.668945 -30.805664C5.268555 -30.620117 4.736328 -30.478516 4.072266 -30.380859C3.544922 -30.302734 3.144531 -30.195312 2.871094 -30.058594C2.656250 -29.941406 2.451172 -29.785156 2.255859 -29.589844C2.216797 -29.550781 2.197266 -29.506836 2.197266 -29.458008C2.197266 -29.409180 2.216797 -29.365234 2.255859 -29.326172C2.294922 -29.287109 2.338867 -29.267578 2.387695 -29.267578C2.436523 -29.267578 2.480469 -29.287109 2.519531 -29.326172C2.695312 -29.482422 2.871094 -29.609375 3.046875 -29.707031C3.281250 -29.843750 3.632812 -29.941406 4.101562 -30.000000C4.804688 -30.097656 5.371094 -30.244141 5.800781 -30.439453C6.250000 -30.654297 6.757812 -31.015625 7.324219 -31.523438C7.792969 -31.953125 8.154297 -32.431641 8.408203 -32.958984C8.623047 -33.447266 8.847656 -34.189453 9.082031 -35.185547C9.199219 -35.732422 9.296875 -36.132812 9.375000 -36.386719C9.570312 -37.070312 9.814453 -37.666016 10.107422 -38.173828C10.400391 -38.681641 10.791016 -39.140625 11.279297 -39.550781C12.236328 -40.390625 12.939453 -41.025391 13.388672 -41.455078C13.837891 -41.884766 14.218750 -42.294922 14.531250 -42.685547C14.980469 -43.271484 15.322266 -43.886719 15.556641 -44.531250C15.458984 -43.886719 15.214844 -43.193359 14.824219 -42.451172L14.355469 -41.601562C14.277344 -41.464844 14.238281 -41.396484 14.238281 -41.396484C13.867188 -40.751953 13.632812 -40.209961 13.535156 -39.770508C13.437500 -39.331055 13.437500 -38.837891 13.535156 -38.291016C13.632812 -37.626953 13.652344 -37.177734 13.593750 -36.943359L13.564453 -36.914062C13.486328 -36.816406 13.486328 -36.728516 13.564453 -36.650391C13.603516 -36.611328 13.652344 -36.591797 13.710938 -36.591797C13.769531 -36.591797 13.818359 -36.611328 13.857422 -36.650391C13.896484 -36.689453 13.925781 -36.748047 13.945312 -36.826172C14.042969 -37.119141 14.023438 -37.626953 13.886719 -38.349609C13.808594 -38.857422 13.813477 -39.306641 13.901367 -39.697266C13.989258 -40.087891 14.208984 -40.585938 14.560547 -41.191406C14.560547 -41.191406 14.599609 -41.269531 14.677734 -41.425781L15.175781 -42.275391C15.820312 -43.564453 16.083984 -44.746094 15.966797 -45.820312C15.966797 -45.859375 15.957031 -45.888672 15.937500 -45.908203C16.445312 -46.064453 17.148438 -46.347656 18.046875 -46.757812C19.277344 -47.324219 20.400391 -47.939453 21.416016 -48.603516C22.744141 -49.482422 23.769531 -50.390625 24.492188 -51.328125C25.390625 -52.441406 26.074219 -53.642578 26.542969 -54.931641C27.050781 -56.337891 27.216797 -57.617188 27.041016 -58.769531C26.845703 -60.058594 26.220703 -61.064453 25.166016 -61.787109C24.541016 -62.197266 23.886719 -62.441406 23.203125 -62.519531C22.636719 -62.578125 22.041016 -62.519531 21.416016 -62.343750C20.927734 -62.187500 20.419922 -61.962891 19.892578 -61.669922C19.755859 -61.591797 19.365234 -61.347656 18.720703 -60.937500C18.369141 -60.703125 18.134766 -60.585938 18.017578 -60.585938C17.900391 -60.585938 17.734375 -60.693359 17.519531 -60.908203C17.617188 -60.810547 17.402344 -61.064453 16.875000 -61.669922C16.542969 -62.021484 16.230469 -62.314453 15.937500 -62.548828C15.527344 -62.880859 15.107422 -63.134766 14.677734 -63.310547C14.150391 -63.525391 13.593750 -63.632812 13.007812 -63.632812ZM13.593750 -36.914062C13.574219 -36.914062 13.564453 -36.914062 13.564453 -36.914062ZM13.593750 -36.914062"></path></svg>