<svg width="14.101562" height="24.912109" viewBox="7.617188 -49.785156 14.101562 24.912109" xmlns="http://www.w3.org/2000/svg"><path d="M10.341797 -49.785156C9.677734 -49.785156 9.072266 -49.619141 8.525391 -49.287109C8.017578 -48.837891 7.734375 -48.310547 7.675781 -47.705078C7.617188 -47.275391 7.714844 -46.767578 7.968750 -46.181641C8.164062 -45.771484 8.574219 -45.527344 9.199219 -45.449219C9.453125 -45.410156 9.833984 -45.439453 10.341797 -45.537109C10.849609 -45.634766 11.201172 -45.751953 11.396484 -45.888672C11.806641 -46.220703 12.050781 -46.679688 12.128906 -47.265625C12.226562 -48.027344 12.207031 -48.583984 12.070312 -48.935547C11.933594 -49.169922 11.679688 -49.365234 11.308594 -49.521484C11.152344 -49.580078 10.830078 -49.667969 10.341797 -49.785156ZM18.632812 -49.726562C18.242188 -49.726562 17.851562 -49.628906 17.460938 -49.433594C17.011719 -49.199219 16.748047 -48.789062 16.669922 -48.203125C16.513672 -46.035156 16.562500 -44.082031 16.816406 -42.343750C16.875000 -41.875000 16.875000 -41.396484 16.816406 -40.908203C16.816406 -40.517578 16.796875 -40.234375 16.757812 -40.058594C16.757812 -39.882812 16.738281 -39.755859 16.699219 -39.677734C16.660156 -39.541016 16.582031 -39.423828 16.464844 -39.326172C16.250000 -39.169922 15.908203 -39.052734 15.439453 -38.974609L14.882812 -38.886719C14.628906 -38.847656 14.433594 -38.828125 14.296875 -38.828125C14.082031 -38.808594 13.886719 -38.808594 13.710938 -38.828125C13.242188 -38.828125 12.929688 -38.896484 12.773438 -39.033203C12.734375 -39.072266 12.709961 -39.125977 12.700195 -39.194336C12.690430 -39.262695 12.685547 -39.345703 12.685547 -39.443359L12.714844 -39.677734C12.714844 -40.361328 12.685547 -40.849609 12.626953 -41.142578C12.587891 -41.494141 12.397461 -41.870117 12.055664 -42.270508C11.713867 -42.670898 11.308594 -42.978516 10.839844 -43.193359C10.292969 -43.408203 9.736328 -43.437500 9.169922 -43.281250C8.896484 -43.203125 8.681641 -42.919922 8.525391 -42.431641C8.427734 -42.099609 8.349609 -41.630859 8.291016 -41.025391L8.173828 -39.824219C8.134766 -39.511719 8.129883 -39.023438 8.159180 -38.359375C8.188477 -37.695312 8.242188 -37.153320 8.320312 -36.733398C8.398438 -36.313477 8.496094 -35.537109 8.613281 -34.404297C8.613281 -32.919922 8.564453 -31.816406 8.466797 -31.093750C8.427734 -30.234375 8.310547 -28.818359 8.115234 -26.845703C8.037109 -26.259766 8.105469 -25.830078 8.320312 -25.556641C8.535156 -25.205078 8.916016 -24.990234 9.462891 -24.912109C9.736328 -24.873047 10.136719 -24.882812 10.664062 -24.941406C11.191406 -25.000000 11.562500 -25.078125 11.777344 -25.175781C12.246094 -25.410156 12.509766 -25.820312 12.568359 -26.406250C12.724609 -28.261719 12.705078 -30.048828 12.509766 -31.767578C12.451172 -32.041016 12.421875 -32.470703 12.421875 -33.056641L12.421875 -33.671875C12.460938 -33.925781 12.539062 -34.130859 12.656250 -34.287109C12.714844 -34.384766 12.812500 -34.462891 12.949219 -34.521484L13.300781 -34.638672L14.296875 -34.843750C14.824219 -34.921875 15.351562 -34.921875 15.878906 -34.843750C16.054688 -34.843750 16.250000 -34.775391 16.464844 -34.638672C16.582031 -34.521484 16.660156 -34.345703 16.699219 -34.111328C16.757812 -33.798828 16.796875 -33.613281 16.816406 -33.554688C16.972656 -33.125000 17.148438 -32.714844 17.343750 -32.324219C17.480469 -32.070312 17.670898 -31.845703 17.915039 -31.650391C18.159180 -31.455078 18.417969 -31.318359 18.691406 -31.240234C19.140625 -31.142578 19.550781 -31.259766 19.921875 -31.591797C20.253906 -31.865234 20.527344 -32.255859 20.742188 -32.763672C20.937500 -33.193359 21.049805 -33.579102 21.079102 -33.920898C21.108398 -34.262695 21.108398 -34.907227 21.079102 -35.854492C21.049805 -36.801758 20.996094 -37.480469 20.917969 -37.890625C20.839844 -38.300781 20.742188 -39.072266 20.625000 -40.205078C20.625000 -41.689453 20.673828 -42.792969 20.771484 -43.515625C20.810547 -44.394531 20.937500 -45.810547 21.152344 -47.763672C21.210938 -48.349609 21.132812 -48.779297 20.917969 -49.052734C20.820312 -49.228516 20.527344 -49.375000 20.039062 -49.492188C19.687500 -49.589844 19.306641 -49.667969 18.896484 -49.726562C18.818359 -49.726562 18.730469 -49.726562 18.632812 -49.726562ZM20.214844 -29.248047C19.843750 -29.248047 19.433594 -29.208984 18.984375 -29.130859C18.457031 -29.052734 18.095703 -28.945312 17.900391 -28.808594C17.490234 -28.476562 17.246094 -28.017578 17.167969 -27.431641C17.089844 -26.923828 17.089844 -26.416016 17.167969 -25.908203C17.207031 -25.615234 17.299805 -25.395508 17.446289 -25.249023C17.592773 -25.102539 17.812500 -25.009766 18.105469 -24.970703C18.515625 -24.970703 18.964844 -25.009766 19.453125 -25.087891C20.058594 -25.185547 20.478516 -25.312500 20.712891 -25.468750C21.220703 -25.917969 21.503906 -26.455078 21.562500 -27.080078C21.718750 -27.490234 21.669922 -27.968750 21.416016 -28.515625C21.220703 -28.906250 20.820312 -29.150391 20.214844 -29.248047ZM20.214844 -29.248047"></path></svg>