<svg width="23.437500" height="23.437500" viewBox="2.929688 -46.816406 23.437500 23.437500" xmlns="http://www.w3.org/2000/svg"><path d="M2.929688 -46.816406L2.929688 -41.718750L5.888672 -41.718750C5.966797 -41.914062 6.088867 -42.070312 6.254883 -42.187500C6.420898 -42.304688 6.611328 -42.363281 6.826172 -42.363281C7.041016 -42.363281 7.236328 -42.299805 7.412109 -42.172852C7.587891 -42.045898 7.705078 -41.884766 7.763672 -41.689453C8.603516 -41.591797 9.301758 -41.235352 9.858398 -40.620117C10.415039 -40.004883 10.693359 -39.277344 10.693359 -38.437500C10.693359 -37.851562 10.546875 -37.304688 10.253906 -36.796875C9.960938 -36.289062 9.560547 -35.888672 9.052734 -35.595703C8.544922 -35.302734 7.998047 -35.156250 7.412109 -35.156250L2.929688 -35.156250L2.929688 -23.378906L26.367188 -23.378906L26.367188 -46.816406ZM2.929688 -40.957031L2.929688 -35.947266L7.412109 -35.947266C8.095703 -35.947266 8.681641 -36.186523 9.169922 -36.665039C9.658203 -37.143555 9.902344 -37.734375 9.902344 -38.437500C9.902344 -39.062500 9.697266 -39.614258 9.287109 -40.092773C8.876953 -40.571289 8.369141 -40.849609 7.763672 -40.927734C7.666016 -40.732422 7.534180 -40.581055 7.368164 -40.473633C7.202148 -40.366211 7.016602 -40.312500 6.811523 -40.312500C6.606445 -40.312500 6.420898 -40.371094 6.254883 -40.488281C6.088867 -40.605469 5.966797 -40.761719 5.888672 -40.957031ZM2.929688 -40.957031"></path></svg>