<svg width="29.296875" height="19.482422" viewBox="0.000000 -40.927734 29.296875 19.482422" xmlns="http://www.w3.org/2000/svg"><path d="M3.544922 -40.927734C2.900391 -40.927734 2.309570 -40.776367 1.772461 -40.473633C1.235352 -40.170898 0.805664 -39.765625 0.483398 -39.257812C0.161133 -38.750000 0.000000 -38.183594 0.000000 -37.558594L0.000000 -24.785156C0.000000 -24.179688 0.161133 -23.623047 0.483398 -23.115234C0.805664 -22.607422 1.235352 -22.202148 1.772461 -21.899414C2.309570 -21.596680 2.900391 -21.445312 3.544922 -21.445312L25.751953 -21.445312C26.396484 -21.445312 26.987305 -21.596680 27.524414 -21.899414C28.061523 -22.202148 28.491211 -22.607422 28.813477 -23.115234C29.135742 -23.623047 29.296875 -24.179688 29.296875 -24.785156L29.296875 -37.587891C29.296875 -38.193359 29.135742 -38.750000 28.813477 -39.257812C28.491211 -39.765625 28.061523 -40.170898 27.524414 -40.473633C26.987305 -40.776367 26.396484 -40.927734 25.751953 -40.927734ZM3.515625 -37.998047L25.781250 -37.998047C25.898438 -37.998047 26.005859 -37.954102 26.103516 -37.866211C26.201172 -37.778320 26.250000 -37.675781 26.250000 -37.558594L26.250000 -24.785156C26.250000 -24.667969 26.201172 -24.565430 26.103516 -24.477539C26.005859 -24.389648 25.898438 -24.345703 25.781250 -24.345703L12.275391 -24.345703C12.138672 -24.345703 12.026367 -24.389648 11.938477 -24.477539C11.850586 -24.565430 11.806641 -24.667969 11.806641 -24.785156L11.806641 -30.000000C11.806641 -30.488281 11.679688 -30.947266 11.425781 -31.376953C11.171875 -31.806641 10.825195 -32.148438 10.385742 -32.402344C9.946289 -32.656250 9.472656 -32.783203 8.964844 -32.783203L7.558594 -32.783203C7.226562 -32.783203 6.943359 -32.656250 6.708984 -32.402344C6.474609 -32.148438 6.357422 -31.865234 6.357422 -31.552734C6.357422 -31.240234 6.474609 -30.976562 6.708984 -30.761719C6.943359 -30.546875 7.216797 -30.439453 7.529297 -30.439453L8.964844 -30.439453C9.101562 -30.439453 9.213867 -30.395508 9.301758 -30.307617C9.389648 -30.219727 9.433594 -30.117188 9.433594 -30.000000L9.433594 -24.785156C9.433594 -24.667969 9.389648 -24.565430 9.301758 -24.477539C9.213867 -24.389648 9.101562 -24.345703 8.964844 -24.345703L3.515625 -24.345703C3.378906 -24.345703 3.266602 -24.389648 3.178711 -24.477539C3.090820 -24.565430 3.046875 -24.667969 3.046875 -24.785156L3.046875 -37.558594C3.046875 -37.675781 3.090820 -37.778320 3.178711 -37.866211C3.266602 -37.954102 3.378906 -37.998047 3.515625 -37.998047ZM10.341797 -36.767578C9.892578 -36.767578 9.511719 -36.621094 9.199219 -36.328125C8.886719 -36.035156 8.730469 -35.678711 8.730469 -35.258789C8.730469 -34.838867 8.886719 -34.462891 9.199219 -34.130859C9.511719 -33.798828 9.887695 -33.632812 10.327148 -33.632812C10.766602 -33.632812 11.142578 -33.798828 11.455078 -34.130859C11.767578 -34.462891 11.923828 -34.838867 11.923828 -35.258789C11.923828 -35.678711 11.767578 -36.035156 11.455078 -36.328125C11.142578 -36.621094 10.771484 -36.767578 10.341797 -36.767578ZM10.341797 -36.767578"></path></svg>