<svg width="24.902344" height="24.902344" viewBox="2.197266 -49.716797 24.902344 24.902344" xmlns="http://www.w3.org/2000/svg"><path d="M2.197266 -49.716797L2.197266 -24.814453L27.099609 -24.814453L27.099609 -49.716797ZM21.152344 -38.437500C21.914062 -38.437500 22.563477 -38.291016 23.100586 -37.998047C23.637695 -37.705078 24.091797 -37.226562 24.462891 -36.562500L22.646484 -35.390625C22.451172 -35.742188 22.236328 -35.996094 22.001953 -36.152344C21.767578 -36.308594 21.484375 -36.386719 21.152344 -36.386719C20.820312 -36.386719 20.551758 -36.293945 20.346680 -36.108398C20.141602 -35.922852 20.039062 -35.683594 20.039062 -35.390625C20.039062 -35.058594 20.146484 -34.785156 20.361328 -34.570312C20.556641 -34.394531 20.927734 -34.189453 21.474609 -33.955078L22.060547 -33.720703C23.134766 -33.251953 23.896484 -32.773438 24.345703 -32.285156C24.892578 -31.699219 25.166016 -30.947266 25.166016 -30.029297C25.166016 -29.013672 24.794922 -28.212891 24.052734 -27.626953C23.349609 -27.060547 22.421875 -26.777344 21.269531 -26.777344C20.234375 -26.777344 19.345703 -27.001953 18.603516 -27.451172C17.919922 -27.880859 17.392578 -28.457031 17.021484 -29.179688L18.925781 -30.263672C19.199219 -29.814453 19.501953 -29.472656 19.833984 -29.238281C20.224609 -28.984375 20.693359 -28.857422 21.240234 -28.857422C21.708984 -28.857422 22.089844 -28.964844 22.382812 -29.179688C22.675781 -29.394531 22.822266 -29.677734 22.822266 -30.029297C22.822266 -30.380859 22.675781 -30.673828 22.382812 -30.908203C22.167969 -31.064453 21.748047 -31.279297 21.123047 -31.552734L20.537109 -31.816406C19.599609 -32.207031 18.916016 -32.646484 18.486328 -33.134766C17.978516 -33.701172 17.724609 -34.433594 17.724609 -35.332031C17.724609 -36.230469 18.037109 -36.972656 18.662109 -37.558594C19.287109 -38.144531 20.117188 -38.437500 21.152344 -38.437500ZM13.417969 -38.291016L15.761719 -38.291016L15.761719 -30.292969C15.761719 -29.121094 15.429688 -28.232422 14.765625 -27.626953C14.160156 -27.060547 13.320312 -26.777344 12.246094 -26.777344C11.367188 -26.777344 10.615234 -26.982422 9.990234 -27.392578C9.462891 -27.763672 9.042969 -28.271484 8.730469 -28.916016L10.664062 -30.058594C10.878906 -29.648438 11.074219 -29.365234 11.250000 -29.208984C11.484375 -28.974609 11.787109 -28.857422 12.158203 -28.857422C12.568359 -28.857422 12.871094 -28.955078 13.066406 -29.150391C13.300781 -29.384766 13.417969 -29.775391 13.417969 -30.322266ZM13.417969 -38.291016"></path></svg>