<svg width="29.296875" height="21.210938" viewBox="0.000000 -43.710938 29.296875 21.210938" xmlns="http://www.w3.org/2000/svg"><path d="M8.144531 -43.710938C6.289062 -43.710938 5.043945 -43.437500 4.409180 -42.890625C3.774414 -42.343750 3.457031 -41.240234 3.457031 -39.580078L3.457031 -36.884766C3.457031 -35.771484 3.261719 -35.000000 2.871094 -34.570312C2.480469 -34.140625 1.757812 -33.925781 0.703125 -33.925781L0.000000 -33.925781L0.000000 -32.314453L0.703125 -32.314453C1.738281 -32.314453 2.456055 -32.099609 2.856445 -31.669922C3.256836 -31.240234 3.457031 -30.458984 3.457031 -29.326172L3.457031 -26.630859C3.457031 -24.990234 3.774414 -23.891602 4.409180 -23.334961C5.043945 -22.778320 6.289062 -22.500000 8.144531 -22.500000L8.876953 -22.500000L8.876953 -24.111328L8.085938 -24.111328C7.031250 -24.111328 6.347656 -24.272461 6.035156 -24.594727C5.722656 -24.916992 5.566406 -25.615234 5.566406 -26.689453L5.566406 -29.472656C5.566406 -30.625000 5.395508 -31.469727 5.053711 -32.006836C4.711914 -32.543945 4.130859 -32.910156 3.310547 -33.105469C4.130859 -33.300781 4.711914 -33.662109 5.053711 -34.189453C5.395508 -34.716797 5.566406 -35.566406 5.566406 -36.738281L5.566406 -39.521484C5.566406 -40.595703 5.722656 -41.293945 6.035156 -41.616211C6.347656 -41.938477 7.031250 -42.099609 8.085938 -42.099609L8.876953 -42.099609L8.876953 -43.710938ZM20.419922 -43.710938L20.419922 -42.099609L21.210938 -42.099609C22.246094 -42.099609 22.924805 -41.938477 23.247070 -41.616211C23.569336 -41.293945 23.730469 -40.595703 23.730469 -39.521484L23.730469 -36.738281C23.730469 -35.566406 23.896484 -34.716797 24.228516 -34.189453C24.560547 -33.662109 25.146484 -33.300781 25.986328 -33.105469C25.166016 -32.910156 24.584961 -32.548828 24.243164 -32.021484C23.901367 -31.494141 23.730469 -30.644531 23.730469 -29.472656L23.730469 -26.689453C23.730469 -25.615234 23.569336 -24.916992 23.247070 -24.594727C22.924805 -24.272461 22.246094 -24.111328 21.210938 -24.111328L20.419922 -24.111328L20.419922 -22.500000L21.123047 -22.500000C22.978516 -22.500000 24.218750 -22.778320 24.843750 -23.334961C25.468750 -23.891602 25.781250 -24.990234 25.781250 -26.630859L25.810547 -29.326172C25.791016 -30.458984 25.986328 -31.240234 26.396484 -31.669922C26.806641 -32.099609 27.539062 -32.314453 28.593750 -32.314453L29.296875 -32.314453L29.296875 -33.925781L28.593750 -33.925781C27.539062 -33.925781 26.806641 -34.140625 26.396484 -34.570312C25.986328 -35.000000 25.791016 -35.771484 25.810547 -36.884766L25.810547 -39.580078C25.791016 -41.240234 25.468750 -42.343750 24.843750 -42.890625C24.218750 -43.437500 22.978516 -43.710938 21.123047 -43.710938ZM18.076172 -41.220703C17.548828 -41.220703 17.050781 -41.083984 16.582031 -40.810547C16.113281 -40.537109 15.751953 -40.156250 15.498047 -39.667969C15.185547 -39.062500 15.078125 -38.437500 15.175781 -37.792969L15.146484 -37.851562L15.146484 -37.705078C15.126953 -37.587891 15.078125 -37.460938 15.000000 -37.324219C14.902344 -37.128906 14.746094 -36.923828 14.531250 -36.708984C14.277344 -36.455078 13.940430 -36.201172 13.520508 -35.947266C13.100586 -35.693359 12.705078 -35.507812 12.333984 -35.390625C12.041016 -35.292969 11.767578 -35.244141 11.513672 -35.244141C11.337891 -35.244141 11.181641 -35.263672 11.044922 -35.302734L10.898438 -35.390625L10.957031 -35.302734L10.781250 -35.390625C10.058594 -35.781250 9.306641 -35.854492 8.525391 -35.610352C7.744141 -35.366211 7.158203 -34.882812 6.767578 -34.160156C6.376953 -33.437500 6.303711 -32.685547 6.547852 -31.904297C6.791992 -31.123047 7.275391 -30.537109 7.998047 -30.146484C8.525391 -29.873047 9.086914 -29.765625 9.682617 -29.824219C10.278320 -29.882812 10.800781 -30.097656 11.250000 -30.468750L11.220703 -30.410156L11.367188 -30.498047C11.484375 -30.537109 11.630859 -30.556641 11.806641 -30.556641C12.041016 -30.556641 12.304688 -30.517578 12.597656 -30.439453C12.949219 -30.341797 13.349609 -30.175781 13.798828 -29.941406C14.443359 -29.589844 14.912109 -29.208984 15.205078 -28.798828C15.400391 -28.544922 15.507812 -28.291016 15.527344 -28.037109C15.507812 -27.490234 15.639648 -26.967773 15.922852 -26.469727C16.206055 -25.971680 16.601562 -25.585938 17.109375 -25.312500C17.832031 -24.941406 18.583984 -24.873047 19.365234 -25.107422C20.146484 -25.341797 20.732422 -25.820312 21.123047 -26.542969C21.513672 -27.265625 21.586914 -28.022461 21.342773 -28.813477C21.098633 -29.604492 20.615234 -30.185547 19.892578 -30.556641C19.794922 -30.615234 19.697266 -30.664062 19.599609 -30.703125L19.658203 -30.703125L19.570312 -30.791016C19.472656 -30.869141 19.394531 -30.976562 19.335938 -31.113281C19.218750 -31.328125 19.130859 -31.572266 19.072266 -31.845703C18.994141 -32.216797 18.950195 -32.646484 18.940430 -33.134766C18.930664 -33.623047 18.955078 -34.052734 19.013672 -34.423828C19.072266 -34.716797 19.150391 -34.970703 19.248047 -35.185547C19.306641 -35.322266 19.384766 -35.439453 19.482422 -35.537109L19.570312 -35.625000L19.482422 -35.625000C20.029297 -35.898438 20.449219 -36.318359 20.742188 -36.884766C21.132812 -37.607422 21.206055 -38.359375 20.961914 -39.140625C20.717773 -39.921875 20.234375 -40.507812 19.511719 -40.898438C19.062500 -41.132812 18.583984 -41.240234 18.076172 -41.220703ZM18.134766 -40.751953C18.662109 -40.751953 19.111328 -40.585938 19.482422 -40.253906C19.287109 -40.429688 18.984375 -40.498047 18.574219 -40.458984C18.164062 -40.419922 17.763672 -40.273438 17.373047 -40.019531C17.490234 -39.902344 17.548828 -39.760742 17.548828 -39.594727C17.548828 -39.428711 17.495117 -39.282227 17.387695 -39.155273C17.280273 -39.028320 17.138672 -38.964844 16.962891 -38.964844C16.904297 -38.964844 16.845703 -38.974609 16.787109 -38.994141L16.757812 -38.994141C16.582031 -39.052734 16.435547 -38.994141 16.318359 -38.818359C16.123047 -38.447266 16.015625 -38.085938 15.996094 -37.734375C15.976562 -37.382812 16.054688 -37.099609 16.230469 -36.884766C15.859375 -37.294922 15.683594 -37.792969 15.703125 -38.378906C15.722656 -38.964844 15.937500 -39.482422 16.347656 -39.931641C16.601562 -40.205078 16.884766 -40.410156 17.197266 -40.546875C17.509766 -40.683594 17.822266 -40.751953 18.134766 -40.751953ZM16.113281 -35.859375C16.250000 -35.859375 16.357422 -35.839844 16.435547 -35.800781L16.728516 -35.625000C16.904297 -35.546875 17.089844 -35.478516 17.285156 -35.419922C17.695312 -35.029297 17.919922 -34.238281 17.958984 -33.046875C17.958984 -32.343750 17.880859 -31.767578 17.724609 -31.318359C17.607422 -31.025391 17.460938 -30.800781 17.285156 -30.644531C17.011719 -30.527344 16.767578 -30.371094 16.552734 -30.175781C16.357422 -30.117188 16.113281 -30.107422 15.820312 -30.146484C15.351562 -30.224609 14.804688 -30.429688 14.179688 -30.761719C13.515625 -31.132812 13.017578 -31.503906 12.685547 -31.875000C12.490234 -32.109375 12.382812 -32.324219 12.363281 -32.519531C12.382812 -32.773438 12.363281 -33.027344 12.304688 -33.281250L12.333984 -33.251953L12.333984 -33.398438C12.353516 -33.496094 12.402344 -33.613281 12.480469 -33.750000C12.597656 -33.925781 12.763672 -34.111328 12.978516 -34.306641C13.232422 -34.560547 13.564453 -34.814453 13.974609 -35.068359C14.794922 -35.576172 15.478516 -35.839844 16.025391 -35.859375ZM9.462891 -35.156250C9.990234 -35.156250 10.439453 -34.990234 10.810547 -34.658203L10.781250 -34.658203C10.585938 -34.833984 10.288086 -34.902344 9.887695 -34.863281C9.487305 -34.824219 9.091797 -34.677734 8.701172 -34.423828C8.798828 -34.306641 8.852539 -34.169922 8.862305 -34.013672C8.872070 -33.857422 8.818359 -33.715820 8.701172 -33.588867C8.583984 -33.461914 8.437500 -33.388672 8.261719 -33.369141C8.222656 -33.369141 8.173828 -33.378906 8.115234 -33.398438L8.056641 -33.398438C7.900391 -33.457031 7.753906 -33.398438 7.617188 -33.222656C7.441406 -32.871094 7.343750 -32.514648 7.324219 -32.153320C7.304688 -31.791992 7.382812 -31.513672 7.558594 -31.318359C7.167969 -31.708984 6.982422 -32.197266 7.001953 -32.783203C7.021484 -33.369141 7.246094 -33.886719 7.675781 -34.335938C7.910156 -34.609375 8.183594 -34.814453 8.496094 -34.951172C8.808594 -35.087891 9.130859 -35.156250 9.462891 -35.156250ZM18.662109 -30.439453C19.189453 -30.439453 19.638672 -30.273438 20.009766 -29.941406L19.980469 -29.941406C19.785156 -30.117188 19.487305 -30.180664 19.086914 -30.131836C18.686523 -30.083008 18.291016 -29.931641 17.900391 -29.677734C17.998047 -29.580078 18.051758 -29.448242 18.061523 -29.282227C18.071289 -29.116211 18.017578 -28.969727 17.900391 -28.842773C17.783203 -28.715820 17.636719 -28.652344 17.460938 -28.652344C17.421875 -28.652344 17.373047 -28.652344 17.314453 -28.652344L17.255859 -28.681641C17.099609 -28.720703 16.953125 -28.662109 16.816406 -28.505859C16.621094 -28.134766 16.518555 -27.773438 16.508789 -27.421875C16.499023 -27.070312 16.582031 -26.787109 16.757812 -26.572266C16.367188 -26.982422 16.181641 -27.475586 16.201172 -28.051758C16.220703 -28.627930 16.445312 -29.150391 16.875000 -29.619141C17.109375 -29.873047 17.382812 -30.073242 17.695312 -30.219727C18.007812 -30.366211 18.330078 -30.439453 18.662109 -30.439453ZM18.662109 -30.439453"></path></svg>