<svg width="24.902344" height="24.902344" viewBox="2.197266 -49.746094 24.902344 24.902344" xmlns="http://www.w3.org/2000/svg"><path d="M14.648438 -49.746094C12.402344 -49.746094 10.312500 -49.179688 8.378906 -48.046875C6.484375 -46.933594 4.990234 -45.439453 3.896484 -43.564453C2.763672 -41.630859 2.197266 -39.536133 2.197266 -37.280273C2.197266 -35.024414 2.763672 -32.929688 3.896484 -30.996094C4.990234 -29.121094 6.484375 -27.636719 8.378906 -26.542969C10.312500 -25.410156 12.402344 -24.843750 14.648438 -24.843750C16.894531 -24.843750 18.984375 -25.410156 20.917969 -26.542969C22.812500 -27.636719 24.306641 -29.121094 25.400391 -30.996094C26.533203 -32.929688 27.099609 -35.024414 27.099609 -37.280273C27.099609 -39.536133 26.533203 -41.630859 25.400391 -43.564453C24.306641 -45.439453 22.822266 -46.933594 20.947266 -48.046875C18.994141 -49.179688 16.894531 -49.746094 14.648438 -49.746094ZM14.707031 -47.841797C16.640625 -47.841797 18.437500 -47.353516 20.097656 -46.376953C21.718750 -45.439453 22.998047 -44.160156 23.935547 -42.539062C24.912109 -40.898438 25.400391 -39.111328 25.400391 -37.177734C25.400391 -35.244141 24.912109 -33.447266 23.935547 -31.787109C22.998047 -30.166016 21.718750 -28.886719 20.097656 -27.949219C18.437500 -26.972656 16.645508 -26.484375 14.721680 -26.484375C12.797852 -26.484375 11.005859 -26.972656 9.345703 -27.949219C7.724609 -28.886719 6.445312 -30.166016 5.507812 -31.787109C4.531250 -33.447266 4.042969 -35.244141 4.042969 -37.177734C4.042969 -39.111328 4.531250 -40.898438 5.507812 -42.539062C6.445312 -44.160156 7.724609 -45.439453 9.345703 -46.376953C11.005859 -47.353516 12.792969 -47.841797 14.707031 -47.841797ZM21.064453 -44.296875L15.439453 -44.296875L15.439453 -42.333984L15.937500 -42.333984C16.230469 -42.333984 16.411133 -42.309570 16.479492 -42.260742C16.547852 -42.211914 16.582031 -42.138672 16.582031 -42.041016C16.582031 -42.001953 16.562500 -41.953125 16.523438 -41.894531C16.484375 -41.835938 16.376953 -41.708984 16.201172 -41.513672L12.275391 -37.412109L12.275391 -41.191406C12.275391 -41.562500 12.309570 -41.816406 12.377930 -41.953125C12.446289 -42.089844 12.548828 -42.197266 12.685547 -42.275391C12.763672 -42.314453 13.007812 -42.333984 13.417969 -42.333984L13.798828 -42.333984L13.798828 -44.296875L7.646484 -44.296875L7.646484 -42.333984L8.173828 -42.333984C8.486328 -42.333984 8.701172 -42.299805 8.818359 -42.231445C8.935547 -42.163086 9.023438 -42.060547 9.082031 -41.923828C9.140625 -41.787109 9.169922 -41.503906 9.169922 -41.074219L9.169922 -33.369141C9.169922 -32.919922 9.145508 -32.631836 9.096680 -32.504883C9.047852 -32.377930 8.959961 -32.280273 8.833008 -32.211914C8.706055 -32.143555 8.466797 -32.109375 8.115234 -32.109375L7.646484 -32.109375L7.646484 -30.146484L13.798828 -30.146484L13.798828 -32.109375L13.300781 -32.109375C12.949219 -32.109375 12.719727 -32.138672 12.612305 -32.197266C12.504883 -32.255859 12.421875 -32.353516 12.363281 -32.490234C12.304688 -32.626953 12.275391 -32.871094 12.275391 -33.222656L12.275391 -34.628906L14.179688 -36.503906L16.376953 -32.958984C16.572266 -32.646484 16.669922 -32.451172 16.669922 -32.373047C16.669922 -32.294922 16.621094 -32.231445 16.523438 -32.182617C16.425781 -32.133789 16.142578 -32.109375 15.673828 -32.109375L15.410156 -32.109375L15.410156 -30.146484L21.767578 -30.146484L21.767578 -32.109375L21.533203 -32.109375C21.181641 -32.109375 20.908203 -32.177734 20.712891 -32.314453C20.576172 -32.392578 20.351562 -32.666016 20.039062 -33.134766L16.406250 -38.642578L19.453125 -41.601562C19.707031 -41.835938 19.902344 -42.001953 20.039062 -42.099609C20.175781 -42.197266 20.292969 -42.260742 20.390625 -42.290039C20.488281 -42.319336 20.673828 -42.333984 20.947266 -42.333984L21.650391 -42.363281L21.650391 -44.296875ZM21.064453 -44.296875"></path></svg>