<svg width="29.394531" height="18.095703" viewBox="-0.048828 -38.750000 29.394531 18.095703" xmlns="http://www.w3.org/2000/svg"><path d="M27.011719 -38.750000C26.992188 -38.750000 26.962891 -38.740234 26.923828 -38.720703L26.630859 -38.720703L2.138672 -38.720703C1.787109 -38.720703 1.459961 -38.637695 1.157227 -38.471680C0.854492 -38.305664 0.605469 -38.085938 0.410156 -37.812500C0.078125 -37.304688 -0.048828 -36.748047 0.029297 -36.142578L0.029297 -22.636719C0.048828 -22.285156 0.156250 -21.967773 0.351562 -21.684570C0.546875 -21.401367 0.781250 -21.181641 1.054688 -21.025391C1.542969 -20.751953 2.080078 -20.654297 2.666016 -20.732422L2.666016 -20.703125L27.363281 -20.732422C27.714844 -20.751953 28.032227 -20.859375 28.315430 -21.054688C28.598633 -21.250000 28.818359 -21.484375 28.974609 -21.757812C29.248047 -22.226562 29.345703 -22.763672 29.267578 -23.369141L29.296875 -23.369141L29.267578 -36.816406C29.248047 -37.148438 29.140625 -37.456055 28.945312 -37.739258C28.750000 -38.022461 28.515625 -38.251953 28.242188 -38.427734C27.871094 -38.623047 27.460938 -38.730469 27.011719 -38.750000ZM26.894531 -37.343750C26.914062 -37.343750 26.933594 -37.343750 26.953125 -37.343750C27.187500 -37.343750 27.382812 -37.294922 27.539062 -37.197266C27.656250 -37.138672 27.739258 -37.075195 27.788086 -37.006836C27.836914 -36.938477 27.861328 -36.845703 27.861328 -36.728516L27.890625 -23.369141L27.890625 -23.281250C27.929688 -22.968750 27.880859 -22.685547 27.744141 -22.431641C27.685547 -22.333984 27.622070 -22.260742 27.553711 -22.211914C27.485352 -22.163086 27.392578 -22.138672 27.275391 -22.138672L2.666016 -22.109375L2.578125 -22.109375C2.265625 -22.070312 1.992188 -22.119141 1.757812 -22.255859C1.640625 -22.314453 1.557617 -22.377930 1.508789 -22.446289C1.459961 -22.514648 1.435547 -22.607422 1.435547 -22.724609L1.435547 -36.142578L1.406250 -36.259766C1.367188 -36.533203 1.420898 -36.777344 1.567383 -36.992188C1.713867 -37.207031 1.894531 -37.314453 2.109375 -37.314453L26.630859 -37.314453ZM4.248047 -34.501953L4.248047 -24.921875L7.060547 -24.921875L7.060547 -30.429688L9.873047 -26.914062L12.685547 -30.429688L12.685547 -24.921875L15.498047 -24.921875L15.498047 -34.501953L12.685547 -34.501953L9.873047 -30.986328L7.060547 -34.501953ZM20.419922 -34.501953L20.419922 -29.580078L17.607422 -29.580078L21.826172 -24.921875L26.044922 -29.580078L23.232422 -29.580078L23.232422 -34.501953ZM20.419922 -34.501953"></path></svg>