<svg width="24.082031" height="23.437500" viewBox="2.607422 -46.787109 24.082031 23.437500" xmlns="http://www.w3.org/2000/svg"><path d="M17.724609 -46.787109C17.490234 -46.787109 17.290039 -46.704102 17.124023 -46.538086C16.958008 -46.372070 16.875000 -46.171875 16.875000 -45.937500L16.875000 -37.998047C16.875000 -37.763672 16.958008 -37.563477 17.124023 -37.397461C17.290039 -37.231445 17.490234 -37.148438 17.724609 -37.148438L25.839844 -37.148438C26.074219 -37.148438 26.274414 -37.231445 26.440430 -37.397461C26.606445 -37.563477 26.689453 -37.763672 26.689453 -37.998047L26.689453 -45.937500C26.689453 -46.171875 26.606445 -46.372070 26.440430 -46.538086C26.274414 -46.704102 26.074219 -46.787109 25.839844 -46.787109ZM12.539062 -45.908203C11.718750 -45.888672 11.030273 -45.590820 10.473633 -45.014648C9.916992 -44.438477 9.638672 -43.750000 9.638672 -42.949219L9.638672 -33.632812C9.638672 -32.812500 9.926758 -32.114258 10.502930 -31.538086C11.079102 -30.961914 11.777344 -30.673828 12.597656 -30.673828L21.914062 -30.673828C22.734375 -30.673828 23.432617 -30.961914 24.008789 -31.538086C24.584961 -32.114258 24.873047 -32.812500 24.873047 -33.632812L24.873047 -35.888672L17.724609 -35.888672C17.138672 -35.888672 16.640625 -36.093750 16.230469 -36.503906C15.820312 -36.914062 15.615234 -37.412109 15.615234 -37.998047L15.615234 -45.908203ZM6.210938 -42.832031C5.566406 -42.832031 4.965820 -42.670898 4.409180 -42.348633C3.852539 -42.026367 3.413086 -41.591797 3.090820 -41.044922C2.768555 -40.498047 2.607422 -39.902344 2.607422 -39.257812L2.607422 -26.953125C2.607422 -26.308594 2.768555 -25.708008 3.090820 -25.151367C3.413086 -24.594727 3.852539 -24.155273 4.409180 -23.833008C4.965820 -23.510742 5.566406 -23.349609 6.210938 -23.349609L18.544922 -23.349609C19.189453 -23.349609 19.790039 -23.510742 20.346680 -23.833008C20.903320 -24.155273 21.342773 -24.594727 21.665039 -25.151367C21.987305 -25.708008 22.148438 -26.308594 22.148438 -26.953125L22.148438 -29.414062L12.597656 -29.414062C11.835938 -29.414062 11.127930 -29.604492 10.473633 -29.985352C9.819336 -30.366211 9.306641 -30.878906 8.935547 -31.523438C8.564453 -32.167969 8.378906 -32.871094 8.378906 -33.632812L8.378906 -42.832031ZM6.210938 -42.832031"></path></svg>