<svg width="27.714844" height="22.949219" viewBox="0.791016 -45.976562 27.714844 22.949219" xmlns="http://www.w3.org/2000/svg"><path d="M14.501953 -45.976562C13.349609 -45.976562 12.221680 -45.781250 11.118164 -45.390625C10.014648 -45.000000 9.052734 -44.443359 8.232422 -43.720703C7.333984 -42.939453 6.669922 -42.031250 6.240234 -40.996094C6.025391 -40.527344 5.878906 -40.039062 5.800781 -39.531250C5.234375 -40.117188 4.589844 -40.410156 3.867188 -40.410156C3.300781 -40.410156 2.783203 -40.234375 2.314453 -39.882812C1.845703 -39.531250 1.474609 -39.047852 1.201172 -38.432617C0.927734 -37.817383 0.791016 -37.143555 0.791016 -36.411133C0.791016 -35.678711 0.927734 -35.009766 1.201172 -34.404297C1.474609 -33.798828 1.845703 -33.315430 2.314453 -32.954102C2.783203 -32.592773 3.300781 -32.412109 3.867188 -32.412109C4.218750 -32.412109 4.560547 -32.490234 4.892578 -32.646484C4.619141 -31.943359 4.482422 -31.225586 4.482422 -30.493164C4.482422 -29.760742 4.638672 -29.062500 4.951172 -28.398438C5.556641 -26.972656 6.601562 -25.800781 8.085938 -24.882812C9.414062 -24.062500 10.917969 -23.535156 12.597656 -23.300781C14.589844 -23.027344 16.494141 -23.134766 18.310547 -23.623047C20.302734 -24.169922 21.923828 -25.136719 23.173828 -26.523438C23.935547 -27.343750 24.433594 -28.315430 24.667969 -29.438477C24.902344 -30.561523 24.824219 -31.621094 24.433594 -32.617188C24.765625 -32.480469 25.097656 -32.412109 25.429688 -32.412109C25.996094 -32.412109 26.513672 -32.592773 26.982422 -32.954102C27.451172 -33.315430 27.822266 -33.798828 28.095703 -34.404297C28.369141 -35.009766 28.505859 -35.678711 28.505859 -36.411133C28.505859 -37.143555 28.369141 -37.817383 28.095703 -38.432617C27.822266 -39.047852 27.451172 -39.531250 26.982422 -39.882812C26.513672 -40.234375 25.996094 -40.410156 25.429688 -40.410156C24.707031 -40.410156 24.062500 -40.107422 23.496094 -39.501953C23.242188 -40.986328 22.617188 -42.226562 21.621094 -43.222656C20.742188 -44.121094 19.677734 -44.814453 18.427734 -45.302734C17.236328 -45.751953 15.976562 -45.976562 14.648438 -45.976562ZM18.222656 -42.900391C18.574219 -42.900391 18.925781 -42.841797 19.277344 -42.724609C20.019531 -42.509766 20.654297 -42.089844 21.181641 -41.464844C21.650391 -40.878906 21.982422 -40.190430 22.177734 -39.399414C22.373047 -38.608398 22.412109 -37.832031 22.294922 -37.070312C22.314453 -36.855469 22.285156 -36.621094 22.207031 -36.367188C22.167969 -36.230469 22.080078 -35.996094 21.943359 -35.664062C21.806641 -35.390625 21.728516 -35.175781 21.708984 -35.019531C21.650391 -34.804688 21.665039 -34.609375 21.752930 -34.433594C21.840820 -34.257812 22.021484 -34.111328 22.294922 -33.994141C22.900391 -33.408203 23.300781 -32.685547 23.496094 -31.826172C23.671875 -31.005859 23.642578 -30.170898 23.408203 -29.321289C23.173828 -28.471680 22.783203 -27.744141 22.236328 -27.138672C21.220703 -26.064453 19.892578 -25.302734 18.251953 -24.853516C16.865234 -24.462891 15.322266 -24.316406 13.623047 -24.414062C12.080078 -24.511719 10.693359 -24.843750 9.462891 -25.410156C8.037109 -26.074219 6.992188 -27.011719 6.328125 -28.222656C5.976562 -28.847656 5.771484 -29.536133 5.712891 -30.288086C5.654297 -31.040039 5.742188 -31.748047 5.976562 -32.412109C6.250000 -33.134766 6.660156 -33.720703 7.207031 -34.169922C7.441406 -34.287109 7.583008 -34.428711 7.631836 -34.594727C7.680664 -34.760742 7.666016 -34.951172 7.587891 -35.166016C7.548828 -35.283203 7.460938 -35.483398 7.324219 -35.766602C7.187500 -36.049805 7.089844 -36.269531 7.031250 -36.425781C6.972656 -36.660156 6.962891 -36.875000 7.001953 -37.070312C6.884766 -37.832031 6.923828 -38.608398 7.119141 -39.399414C7.314453 -40.190430 7.656250 -40.878906 8.144531 -41.464844C8.671875 -42.089844 9.306641 -42.519531 10.048828 -42.753906C10.341797 -42.832031 10.625000 -42.880859 10.898438 -42.900391C11.679688 -42.939453 12.421875 -42.714844 13.125000 -42.226562C13.789062 -41.777344 14.296875 -41.181641 14.648438 -40.439453C14.960938 -41.142578 15.449219 -41.723633 16.113281 -42.182617C16.777344 -42.641602 17.480469 -42.880859 18.222656 -42.900391ZM12.187500 -37.656250C11.835938 -37.656250 11.542969 -37.504883 11.308594 -37.202148C11.074219 -36.899414 10.957031 -36.533203 10.957031 -36.103516C10.957031 -35.673828 11.074219 -35.307617 11.308594 -35.004883C11.542969 -34.702148 11.831055 -34.550781 12.172852 -34.550781C12.514648 -34.550781 12.807617 -34.702148 13.051758 -35.004883C13.295898 -35.307617 13.417969 -35.673828 13.417969 -36.103516C13.417969 -36.533203 13.295898 -36.899414 13.051758 -37.202148C12.807617 -37.504883 12.519531 -37.656250 12.187500 -37.656250ZM17.109375 -37.656250C16.777344 -37.656250 16.489258 -37.504883 16.245117 -37.202148C16.000977 -36.899414 15.878906 -36.533203 15.878906 -36.103516C15.878906 -35.673828 16.000977 -35.307617 16.245117 -35.004883C16.489258 -34.702148 16.782227 -34.550781 17.124023 -34.550781C17.465820 -34.550781 17.753906 -34.702148 17.988281 -35.004883C18.222656 -35.307617 18.339844 -35.673828 18.339844 -36.103516C18.339844 -36.533203 18.222656 -36.899414 17.988281 -37.202148C17.753906 -37.504883 17.460938 -37.656250 17.109375 -37.656250ZM21.123047 -33.291016C21.083984 -33.271484 21.044922 -33.261719 21.005859 -33.261719C19.111328 -32.539062 16.992188 -32.177734 14.648438 -32.177734C12.304688 -32.177734 10.185547 -32.539062 8.291016 -33.261719C8.232422 -33.281250 8.173828 -33.286133 8.115234 -33.276367C8.056641 -33.266602 8.002930 -33.237305 7.954102 -33.188477C7.905273 -33.139648 7.875977 -33.081055 7.866211 -33.012695C7.856445 -32.944336 7.871094 -32.875977 7.910156 -32.807617C7.949219 -32.739258 7.998047 -32.695312 8.056641 -32.675781C10.048828 -31.914062 12.246094 -31.533203 14.648438 -31.533203C17.050781 -31.533203 19.238281 -31.914062 21.210938 -32.675781C21.289062 -32.695312 21.347656 -32.739258 21.386719 -32.807617C21.425781 -32.875977 21.440430 -32.949219 21.430664 -33.027344C21.420898 -33.105469 21.386719 -33.168945 21.328125 -33.217773C21.269531 -33.266602 21.201172 -33.291016 21.123047 -33.291016ZM21.123047 -33.291016"></path></svg>