<svg width="23.378906" height="23.471680" viewBox="2.958984 -46.791992 23.378906 23.471680" xmlns="http://www.w3.org/2000/svg"><path d="M14.765625 -46.791992C14.453125 -46.791992 14.130859 -46.782227 13.798828 -46.762695C13.154297 -46.723633 12.470703 -46.616211 11.748047 -46.440430C11.064453 -46.264648 10.478516 -46.069336 9.990234 -45.854492C9.248047 -45.522461 8.496094 -45.092773 7.734375 -44.565430C6.875000 -43.959961 6.113281 -43.227539 5.449219 -42.368164C4.785156 -41.508789 4.248047 -40.571289 3.837891 -39.555664C4.052734 -40.122070 3.964844 -39.907227 3.574219 -38.911133C3.457031 -38.637695 3.378906 -38.413086 3.339844 -38.237305C3.085938 -37.358398 2.958984 -36.401367 2.958984 -35.366211C2.958984 -34.409180 3.046875 -33.500977 3.222656 -32.641602C3.652344 -30.688477 4.453125 -29.018555 5.625000 -27.631836C6.640625 -26.420898 7.998047 -25.366211 9.697266 -24.467773C10.634766 -23.979492 11.704102 -23.652344 12.905273 -23.486328C14.106445 -23.320312 15.322266 -23.330078 16.552734 -23.515625C17.783203 -23.701172 18.906250 -24.047852 19.921875 -24.555664C21.679688 -25.454102 23.164062 -26.811523 24.375000 -28.627930C24.980469 -29.526367 25.449219 -30.502930 25.781250 -31.557617C26.152344 -32.729492 26.337891 -33.940430 26.337891 -35.190430C26.337891 -36.303711 26.132812 -37.465820 25.722656 -38.676758C25.390625 -39.692383 24.941406 -40.639648 24.375000 -41.518555C23.378906 -43.100586 22.128906 -44.340820 20.625000 -45.239258C18.906250 -46.274414 16.953125 -46.791992 14.765625 -46.791992ZM13.769531 -41.225586L15.351562 -41.225586C15.664062 -41.225586 15.947266 -41.132812 16.201172 -40.947266C16.455078 -40.761719 16.630859 -40.522461 16.728516 -40.229492L19.833984 -30.854492C19.970703 -30.463867 19.946289 -30.087891 19.760742 -29.726562C19.575195 -29.365234 19.296875 -29.125977 18.925781 -29.008789C18.769531 -28.969727 18.613281 -28.950195 18.457031 -28.950195C18.144531 -28.950195 17.861328 -29.038086 17.607422 -29.213867C17.353516 -29.389648 17.177734 -29.633789 17.080078 -29.946289L16.406250 -32.084961L12.890625 -32.084961L12.216797 -29.946289C12.119141 -29.653320 11.943359 -29.414062 11.689453 -29.228516C11.435547 -29.042969 11.152344 -28.950195 10.839844 -28.950195C10.683594 -28.950195 10.537109 -28.969727 10.400391 -29.008789C10.009766 -29.125977 9.721680 -29.360352 9.536133 -29.711914C9.350586 -30.063477 9.316406 -30.434570 9.433594 -30.825195L12.392578 -40.200195C12.490234 -40.512695 12.666016 -40.761719 12.919922 -40.947266C13.173828 -41.132812 13.457031 -41.225586 13.769531 -41.225586ZM13.769531 -41.225586"></path></svg>