<svg width="23.437500" height="23.437500" viewBox="2.929688 -46.816406 23.437500 23.437500" xmlns="http://www.w3.org/2000/svg"><path d="M7.089844 -46.816406C6.035156 -46.640625 5.122070 -46.162109 4.350586 -45.380859C3.579102 -44.599609 3.105469 -43.681641 2.929688 -42.626953L2.929688 -27.539062C3.105469 -26.503906 3.574219 -25.605469 4.335938 -24.843750C5.097656 -24.082031 5.986328 -23.603516 7.001953 -23.408203L7.119141 -23.378906L22.207031 -23.378906L22.294922 -23.408203C23.330078 -23.603516 24.223633 -24.086914 24.975586 -24.858398C25.727539 -25.629883 26.191406 -26.533203 26.367188 -27.568359L26.367188 -42.656250C26.191406 -43.691406 25.712891 -44.599609 24.931641 -45.380859C24.150391 -46.162109 23.232422 -46.640625 22.177734 -46.816406ZM23.496094 -43.916016C23.496094 -43.173828 23.496094 -42.431641 23.496094 -41.689453C21.425781 -41.669922 18.652344 -41.669922 15.175781 -41.689453L15.205078 -43.886719ZM14.091797 -43.886719C14.111328 -43.398438 14.121094 -42.666016 14.121094 -41.689453L5.859375 -41.689453L5.859375 -43.886719ZM19.335938 -40.605469C20.781250 -40.605469 22.167969 -40.605469 23.496094 -40.605469L23.496094 -38.378906L15.175781 -38.378906L15.175781 -40.605469ZM14.121094 -40.605469C14.121094 -39.609375 14.121094 -38.867188 14.121094 -38.378906L5.859375 -38.408203L5.859375 -40.576172ZM16.230469 -37.324219C16.230469 -37.324219 18.652344 -37.314453 23.496094 -37.294922L23.466797 -35.068359L15.175781 -35.039062L15.175781 -37.324219ZM14.121094 -37.324219C14.121094 -37.304688 14.121094 -36.923828 14.121094 -36.181641L14.121094 -35.039062L5.859375 -35.039062L5.859375 -37.294922ZM15.175781 -33.955078C15.917969 -33.955078 17.304688 -33.955078 19.335938 -33.955078L23.466797 -33.955078C23.466797 -33.720703 23.466797 -32.988281 23.466797 -31.757812L15.205078 -31.757812ZM9.111328 -32.929688C9.599609 -32.929688 10.073242 -32.827148 10.532227 -32.622070C10.991211 -32.416992 11.376953 -32.128906 11.689453 -31.757812C12.119141 -31.269531 12.363281 -30.688477 12.421875 -30.014648C12.480469 -29.340820 12.363281 -28.696289 12.070312 -28.081055C11.777344 -27.465820 11.337891 -27.011719 10.751953 -26.718750C10.205078 -26.406250 9.594727 -26.274414 8.920898 -26.323242C8.247070 -26.372070 7.641602 -26.591797 7.104492 -26.982422C6.567383 -27.373047 6.210938 -27.880859 6.035156 -28.505859C5.800781 -29.072266 5.751953 -29.667969 5.888672 -30.292969C6.025391 -30.917969 6.308594 -31.459961 6.738281 -31.918945C7.167969 -32.377930 7.685547 -32.675781 8.291016 -32.812500C8.564453 -32.890625 8.837891 -32.929688 9.111328 -32.929688ZM9.111328 -32.929688"></path></svg>