<svg width="26.894531" height="23.437500" viewBox="1.201172 -46.816406 26.894531 23.437500" xmlns="http://www.w3.org/2000/svg"><path d="M12.919922 -46.816406C10.791016 -46.816406 8.818359 -46.279297 7.001953 -45.205078C5.244141 -44.169922 3.847656 -42.773438 2.812500 -41.015625C1.738281 -39.199219 1.201172 -37.226562 1.201172 -35.097656C1.201172 -32.968750 1.738281 -30.996094 2.812500 -29.179688C3.847656 -27.421875 5.244141 -26.025391 7.001953 -24.990234C8.818359 -23.916016 10.791016 -23.378906 12.919922 -23.378906C14.482422 -23.378906 15.976562 -23.676758 17.402344 -24.272461C18.828125 -24.868164 20.087891 -25.712891 21.181641 -26.806641C22.275391 -27.900391 23.125000 -29.160156 23.730469 -30.585938L28.095703 -30.585938L28.095703 -39.580078L23.730469 -39.580078C23.125000 -41.005859 22.275391 -42.265625 21.181641 -43.359375C20.087891 -44.453125 18.828125 -45.302734 17.402344 -45.908203C15.976562 -46.513672 14.482422 -46.816406 12.919922 -46.816406ZM12.919922 -43.330078C14.306641 -43.330078 15.615234 -42.993164 16.845703 -42.319336C18.076172 -41.645508 19.062500 -40.732422 19.804688 -39.580078L12.919922 -39.580078C12.099609 -39.580078 11.347656 -39.379883 10.664062 -38.979492C9.980469 -38.579102 9.438477 -38.032227 9.038086 -37.338867C8.637695 -36.645508 8.437500 -35.893555 8.437500 -35.083008C8.437500 -34.272461 8.637695 -33.525391 9.038086 -32.841797C9.438477 -32.158203 9.980469 -31.611328 10.664062 -31.201172C11.347656 -30.791016 12.099609 -30.585938 12.919922 -30.585938L19.833984 -30.585938C19.072266 -29.433594 18.081055 -28.520508 16.860352 -27.846680C15.639648 -27.172852 14.326172 -26.835938 12.919922 -26.835938C11.435547 -26.835938 10.048828 -27.216797 8.759766 -27.978516C7.509766 -28.701172 6.523438 -29.687500 5.800781 -30.937500C5.058594 -32.207031 4.687500 -33.588867 4.687500 -35.083008C4.687500 -36.577148 5.058594 -37.968750 5.800781 -39.257812C6.523438 -40.488281 7.509766 -41.464844 8.759766 -42.187500C10.048828 -42.949219 11.435547 -43.330078 12.919922 -43.330078ZM12.919922 -36.123047L24.609375 -36.123047L24.609375 -34.072266L12.919922 -34.072266C12.646484 -34.072266 12.407227 -34.174805 12.202148 -34.379883C11.997070 -34.584961 11.894531 -34.824219 11.894531 -35.097656C11.894531 -35.371094 11.992188 -35.610352 12.187500 -35.815430C12.382812 -36.020508 12.626953 -36.123047 12.919922 -36.123047ZM12.919922 -36.123047"></path></svg>