<svg width="23.437500" height="23.437500" viewBox="2.929688 -46.757812 23.437500 23.437500" xmlns="http://www.w3.org/2000/svg"><path d="M14.619141 -46.757812C11.396484 -46.757812 8.652344 -45.615234 6.386719 -43.330078C4.082031 -40.986328 2.929688 -38.212891 2.929688 -35.009766C2.929688 -31.806641 4.086914 -29.057617 6.401367 -26.762695C8.715820 -24.467773 11.455078 -23.320312 14.619141 -23.320312C17.861328 -23.320312 20.664062 -24.472656 23.027344 -26.777344C25.253906 -29.003906 26.367188 -31.752930 26.367188 -35.024414C26.367188 -38.295898 25.229492 -41.069336 22.954102 -43.344727C20.678711 -45.620117 17.900391 -46.757812 14.619141 -46.757812ZM14.677734 -44.648438C17.333984 -44.648438 19.589844 -43.701172 21.445312 -41.806641C23.320312 -39.970703 24.257812 -37.709961 24.257812 -35.024414C24.257812 -32.338867 23.339844 -30.097656 21.503906 -28.300781C19.550781 -26.406250 17.265625 -25.458984 14.648438 -25.458984C12.031250 -25.458984 9.775391 -26.401367 7.880859 -28.286133C5.986328 -30.170898 5.039062 -32.412109 5.039062 -35.009766C5.039062 -37.607422 5.996094 -39.873047 7.910156 -41.806641C9.746094 -43.701172 12.001953 -44.638672 14.677734 -44.619141ZM14.589844 -41.191406C13.242188 -41.191406 12.104492 -40.800781 11.176758 -40.019531C10.249023 -39.238281 9.667969 -38.125000 9.433594 -36.679688L8.525391 -36.679688L10.839844 -34.365234L13.154297 -36.679688L12.304688 -36.679688C12.500000 -38.066406 13.378906 -38.759766 14.941406 -38.759766C15.800781 -38.759766 16.459961 -38.432617 16.918945 -37.778320C17.377930 -37.124023 17.607422 -36.181641 17.607422 -34.951172C17.607422 -33.759766 17.358398 -32.807617 16.860352 -32.094727C16.362305 -31.381836 15.703125 -31.025391 14.882812 -31.025391C13.242188 -31.025391 12.382812 -31.738281 12.304688 -33.164062L9.345703 -33.164062C9.541016 -31.699219 10.122070 -30.571289 11.088867 -29.780273C12.055664 -28.989258 13.203125 -28.593750 14.531250 -28.593750C16.328125 -28.593750 17.792969 -29.189453 18.925781 -30.380859C20.058594 -31.572266 20.625000 -33.066406 20.625000 -34.863281C20.625000 -36.718750 20.078125 -38.237305 18.984375 -39.418945C17.890625 -40.600586 16.425781 -41.191406 14.589844 -41.191406ZM14.589844 -41.191406"></path></svg>