<svg width="23.437500" height="23.437500" viewBox="2.929688 -46.787109 23.437500 23.437500" xmlns="http://www.w3.org/2000/svg"><path d="M14.648438 -46.787109C12.519531 -46.787109 10.546875 -46.250000 8.730469 -45.175781C6.972656 -44.140625 5.576172 -42.744141 4.541016 -40.986328C3.466797 -39.150391 2.929688 -37.172852 2.929688 -35.053711C2.929688 -32.934570 3.466797 -30.966797 4.541016 -29.150391C5.576172 -27.373047 6.972656 -25.966797 8.730469 -24.931641C10.546875 -23.876953 12.519531 -23.349609 14.648438 -23.349609C16.777344 -23.349609 18.750000 -23.876953 20.566406 -24.931641C22.324219 -25.966797 23.720703 -27.373047 24.755859 -29.150391C25.830078 -30.966797 26.367188 -32.934570 26.367188 -35.053711C26.367188 -37.172852 25.830078 -39.150391 24.755859 -40.986328C23.720703 -42.744141 22.324219 -44.140625 20.566406 -45.175781C18.750000 -46.250000 16.777344 -46.787109 14.648438 -46.787109ZM14.648438 -44.589844C15.292969 -44.589844 16.005859 -44.492188 16.787109 -44.296875C18.193359 -43.984375 19.458008 -43.378906 20.581055 -42.480469C21.704102 -41.582031 22.578125 -40.507812 23.203125 -39.257812C23.847656 -37.929688 24.169922 -36.533203 24.169922 -35.068359C24.169922 -33.349609 23.740234 -31.748047 22.880859 -30.263672C22.021484 -28.818359 20.878906 -27.675781 19.453125 -26.835938C17.968750 -25.976562 16.367188 -25.546875 14.648438 -25.546875C12.929688 -25.546875 11.328125 -25.976562 9.843750 -26.835938C8.417969 -27.675781 7.275391 -28.818359 6.416016 -30.263672C5.556641 -31.748047 5.126953 -33.349609 5.126953 -35.068359C5.126953 -36.787109 5.556641 -38.388672 6.416016 -39.873047C7.275391 -41.298828 8.417969 -42.431641 9.843750 -43.271484C11.328125 -44.150391 12.929688 -44.589844 14.648438 -44.589844ZM13.974609 -40.781250L13.974609 -40.722656L14.062500 -40.722656L14.062500 -37.646484L13.564453 -39.111328C13.603516 -39.072266 13.642578 -39.023438 13.681641 -38.964844L13.564453 -39.257812L13.242188 -39.257812L13.300781 -39.228516L11.044922 -39.228516L7.998047 -30.087891L10.136719 -30.087891L10.253906 -30.439453L10.195312 -30.380859L10.634766 -31.728516L13.916016 -31.728516L14.414062 -30.087891L16.201172 -30.087891L16.582031 -30.058594L16.523438 -30.292969L16.494141 -30.234375L16.054688 -31.611328L17.607422 -31.611328C18.720703 -31.611328 19.541016 -31.826172 20.068359 -32.255859C20.263672 -32.412109 20.429688 -32.587891 20.566406 -32.783203L20.625000 -32.900391L20.771484 -33.310547L20.771484 -33.398438C20.849609 -33.691406 20.888672 -33.964844 20.888672 -34.218750C20.888672 -34.804688 20.766602 -35.292969 20.522461 -35.683594C20.278320 -36.074219 19.921875 -36.347656 19.453125 -36.503906C19.824219 -36.660156 20.102539 -36.889648 20.288086 -37.192383C20.473633 -37.495117 20.566406 -37.871094 20.566406 -38.320312C20.566406 -38.691406 20.507812 -39.023438 20.390625 -39.316406L20.361328 -39.433594C20.185547 -39.902344 19.833984 -40.253906 19.306641 -40.488281L19.101562 -40.517578L19.335938 -40.429688C19.160156 -40.488281 18.974609 -40.546875 18.779297 -40.605469L19.101562 -40.517578C18.964844 -40.576172 18.789062 -40.615234 18.574219 -40.634766C18.242188 -40.712891 17.812500 -40.751953 17.285156 -40.751953L16.376953 -40.751953ZM19.394531 -40.400391C19.531250 -40.341797 19.658203 -40.263672 19.775391 -40.166016C19.716797 -40.224609 19.638672 -40.273438 19.541016 -40.312500C19.521484 -40.332031 19.472656 -40.361328 19.394531 -40.400391ZM14.501953 -40.312500L17.285156 -40.312500C18.339844 -40.312500 19.082031 -40.156250 19.511719 -39.843750C19.941406 -39.531250 20.156250 -39.023438 20.156250 -38.320312C20.136719 -37.949219 20.053711 -37.641602 19.907227 -37.397461C19.760742 -37.153320 19.560547 -36.972656 19.306641 -36.855469C19.111328 -36.777344 19.013672 -36.650391 19.013672 -36.474609C19.013672 -36.396484 19.042969 -36.318359 19.101562 -36.240234C19.160156 -36.162109 19.228516 -36.113281 19.306641 -36.093750C19.677734 -35.976562 19.965820 -35.756836 20.170898 -35.434570C20.375977 -35.112305 20.478516 -34.707031 20.478516 -34.218750C20.478516 -33.476562 20.253906 -32.924805 19.804688 -32.563477C19.355469 -32.202148 18.632812 -32.021484 17.636719 -32.021484L15.908203 -32.021484L14.501953 -36.357422ZM15.878906 -39.609375C15.859375 -39.609375 15.849609 -39.609375 15.849609 -39.609375L15.820312 -39.609375L15.761719 -39.580078C15.742188 -39.541016 15.732422 -39.511719 15.732422 -39.492188L15.732422 -37.470703C15.732422 -37.412109 15.747070 -37.363281 15.776367 -37.324219C15.805664 -37.285156 15.839844 -37.265625 15.878906 -37.265625L17.167969 -37.265625C17.578125 -37.265625 17.895508 -37.363281 18.120117 -37.558594C18.344727 -37.753906 18.457031 -38.046875 18.457031 -38.437500C18.457031 -38.828125 18.344727 -39.121094 18.120117 -39.316406C17.895508 -39.511719 17.578125 -39.609375 17.167969 -39.609375ZM16.171875 -39.199219L17.167969 -39.199219C17.460938 -39.199219 17.680664 -39.135742 17.827148 -39.008789C17.973633 -38.881836 18.046875 -38.691406 18.046875 -38.437500C18.046875 -38.183594 17.973633 -37.993164 17.827148 -37.866211C17.680664 -37.739258 17.460938 -37.675781 17.167969 -37.675781L16.171875 -37.675781ZM12.304688 -37.089844L13.388672 -33.427734L11.162109 -33.427734ZM15.820312 -35.625000C15.820312 -35.625000 15.810547 -35.625000 15.791016 -35.625000L15.761719 -35.625000L15.703125 -35.566406L15.644531 -35.449219L15.644531 -33.193359C15.644531 -33.134766 15.668945 -33.085938 15.717773 -33.046875C15.766602 -33.007812 15.810547 -32.988281 15.849609 -32.988281L17.285156 -32.988281L17.402344 -33.046875C17.890625 -33.066406 18.242188 -33.154297 18.457031 -33.310547C18.750000 -33.564453 18.896484 -33.901367 18.896484 -34.321289C18.896484 -34.741211 18.750000 -35.063477 18.457031 -35.288086C18.164062 -35.512695 17.763672 -35.625000 17.255859 -35.625000ZM16.083984 -35.214844L17.255859 -35.214844C17.685547 -35.214844 17.993164 -35.141602 18.178711 -34.995117C18.364258 -34.848633 18.457031 -34.624023 18.457031 -34.321289C18.457031 -34.018555 18.369141 -33.793945 18.193359 -33.647461C18.017578 -33.500977 17.724609 -33.427734 17.314453 -33.427734L16.083984 -33.427734ZM16.083984 -35.214844"></path></svg>