<svg width="23.437500" height="23.437500" viewBox="2.929688 -46.787109 23.437500 23.437500" xmlns="http://www.w3.org/2000/svg"><path d="M14.648438 -46.787109C13.125000 -46.787109 11.650391 -46.503906 10.224609 -45.937500C8.779297 -45.332031 7.495117 -44.467773 6.372070 -43.344727C5.249023 -42.221680 4.384766 -40.937500 3.779297 -39.492188C3.212891 -38.066406 2.929688 -36.591797 2.929688 -35.068359C2.929688 -33.544922 3.212891 -32.080078 3.779297 -30.673828C4.384766 -29.208984 5.249023 -27.915039 6.372070 -26.791992C7.495117 -25.668945 8.779297 -24.804688 10.224609 -24.199219C11.650391 -23.632812 13.125000 -23.349609 14.648438 -23.349609C16.171875 -23.349609 17.646484 -23.632812 19.072266 -24.199219C20.517578 -24.804688 21.801758 -25.668945 22.924805 -26.791992C24.047852 -27.915039 24.912109 -29.199219 25.517578 -30.644531C26.083984 -32.070312 26.367188 -33.544922 26.367188 -35.068359C26.367188 -36.591797 26.083984 -38.066406 25.517578 -39.492188C24.912109 -40.937500 24.047852 -42.221680 22.924805 -43.344727C21.801758 -44.467773 20.517578 -45.332031 19.072266 -45.937500C17.646484 -46.503906 16.171875 -46.787109 14.648438 -46.787109ZM14.648438 -44.589844C15.917969 -44.589844 17.133789 -44.350586 18.295898 -43.872070C19.458008 -43.393555 20.488281 -42.705078 21.386719 -41.806641C22.285156 -40.908203 22.973633 -39.877930 23.452148 -38.715820C23.930664 -37.553711 24.169922 -36.337891 24.169922 -35.068359C24.169922 -33.798828 23.930664 -32.583008 23.452148 -31.420898C22.973633 -30.258789 22.285156 -29.228516 21.386719 -28.330078C20.488281 -27.431641 19.458008 -26.743164 18.295898 -26.264648C17.133789 -25.786133 15.917969 -25.546875 14.648438 -25.546875C13.378906 -25.546875 12.163086 -25.786133 11.000977 -26.264648C9.838867 -26.743164 8.808594 -27.431641 7.910156 -28.330078C6.699219 -29.560547 5.878906 -31.005859 5.449219 -32.666016C5.019531 -34.267578 5.019531 -35.869141 5.449219 -37.470703C5.878906 -39.130859 6.699219 -40.576172 7.910156 -41.806641C8.808594 -42.705078 9.838867 -43.393555 11.000977 -43.872070C12.163086 -44.350586 13.378906 -44.589844 14.648438 -44.589844ZM16.230469 -41.806641L17.607422 -40.371094L16.259766 -41.806641ZM9.257812 -41.718750L9.257812 -41.367188L9.257812 -28.417969L20.039062 -28.417969L20.039062 -37.734375L19.921875 -37.851562L16.259766 -41.718750ZM9.990234 -40.986328L15.966797 -40.986328L16.113281 -40.839844L16.113281 -37.646484L16.083984 -37.646484L16.083984 -37.558594L18.134766 -37.558594L16.816406 -37.617188L19.130859 -37.617188L19.306641 -37.441406L19.306641 -29.150391L9.990234 -29.150391L19.277344 -29.150391L19.189453 -34.746094L19.189453 -29.208984L10.048828 -29.208984L10.048828 -40.839844L9.990234 -40.839844ZM15.966797 -40.839844C16.005859 -40.800781 16.035156 -40.703125 16.054688 -40.546875L16.054688 -40.839844ZM20.068359 -37.763672L20.068359 -33.105469L20.068359 -28.417969L20.126953 -28.417969L20.126953 -37.734375ZM13.125000 -37.324219L10.634766 -29.912109C10.634766 -29.892578 10.654297 -29.882812 10.693359 -29.882812L12.304688 -29.882812L12.187500 -29.853516L12.392578 -29.853516L12.509766 -30.146484L12.421875 -30.000000L12.802734 -31.259766L15.527344 -31.259766L15.908203 -29.912109L15.820312 -30.087891L15.878906 -29.794922L16.201172 -29.794922C16.083984 -29.833984 16.005859 -29.863281 15.966797 -29.882812L17.607422 -29.882812L17.431641 -29.824219C17.607422 -29.843750 17.695312 -29.863281 17.695312 -29.882812L17.314453 -31.025391L17.607422 -30.087891L15.175781 -37.324219ZM14.150391 -35.595703L15.058594 -32.607422L13.242188 -32.607422ZM12.861328 -31.171875L12.861328 -31.142578L13.476562 -31.171875ZM12.861328 -31.171875"></path></svg>