<svg width="23.437500" height="23.437500" viewBox="2.929688 -46.757812 23.437500 23.437500" xmlns="http://www.w3.org/2000/svg"><path d="M14.648438 -46.757812C13.125000 -46.757812 11.650391 -46.474609 10.224609 -45.908203C8.779297 -45.322266 7.495117 -44.467773 6.372070 -43.344727C5.249023 -42.221680 4.384766 -40.927734 3.779297 -39.462891C3.212891 -38.056641 2.929688 -36.586914 2.929688 -35.053711C2.929688 -33.520508 3.212891 -32.050781 3.779297 -30.644531C4.384766 -29.179688 5.249023 -27.885742 6.372070 -26.762695C7.495117 -25.639648 8.779297 -24.785156 10.224609 -24.199219C11.650391 -23.613281 13.125000 -23.320312 14.648438 -23.320312C16.171875 -23.320312 17.646484 -23.613281 19.072266 -24.199219C20.517578 -24.785156 21.801758 -25.639648 22.924805 -26.762695C24.047852 -27.885742 24.912109 -29.179688 25.517578 -30.644531C26.083984 -32.050781 26.367188 -33.520508 26.367188 -35.053711C26.367188 -36.586914 26.083984 -38.056641 25.517578 -39.462891C24.912109 -40.927734 24.047852 -42.221680 22.924805 -43.344727C21.801758 -44.467773 20.517578 -45.322266 19.072266 -45.908203C17.646484 -46.474609 16.171875 -46.757812 14.648438 -46.757812ZM14.648438 -44.560547C15.917969 -44.560547 17.133789 -44.321289 18.295898 -43.842773C19.458008 -43.364258 20.488281 -42.675781 21.386719 -41.777344C22.285156 -40.878906 22.973633 -39.848633 23.452148 -38.686523C23.930664 -37.524414 24.169922 -36.308594 24.169922 -35.039062C24.169922 -33.769531 23.930664 -32.558594 23.452148 -31.406250C22.973633 -30.253906 22.285156 -29.228516 21.386719 -28.330078C20.488281 -27.431641 19.458008 -26.738281 18.295898 -26.250000C17.133789 -25.761719 15.917969 -25.517578 14.648438 -25.517578C13.378906 -25.517578 12.163086 -25.756836 11.000977 -26.235352C9.838867 -26.713867 8.808594 -27.402344 7.910156 -28.300781C6.699219 -29.511719 5.878906 -30.947266 5.449219 -32.607422C5.019531 -34.228516 5.019531 -35.849609 5.449219 -37.470703C5.878906 -39.130859 6.699219 -40.566406 7.910156 -41.777344C8.808594 -42.675781 9.838867 -43.364258 11.000977 -43.842773C12.163086 -44.321289 13.378906 -44.560547 14.648438 -44.560547ZM13.740234 -41.542969L13.740234 -39.404297C13.154297 -39.306641 12.695312 -39.101562 12.363281 -38.789062C11.855469 -38.320312 11.601562 -37.666016 11.601562 -36.826172C11.601562 -36.162109 11.787109 -35.625000 12.158203 -35.214844C12.490234 -34.843750 13.017578 -34.560547 13.740234 -34.365234L13.828125 -34.306641L14.589844 -34.130859C15.058594 -34.013672 15.371094 -33.886719 15.527344 -33.750000L15.556641 -33.691406C15.693359 -33.554688 15.761719 -33.374023 15.761719 -33.149414C15.761719 -32.924805 15.693359 -32.734375 15.556641 -32.578125L15.439453 -32.431641C15.205078 -32.294922 14.873047 -32.226562 14.443359 -32.226562C14.228516 -32.226562 13.984375 -32.250977 13.710938 -32.299805C13.437500 -32.348633 13.242188 -32.392578 13.125000 -32.431641C12.656250 -32.568359 12.167969 -32.783203 11.660156 -33.076172L11.660156 -31.230469C12.148438 -31.035156 12.646484 -30.878906 13.154297 -30.761719C13.291016 -30.742188 13.486328 -30.712891 13.740234 -30.673828L13.740234 -28.564453L15.556641 -28.564453L15.556641 -30.703125C16.142578 -30.800781 16.591797 -30.996094 16.904297 -31.289062C17.412109 -31.757812 17.666016 -32.460938 17.666016 -33.398438C17.666016 -34.121094 17.490234 -34.667969 17.138672 -35.039062C16.826172 -35.390625 16.298828 -35.664062 15.556641 -35.859375L14.472656 -36.123047C14.160156 -36.201172 13.916016 -36.298828 13.740234 -36.416016L13.652344 -36.445312C13.496094 -36.582031 13.417969 -36.757812 13.417969 -36.972656C13.417969 -37.265625 13.525391 -37.490234 13.740234 -37.646484L13.769531 -37.646484C13.984375 -37.802734 14.326172 -37.880859 14.794922 -37.880859C15.068359 -37.880859 15.322266 -37.851562 15.556641 -37.792969L15.937500 -37.705078C16.386719 -37.587891 16.796875 -37.431641 17.167969 -37.236328L17.167969 -39.052734C16.679688 -39.208984 16.220703 -39.316406 15.791016 -39.375000L15.556641 -39.404297L15.556641 -41.542969ZM9.873047 -40.283203C9.560547 -39.365234 9.326172 -38.471680 9.169922 -37.602539C9.013672 -36.733398 8.935547 -35.888672 8.935547 -35.068359C8.935547 -34.248047 9.013672 -33.408203 9.169922 -32.548828C9.326172 -31.689453 9.560547 -30.791016 9.873047 -29.853516L10.781250 -29.853516C10.507812 -30.810547 10.312500 -31.699219 10.195312 -32.519531C10.058594 -33.437500 9.990234 -34.291992 9.990234 -35.083008C9.990234 -35.874023 10.058594 -36.728516 10.195312 -37.646484C10.312500 -38.466797 10.507812 -39.345703 10.781250 -40.283203ZM18.574219 -40.283203C18.847656 -39.326172 19.047852 -38.442383 19.174805 -37.631836C19.301758 -36.821289 19.365234 -35.971680 19.365234 -35.083008C19.365234 -34.194336 19.306641 -33.344727 19.189453 -32.534180C19.072266 -31.723633 18.867188 -30.830078 18.574219 -29.853516L19.482422 -29.853516C19.794922 -30.791016 20.024414 -31.689453 20.170898 -32.548828C20.317383 -33.408203 20.390625 -34.248047 20.390625 -35.068359C20.390625 -35.888672 20.317383 -36.728516 20.170898 -37.587891C20.024414 -38.447266 19.794922 -39.345703 19.482422 -40.283203ZM18.574219 -40.283203"></path></svg>