<svg width="24.931641" height="24.863281" viewBox="2.197266 -49.648438 24.931641 24.863281" xmlns="http://www.w3.org/2000/svg"><path d="M14.677734 -49.648438C12.666016 -49.648438 10.742188 -49.199219 8.906250 -48.300781C7.910156 -47.812500 6.894531 -47.045898 5.859375 -46.000977C4.824219 -44.956055 4.052734 -43.906250 3.544922 -42.851562C2.646484 -41.015625 2.197266 -39.121094 2.197266 -37.167969C2.197266 -35.214844 2.631836 -33.369141 3.500977 -31.630859C4.370117 -29.892578 5.605469 -28.417969 7.207031 -27.207031C7.910156 -26.679688 8.750000 -26.201172 9.726562 -25.771484C10.703125 -25.341797 11.611328 -25.048828 12.451172 -24.892578C12.724609 -24.853516 13.134766 -24.824219 13.681641 -24.804688C14.228516 -24.785156 14.755859 -24.785156 15.263672 -24.804688C17.392578 -24.882812 19.345703 -25.458984 21.123047 -26.533203C22.861328 -27.568359 24.257812 -28.945312 25.312500 -30.664062C26.386719 -32.441406 26.972656 -34.384766 27.070312 -36.494141C27.128906 -37.705078 27.060547 -38.798828 26.865234 -39.775391C26.669922 -40.751953 26.313477 -41.772461 25.795898 -42.836914C25.278320 -43.901367 24.501953 -44.956055 23.466797 -46.000977C22.431641 -47.045898 21.416016 -47.812500 20.419922 -48.300781C18.583984 -49.199219 16.669922 -49.648438 14.677734 -49.648438ZM20.332031 -45.957031C20.761719 -45.976562 21.181641 -45.893555 21.591797 -45.708008C22.001953 -45.522461 22.363281 -45.263672 22.675781 -44.931641C22.851562 -44.736328 22.949219 -44.462891 22.968750 -44.111328C23.007812 -43.701172 22.968750 -43.017578 22.851562 -42.060547C22.734375 -41.220703 22.529297 -39.814453 22.236328 -37.841797C21.943359 -36.044922 21.748047 -34.775391 21.650391 -34.033203C21.533203 -33.095703 21.484375 -32.431641 21.503906 -32.041016C21.523438 -31.650391 21.616211 -31.425781 21.782227 -31.367188C21.948242 -31.308594 22.216797 -31.347656 22.587891 -31.484375C22.861328 -31.562500 23.037109 -31.586914 23.115234 -31.557617C23.193359 -31.528320 23.164062 -31.450195 23.027344 -31.323242C22.890625 -31.196289 22.666016 -31.044922 22.353516 -30.869141C21.142578 -30.166016 20.410156 -30.048828 20.156250 -30.517578C20.039062 -30.732422 19.980469 -30.996094 19.980469 -31.308594C19.980469 -31.679688 20.029297 -32.294922 20.126953 -33.154297C20.224609 -33.916016 20.419922 -35.224609 20.712891 -37.080078C20.966797 -38.740234 21.142578 -39.931641 21.240234 -40.654297C21.357422 -41.572266 21.420898 -42.255859 21.430664 -42.705078C21.440430 -43.154297 21.406250 -43.505859 21.328125 -43.759766C21.250000 -43.955078 21.113281 -44.160156 20.917969 -44.375000C20.625000 -44.667969 20.258789 -44.848633 19.819336 -44.916992C19.379883 -44.985352 18.984375 -44.926758 18.632812 -44.741211C18.281250 -44.555664 17.958984 -44.091797 17.666016 -43.349609C17.373047 -42.607422 17.158203 -41.728516 17.021484 -40.712891L16.904297 -39.804688L18.427734 -39.804688C18.837891 -39.804688 19.199219 -39.790039 19.511719 -39.760742C19.824219 -39.731445 19.995117 -39.692383 20.024414 -39.643555C20.053711 -39.594727 20.024414 -39.506836 19.936523 -39.379883C19.848633 -39.252930 19.726562 -39.121094 19.570312 -38.984375C19.335938 -38.789062 19.155273 -38.671875 19.028320 -38.632812C18.901367 -38.593750 18.769531 -38.613281 18.632812 -38.691406C18.535156 -38.730469 18.378906 -38.769531 18.164062 -38.808594C17.949219 -38.847656 17.744141 -38.867188 17.548828 -38.867188L16.816406 -38.867188L16.464844 -35.791016C16.269531 -33.935547 16.064453 -32.500000 15.849609 -31.484375C15.634766 -30.410156 15.351562 -29.511719 15.000000 -28.789062C14.687500 -28.144531 14.228516 -27.490234 13.623047 -26.826172C13.388672 -26.552734 13.168945 -26.318359 12.963867 -26.123047C12.758789 -25.927734 12.626953 -25.830078 12.568359 -25.830078C12.392578 -25.830078 12.309570 -25.913086 12.319336 -26.079102C12.329102 -26.245117 12.441406 -26.435547 12.656250 -26.650391C13.066406 -27.060547 13.398438 -27.558594 13.652344 -28.144531C13.906250 -28.730469 14.140625 -29.541016 14.355469 -30.576172C14.550781 -31.552734 14.746094 -32.919922 14.941406 -34.677734C15.253906 -37.373047 15.410156 -38.745117 15.410156 -38.793945C15.410156 -38.842773 15.175781 -38.867188 14.707031 -38.867188C14.492188 -38.867188 14.301758 -38.881836 14.135742 -38.911133C13.969727 -38.940430 13.867188 -38.974609 13.828125 -39.013672C13.789062 -39.052734 13.842773 -39.140625 13.989258 -39.277344C14.135742 -39.414062 14.326172 -39.536133 14.560547 -39.643555C14.794922 -39.750977 14.990234 -39.804688 15.146484 -39.804688C15.302734 -39.804688 15.419922 -39.882812 15.498047 -40.039062C15.576172 -40.195312 15.664062 -40.537109 15.761719 -41.064453C16.191406 -43.349609 17.324219 -44.902344 19.160156 -45.722656C19.531250 -45.878906 19.921875 -45.957031 20.332031 -45.957031ZM10.195312 -39.921875C10.703125 -39.921875 11.166992 -39.794922 11.586914 -39.541016C12.006836 -39.287109 12.333984 -38.906250 12.568359 -38.398438C12.763672 -38.027344 12.880859 -37.695312 12.919922 -37.402344C12.958984 -37.109375 12.958984 -36.630859 12.919922 -35.966797C12.861328 -34.755859 12.548828 -33.686523 11.982422 -32.758789C11.416016 -31.831055 10.654297 -31.132812 9.697266 -30.664062C9.150391 -30.390625 8.730469 -30.239258 8.437500 -30.209961C8.144531 -30.180664 7.792969 -30.263672 7.382812 -30.458984C6.699219 -30.751953 6.186523 -31.274414 5.844727 -32.026367C5.502930 -32.778320 5.380859 -33.662109 5.478516 -34.677734C5.595703 -36.064453 6.074219 -37.226562 6.914062 -38.164062C7.402344 -38.730469 7.934570 -39.165039 8.510742 -39.467773C9.086914 -39.770508 9.648438 -39.921875 10.195312 -39.921875ZM9.404297 -38.867188C8.017578 -38.867188 7.158203 -37.666016 6.826172 -35.263672C6.728516 -34.638672 6.787109 -33.984375 7.001953 -33.300781C7.216797 -32.617188 7.509766 -32.119141 7.880859 -31.806641C8.466797 -31.318359 9.052734 -31.186523 9.638672 -31.411133C10.224609 -31.635742 10.703125 -32.138672 11.074219 -32.919922C11.445312 -33.701172 11.630859 -34.638672 11.630859 -35.732422C11.630859 -36.376953 11.523438 -36.987305 11.308594 -37.563477C11.093750 -38.139648 10.839844 -38.505859 10.546875 -38.662109C10.429688 -38.720703 10.258789 -38.769531 10.034180 -38.808594C9.809570 -38.847656 9.599609 -38.867188 9.404297 -38.867188ZM9.404297 -38.867188"></path></svg>