<svg width="24.902344" height="24.902344" viewBox="2.197266 -49.775391 24.902344 24.902344" xmlns="http://www.w3.org/2000/svg"><path d="M14.648438 -49.775391C12.402344 -49.775391 10.302734 -49.208984 8.349609 -48.076172C6.474609 -46.982422 4.990234 -45.488281 3.896484 -43.593750C2.763672 -41.660156 2.197266 -39.570312 2.197266 -37.324219C2.197266 -35.214844 2.705078 -33.232422 3.720703 -31.376953C4.677734 -29.580078 6.005859 -28.115234 7.705078 -26.982422C9.443359 -25.810547 11.347656 -25.126953 13.417969 -24.931641C13.417969 -27.138672 12.851562 -29.326172 11.718750 -31.494141C10.996094 -32.880859 10.117188 -34.150391 9.082031 -35.302734L8.964844 -35.507812C8.867188 -35.664062 8.808594 -35.830078 8.789062 -36.005859C8.750000 -36.240234 8.769531 -36.464844 8.847656 -36.679688L11.162109 -42.539062L11.308594 -42.802734C11.425781 -43.017578 11.572266 -43.193359 11.748047 -43.330078C11.982422 -43.505859 12.246094 -43.593750 12.539062 -43.593750L16.757812 -43.593750C17.050781 -43.593750 17.314453 -43.505859 17.548828 -43.330078C17.724609 -43.193359 17.871094 -43.017578 17.988281 -42.802734L18.134766 -42.539062L20.449219 -36.679688C20.527344 -36.464844 20.546875 -36.240234 20.507812 -36.005859C20.488281 -35.830078 20.429688 -35.664062 20.332031 -35.507812L20.214844 -35.302734C19.179688 -34.150391 18.300781 -32.880859 17.578125 -31.494141C16.445312 -29.326172 15.878906 -27.138672 15.878906 -24.931641C17.949219 -25.126953 19.853516 -25.810547 21.591797 -26.982422C23.291016 -28.115234 24.619141 -29.580078 25.576172 -31.376953C26.591797 -33.232422 27.099609 -35.214844 27.099609 -37.324219C27.099609 -39.570312 26.533203 -41.660156 25.400391 -43.593750C24.306641 -45.488281 22.822266 -46.982422 20.947266 -48.076172C18.994141 -49.208984 16.894531 -49.775391 14.648438 -49.775391ZM14.648438 -39.287109C14.101562 -39.287109 13.637695 -39.096680 13.256836 -38.715820C12.875977 -38.334961 12.685547 -37.871094 12.685547 -37.324219C12.685547 -36.855469 12.832031 -36.440430 13.125000 -36.079102C13.417969 -35.717773 13.789062 -35.488281 14.238281 -35.390625L14.238281 -24.873047L14.648438 -24.873047L15.058594 -24.873047L15.058594 -35.390625C15.507812 -35.488281 15.878906 -35.717773 16.171875 -36.079102C16.464844 -36.440430 16.611328 -36.855469 16.611328 -37.324219C16.611328 -37.871094 16.420898 -38.334961 16.040039 -38.715820C15.659180 -39.096680 15.195312 -39.287109 14.648438 -39.287109ZM14.648438 -39.287109"></path></svg>