<svg width="29.389648" height="22.929688" viewBox="-0.053711 -45.771484 29.389648 22.929688" xmlns="http://www.w3.org/2000/svg"><path d="M14.619141 -45.751953C14.560547 -45.751953 12.978516 -44.853516 9.873047 -43.056641L5.214844 -40.361328L4.716797 -40.654297C4.345703 -40.849609 4.111328 -40.986328 4.013672 -41.064453C3.876953 -41.162109 3.793945 -41.264648 3.764648 -41.372070C3.735352 -41.479492 3.715820 -41.665039 3.706055 -41.928711C3.696289 -42.192383 3.671875 -42.392578 3.632812 -42.529297C3.593750 -42.666016 3.515625 -42.812500 3.398438 -42.968750C3.007812 -43.476562 2.495117 -43.730469 1.860352 -43.730469C1.225586 -43.730469 0.722656 -43.486328 0.351562 -42.998047C0.058594 -42.607422 -0.053711 -42.148438 0.014648 -41.621094C0.083008 -41.093750 0.312500 -40.683594 0.703125 -40.390625C0.937500 -40.195312 1.259766 -40.078125 1.669922 -40.039062C2.080078 -40.000000 2.412109 -40.048828 2.666016 -40.185547C2.841797 -40.263672 2.978516 -40.288086 3.076172 -40.258789C3.173828 -40.229492 3.437500 -40.097656 3.867188 -39.863281L4.716797 -39.365234L4.716797 -28.583984L14.648438 -22.841797L14.970703 -23.017578C16.435547 -23.876953 18.305664 -24.956055 20.581055 -26.254883C22.856445 -27.553711 24.028320 -28.203125 24.096680 -28.203125C24.165039 -28.203125 24.433594 -28.066406 24.902344 -27.792969L25.576172 -27.412109L25.576172 -26.826172C25.576172 -26.298828 25.722656 -25.864258 26.015625 -25.522461C26.308594 -25.180664 26.708984 -24.970703 27.216797 -24.892578C27.626953 -24.853516 28.007812 -24.941406 28.359375 -25.156250C28.710938 -25.371094 28.969727 -25.668945 29.135742 -26.049805C29.301758 -26.430664 29.335938 -26.816406 29.238281 -27.207031C29.082031 -27.792969 28.735352 -28.212891 28.198242 -28.466797C27.661133 -28.720703 27.128906 -28.720703 26.601562 -28.466797C26.445312 -28.388672 26.313477 -28.364258 26.206055 -28.393555C26.098633 -28.422852 25.839844 -28.544922 25.429688 -28.759766L24.609375 -29.228516L24.609375 -40.068359L19.628906 -42.939453C16.328125 -44.833984 14.658203 -45.771484 14.619141 -45.751953ZM14.062500 -43.730469L14.062500 -40.917969L14.062500 -38.105469L13.828125 -38.105469C13.085938 -38.144531 12.456055 -38.208008 11.938477 -38.295898C11.420898 -38.383789 11.162109 -38.461914 11.162109 -38.530273C11.162109 -38.598633 11.279297 -38.916016 11.513672 -39.482422C11.748047 -40.048828 11.938477 -40.488281 12.084961 -40.800781C12.231445 -41.113281 12.500000 -41.562500 12.890625 -42.148438C13.281250 -42.734375 13.583984 -43.154297 13.798828 -43.408203ZM15.410156 -43.437500C15.468750 -43.437500 15.566406 -43.349609 15.703125 -43.173828L16.201172 -42.470703C16.591797 -41.904297 17.031250 -41.113281 17.519531 -40.097656C18.007812 -39.082031 18.203125 -38.535156 18.105469 -38.457031C18.085938 -38.417969 17.866211 -38.369141 17.446289 -38.310547C17.026367 -38.251953 16.552734 -38.203125 16.025391 -38.164062L15.263672 -38.076172L15.263672 -40.859375C15.263672 -41.972656 15.263672 -42.626953 15.263672 -42.822266C15.283203 -43.232422 15.332031 -43.437500 15.410156 -43.437500ZM17.285156 -42.968750L18.017578 -42.529297C19.091797 -41.923828 20.136719 -41.323242 21.152344 -40.727539C22.167969 -40.131836 22.675781 -39.814453 22.675781 -39.775391C22.675781 -39.736328 22.363281 -39.609375 21.738281 -39.394531C20.156250 -38.808594 19.335938 -38.603516 19.277344 -38.779297C18.945312 -39.716797 18.671875 -40.419922 18.457031 -40.888672C18.242188 -41.357422 17.968750 -41.855469 17.636719 -42.382812ZM11.923828 -42.851562C11.923828 -42.851562 11.923828 -42.846680 11.923828 -42.836914C11.923828 -42.827148 11.835938 -42.685547 11.660156 -42.412109C11.445312 -42.060547 11.196289 -41.591797 10.913086 -41.005859C10.629883 -40.419922 10.410156 -39.902344 10.253906 -39.453125C10.058594 -38.906250 9.951172 -38.632812 9.931641 -38.632812L9.052734 -38.896484C8.525391 -39.052734 7.993164 -39.228516 7.456055 -39.423828C6.918945 -39.619141 6.650391 -39.741211 6.650391 -39.790039C6.650391 -39.838867 7.529297 -40.371094 9.287109 -41.386719C10.947266 -42.343750 11.826172 -42.832031 11.923828 -42.851562ZM1.904297 -42.587891C2.041016 -42.587891 2.172852 -42.543945 2.299805 -42.456055C2.426758 -42.368164 2.519531 -42.250977 2.578125 -42.104492C2.636719 -41.958008 2.622070 -41.777344 2.534180 -41.562500C2.446289 -41.347656 2.324219 -41.220703 2.167969 -41.181641C1.738281 -41.005859 1.416016 -41.123047 1.201172 -41.533203C1.142578 -41.669922 1.108398 -41.777344 1.098633 -41.855469C1.088867 -41.933594 1.118164 -42.036133 1.186523 -42.163086C1.254883 -42.290039 1.352539 -42.392578 1.479492 -42.470703C1.606445 -42.548828 1.748047 -42.587891 1.904297 -42.587891ZM5.888672 -38.750000C5.966797 -38.750000 6.274414 -38.642578 6.811523 -38.427734C7.348633 -38.212891 7.949219 -38.007812 8.613281 -37.812500C9.277344 -37.617188 9.619141 -37.514648 9.638672 -37.504883C9.658203 -37.495117 9.628906 -37.207031 9.550781 -36.640625L9.316406 -34.853516L7.617188 -34.853516C6.484375 -34.853516 5.893555 -34.882812 5.844727 -34.941406C5.795898 -35.000000 5.776367 -35.649414 5.786133 -36.889648C5.795898 -38.129883 5.830078 -38.750000 5.888672 -38.750000ZM23.291016 -38.720703C23.349609 -38.720703 23.388672 -38.613281 23.408203 -38.398438C23.427734 -38.183594 23.437500 -37.656250 23.437500 -36.816406L23.437500 -34.853516L21.708984 -34.853516C20.576172 -34.853516 19.985352 -34.877930 19.936523 -34.926758C19.887695 -34.975586 19.863281 -35.166016 19.863281 -35.498047C19.863281 -35.830078 19.824219 -36.250000 19.746094 -36.757812L19.599609 -37.519531L20.126953 -37.666016C20.498047 -37.763672 21.074219 -37.949219 21.855469 -38.222656ZM18.457031 -37.285156L18.574219 -36.582031C18.652344 -36.113281 18.701172 -35.722656 18.720703 -35.410156L18.750000 -34.912109L16.552734 -34.853516L16.376953 -35.175781C16.298828 -35.332031 16.132812 -35.532227 15.878906 -35.776367C15.625000 -36.020508 15.449219 -36.142578 15.351562 -36.142578C15.332031 -36.142578 15.312500 -36.186523 15.292969 -36.274414C15.273438 -36.362305 15.263672 -36.464844 15.263672 -36.582031L15.263672 -37.021484L15.966797 -37.021484C16.455078 -37.021484 16.992188 -37.070312 17.578125 -37.167969ZM10.986328 -37.197266C11.162109 -37.197266 11.464844 -37.177734 11.894531 -37.138672C12.519531 -37.060547 13.037109 -37.021484 13.447266 -37.021484L14.062500 -37.021484L14.062500 -36.611328C14.062500 -36.435547 14.038086 -36.308594 13.989258 -36.230469C13.940430 -36.152344 13.828125 -36.064453 13.652344 -35.966797C13.535156 -35.888672 13.413086 -35.781250 13.286133 -35.644531C13.159180 -35.507812 13.066406 -35.390625 13.007812 -35.292969L12.773438 -34.853516L10.488281 -34.853516L10.576172 -35.585938C10.615234 -35.976562 10.664062 -36.333008 10.722656 -36.655273C10.781250 -36.977539 10.830078 -37.158203 10.869141 -37.197266C10.888672 -37.197266 10.927734 -37.197266 10.986328 -37.197266ZM14.648438 -35.087891C14.824219 -35.087891 14.980469 -35.034180 15.117188 -34.926758C15.253906 -34.819336 15.336914 -34.687500 15.366211 -34.531250C15.395508 -34.375000 15.371094 -34.208984 15.292969 -34.033203C15.214844 -33.857422 15.107422 -33.740234 14.970703 -33.681641C14.794922 -33.603516 14.677734 -33.574219 14.619141 -33.593750C14.326172 -33.632812 14.121094 -33.779297 14.003906 -34.033203C13.886719 -34.287109 13.891602 -34.526367 14.018555 -34.750977C14.145508 -34.975586 14.355469 -35.087891 14.648438 -35.087891ZM9.316406 -33.798828L9.375000 -33.330078L9.550781 -32.011719C9.609375 -31.582031 9.619141 -31.303711 9.580078 -31.176758C9.541016 -31.049805 9.433594 -30.986328 9.257812 -30.986328C9.160156 -30.986328 8.745117 -30.869141 8.012695 -30.634766C7.280273 -30.400391 6.728516 -30.205078 6.357422 -30.048828L5.771484 -29.814453L5.830078 -33.740234ZM23.437500 -33.798828L23.437500 -31.806641C23.437500 -30.478516 23.427734 -29.814453 23.408203 -29.814453L23.085938 -29.960938C22.929688 -30.058594 22.480469 -30.234375 21.738281 -30.488281C20.996094 -30.742188 20.449219 -30.908203 20.097656 -30.986328L19.628906 -31.103516L19.716797 -31.718750C19.775391 -32.128906 19.824219 -32.568359 19.863281 -33.037109L19.921875 -33.740234ZM11.220703 -33.798828C11.240234 -33.798828 11.308594 -33.798828 11.425781 -33.798828L12.773438 -33.798828L13.007812 -33.417969C13.066406 -33.300781 13.159180 -33.178711 13.286133 -33.051758C13.413086 -32.924805 13.535156 -32.822266 13.652344 -32.744141C13.828125 -32.626953 13.940430 -32.529297 13.989258 -32.451172C14.038086 -32.373047 14.062500 -32.246094 14.062500 -32.070312L14.062500 -31.660156L12.919922 -31.601562C12.138672 -31.542969 11.601562 -31.484375 11.308594 -31.425781C11.093750 -31.386719 10.957031 -31.376953 10.898438 -31.396484C10.839844 -31.416016 10.791016 -31.503906 10.751953 -31.660156C10.732422 -31.757812 10.693359 -32.050781 10.634766 -32.539062L10.517578 -33.388672C10.517578 -33.564453 10.561523 -33.676758 10.649414 -33.725586C10.737305 -33.774414 10.927734 -33.798828 11.220703 -33.798828ZM16.552734 -33.798828L17.607422 -33.798828C18.330078 -33.798828 18.706055 -33.769531 18.735352 -33.710938C18.764648 -33.652344 18.745117 -33.339844 18.676758 -32.773438C18.608398 -32.207031 18.544922 -31.826172 18.486328 -31.630859L18.427734 -31.367188L17.519531 -31.484375C16.894531 -31.582031 16.367188 -31.630859 15.937500 -31.630859L15.263672 -31.630859L15.263672 -32.041016C15.263672 -32.236328 15.283203 -32.373047 15.322266 -32.451172C15.361328 -32.529297 15.478516 -32.626953 15.673828 -32.744141C15.791016 -32.822266 15.913086 -32.924805 16.040039 -33.051758C16.166992 -33.178711 16.259766 -33.300781 16.318359 -33.417969ZM14.062500 -30.546875L14.062500 -27.763672C14.062500 -25.908203 14.038086 -24.980469 13.989258 -24.980469C13.940430 -24.980469 13.676758 -25.332031 13.198242 -26.035156C12.719727 -26.738281 12.373047 -27.314453 12.158203 -27.763672C11.865234 -28.310547 11.621094 -28.842773 11.425781 -29.360352C11.230469 -29.877930 11.152344 -30.156250 11.191406 -30.195312C11.230469 -30.234375 11.484375 -30.283203 11.953125 -30.341797C12.421875 -30.400391 12.900391 -30.449219 13.388672 -30.488281ZM15.263672 -30.546875L15.937500 -30.488281C16.328125 -30.468750 16.782227 -30.419922 17.299805 -30.341797C17.817383 -30.263672 18.095703 -30.209961 18.134766 -30.180664C18.173828 -30.151367 18.032227 -29.760742 17.709961 -29.008789C17.387695 -28.256836 17.109375 -27.666016 16.875000 -27.236328C16.503906 -26.630859 16.142578 -26.093750 15.791016 -25.625000L15.263672 -24.921875ZM9.960938 -30.019531L10.195312 -29.287109C10.527344 -28.310547 10.957031 -27.392578 11.484375 -26.533203C11.777344 -26.044922 11.914062 -25.791016 11.894531 -25.771484C11.875000 -25.751953 11.000977 -26.245117 9.272461 -27.250977C7.543945 -28.256836 6.674805 -28.784180 6.665039 -28.833008C6.655273 -28.881836 6.923828 -29.008789 7.470703 -29.213867C8.017578 -29.418945 8.593750 -29.609375 9.199219 -29.785156ZM19.423828 -29.960938C19.501953 -29.960938 19.716797 -29.912109 20.068359 -29.814453C20.537109 -29.677734 21.088867 -29.492188 21.723633 -29.257812C22.358398 -29.023438 22.675781 -28.886719 22.675781 -28.847656C22.675781 -28.808594 22.451172 -28.652344 22.001953 -28.378906L19.365234 -26.884766C18.056641 -26.123047 17.402344 -25.766602 17.402344 -25.815430C17.402344 -25.864258 17.480469 -25.996094 17.636719 -26.210938C17.871094 -26.562500 18.159180 -27.119141 18.500977 -27.880859C18.842773 -28.642578 19.101562 -29.296875 19.277344 -29.843750C19.296875 -29.921875 19.345703 -29.960938 19.423828 -29.960938ZM27.392578 -27.558594C27.587891 -27.558594 27.758789 -27.480469 27.905273 -27.324219C28.051758 -27.167969 28.129883 -26.987305 28.139648 -26.782227C28.149414 -26.577148 28.081055 -26.401367 27.934570 -26.254883C27.788086 -26.108398 27.612305 -26.040039 27.407227 -26.049805C27.202148 -26.059570 27.026367 -26.132812 26.879883 -26.269531C26.733398 -26.406250 26.660156 -26.572266 26.660156 -26.767578C26.660156 -26.923828 26.743164 -27.094727 26.909180 -27.280273C27.075195 -27.465820 27.236328 -27.558594 27.392578 -27.558594ZM27.392578 -27.558594"></path></svg>