<svg width="29.296875" height="21.533203" viewBox="0.000000 -42.978516 29.296875 21.533203" xmlns="http://www.w3.org/2000/svg"><path d="M14.648438 -42.978516C13.144531 -42.978516 11.699219 -42.685547 10.312500 -42.099609C8.984375 -41.513672 7.817383 -40.693359 6.811523 -39.638672C5.805664 -38.583984 5.048828 -37.382812 4.541016 -36.035156L0.000000 -36.035156L0.000000 -32.548828L5.859375 -32.548828C6.230469 -32.568359 6.567383 -32.690430 6.870117 -32.915039C7.172852 -33.139648 7.382812 -33.417969 7.500000 -33.750000L7.529297 -33.955078C7.783203 -35.009766 8.256836 -35.961914 8.950195 -36.811523C9.643555 -37.661133 10.483398 -38.325195 11.469727 -38.803711C12.456055 -39.282227 13.515625 -39.521484 14.648438 -39.521484C16.152344 -39.521484 17.519531 -39.101562 18.750000 -38.261719C19.042969 -38.066406 19.365234 -37.968750 19.716797 -37.968750C20.185547 -37.968750 20.590820 -38.139648 20.932617 -38.481445C21.274414 -38.823242 21.445312 -39.238281 21.445312 -39.726562C21.445312 -40.019531 21.372070 -40.302734 21.225586 -40.576172C21.079102 -40.849609 20.869141 -41.054688 20.595703 -41.191406C18.798828 -42.382812 16.816406 -42.978516 14.648438 -42.978516ZM14.648438 -36.386719C13.886719 -36.386719 13.188477 -36.196289 12.553711 -35.815430C11.918945 -35.434570 11.411133 -34.926758 11.030273 -34.291992C10.649414 -33.657227 10.458984 -32.963867 10.458984 -32.211914C10.458984 -31.459961 10.649414 -30.761719 11.030273 -30.117188C11.411133 -29.472656 11.918945 -28.964844 12.553711 -28.593750C13.188477 -28.222656 13.886719 -28.037109 14.648438 -28.037109C15.410156 -28.037109 16.108398 -28.222656 16.743164 -28.593750C17.377930 -28.964844 17.885742 -29.472656 18.266602 -30.117188C18.647461 -30.761719 18.837891 -31.459961 18.837891 -32.211914C18.837891 -32.963867 18.647461 -33.657227 18.266602 -34.291992C17.885742 -34.926758 17.377930 -35.434570 16.743164 -35.815430C16.108398 -36.196289 15.410156 -36.386719 14.648438 -36.386719ZM23.466797 -31.875000C23.076172 -31.875000 22.724609 -31.752930 22.412109 -31.508789C22.099609 -31.264648 21.894531 -30.976562 21.796875 -30.644531L21.767578 -30.468750C21.513672 -29.414062 21.040039 -28.461914 20.346680 -27.612305C19.653320 -26.762695 18.813477 -26.098633 17.827148 -25.620117C16.840820 -25.141602 15.781250 -24.902344 14.648438 -24.902344C13.183594 -24.902344 11.845703 -25.302734 10.634766 -26.103516C10.341797 -26.298828 10.009766 -26.396484 9.638672 -26.396484C9.169922 -26.396484 8.764648 -26.230469 8.422852 -25.898438C8.081055 -25.566406 7.910156 -25.156250 7.910156 -24.667969C7.910156 -24.375000 7.978516 -24.101562 8.115234 -23.847656C8.251953 -23.593750 8.437500 -23.388672 8.671875 -23.232422C10.488281 -22.041016 12.480469 -21.445312 14.648438 -21.445312C16.152344 -21.445312 17.597656 -21.738281 18.984375 -22.324219C20.312500 -22.910156 21.479492 -23.730469 22.485352 -24.785156C23.491211 -25.839844 24.248047 -27.041016 24.755859 -28.388672L29.296875 -28.388672L29.296875 -31.875000ZM23.466797 -31.875000"></path></svg>