<svg width="23.437500" height="23.437500" viewBox="2.929688 -46.816406 23.437500 23.437500" xmlns="http://www.w3.org/2000/svg"><path d="M7.968750 -46.816406C7.050781 -46.816406 6.206055 -46.591797 5.434570 -46.142578C4.663086 -45.693359 4.052734 -45.083008 3.603516 -44.311523C3.154297 -43.540039 2.929688 -42.695312 2.929688 -41.777344L2.929688 -28.417969C2.929688 -27.500000 3.154297 -26.655273 3.603516 -25.883789C4.052734 -25.112305 4.663086 -24.501953 5.434570 -24.052734C6.206055 -23.603516 7.050781 -23.378906 7.968750 -23.378906L21.328125 -23.378906C22.246094 -23.378906 23.090820 -23.603516 23.862305 -24.052734C24.633789 -24.501953 25.244141 -25.112305 25.693359 -25.883789C26.142578 -26.655273 26.367188 -27.500000 26.367188 -28.417969L26.367188 -41.777344C26.367188 -42.695312 26.142578 -43.540039 25.693359 -44.311523C25.244141 -45.083008 24.633789 -45.693359 23.862305 -46.142578C23.090820 -46.591797 22.246094 -46.816406 21.328125 -46.816406ZM12.128906 -44.970703C13.378906 -44.970703 14.521484 -44.677734 15.556641 -44.091797L15.585938 -44.091797C16.757812 -43.466797 17.690430 -42.573242 18.383789 -41.411133C19.077148 -40.249023 19.414062 -39.003906 19.394531 -37.675781L19.394531 -37.646484C19.414062 -36.318359 19.072266 -35.068359 18.369141 -33.896484L24.550781 -27.744141L22.001953 -25.195312L15.849609 -31.347656C15.244141 -30.996094 14.609375 -30.732422 13.945312 -30.556641L13.886719 -30.556641C13.027344 -30.322266 12.148438 -30.263672 11.250000 -30.380859C10.351562 -30.498047 9.501953 -30.761719 8.701172 -31.171875C7.470703 -31.796875 6.513672 -32.685547 5.830078 -33.837891L5.800781 -33.867188C5.234375 -34.785156 4.897461 -35.781250 4.790039 -36.855469C4.682617 -37.929688 4.799805 -38.979492 5.141602 -40.004883C5.483398 -41.030273 6.025391 -41.923828 6.767578 -42.685547L6.796875 -42.714844C7.480469 -43.457031 8.291016 -44.018555 9.228516 -44.399414C10.166016 -44.780273 11.132812 -44.970703 12.128906 -44.970703ZM12.128906 -42.773438C11.425781 -42.773438 10.742188 -42.636719 10.078125 -42.363281C9.414062 -42.089844 8.847656 -41.708984 8.378906 -41.220703L8.349609 -41.191406C7.841797 -40.664062 7.470703 -40.039062 7.236328 -39.316406C7.001953 -38.593750 6.923828 -37.846680 7.001953 -37.075195C7.080078 -36.303711 7.314453 -35.615234 7.705078 -35.009766L7.705078 -34.980469C8.173828 -34.179688 8.847656 -33.554688 9.726562 -33.105469C10.292969 -32.812500 10.893555 -32.626953 11.528320 -32.548828C12.163086 -32.470703 12.773438 -32.519531 13.359375 -32.695312L13.388672 -32.695312C14.091797 -32.871094 14.736328 -33.208008 15.322266 -33.706055C15.908203 -34.204102 16.372070 -34.804688 16.713867 -35.507812C17.055664 -36.210938 17.226562 -36.923828 17.226562 -37.646484L17.226562 -37.675781C17.226562 -38.574219 16.977539 -39.438477 16.479492 -40.268555C15.981445 -41.098633 15.332031 -41.728516 14.531250 -42.158203L14.501953 -42.187500C13.798828 -42.578125 13.007812 -42.773438 12.128906 -42.773438ZM12.128906 -42.773438"></path></svg>