<svg width="23.437500" height="21.708984" viewBox="2.929688 -43.330078 23.437500 21.708984" xmlns="http://www.w3.org/2000/svg"><path d="M17.138672 -43.330078L13.593750 -41.572266L13.593750 -23.818359C12.246094 -23.994141 11.030273 -24.340820 9.946289 -24.858398C8.862305 -25.375977 8.012695 -26.010742 7.397461 -26.762695C6.782227 -27.514648 6.474609 -28.330078 6.474609 -29.208984C6.474609 -30.029297 6.752930 -30.805664 7.309570 -31.538086C7.866211 -32.270508 8.637695 -32.890625 9.624023 -33.398438C10.610352 -33.906250 11.718750 -34.267578 12.949219 -34.482422L12.949219 -36.738281C11.054688 -36.523438 9.345703 -36.054688 7.822266 -35.332031C6.298828 -34.609375 5.107422 -33.720703 4.248047 -32.666016C3.369141 -31.591797 2.929688 -30.439453 2.929688 -29.208984C2.929688 -27.939453 3.408203 -26.748047 4.365234 -25.634766C5.283203 -24.560547 6.552734 -23.666992 8.173828 -22.954102C9.794922 -22.241211 11.601562 -21.796875 13.593750 -21.621094L17.138672 -23.291016ZM17.753906 -36.738281L17.753906 -34.482422C19.140625 -34.248047 20.361328 -33.828125 21.416016 -33.222656L19.511719 -32.138672L26.367188 -30.644531L25.869141 -35.712891L24.052734 -34.687500C22.275391 -35.761719 20.175781 -36.445312 17.753906 -36.738281ZM17.753906 -36.738281"></path></svg>