<svg width="28.388672" height="23.437500" viewBox="2.548828 -46.787109 28.388672 23.437500" xmlns="http://www.w3.org/2000/svg"><path d="M14.648438 -46.787109C12.460938 -46.787109 10.429688 -46.240234 8.554688 -45.146484C6.718750 -44.072266 5.263672 -42.626953 4.189453 -40.810547C3.095703 -38.916016 2.548828 -36.875000 2.548828 -34.687500C2.548828 -32.988281 2.890625 -31.367188 3.574219 -29.824219C4.218750 -28.339844 5.136719 -27.031250 6.328125 -25.898438C7.519531 -24.765625 8.876953 -23.916016 10.400391 -23.349609L13.183594 -30.791016C12.382812 -31.083984 11.733398 -31.586914 11.235352 -32.299805C10.737305 -33.012695 10.488281 -33.808594 10.488281 -34.687500C10.488281 -35.449219 10.673828 -36.147461 11.044922 -36.782227C11.416016 -37.416992 11.918945 -37.919922 12.553711 -38.291016C13.188477 -38.662109 13.886719 -38.847656 14.648438 -38.847656C15.410156 -38.847656 16.108398 -38.662109 16.743164 -38.291016C17.377930 -37.919922 17.880859 -37.416992 18.251953 -36.782227C18.623047 -36.147461 18.808594 -35.449219 18.808594 -34.687500C18.808594 -33.808594 18.559570 -33.012695 18.061523 -32.299805C17.563477 -31.586914 16.914062 -31.083984 16.113281 -30.791016L18.896484 -23.349609C20.419922 -23.916016 21.777344 -24.765625 22.968750 -25.898438C24.160156 -27.031250 25.078125 -28.339844 25.722656 -29.824219C26.406250 -31.367188 26.748047 -32.988281 26.748047 -34.687500C26.748047 -36.875000 26.201172 -38.916016 25.107422 -40.810547C24.033203 -42.626953 22.587891 -44.072266 20.771484 -45.146484C18.876953 -46.240234 16.835938 -46.787109 14.648438 -46.787109ZM28.212891 -26.806641L27.539062 -24.111328L27.978516 -24.111328L28.330078 -25.576172L28.330078 -25.722656L28.388672 -25.576172L29.238281 -23.994141L30.000000 -25.371094L30.087891 -25.546875L30.117188 -25.722656L30.175781 -25.371094L30.498047 -24.111328L30.937500 -24.111328L30.234375 -26.806641L29.384766 -25.136719L29.238281 -24.814453L29.150391 -25.048828ZM25.253906 -26.689453L25.253906 -26.337891L26.044922 -26.337891L26.044922 -24.111328L26.513672 -24.111328L26.513672 -26.337891L27.275391 -26.337891L27.275391 -26.689453ZM25.253906 -26.689453"></path></svg>