<svg width="16.308594" height="23.027344" viewBox="6.484375 -45.966797 16.308594 23.027344" xmlns="http://www.w3.org/2000/svg"><path d="M18.603516 -45.966797C18.447266 -45.966797 17.783203 -45.683594 16.611328 -45.117188C16.123047 -44.882812 15.600586 -44.609375 15.043945 -44.296875C14.487305 -43.984375 14.062500 -43.730469 13.769531 -43.535156C13.378906 -43.261719 13.115234 -43.095703 12.978516 -43.037109C12.783203 -42.958984 12.568359 -42.939453 12.333984 -42.978516C12.177734 -43.017578 11.845703 -43.125000 11.337891 -43.300781C10.966797 -43.437500 10.629883 -43.544922 10.327148 -43.623047C10.024414 -43.701172 9.848633 -43.725586 9.799805 -43.696289C9.750977 -43.666992 9.711914 -43.574219 9.682617 -43.417969C9.653320 -43.261719 9.638672 -43.085938 9.638672 -42.890625C9.638672 -42.441406 9.531250 -41.708984 9.316406 -40.693359C9.218750 -40.263672 9.042969 -39.687500 8.789062 -38.964844C8.535156 -38.242188 8.261719 -37.558594 7.968750 -36.914062C7.265625 -35.410156 6.835938 -34.404297 6.679688 -33.896484C6.601562 -33.662109 6.547852 -33.334961 6.518555 -32.915039C6.489258 -32.495117 6.484375 -32.060547 6.503906 -31.611328C6.542969 -31.025391 6.611328 -30.546875 6.708984 -30.175781C6.806641 -29.804688 6.982422 -29.365234 7.236328 -28.857422C7.412109 -28.505859 7.666016 -28.110352 7.998047 -27.670898C8.330078 -27.231445 8.632812 -26.870117 8.906250 -26.586914C9.179688 -26.303711 9.506836 -26.000977 9.887695 -25.678711C10.268555 -25.356445 10.585938 -25.107422 10.839844 -24.931641C11.445312 -24.521484 12.197266 -24.086914 13.095703 -23.627930C13.994141 -23.168945 14.521484 -22.939453 14.677734 -22.939453C14.755859 -22.939453 14.960938 -23.012695 15.292969 -23.159180C15.625000 -23.305664 15.991211 -23.481445 16.391602 -23.686523C16.791992 -23.891602 17.255859 -24.160156 17.783203 -24.492188C18.310547 -24.824219 18.735352 -25.122070 19.057617 -25.385742C19.379883 -25.649414 19.736328 -25.971680 20.126953 -26.352539C20.517578 -26.733398 20.820312 -27.060547 21.035156 -27.333984C21.542969 -28.017578 21.894531 -28.554688 22.089844 -28.945312C22.187500 -29.121094 22.290039 -29.399414 22.397461 -29.780273C22.504883 -30.161133 22.587891 -30.537109 22.646484 -30.908203C22.744141 -31.416016 22.792969 -31.855469 22.792969 -32.226562C22.792969 -32.597656 22.744141 -33.066406 22.646484 -33.632812C22.490234 -34.570312 22.060547 -35.791016 21.357422 -37.294922C21.064453 -37.919922 20.756836 -38.642578 20.434570 -39.462891C20.112305 -40.283203 19.868164 -40.952148 19.702148 -41.469727C19.536133 -41.987305 19.379883 -42.558594 19.233398 -43.183594C19.086914 -43.808594 18.994141 -44.306641 18.955078 -44.677734C18.916016 -45.185547 18.847656 -45.556641 18.750000 -45.791016C18.808594 -45.791016 18.847656 -45.795898 18.867188 -45.805664C18.886719 -45.815430 18.886719 -45.830078 18.867188 -45.849609C18.847656 -45.869141 18.798828 -45.869141 18.720703 -45.849609C18.681641 -45.927734 18.642578 -45.966797 18.603516 -45.966797ZM18.603516 -45.966797"></path></svg>