<svg width="24.902344" height="24.736328" viewBox="2.197266 -48.789062 24.902344 24.736328" xmlns="http://www.w3.org/2000/svg"><path d="M14.648438 -48.789062C12.382812 -48.789062 10.283203 -48.222656 8.349609 -47.089844C6.474609 -45.976562 4.990234 -44.482422 3.896484 -42.607422C2.763672 -40.673828 2.197266 -38.583984 2.197266 -36.337891C2.197266 -34.599609 2.539062 -32.939453 3.222656 -31.357422C3.886719 -29.833984 4.824219 -28.496094 6.035156 -27.343750C7.246094 -26.191406 8.632812 -25.312500 10.195312 -24.707031L11.513672 -28.193359C12.412109 -30.556641 12.929688 -31.835938 13.066406 -32.031250L12.773438 -32.148438C12.519531 -32.246094 12.275391 -32.392578 12.041016 -32.587891C11.728516 -32.822266 11.445312 -33.125000 11.191406 -33.496094C10.898438 -33.945312 10.664062 -34.462891 10.488281 -35.048828C10.312500 -35.751953 10.229492 -36.547852 10.239258 -37.436523C10.249023 -38.325195 10.390625 -39.189453 10.664062 -40.029297C10.878906 -40.712891 11.181641 -41.376953 11.572266 -42.021484C11.884766 -42.529297 12.246094 -43.007812 12.656250 -43.457031C12.949219 -43.769531 13.251953 -44.062500 13.564453 -44.335938L13.945312 -44.599609L13.886719 -44.013672C13.867188 -43.525391 13.906250 -43.056641 14.003906 -42.607422C14.121094 -41.982422 14.335938 -41.435547 14.648438 -40.966797C15.019531 -40.380859 15.537109 -39.931641 16.201172 -39.619141L16.640625 -39.443359C16.992188 -39.287109 17.304688 -39.091797 17.578125 -38.857422C17.988281 -38.544922 18.310547 -38.183594 18.544922 -37.773438C18.818359 -37.246094 18.955078 -36.660156 18.955078 -36.015625C18.916016 -34.804688 18.564453 -33.837891 17.900391 -33.115234C17.509766 -32.685547 16.962891 -32.314453 16.259766 -32.001953C16.357422 -31.865234 16.640625 -31.201172 17.109375 -30.009766C17.441406 -29.150391 17.861328 -28.046875 18.369141 -26.699219C19.111328 -24.707031 19.355469 -24.052734 19.101562 -24.736328C20.664062 -25.322266 22.050781 -26.191406 23.261719 -27.343750C24.472656 -28.496094 25.410156 -29.843750 26.074219 -31.386719C26.757812 -32.949219 27.099609 -34.599609 27.099609 -36.337891C27.099609 -38.583984 26.533203 -40.673828 25.400391 -42.607422C24.287109 -44.482422 22.792969 -45.976562 20.917969 -47.089844C18.984375 -48.222656 16.894531 -48.789062 14.648438 -48.789062ZM14.648438 -48.789062"></path></svg>