<svg width="23.437500" height="23.437500" viewBox="2.929688 -46.787109 23.437500 23.437500" xmlns="http://www.w3.org/2000/svg"><path d="M7.939453 -46.787109C7.021484 -46.787109 6.181641 -46.562500 5.419922 -46.113281C4.658203 -45.664062 4.052734 -45.053711 3.603516 -44.282227C3.154297 -43.510742 2.929688 -42.675781 2.929688 -41.777344L2.929688 -28.330078C2.929688 -27.431641 3.154297 -26.601562 3.603516 -25.839844C4.052734 -25.078125 4.658203 -24.472656 5.419922 -24.023438C6.181641 -23.574219 7.021484 -23.349609 7.939453 -23.349609L21.357422 -23.349609C22.275391 -23.349609 23.115234 -23.574219 23.876953 -24.023438C24.638672 -24.472656 25.244141 -25.078125 25.693359 -25.839844C26.142578 -26.601562 26.367188 -27.431641 26.367188 -28.330078L26.367188 -41.777344C26.367188 -42.675781 26.142578 -43.510742 25.693359 -44.282227C25.244141 -45.053711 24.638672 -45.664062 23.876953 -46.113281C23.115234 -46.562500 22.275391 -46.787109 21.357422 -46.787109ZM14.648438 -42.070312C16.054688 -42.070312 17.343750 -41.689453 18.515625 -40.927734C18.671875 -40.810547 18.798828 -40.668945 18.896484 -40.502930C18.994141 -40.336914 19.042969 -40.156250 19.042969 -39.960938C19.042969 -39.648438 18.935547 -39.379883 18.720703 -39.155273C18.505859 -38.930664 18.242188 -38.818359 17.929688 -38.818359C17.695312 -38.818359 17.480469 -38.886719 17.285156 -39.023438C16.484375 -39.550781 15.605469 -39.814453 14.648438 -39.814453C13.535156 -39.814453 12.553711 -39.477539 11.704102 -38.803711C10.854492 -38.129883 10.302734 -37.265625 10.048828 -36.210938L10.019531 -36.093750C9.941406 -35.878906 9.804688 -35.698242 9.609375 -35.551758C9.414062 -35.405273 9.189453 -35.322266 8.935547 -35.302734L5.156250 -35.302734L5.156250 -37.558594L8.085938 -37.558594C8.593750 -38.906250 9.443359 -39.995117 10.634766 -40.825195C11.826172 -41.655273 13.164062 -42.070312 14.648438 -42.070312ZM14.648438 -37.792969C15.390625 -37.792969 16.025391 -37.529297 16.552734 -37.001953C17.080078 -36.474609 17.343750 -35.839844 17.343750 -35.097656C17.343750 -34.355469 17.080078 -33.720703 16.552734 -33.193359C16.025391 -32.666016 15.390625 -32.402344 14.648438 -32.402344C13.906250 -32.402344 13.266602 -32.666016 12.729492 -33.193359C12.192383 -33.720703 11.923828 -34.355469 11.923828 -35.097656C11.923828 -35.839844 12.192383 -36.474609 12.729492 -37.001953C13.266602 -37.529297 13.906250 -37.792969 14.648438 -37.792969ZM20.361328 -34.863281L24.140625 -34.863281L24.140625 -32.607422L21.181641 -32.607422C20.673828 -31.279297 19.824219 -30.195312 18.632812 -29.355469C17.441406 -28.515625 16.113281 -28.095703 14.648438 -28.095703C13.242188 -28.095703 11.953125 -28.486328 10.781250 -29.267578C10.449219 -29.501953 10.283203 -29.814453 10.283203 -30.205078C10.283203 -30.517578 10.390625 -30.786133 10.605469 -31.010742C10.820312 -31.235352 11.083984 -31.347656 11.396484 -31.347656C11.630859 -31.347656 11.845703 -31.279297 12.041016 -31.142578C12.822266 -30.615234 13.691406 -30.351562 14.648438 -30.351562C15.742188 -30.351562 16.718750 -30.693359 17.578125 -31.376953C18.437500 -32.060547 18.994141 -32.919922 19.248047 -33.955078L19.277344 -34.072266C19.335938 -34.287109 19.467773 -34.472656 19.672852 -34.628906C19.877930 -34.785156 20.107422 -34.863281 20.361328 -34.863281ZM20.361328 -34.863281"></path></svg>