<svg width="23.437500" height="23.437500" viewBox="2.929688 -46.816406 23.437500 23.437500" xmlns="http://www.w3.org/2000/svg"><path d="M7.939453 -46.816406C7.021484 -46.816406 6.181641 -46.591797 5.419922 -46.142578C4.658203 -45.693359 4.052734 -45.083008 3.603516 -44.311523C3.154297 -43.540039 2.929688 -42.705078 2.929688 -41.806641L2.929688 -28.359375C2.929688 -27.460938 3.154297 -26.625977 3.603516 -25.854492C4.052734 -25.083008 4.658203 -24.477539 5.419922 -24.038086C6.181641 -23.598633 7.021484 -23.378906 7.939453 -23.378906L21.357422 -23.378906C22.275391 -23.378906 23.115234 -23.598633 23.876953 -24.038086C24.638672 -24.477539 25.244141 -25.083008 25.693359 -25.854492C26.142578 -26.625977 26.367188 -27.460938 26.367188 -28.359375L26.367188 -41.806641C26.367188 -42.705078 26.142578 -43.540039 25.693359 -44.311523C25.244141 -45.083008 24.638672 -45.693359 23.876953 -46.142578C23.115234 -46.591797 22.275391 -46.816406 21.357422 -46.816406ZM14.707031 -43.593750C16.230469 -43.593750 17.656250 -43.203125 18.984375 -42.421875C20.273438 -41.660156 21.289062 -40.644531 22.031250 -39.375000C22.812500 -38.046875 23.203125 -36.611328 23.203125 -35.068359C23.203125 -33.525391 22.812500 -32.099609 22.031250 -30.791016C21.289062 -29.501953 20.273438 -28.476562 18.984375 -27.714844C17.656250 -26.933594 16.225586 -26.542969 14.692383 -26.542969C13.159180 -26.542969 11.728516 -26.933594 10.400391 -27.714844C9.111328 -28.476562 8.095703 -29.501953 7.353516 -30.791016C6.572266 -32.099609 6.181641 -33.525391 6.181641 -35.068359C6.181641 -36.611328 6.572266 -38.046875 7.353516 -39.375000C8.095703 -40.644531 9.111328 -41.660156 10.400391 -42.421875C11.728516 -43.203125 13.164062 -43.593750 14.707031 -43.593750ZM14.707031 -41.015625C13.613281 -41.015625 12.612305 -40.747070 11.704102 -40.209961C10.795898 -39.672852 10.073242 -38.950195 9.536133 -38.041992C8.999023 -37.133789 8.730469 -36.142578 8.730469 -35.068359C8.730469 -33.994141 8.999023 -33.002930 9.536133 -32.094727C10.073242 -31.186523 10.795898 -30.463867 11.704102 -29.926758C12.612305 -29.389648 13.608398 -29.121094 14.692383 -29.121094C15.776367 -29.121094 16.772461 -29.389648 17.680664 -29.926758C18.588867 -30.463867 19.311523 -31.186523 19.848633 -32.094727C20.385742 -33.002930 20.654297 -33.994141 20.654297 -35.068359C20.654297 -36.142578 20.385742 -37.133789 19.848633 -38.041992C19.311523 -38.950195 18.588867 -39.672852 17.680664 -40.209961C16.772461 -40.747070 15.781250 -41.015625 14.707031 -41.015625ZM14.707031 -36.972656C15.273438 -36.972656 15.761719 -36.767578 16.171875 -36.357422C16.582031 -35.947266 16.787109 -35.454102 16.787109 -34.877930C16.787109 -34.301758 16.582031 -33.808594 16.171875 -33.398438C15.761719 -32.988281 15.268555 -32.783203 14.692383 -32.783203C14.116211 -32.783203 13.623047 -32.988281 13.212891 -33.398438C12.802734 -33.808594 12.597656 -34.301758 12.597656 -34.877930C12.597656 -35.454102 12.802734 -35.947266 13.212891 -36.357422C13.623047 -36.767578 14.121094 -36.972656 14.707031 -36.972656ZM14.707031 -36.972656"></path></svg>