<svg width="23.437500" height="23.437500" viewBox="2.929688 -46.787109 23.437500 23.437500" xmlns="http://www.w3.org/2000/svg"><path d="M14.648438 -46.787109C12.519531 -46.787109 10.546875 -46.250000 8.730469 -45.175781C6.972656 -44.140625 5.576172 -42.744141 4.541016 -40.986328C3.466797 -39.169922 2.929688 -37.197266 2.929688 -35.068359C2.929688 -32.939453 3.466797 -30.966797 4.541016 -29.150391C5.576172 -27.392578 6.972656 -25.996094 8.730469 -24.960938C10.546875 -23.906250 12.519531 -23.378906 14.648438 -23.378906L26.367188 -23.349609L26.367188 -35.068359C26.367188 -37.197266 25.830078 -39.169922 24.755859 -40.986328C23.720703 -42.744141 22.324219 -44.140625 20.566406 -45.175781C18.750000 -46.250000 16.777344 -46.787109 14.648438 -46.787109ZM14.648438 -41.630859C15.839844 -41.630859 16.938477 -41.337891 17.944336 -40.751953C18.950195 -40.166016 19.750977 -39.370117 20.346680 -38.364258C20.942383 -37.358398 21.240234 -36.259766 21.240234 -35.068359C21.240234 -33.876953 20.942383 -32.773438 20.346680 -31.757812C19.750977 -30.742188 18.950195 -29.941406 17.944336 -29.355469C16.938477 -28.769531 15.839844 -28.476562 14.648438 -28.476562C13.457031 -28.476562 12.358398 -28.769531 11.352539 -29.355469C10.346680 -29.941406 9.545898 -30.742188 8.950195 -31.757812C8.354492 -32.773438 8.056641 -33.876953 8.056641 -35.068359C8.056641 -36.259766 8.354492 -37.358398 8.950195 -38.364258C9.545898 -39.370117 10.346680 -40.166016 11.352539 -40.751953C12.358398 -41.337891 13.457031 -41.630859 14.648438 -41.630859ZM14.648438 -41.630859"></path></svg>