<svg width="22.724609" height="22.705078" viewBox="3.291016 -45.732422 22.724609 22.705078" xmlns="http://www.w3.org/2000/svg"><path d="M4.804688 -45.732422C4.375000 -45.732422 4.013672 -45.585938 3.720703 -45.292969C3.427734 -45.000000 3.291016 -44.648438 3.310547 -44.238281L3.310547 -24.521484C3.310547 -24.111328 3.452148 -23.759766 3.735352 -23.466797C4.018555 -23.173828 4.375000 -23.027344 4.804688 -23.027344L24.492188 -23.027344C24.921875 -23.027344 25.283203 -23.173828 25.576172 -23.466797C25.869141 -23.759766 26.015625 -24.111328 26.015625 -24.521484L26.015625 -44.238281C25.996094 -44.648438 25.844727 -45.000000 25.561523 -45.292969C25.278320 -45.585938 24.921875 -45.732422 24.492188 -45.732422ZM14.150391 -43.300781C15.673828 -43.300781 17.099609 -42.910156 18.427734 -42.128906C19.697266 -41.386719 20.703125 -40.380859 21.445312 -39.111328C22.226562 -37.783203 22.617188 -36.357422 22.617188 -34.833984L22.617188 -26.337891L14.150391 -26.367188C12.607422 -26.367188 11.181641 -26.748047 9.873047 -27.509766C8.583984 -28.271484 7.568359 -29.287109 6.826172 -30.556641C6.064453 -31.865234 5.683594 -33.286133 5.683594 -34.819336C5.683594 -36.352539 6.064453 -37.783203 6.826172 -39.111328C7.568359 -40.380859 8.583984 -41.386719 9.873047 -42.128906C11.181641 -42.910156 12.607422 -43.300781 14.150391 -43.300781ZM14.150391 -39.580078C13.271484 -39.580078 12.470703 -39.365234 11.748047 -38.935547C11.025391 -38.505859 10.449219 -37.929688 10.019531 -37.207031C9.589844 -36.484375 9.375000 -35.688477 9.375000 -34.819336C9.375000 -33.950195 9.589844 -33.154297 10.019531 -32.431641C10.449219 -31.708984 11.025391 -31.132812 11.748047 -30.703125C12.470703 -30.273438 13.266602 -30.058594 14.135742 -30.058594C15.004883 -30.058594 15.800781 -30.273438 16.523438 -30.703125C17.246094 -31.132812 17.822266 -31.708984 18.251953 -32.431641C18.681641 -33.154297 18.896484 -33.950195 18.896484 -34.819336C18.896484 -35.688477 18.681641 -36.484375 18.251953 -37.207031C17.822266 -37.929688 17.246094 -38.505859 16.523438 -38.935547C15.800781 -39.365234 15.009766 -39.580078 14.150391 -39.580078ZM14.150391 -39.580078"></path></svg>