<svg width="29.296875" height="15.849609" viewBox="0.000000 -36.474609 29.296875 15.849609" xmlns="http://www.w3.org/2000/svg"><path d="M13.271484 -36.474609C12.548828 -36.474609 11.884766 -36.298828 11.279297 -35.947266C10.673828 -35.595703 10.195312 -35.117188 9.843750 -34.511719C9.492188 -33.906250 9.316406 -33.242188 9.316406 -32.519531C9.316406 -31.640625 9.589844 -30.849609 10.136719 -30.146484C10.683594 -30.791016 11.347656 -31.293945 12.128906 -31.655273C12.910156 -32.016602 13.740234 -32.197266 14.619141 -32.197266C15.498047 -32.197266 16.328125 -32.021484 17.109375 -31.669922C17.167969 -31.962891 17.197266 -32.246094 17.197266 -32.519531C17.197266 -33.242188 17.021484 -33.906250 16.669922 -34.511719C16.318359 -35.117188 15.839844 -35.595703 15.234375 -35.947266C14.628906 -36.298828 13.974609 -36.474609 13.271484 -36.474609ZM8.115234 -34.658203C7.548828 -34.658203 7.065430 -34.453125 6.665039 -34.042969C6.264648 -33.632812 6.064453 -33.144531 6.064453 -32.578125C6.064453 -32.226562 6.152344 -31.894531 6.328125 -31.582031C7.050781 -31.992188 7.822266 -32.197266 8.642578 -32.197266L8.906250 -32.167969L8.876953 -32.519531C8.876953 -33.144531 9.003906 -33.740234 9.257812 -34.306641C8.906250 -34.541016 8.525391 -34.658203 8.115234 -34.658203ZM17.841797 -33.222656C17.802734 -33.222656 17.714844 -33.222656 17.578125 -33.222656C17.636719 -32.949219 17.666016 -32.714844 17.666016 -32.519531C17.666016 -32.167969 17.617188 -31.816406 17.519531 -31.464844C18.535156 -30.898438 19.326172 -30.107422 19.892578 -29.091797C20.478516 -29.404297 21.093750 -29.580078 21.738281 -29.619141C21.679688 -30.283203 21.474609 -30.888672 21.123047 -31.435547C20.771484 -31.982422 20.307617 -32.416992 19.731445 -32.739258C19.155273 -33.061523 18.525391 -33.222656 17.841797 -33.222656ZM14.648438 -31.757812C13.632812 -31.757812 12.705078 -31.508789 11.865234 -31.010742C11.025391 -30.512695 10.356445 -29.843750 9.858398 -29.003906C9.360352 -28.164062 9.111328 -27.246094 9.111328 -26.250000C9.111328 -25.253906 9.360352 -24.331055 9.858398 -23.481445C10.356445 -22.631836 11.025391 -21.958008 11.865234 -21.459961C12.705078 -20.961914 13.627930 -20.712891 14.633789 -20.712891C15.639648 -20.712891 16.562500 -20.961914 17.402344 -21.459961C18.242188 -21.958008 18.911133 -22.631836 19.409180 -23.481445C19.907227 -24.331055 20.156250 -25.253906 20.156250 -26.250000C20.156250 -27.246094 19.907227 -28.164062 19.409180 -29.003906C18.911133 -29.843750 18.242188 -30.512695 17.402344 -31.010742C16.562500 -31.508789 15.644531 -31.757812 14.648438 -31.757812ZM8.642578 -31.728516C7.880859 -31.728516 7.167969 -31.538086 6.503906 -31.157227C5.839844 -30.776367 5.317383 -30.258789 4.936523 -29.604492C4.555664 -28.950195 4.365234 -28.232422 4.365234 -27.451172C4.365234 -26.767578 4.516602 -26.127930 4.819336 -25.532227C5.122070 -24.936523 5.537109 -24.443359 6.064453 -24.052734C6.279297 -24.482422 6.591797 -24.824219 7.001953 -25.078125C7.412109 -25.332031 7.871094 -25.458984 8.378906 -25.458984C8.457031 -25.458984 8.574219 -25.449219 8.730469 -25.429688C8.691406 -25.683594 8.671875 -25.957031 8.671875 -26.250000C8.671875 -27.558594 9.062500 -28.740234 9.843750 -29.794922C9.375000 -30.361328 9.082031 -31.005859 8.964844 -31.728516ZM22.060547 -29.179688C21.376953 -29.179688 20.712891 -29.013672 20.068359 -28.681641C20.439453 -27.900391 20.615234 -27.089844 20.595703 -26.250000C20.615234 -25.449219 20.468750 -24.687500 20.156250 -23.964844C19.843750 -23.242188 19.423828 -22.597656 18.896484 -22.031250C19.287109 -21.601562 19.760742 -21.259766 20.317383 -21.005859C20.874023 -20.751953 21.455078 -20.625000 22.060547 -20.625000C22.841797 -20.625000 23.559570 -20.815430 24.213867 -21.196289C24.868164 -21.577148 25.385742 -22.094727 25.766602 -22.749023C26.147461 -23.403320 26.337891 -24.121094 26.337891 -24.902344C26.337891 -25.683594 26.147461 -26.401367 25.766602 -27.055664C25.385742 -27.709961 24.868164 -28.227539 24.213867 -28.608398C23.559570 -28.989258 22.841797 -29.179688 22.060547 -29.179688ZM3.808594 -28.623047C3.769531 -28.623047 3.750000 -28.623047 3.750000 -28.623047C3.066406 -28.583984 2.436523 -28.383789 1.860352 -28.022461C1.284180 -27.661133 0.830078 -27.187500 0.498047 -26.601562C0.166016 -26.015625 0.000000 -25.371094 0.000000 -24.667969C0.000000 -23.964844 0.175781 -23.310547 0.527344 -22.705078C0.878906 -22.099609 1.357422 -21.621094 1.962891 -21.269531C2.568359 -20.917969 3.232422 -20.742188 3.955078 -20.742188C4.775391 -20.742188 5.517578 -20.976562 6.181641 -21.445312C5.908203 -21.875000 5.771484 -22.343750 5.771484 -22.851562C5.771484 -23.105469 5.810547 -23.359375 5.888672 -23.613281C5.283203 -24.062500 4.804688 -24.619141 4.453125 -25.283203C4.101562 -25.947266 3.925781 -26.669922 3.925781 -27.451172C3.925781 -27.841797 3.974609 -28.232422 4.072266 -28.623047ZM27.128906 -25.224609C27.031250 -25.224609 26.923828 -25.214844 26.806641 -25.195312L26.806641 -24.902344C26.806641 -24.296875 26.689453 -23.715820 26.455078 -23.159180C26.220703 -22.602539 25.898438 -22.109375 25.488281 -21.679688C25.937500 -21.171875 26.484375 -20.917969 27.128906 -20.917969C27.734375 -20.917969 28.247070 -21.127930 28.666992 -21.547852C29.086914 -21.967773 29.296875 -22.475586 29.296875 -23.071289C29.296875 -23.666992 29.086914 -24.174805 28.666992 -24.594727C28.247070 -25.014648 27.734375 -25.224609 27.128906 -25.224609ZM8.378906 -25.019531C7.773438 -25.019531 7.260742 -24.804688 6.840820 -24.375000C6.420898 -23.945312 6.210938 -23.432617 6.210938 -22.836914C6.210938 -22.241211 6.420898 -21.733398 6.840820 -21.313477C7.260742 -20.893555 7.773438 -20.683594 8.378906 -20.683594C8.828125 -20.683594 9.233398 -20.810547 9.594727 -21.064453C9.956055 -21.318359 10.214844 -21.650391 10.371094 -22.060547C9.570312 -22.880859 9.052734 -23.847656 8.818359 -24.960938C8.662109 -25.000000 8.515625 -25.019531 8.378906 -25.019531ZM8.378906 -25.019531"></path></svg>