<svg width="23.544922" height="23.486328" viewBox="2.871094 -46.865234 23.544922 23.486328" xmlns="http://www.w3.org/2000/svg"><path d="M14.501953 -46.865234C13.974609 -46.865234 13.447266 -46.816406 12.919922 -46.718750L12.714844 -46.689453L11.279297 -43.291016L7.851562 -44.697266C6.816406 -43.955078 5.937500 -43.085938 5.214844 -42.089844L5.097656 -41.943359L6.503906 -38.515625L3.076172 -37.109375C2.880859 -35.859375 2.871094 -34.628906 3.046875 -33.417969L3.105469 -33.212891L6.503906 -31.777344L5.097656 -28.378906C5.449219 -27.890625 5.800781 -27.451172 6.152344 -27.060547L6.533203 -26.708984C6.904297 -26.337891 7.343750 -25.966797 7.851562 -25.595703L11.279297 -27.031250L12.685547 -23.603516L12.890625 -23.574219C14.121094 -23.378906 15.351562 -23.378906 16.582031 -23.574219L18.017578 -27.031250L21.445312 -25.595703L21.591797 -25.712891C22.607422 -26.455078 23.476562 -27.333984 24.199219 -28.349609L22.763672 -31.777344L26.191406 -33.183594L26.220703 -33.388672C26.416016 -34.619141 26.416016 -35.849609 26.220703 -37.080078L22.792969 -38.515625L24.199219 -41.914062C23.808594 -42.460938 23.408203 -42.939453 22.998047 -43.349609L22.792969 -43.554688C22.402344 -43.925781 21.943359 -44.306641 21.416016 -44.697266L18.017578 -43.261719L16.611328 -46.689453C15.908203 -46.806641 15.205078 -46.865234 14.501953 -46.865234ZM14.648438 -43.964844C14.863281 -43.964844 15.078125 -43.955078 15.292969 -43.935547L16.787109 -40.332031L20.419922 -41.826172L20.859375 -41.386719C21.054688 -41.191406 21.201172 -41.035156 21.298828 -40.917969L19.804688 -37.314453L19.833984 -37.285156L23.437500 -35.791016C23.476562 -35.380859 23.476562 -34.951172 23.437500 -34.501953L19.833984 -33.007812L19.833984 -33.007812L21.328125 -29.375000C21.054688 -29.062500 20.751953 -28.759766 20.419922 -28.466797L16.816406 -29.960938L16.787109 -29.960938L15.292969 -26.357422C14.882812 -26.337891 14.453125 -26.337891 14.003906 -26.357422L12.509766 -29.960938L12.509766 -29.990234L8.876953 -28.466797L8.085938 -29.257812L7.968750 -29.375000L9.462891 -32.978516L9.462891 -33.007812L5.859375 -34.501953C5.839844 -34.951172 5.839844 -35.380859 5.859375 -35.791016L9.462891 -37.285156L7.968750 -40.917969C8.261719 -41.250000 8.564453 -41.552734 8.876953 -41.826172L12.480469 -40.332031L12.509766 -40.332031L14.003906 -43.935547C14.218750 -43.955078 14.433594 -43.964844 14.648438 -43.964844ZM14.648438 -40.302734C14.531250 -40.302734 14.404297 -40.292969 14.267578 -40.273438L13.417969 -38.164062L11.279297 -39.042969C11.123047 -38.886719 10.947266 -38.710938 10.751953 -38.515625L11.630859 -36.406250L9.521484 -35.527344L9.521484 -34.794922L11.630859 -33.916016L10.751953 -31.777344C10.908203 -31.601562 11.093750 -31.425781 11.308594 -31.250000L13.388672 -32.128906L14.267578 -30.019531C14.521484 -30.000000 14.775391 -30.000000 15.029297 -30.019531L15.908203 -32.128906L18.017578 -31.250000C18.193359 -31.406250 18.369141 -31.582031 18.544922 -31.777344L17.666016 -33.886719L19.775391 -34.765625L19.804688 -35.146484L19.775391 -35.527344L17.666016 -36.406250L18.544922 -38.515625C18.408203 -38.691406 18.232422 -38.867188 18.017578 -39.042969L15.908203 -38.164062L15.029297 -40.273438ZM14.648438 -36.582031C15.039062 -36.582031 15.375977 -36.440430 15.659180 -36.157227C15.942383 -35.874023 16.083984 -35.537109 16.083984 -35.146484C16.083984 -34.755859 15.942383 -34.423828 15.659180 -34.150391C15.375977 -33.876953 15.039062 -33.740234 14.648438 -33.740234C14.257812 -33.740234 13.925781 -33.876953 13.652344 -34.150391C13.378906 -34.423828 13.242188 -34.755859 13.242188 -35.146484C13.242188 -35.537109 13.378906 -35.874023 13.652344 -36.157227C13.925781 -36.440430 14.257812 -36.582031 14.648438 -36.582031ZM14.648438 -36.582031"></path></svg>