<svg width="29.296875" height="22.470703" viewBox="0.000000 -44.853516 29.296875 22.470703" xmlns="http://www.w3.org/2000/svg"><path d="M1.083984 -44.853516C0.771484 -44.853516 0.512695 -44.750977 0.307617 -44.545898C0.102539 -44.340820 0.000000 -44.082031 0.000000 -43.769531L0.000000 -23.437500C0.000000 -23.144531 0.102539 -22.895508 0.307617 -22.690430C0.512695 -22.485352 0.771484 -22.382812 1.083984 -22.382812L19.658203 -22.382812L29.296875 -33.603516L19.658203 -44.853516ZM12.041016 -40.898438C12.841797 -40.898438 13.525391 -40.585938 14.091797 -39.960938C14.658203 -39.335938 14.970703 -38.515625 15.029297 -37.500000C15.185547 -37.246094 15.263672 -36.992188 15.263672 -36.738281C15.263672 -36.328125 15.097656 -35.957031 14.765625 -35.625000C14.511719 -34.746094 14.101562 -34.062500 13.535156 -33.574219L13.535156 -32.607422L13.564453 -32.578125C13.759766 -32.460938 14.062500 -32.343750 14.472656 -32.226562C15.078125 -32.070312 15.654297 -31.884766 16.201172 -31.669922C16.591797 -31.513672 16.923828 -31.201172 17.197266 -30.732422C17.431641 -30.341797 17.626953 -29.853516 17.783203 -29.267578C17.900391 -28.857422 17.988281 -28.417969 18.046875 -27.949219L18.105469 -27.392578L17.548828 -27.333984C17.021484 -27.294922 16.376953 -27.265625 15.615234 -27.246094C14.560547 -27.207031 13.364258 -27.187500 12.026367 -27.187500C10.688477 -27.187500 9.492188 -27.207031 8.437500 -27.246094C7.675781 -27.265625 7.031250 -27.294922 6.503906 -27.333984L5.947266 -27.392578L6.005859 -27.949219C6.083984 -28.417969 6.171875 -28.857422 6.269531 -29.267578C6.425781 -29.853516 6.621094 -30.341797 6.855469 -30.732422C7.148438 -31.201172 7.480469 -31.513672 7.851562 -31.669922C8.417969 -31.884766 8.994141 -32.070312 9.580078 -32.226562C9.990234 -32.343750 10.292969 -32.460938 10.488281 -32.578125L10.546875 -32.607422L10.546875 -33.574219C9.980469 -34.062500 9.560547 -34.746094 9.287109 -35.625000C8.974609 -35.957031 8.818359 -36.328125 8.818359 -36.738281C8.818359 -36.992188 8.896484 -37.246094 9.052734 -37.500000C9.091797 -38.515625 9.394531 -39.335938 9.960938 -39.960938C10.527344 -40.585938 11.220703 -40.898438 12.041016 -40.898438ZM12.041016 -40.898438"></path></svg>