<svg width="29.267578" height="9.111328" viewBox="0.029297 -25.283203 29.267578 9.111328" xmlns="http://www.w3.org/2000/svg"><path d="M0.029297 -25.283203L0.029297 -16.318359L8.935547 -16.318359L8.935547 -25.283203ZM20.361328 -25.253906L20.361328 -16.289062L29.296875 -16.289062L29.296875 -25.253906ZM14.707031 -25.048828C13.906250 -25.048828 13.164062 -24.853516 12.480469 -24.462891C11.796875 -24.072266 11.259766 -23.535156 10.869141 -22.851562C10.478516 -22.167969 10.283203 -21.425781 10.283203 -20.625000C10.283203 -19.824219 10.478516 -19.082031 10.869141 -18.398438C11.259766 -17.714844 11.796875 -17.172852 12.480469 -16.772461C13.164062 -16.372070 13.901367 -16.171875 14.692383 -16.171875C15.483398 -16.171875 16.220703 -16.372070 16.904297 -16.772461C17.587891 -17.172852 18.125000 -17.714844 18.515625 -18.398438C18.906250 -19.082031 19.101562 -19.824219 19.101562 -20.625000C19.101562 -21.425781 18.906250 -22.167969 18.515625 -22.851562C18.125000 -23.535156 17.587891 -24.072266 16.904297 -24.462891C16.220703 -24.853516 15.488281 -25.048828 14.707031 -25.048828ZM14.707031 -25.048828"></path></svg>