<svg width="23.437500" height="23.437500" viewBox="2.929688 -46.816406 23.437500 23.437500" xmlns="http://www.w3.org/2000/svg"><path d="M2.929688 -46.816406L2.929688 -45.234375L2.929688 -35.859375L13.857422 -35.859375L13.857422 -46.816406ZM15.439453 -46.816406L15.439453 -45.234375L15.439453 -35.859375L26.367188 -35.859375L26.367188 -46.816406ZM4.482422 -45.234375L6.064453 -45.234375L12.304688 -45.234375L12.304688 -37.441406L4.482422 -37.441406ZM16.992188 -45.234375L18.544922 -45.234375L24.814453 -45.234375L24.814453 -37.441406L16.992188 -37.441406ZM6.064453 -43.681641L6.064453 -42.128906L6.064453 -38.994141L10.751953 -38.994141L10.751953 -43.681641ZM18.544922 -43.681641L18.544922 -42.128906L18.544922 -38.994141L23.232422 -38.994141L23.232422 -43.681641ZM2.929688 -34.306641L2.929688 -32.753906L2.929688 -23.378906L13.857422 -23.378906L13.857422 -34.306641ZM20.126953 -34.306641L20.126953 -32.753906L20.126953 -31.171875L23.232422 -31.171875L23.232422 -32.753906L21.679688 -32.753906L21.679688 -34.306641ZM20.126953 -31.171875L18.544922 -31.171875L15.439453 -31.171875L15.439453 -28.066406L16.992188 -28.066406L16.992188 -26.484375L15.439453 -26.484375L15.439453 -24.931641L16.992188 -24.931641L16.992188 -23.378906L20.126953 -23.378906L20.126953 -28.066406L18.544922 -28.066406L18.544922 -29.619141L20.126953 -29.619141ZM4.482422 -32.753906L6.064453 -32.753906L12.304688 -32.753906L12.304688 -24.931641L4.482422 -24.931641ZM6.064453 -31.171875L6.064453 -29.619141L6.064453 -26.484375L10.751953 -26.484375L10.751953 -31.171875ZM24.814453 -31.171875L24.814453 -29.619141L23.232422 -29.619141L23.232422 -24.931641L21.679688 -24.931641L21.679688 -23.378906L24.814453 -23.378906L24.814453 -24.931641L26.367188 -24.931641L26.367188 -31.171875ZM24.814453 -31.171875"></path></svg>