<svg width="21.767578" height="23.471680" viewBox="3.764648 -46.840820 21.767578 23.471680" xmlns="http://www.w3.org/2000/svg"><path d="M20.625000 -46.821289C19.843750 -46.821289 19.116211 -46.621094 18.442383 -46.220703C17.768555 -45.820312 17.246094 -45.268555 16.875000 -44.565430C16.425781 -43.725586 16.279297 -42.827148 16.435547 -41.870117L16.376953 -41.928711L16.376953 -41.752930C16.357422 -41.577148 16.289062 -41.391602 16.171875 -41.196289C16.035156 -40.903320 15.810547 -40.610352 15.498047 -40.317383C15.107422 -39.946289 14.614258 -39.575195 14.018555 -39.204102C13.422852 -38.833008 12.861328 -38.559570 12.333984 -38.383789C11.904297 -38.247070 11.513672 -38.178711 11.162109 -38.178711C10.888672 -38.178711 10.654297 -38.217773 10.458984 -38.295898L10.224609 -38.383789L10.312500 -38.295898L10.078125 -38.413086C9.394531 -38.784180 8.676758 -38.955078 7.924805 -38.925781C7.172852 -38.896484 6.469727 -38.681641 5.815430 -38.281250C5.161133 -37.880859 4.653320 -37.338867 4.291992 -36.655273C3.930664 -35.971680 3.764648 -35.249023 3.793945 -34.487305C3.823242 -33.725586 4.038086 -33.022461 4.438477 -32.377930C4.838867 -31.733398 5.380859 -31.225586 6.064453 -30.854492C6.845703 -30.444336 7.661133 -30.283203 8.510742 -30.371094C9.360352 -30.458984 10.107422 -30.766602 10.751953 -31.293945L10.722656 -31.235352L10.927734 -31.352539C11.103516 -31.411133 11.308594 -31.440430 11.542969 -31.440430C11.875000 -31.459961 12.255859 -31.411133 12.685547 -31.293945C13.212891 -31.137695 13.789062 -30.893555 14.414062 -30.561523C15.351562 -30.053711 16.035156 -29.506836 16.464844 -28.920898C16.757812 -28.549805 16.914062 -28.188477 16.933594 -27.836914C16.914062 -27.016602 17.104492 -26.250000 17.504883 -25.537109C17.905273 -24.824219 18.476562 -24.272461 19.218750 -23.881836C19.902344 -23.530273 20.620117 -23.369141 21.372070 -23.398438C22.124023 -23.427734 22.827148 -23.642578 23.481445 -24.042969C24.135742 -24.443359 24.643555 -24.985352 25.004883 -25.668945C25.366211 -26.352539 25.532227 -27.075195 25.502930 -27.836914C25.473633 -28.598633 25.258789 -29.301758 24.858398 -29.946289C24.458008 -30.590820 23.916016 -31.088867 23.232422 -31.440430C23.095703 -31.518555 22.949219 -31.586914 22.792969 -31.645508L22.880859 -31.674805L22.734375 -31.791992C22.617188 -31.889648 22.509766 -32.045898 22.412109 -32.260742C22.255859 -32.553711 22.138672 -32.905273 22.060547 -33.315430C21.943359 -33.842773 21.875000 -34.458008 21.855469 -35.161133C21.835938 -35.864258 21.865234 -36.479492 21.943359 -37.006836C22.021484 -37.436523 22.128906 -37.797852 22.265625 -38.090820C22.363281 -38.305664 22.480469 -38.481445 22.617188 -38.618164L22.763672 -38.735352L22.617188 -38.735352C23.417969 -39.145508 24.023438 -39.750977 24.433594 -40.551758C24.804688 -41.235352 24.975586 -41.953125 24.946289 -42.705078C24.916992 -43.457031 24.702148 -44.155273 24.301758 -44.799805C23.901367 -45.444336 23.359375 -45.952148 22.675781 -46.323242C22.031250 -46.674805 21.347656 -46.840820 20.625000 -46.821289ZM20.683594 -46.147461C21.445312 -46.147461 22.089844 -45.903320 22.617188 -45.415039C22.324219 -45.668945 21.889648 -45.766602 21.313477 -45.708008C20.737305 -45.649414 20.166016 -45.434570 19.599609 -45.063477C19.755859 -44.907227 19.838867 -44.711914 19.848633 -44.477539C19.858398 -44.243164 19.780273 -44.033203 19.614258 -43.847656C19.448242 -43.662109 19.238281 -43.569336 18.984375 -43.569336C18.906250 -43.569336 18.828125 -43.569336 18.750000 -43.569336L18.691406 -43.598633C18.457031 -43.676758 18.251953 -43.598633 18.076172 -43.364258C17.763672 -42.797852 17.607422 -42.246094 17.607422 -41.708984C17.607422 -41.171875 17.753906 -40.756836 18.046875 -40.463867C17.656250 -40.834961 17.392578 -41.289062 17.255859 -41.826172C17.119141 -42.363281 17.124023 -42.910156 17.270508 -43.466797C17.416992 -44.023438 17.695312 -44.526367 18.105469 -44.975586C18.457031 -45.346680 18.857422 -45.634766 19.306641 -45.839844C19.755859 -46.044922 20.214844 -46.147461 20.683594 -46.147461ZM17.724609 -39.086914C17.939453 -39.086914 18.115234 -39.052734 18.251953 -38.984375C18.388672 -38.916016 18.525391 -38.842773 18.662109 -38.764648C18.916016 -38.627930 19.179688 -38.520508 19.453125 -38.442383C19.667969 -38.227539 19.863281 -37.905273 20.039062 -37.475586C20.253906 -36.831055 20.375977 -36.010742 20.405273 -35.014648C20.434570 -34.018555 20.332031 -33.198242 20.097656 -32.553711C19.921875 -32.124023 19.707031 -31.791992 19.453125 -31.557617C19.062500 -31.381836 18.710938 -31.157227 18.398438 -30.883789C18.125000 -30.786133 17.773438 -30.776367 17.343750 -30.854492C16.679688 -30.971680 15.888672 -31.274414 14.970703 -31.762695C14.013672 -32.270508 13.300781 -32.797852 12.832031 -33.344727C12.558594 -33.676758 12.392578 -33.989258 12.333984 -34.282227C12.373047 -34.633789 12.363281 -34.995117 12.304688 -35.366211L12.304688 -35.336914L12.333984 -35.512695C12.353516 -35.668945 12.421875 -35.844727 12.539062 -36.040039C12.695312 -36.293945 12.929688 -36.567383 13.242188 -36.860352C13.632812 -37.211914 14.121094 -37.573242 14.707031 -37.944336C15.917969 -38.686523 16.923828 -39.067383 17.724609 -39.086914ZM8.173828 -38.090820C8.935547 -38.090820 9.580078 -37.846680 10.107422 -37.358398L10.078125 -37.358398C9.804688 -37.612305 9.375000 -37.709961 8.789062 -37.651367C8.203125 -37.592773 7.636719 -37.377930 7.089844 -37.006836C7.226562 -36.850586 7.299805 -36.655273 7.309570 -36.420898C7.319336 -36.186523 7.241211 -35.976562 7.075195 -35.791016C6.909180 -35.605469 6.708984 -35.512695 6.474609 -35.512695C6.396484 -35.493164 6.318359 -35.493164 6.240234 -35.512695L6.181641 -35.541992C5.927734 -35.620117 5.712891 -35.541992 5.537109 -35.307617C5.244141 -34.741211 5.092773 -34.189453 5.083008 -33.652344C5.073242 -33.115234 5.214844 -32.700195 5.507812 -32.407227C5.117188 -32.778320 4.858398 -33.232422 4.731445 -33.769531C4.604492 -34.306641 4.614258 -34.853516 4.760742 -35.410156C4.907227 -35.966797 5.185547 -36.469727 5.595703 -36.918945C5.947266 -37.290039 6.347656 -37.578125 6.796875 -37.783203C7.246094 -37.988281 7.705078 -38.090820 8.173828 -38.090820ZM21.416016 -31.264648C22.177734 -31.264648 22.822266 -31.020508 23.349609 -30.532227C23.076172 -30.786133 22.646484 -30.883789 22.060547 -30.825195C21.474609 -30.766602 20.898438 -30.551758 20.332031 -30.180664C20.488281 -30.024414 20.571289 -29.829102 20.581055 -29.594727C20.590820 -29.360352 20.512695 -29.150391 20.346680 -28.964844C20.180664 -28.779297 19.970703 -28.686523 19.716797 -28.686523C19.638672 -28.686523 19.560547 -28.696289 19.482422 -28.715820L19.423828 -28.715820C19.189453 -28.793945 18.984375 -28.715820 18.808594 -28.481445C18.496094 -27.915039 18.339844 -27.363281 18.339844 -26.826172C18.339844 -26.289062 18.486328 -25.874023 18.779297 -25.581055C18.388672 -25.952148 18.125000 -26.406250 17.988281 -26.943359C17.851562 -27.480469 17.856445 -28.027344 18.002930 -28.583984C18.149414 -29.140625 18.427734 -29.643555 18.837891 -30.092773C19.189453 -30.463867 19.589844 -30.751953 20.039062 -30.957031C20.488281 -31.162109 20.947266 -31.264648 21.416016 -31.264648ZM21.416016 -31.264648"></path></svg>