<svg width="20.332031" height="23.437500" viewBox="4.482422 -46.875000 20.332031 23.437500" xmlns="http://www.w3.org/2000/svg"><path d="M24.023438 -46.875000C24.003906 -46.796875 23.974609 -46.718750 23.935547 -46.640625C23.876953 -46.425781 23.789062 -46.220703 23.671875 -46.025391C23.535156 -45.751953 23.378906 -45.488281 23.203125 -45.234375C22.968750 -44.921875 22.714844 -44.648438 22.441406 -44.414062C22.109375 -44.140625 21.738281 -43.916016 21.328125 -43.740234C20.878906 -43.544922 20.400391 -43.427734 19.892578 -43.388672C19.306641 -43.330078 18.681641 -43.369141 18.017578 -43.505859C17.294922 -43.642578 16.523438 -43.896484 15.703125 -44.267578C15.117188 -44.541016 14.794922 -44.697266 14.736328 -44.736328L4.951172 -40.722656L14.765625 -35.947266L15.292969 -36.152344C15.742188 -36.367188 16.220703 -36.601562 16.728516 -36.855469C17.861328 -37.382812 18.886719 -38.095703 19.804688 -38.994141C20.585938 -39.755859 21.279297 -40.634766 21.884766 -41.630859C22.392578 -42.431641 22.822266 -43.281250 23.173828 -44.179688C23.447266 -44.824219 23.671875 -45.468750 23.847656 -46.113281ZM14.736328 -44.736328C14.736328 -44.736328 14.746094 -44.736328 14.765625 -44.736328L14.736328 -44.736328ZM4.482422 -38.583984L4.482422 -28.388672L13.623047 -23.437500L13.623047 -33.925781ZM24.814453 -38.583984L15.673828 -33.925781L15.673828 -23.437500L24.814453 -28.388672ZM24.814453 -38.583984"></path></svg>