<svg width="21.562500" height="24.902344" viewBox="3.193359 -49.775391 21.562500 24.902344" xmlns="http://www.w3.org/2000/svg"><path d="M13.974609 -49.775391L8.583984 -46.640625L4.863281 -44.501953L7.382812 -43.037109L9.843750 -44.472656L13.974609 -46.845703L18.105469 -44.472656L22.207031 -42.070312L13.974609 -37.353516L3.193359 -43.535156L3.193359 -35.859375L5.683594 -34.423828L13.974609 -29.648438L19.365234 -32.783203L22.236328 -34.423828L22.236328 -32.490234L13.974609 -27.744141L3.193359 -33.925781L3.193359 -31.083984L8.583984 -27.949219L13.974609 -24.873047L24.755859 -31.083984L24.755859 -38.730469L13.974609 -32.578125L5.683594 -37.294922L5.683594 -39.228516L13.974609 -34.453125L24.755859 -40.693359L24.755859 -43.535156L19.365234 -46.640625ZM13.974609 -49.775391"></path></svg>