<svg width="24.902344" height="24.902344" viewBox="2.197266 -49.775391 24.902344 24.902344" xmlns="http://www.w3.org/2000/svg"><path d="M2.197266 -49.775391L2.197266 -44.794922C4.833984 -44.794922 7.373047 -44.287109 9.814453 -43.271484C12.255859 -42.255859 14.409180 -40.815430 16.274414 -38.950195C18.139648 -37.084961 19.580078 -34.931641 20.595703 -32.490234C21.611328 -30.048828 22.119141 -27.509766 22.119141 -24.873047L27.099609 -24.873047C27.099609 -28.173828 26.469727 -31.347656 25.209961 -34.394531C23.950195 -37.441406 22.148438 -40.131836 19.804688 -42.465820C17.460938 -44.799805 14.765625 -46.601562 11.718750 -47.871094C8.671875 -49.140625 5.498047 -49.775391 2.197266 -49.775391ZM2.197266 -41.367188L2.197266 -36.533203C3.740234 -36.533203 5.229492 -36.235352 6.665039 -35.639648C8.100586 -35.043945 9.365234 -34.199219 10.458984 -33.105469C11.552734 -32.011719 12.392578 -30.751953 12.978516 -29.326172C13.564453 -27.900391 13.857422 -26.416016 13.857422 -24.873047L18.691406 -24.873047C18.691406 -27.060547 18.276367 -29.165039 17.446289 -31.186523C16.616211 -33.208008 15.424805 -34.990234 13.872070 -36.533203C12.319336 -38.076172 10.532227 -39.267578 8.510742 -40.107422C6.489258 -40.947266 4.384766 -41.367188 2.197266 -41.367188ZM5.625000 -31.699219C5.000000 -31.699219 4.423828 -31.542969 3.896484 -31.230469C3.369141 -30.917969 2.954102 -30.502930 2.651367 -29.985352C2.348633 -29.467773 2.197266 -28.896484 2.197266 -28.271484C2.197266 -27.646484 2.348633 -27.075195 2.651367 -26.557617C2.954102 -26.040039 3.369141 -25.629883 3.896484 -25.327148C4.423828 -25.024414 4.995117 -24.873047 5.610352 -24.873047C6.225586 -24.873047 6.796875 -25.024414 7.324219 -25.327148C7.851562 -25.629883 8.266602 -26.040039 8.569336 -26.557617C8.872070 -27.075195 9.023438 -27.646484 9.023438 -28.271484C9.023438 -28.896484 8.872070 -29.467773 8.569336 -29.985352C8.266602 -30.502930 7.851562 -30.917969 7.324219 -31.230469C6.796875 -31.542969 6.230469 -31.699219 5.625000 -31.699219ZM5.625000 -31.699219"></path></svg>