<svg width="24.902344" height="24.902344" viewBox="2.197266 -49.775391 24.902344 24.902344" xmlns="http://www.w3.org/2000/svg"><path d="M7.558594 -49.775391C6.582031 -49.775391 5.683594 -49.536133 4.863281 -49.057617C4.042969 -48.579102 3.393555 -47.929688 2.915039 -47.109375C2.436523 -46.289062 2.197266 -45.390625 2.197266 -44.414062L2.197266 -30.234375C2.197266 -29.257812 2.436523 -28.359375 2.915039 -27.539062C3.393555 -26.718750 4.042969 -26.069336 4.863281 -25.590820C5.683594 -25.112305 6.582031 -24.873047 7.558594 -24.873047L21.738281 -24.873047C22.714844 -24.873047 23.613281 -25.112305 24.433594 -25.590820C25.253906 -26.069336 25.903320 -26.718750 26.381836 -27.539062C26.860352 -28.359375 27.099609 -29.257812 27.099609 -30.234375L27.099609 -44.414062C27.099609 -45.390625 26.860352 -46.289062 26.381836 -47.109375C25.903320 -47.929688 25.253906 -48.579102 24.433594 -49.057617C23.613281 -49.536133 22.714844 -49.775391 21.738281 -49.775391ZM6.474609 -46.083984C8.740234 -46.083984 10.913086 -45.649414 12.993164 -44.780273C15.073242 -43.911133 16.914062 -42.680664 18.515625 -41.088867C20.117188 -39.497070 21.347656 -37.656250 22.207031 -35.566406C23.066406 -33.476562 23.496094 -31.308594 23.496094 -29.062500L20.097656 -29.062500C20.097656 -30.859375 19.750977 -32.592773 19.057617 -34.262695C18.364258 -35.932617 17.377930 -37.407227 16.098633 -38.686523C14.819336 -39.965820 13.349609 -40.952148 11.689453 -41.645508C10.029297 -42.338867 8.291016 -42.685547 6.474609 -42.685547ZM6.474609 -40.341797C7.978516 -40.341797 9.418945 -40.053711 10.795898 -39.477539C12.172852 -38.901367 13.393555 -38.085938 14.458008 -37.031250C15.522461 -35.976562 16.337891 -34.755859 16.904297 -33.369141C17.470703 -31.982422 17.753906 -30.546875 17.753906 -29.062500L14.443359 -29.062500C14.443359 -30.097656 14.238281 -31.108398 13.828125 -32.094727C13.417969 -33.081055 12.846680 -33.945312 12.114258 -34.687500C11.381836 -35.429688 10.522461 -36.005859 9.536133 -36.416016C8.549805 -36.826172 7.529297 -37.031250 6.474609 -37.031250ZM8.759766 -33.720703C8.759766 -33.720703 8.779297 -33.720703 8.818359 -33.720703C9.462891 -33.720703 10.009766 -33.491211 10.458984 -33.032227C10.908203 -32.573242 11.132812 -32.021484 11.132812 -31.376953C11.132812 -30.732422 10.908203 -30.185547 10.458984 -29.736328C10.009766 -29.287109 9.462891 -29.062500 8.818359 -29.062500C8.173828 -29.062500 7.622070 -29.287109 7.163086 -29.736328C6.704102 -30.185547 6.474609 -30.732422 6.474609 -31.376953C6.474609 -32.021484 6.694336 -32.568359 7.133789 -33.017578C7.573242 -33.466797 8.115234 -33.701172 8.759766 -33.720703ZM8.759766 -33.720703"></path></svg>