<svg width="22.910156" height="23.437500" viewBox="3.193359 -46.816406 22.910156 23.437500" xmlns="http://www.w3.org/2000/svg"><path d="M22.001953 -46.816406C21.240234 -46.816406 20.546875 -46.630859 19.921875 -46.259766C19.296875 -45.888672 18.798828 -45.390625 18.427734 -44.765625C18.056641 -44.140625 17.871094 -43.447266 17.871094 -42.685547L17.900391 -42.333984L9.960938 -38.291016C9.199219 -38.935547 8.310547 -39.257812 7.294922 -39.257812C6.552734 -39.257812 5.869141 -39.077148 5.244141 -38.715820C4.619141 -38.354492 4.121094 -37.856445 3.750000 -37.221680C3.378906 -36.586914 3.193359 -35.898438 3.193359 -35.156250C3.193359 -34.414062 3.378906 -33.725586 3.750000 -33.090820C4.121094 -32.456055 4.619141 -31.958008 5.244141 -31.596680C5.869141 -31.235352 6.552734 -31.054688 7.294922 -31.054688C8.212891 -31.054688 9.033203 -31.318359 9.755859 -31.845703L17.871094 -27.714844L17.871094 -27.480469C17.871094 -26.738281 18.056641 -26.049805 18.427734 -25.415039C18.798828 -24.780273 19.296875 -24.282227 19.921875 -23.920898C20.546875 -23.559570 21.235352 -23.378906 21.987305 -23.378906C22.739258 -23.378906 23.427734 -23.559570 24.052734 -23.920898C24.677734 -24.282227 25.175781 -24.780273 25.546875 -25.415039C25.917969 -26.049805 26.103516 -26.738281 26.103516 -27.480469C26.103516 -28.222656 25.917969 -28.911133 25.546875 -29.545898C25.175781 -30.180664 24.677734 -30.678711 24.052734 -31.040039C23.427734 -31.401367 22.744141 -31.582031 22.001953 -31.582031C21.474609 -31.582031 20.971680 -31.489258 20.493164 -31.303711C20.014648 -31.118164 19.589844 -30.859375 19.218750 -30.527344L11.367188 -34.511719C11.406250 -34.726562 11.425781 -34.941406 11.425781 -35.156250L11.396484 -35.507812L19.335938 -39.550781C20.097656 -38.906250 20.986328 -38.583984 22.001953 -38.583984C22.744141 -38.583984 23.427734 -38.769531 24.052734 -39.140625C24.677734 -39.511719 25.175781 -40.009766 25.546875 -40.634766C25.917969 -41.259766 26.103516 -41.948242 26.103516 -42.700195C26.103516 -43.452148 25.917969 -44.140625 25.546875 -44.765625C25.175781 -45.390625 24.677734 -45.888672 24.052734 -46.259766C23.427734 -46.630859 22.744141 -46.816406 22.001953 -46.816406ZM22.001953 -46.816406"></path></svg>