<svg width="23.437500" height="23.437500" viewBox="2.929688 -46.816406 23.437500 23.437500" xmlns="http://www.w3.org/2000/svg"><path d="M7.939453 -46.816406C7.021484 -46.816406 6.181641 -46.591797 5.419922 -46.142578C4.658203 -45.693359 4.052734 -45.087891 3.603516 -44.326172C3.154297 -43.564453 2.929688 -42.724609 2.929688 -41.806641L2.929688 -28.388672C2.929688 -27.470703 3.154297 -26.630859 3.603516 -25.869141C4.052734 -25.107422 4.658203 -24.501953 5.419922 -24.052734C6.181641 -23.603516 7.021484 -23.378906 7.939453 -23.378906L21.357422 -23.378906C22.275391 -23.378906 23.115234 -23.603516 23.876953 -24.052734C24.638672 -24.501953 25.244141 -25.107422 25.693359 -25.869141C26.142578 -26.630859 26.367188 -27.470703 26.367188 -28.388672L26.367188 -41.806641C26.367188 -42.724609 26.142578 -43.564453 25.693359 -44.326172C25.244141 -45.087891 24.638672 -45.693359 23.876953 -46.142578C23.115234 -46.591797 22.275391 -46.816406 21.357422 -46.816406ZM19.687500 -43.154297C20.468750 -43.154297 21.137695 -42.880859 21.694336 -42.333984C22.250977 -41.787109 22.529297 -41.123047 22.529297 -40.341797C22.529297 -39.560547 22.250977 -38.891602 21.694336 -38.334961C21.137695 -37.778320 20.468750 -37.500000 19.687500 -37.500000C19.003906 -37.500000 18.398438 -37.724609 17.871094 -38.173828L12.421875 -35.390625L12.421875 -35.156250C12.421875 -35.000000 12.412109 -34.853516 12.392578 -34.716797L17.783203 -31.962891C18.330078 -32.451172 18.964844 -32.695312 19.687500 -32.695312C20.468750 -32.695312 21.137695 -32.416992 21.694336 -31.860352C22.250977 -31.303711 22.529297 -30.634766 22.529297 -29.853516C22.529297 -29.072266 22.250977 -28.408203 21.694336 -27.861328C21.137695 -27.314453 20.468750 -27.041016 19.687500 -27.041016C18.906250 -27.041016 18.242188 -27.314453 17.695312 -27.861328C17.148438 -28.408203 16.875000 -29.072266 16.875000 -29.853516L16.875000 -30.029297L11.279297 -32.871094C10.791016 -32.500000 10.234375 -32.314453 9.609375 -32.314453C8.828125 -32.314453 8.159180 -32.592773 7.602539 -33.149414C7.045898 -33.706055 6.767578 -34.375000 6.767578 -35.156250C6.767578 -35.937500 7.045898 -36.601562 7.602539 -37.148438C8.159180 -37.695312 8.828125 -37.968750 9.609375 -37.968750C10.292969 -37.968750 10.898438 -37.744141 11.425781 -37.294922L16.875000 -40.078125L16.875000 -40.341797C16.875000 -41.123047 17.148438 -41.787109 17.695312 -42.333984C18.242188 -42.880859 18.906250 -43.154297 19.687500 -43.154297ZM19.687500 -43.154297"></path></svg>