<svg width="24.897461" height="24.873047" viewBox="2.202148 -49.687500 24.897461 24.873047" xmlns="http://www.w3.org/2000/svg"><path d="M14.648438 -49.687500C12.402344 -49.687500 10.312500 -49.121094 8.378906 -47.988281C6.503906 -46.875000 5.009766 -45.380859 3.896484 -43.505859C2.763672 -41.572266 2.202148 -39.482422 2.211914 -37.236328C2.221680 -34.990234 2.783203 -32.900391 3.896484 -30.966797C5.009766 -29.091797 6.503906 -27.597656 8.378906 -26.484375C10.312500 -25.371094 12.402344 -24.814453 14.648438 -24.814453C16.894531 -24.814453 18.984375 -25.371094 20.917969 -26.484375C22.792969 -27.597656 24.287109 -29.091797 25.400391 -30.966797C26.533203 -32.900391 27.099609 -34.990234 27.099609 -37.236328C27.099609 -39.482422 26.533203 -41.572266 25.400391 -43.505859C24.287109 -45.380859 22.792969 -46.875000 20.917969 -47.988281C18.984375 -49.121094 16.894531 -49.687500 14.648438 -49.687500ZM14.648438 -49.687500"></path></svg>