<svg width="24.902344" height="24.902344" viewBox="2.197266 -49.746094 24.902344 24.902344" xmlns="http://www.w3.org/2000/svg"><path d="M14.648438 -49.746094C13.906250 -49.746094 13.232422 -49.541016 12.626953 -49.130859C12.021484 -48.720703 11.572266 -48.173828 11.279297 -47.490234C11.083984 -47.041016 10.986328 -46.572266 10.986328 -46.083984C10.654297 -46.435547 10.263672 -46.699219 9.814453 -46.875000C9.130859 -47.167969 8.432617 -47.241211 7.719727 -47.094727C7.006836 -46.948242 6.381836 -46.611328 5.844727 -46.083984C5.307617 -45.556641 4.970703 -44.936523 4.833984 -44.223633C4.697266 -43.510742 4.765625 -42.802734 5.039062 -42.099609C5.234375 -41.669922 5.507812 -41.279297 5.859375 -40.927734C5.371094 -40.927734 4.902344 -40.839844 4.453125 -40.664062C3.750000 -40.371094 3.198242 -39.921875 2.797852 -39.316406C2.397461 -38.710938 2.197266 -38.032227 2.197266 -37.280273C2.197266 -36.528320 2.397461 -35.849609 2.797852 -35.244141C3.198242 -34.638672 3.750000 -34.199219 4.453125 -33.925781C4.902344 -33.730469 5.361328 -33.632812 5.830078 -33.632812C5.498047 -33.281250 5.234375 -32.890625 5.039062 -32.460938C4.765625 -31.757812 4.697266 -31.049805 4.833984 -30.336914C4.970703 -29.624023 5.307617 -29.003906 5.844727 -28.476562C6.381836 -27.949219 7.006836 -27.612305 7.719727 -27.465820C8.432617 -27.319336 9.130859 -27.392578 9.814453 -27.685547C10.263672 -27.880859 10.654297 -28.144531 10.986328 -28.476562C10.986328 -27.988281 11.083984 -27.519531 11.279297 -27.070312C11.572266 -26.386719 12.021484 -25.844727 12.626953 -25.444336C13.232422 -25.043945 13.906250 -24.843750 14.648438 -24.843750C15.390625 -24.843750 16.064453 -25.043945 16.669922 -25.444336C17.275391 -25.844727 17.724609 -26.386719 18.017578 -27.070312C18.212891 -27.519531 18.310547 -27.988281 18.310547 -28.476562C18.642578 -28.144531 19.033203 -27.880859 19.482422 -27.685547C20.166016 -27.392578 20.864258 -27.319336 21.577148 -27.465820C22.290039 -27.612305 22.915039 -27.949219 23.452148 -28.476562C23.989258 -29.003906 24.326172 -29.624023 24.462891 -30.336914C24.599609 -31.049805 24.531250 -31.757812 24.257812 -32.460938C24.062500 -32.910156 23.798828 -33.300781 23.466797 -33.632812C23.935547 -33.632812 24.394531 -33.720703 24.843750 -33.896484C25.546875 -34.189453 26.098633 -34.638672 26.499023 -35.244141C26.899414 -35.849609 27.099609 -36.528320 27.099609 -37.280273C27.099609 -38.032227 26.899414 -38.710938 26.499023 -39.316406C26.098633 -39.921875 25.546875 -40.371094 24.843750 -40.664062C24.394531 -40.839844 23.935547 -40.927734 23.466797 -40.927734C23.798828 -41.279297 24.062500 -41.669922 24.257812 -42.099609C24.531250 -42.802734 24.599609 -43.510742 24.462891 -44.223633C24.326172 -44.936523 23.989258 -45.556641 23.452148 -46.083984C22.915039 -46.611328 22.290039 -46.948242 21.577148 -47.094727C20.864258 -47.241211 20.166016 -47.167969 19.482422 -46.875000C19.033203 -46.699219 18.632812 -46.435547 18.281250 -46.083984C18.300781 -46.572266 18.212891 -47.041016 18.017578 -47.490234C17.724609 -48.173828 17.275391 -48.720703 16.669922 -49.130859C16.064453 -49.541016 15.390625 -49.746094 14.648438 -49.746094ZM14.648438 -48.076172C15.039062 -48.076172 15.405273 -47.958984 15.747070 -47.724609C16.088867 -47.490234 16.333008 -47.192383 16.479492 -46.831055C16.625977 -46.469727 16.660156 -46.093750 16.582031 -45.703125C16.503906 -45.312500 16.328125 -44.970703 16.054688 -44.677734L16.054688 -40.664062L18.896484 -43.505859C18.896484 -43.916016 19.008789 -44.287109 19.233398 -44.619141C19.458008 -44.951172 19.750977 -45.190430 20.112305 -45.336914C20.473633 -45.483398 20.854492 -45.517578 21.254883 -45.439453C21.655273 -45.361328 21.992188 -45.185547 22.265625 -44.912109C22.539062 -44.638672 22.714844 -44.301758 22.792969 -43.901367C22.871094 -43.500977 22.836914 -43.115234 22.690430 -42.744141C22.543945 -42.373047 22.304688 -42.080078 21.972656 -41.865234C21.640625 -41.650391 21.279297 -41.542969 20.888672 -41.542969L18.017578 -38.671875L22.060547 -38.671875C22.333984 -38.964844 22.666016 -39.150391 23.056641 -39.228516C23.447266 -39.306641 23.828125 -39.267578 24.199219 -39.111328C24.570312 -38.955078 24.868164 -38.706055 25.092773 -38.364258C25.317383 -38.022461 25.429688 -37.661133 25.429688 -37.280273C25.429688 -36.899414 25.317383 -36.538086 25.092773 -36.196289C24.868164 -35.854492 24.575195 -35.610352 24.213867 -35.463867C23.852539 -35.317383 23.471680 -35.283203 23.071289 -35.361328C22.670898 -35.439453 22.333984 -35.615234 22.060547 -35.888672L18.017578 -35.888672L20.888672 -33.017578C21.279297 -33.017578 21.640625 -32.910156 21.972656 -32.695312C22.304688 -32.480469 22.543945 -32.192383 22.690430 -31.831055C22.836914 -31.469727 22.871094 -31.083984 22.792969 -30.673828C22.714844 -30.263672 22.539062 -29.921875 22.265625 -29.648438C21.992188 -29.375000 21.655273 -29.199219 21.254883 -29.121094C20.854492 -29.042969 20.473633 -29.082031 20.112305 -29.238281C19.750977 -29.394531 19.458008 -29.638672 19.233398 -29.970703C19.008789 -30.302734 18.896484 -30.664062 18.896484 -31.054688L16.054688 -33.925781L16.054688 -29.882812C16.328125 -29.589844 16.503906 -29.248047 16.582031 -28.857422C16.660156 -28.466797 16.625977 -28.090820 16.479492 -27.729492C16.333008 -27.368164 16.088867 -27.075195 15.747070 -26.850586C15.405273 -26.625977 15.039062 -26.513672 14.648438 -26.513672C14.257812 -26.513672 13.891602 -26.625977 13.549805 -26.850586C13.208008 -27.075195 12.963867 -27.368164 12.817383 -27.729492C12.670898 -28.090820 12.636719 -28.466797 12.714844 -28.857422C12.792969 -29.248047 12.968750 -29.589844 13.242188 -29.882812L13.242188 -33.925781L10.400391 -31.054688C10.400391 -30.644531 10.288086 -30.278320 10.063477 -29.956055C9.838867 -29.633789 9.545898 -29.394531 9.184570 -29.238281C8.823242 -29.082031 8.442383 -29.042969 8.041992 -29.121094C7.641602 -29.199219 7.304688 -29.375000 7.031250 -29.648438C6.757812 -29.921875 6.582031 -30.263672 6.503906 -30.673828C6.425781 -31.083984 6.459961 -31.469727 6.606445 -31.831055C6.752930 -32.192383 6.992188 -32.480469 7.324219 -32.695312C7.656250 -32.910156 8.017578 -33.017578 8.408203 -33.017578L11.279297 -35.888672L7.236328 -35.888672C6.962891 -35.615234 6.625977 -35.439453 6.225586 -35.361328C5.825195 -35.283203 5.444336 -35.317383 5.083008 -35.463867C4.721680 -35.610352 4.428711 -35.854492 4.204102 -36.196289C3.979492 -36.538086 3.867188 -36.899414 3.867188 -37.280273C3.867188 -37.661133 3.979492 -38.022461 4.204102 -38.364258C4.428711 -38.706055 4.726562 -38.955078 5.097656 -39.111328C5.468750 -39.267578 5.849609 -39.306641 6.240234 -39.228516C6.630859 -39.150391 6.962891 -38.964844 7.236328 -38.671875L11.279297 -38.671875L8.408203 -41.542969C8.017578 -41.542969 7.656250 -41.650391 7.324219 -41.865234C6.992188 -42.080078 6.752930 -42.373047 6.606445 -42.744141C6.459961 -43.115234 6.425781 -43.500977 6.503906 -43.901367C6.582031 -44.301758 6.757812 -44.638672 7.031250 -44.912109C7.304688 -45.185547 7.641602 -45.361328 8.041992 -45.439453C8.442383 -45.517578 8.823242 -45.483398 9.184570 -45.336914C9.545898 -45.190430 9.838867 -44.951172 10.063477 -44.619141C10.288086 -44.287109 10.400391 -43.916016 10.400391 -43.505859L13.242188 -40.664062L13.242188 -44.707031C12.968750 -44.980469 12.792969 -45.312500 12.714844 -45.703125C12.636719 -46.093750 12.670898 -46.469727 12.817383 -46.831055C12.963867 -47.192383 13.208008 -47.490234 13.549805 -47.724609C13.891602 -47.958984 14.257812 -48.076172 14.648438 -48.076172ZM14.648438 -48.076172"></path></svg>