<svg width="26.542969" height="24.902344" viewBox="1.376953 -49.716797 26.542969 24.902344" xmlns="http://www.w3.org/2000/svg"><path d="M3.867188 -49.716797C3.164062 -49.716797 2.573242 -49.477539 2.094727 -48.999023C1.616211 -48.520508 1.376953 -47.934570 1.376953 -47.241211C1.376953 -46.547852 1.616211 -45.957031 2.094727 -45.468750C2.573242 -44.980469 3.164062 -44.736328 3.867188 -44.736328L25.429688 -44.736328C26.132812 -44.736328 26.723633 -44.980469 27.202148 -45.468750C27.680664 -45.957031 27.919922 -46.547852 27.919922 -47.241211C27.919922 -47.934570 27.680664 -48.520508 27.202148 -48.999023C26.723633 -49.477539 26.132812 -49.716797 25.429688 -49.716797ZM3.867188 -43.095703C3.164062 -43.095703 2.573242 -42.851562 2.094727 -42.363281C1.616211 -41.875000 1.376953 -41.284180 1.376953 -40.590820C1.376953 -39.897461 1.616211 -39.311523 2.094727 -38.833008C2.573242 -38.354492 3.164062 -38.115234 3.867188 -38.115234L22.265625 -38.115234C22.949219 -38.115234 23.535156 -38.354492 24.023438 -38.833008C24.511719 -39.311523 24.755859 -39.897461 24.755859 -40.590820C24.755859 -41.284180 24.511719 -41.875000 24.023438 -42.363281C23.535156 -42.851562 22.949219 -43.095703 22.265625 -43.095703ZM3.779297 -36.445312C3.115234 -36.425781 2.548828 -36.176758 2.080078 -35.698242C1.611328 -35.219727 1.376953 -34.638672 1.376953 -33.955078C1.376953 -33.271484 1.616211 -32.685547 2.094727 -32.197266C2.573242 -31.708984 3.164062 -31.464844 3.867188 -31.464844L24.375000 -31.464844C25.058594 -31.464844 25.644531 -31.708984 26.132812 -32.197266C26.621094 -32.685547 26.865234 -33.271484 26.865234 -33.955078C26.865234 -34.638672 26.621094 -35.224609 26.132812 -35.712891C25.644531 -36.201172 25.058594 -36.445312 24.375000 -36.445312L3.867188 -36.445312C3.867188 -36.445312 3.857422 -36.445312 3.837891 -36.445312ZM3.867188 -29.794922C3.164062 -29.794922 2.573242 -29.555664 2.094727 -29.077148C1.616211 -28.598633 1.376953 -28.012695 1.376953 -27.319336C1.376953 -26.625977 1.616211 -26.035156 2.094727 -25.546875C2.573242 -25.058594 3.164062 -24.814453 3.867188 -24.814453L14.824219 -24.814453C15.507812 -24.814453 16.093750 -25.058594 16.582031 -25.546875C17.070312 -26.035156 17.314453 -26.625977 17.314453 -27.319336C17.314453 -28.012695 17.070312 -28.598633 16.582031 -29.077148C16.093750 -29.555664 15.507812 -29.794922 14.824219 -29.794922ZM3.867188 -29.794922"></path></svg>