<svg width="29.321289" height="18.544922" viewBox="0.000000 -42.070312 29.321289 18.544922" xmlns="http://www.w3.org/2000/svg"><path d="M9.960938 -42.070312L9.814453 -42.041016C9.619141 -41.982422 9.501953 -41.914062 9.462891 -41.835938C9.423828 -41.757812 9.404297 -41.591797 9.404297 -41.337891L9.433594 -40.869141L9.140625 -40.810547C8.984375 -40.771484 8.891602 -40.756836 8.862305 -40.766602C8.833008 -40.776367 8.808594 -40.820312 8.789062 -40.898438C8.652344 -41.230469 8.554688 -41.455078 8.496094 -41.572266C8.437500 -41.689453 8.383789 -41.752930 8.334961 -41.762695C8.286133 -41.772461 8.222656 -41.718750 8.144531 -41.601562C8.046875 -41.464844 7.998047 -41.386719 7.998047 -41.367188C7.998047 -41.347656 8.076172 -41.210938 8.232422 -40.957031L8.466797 -40.546875L8.261719 -40.371094C8.144531 -40.234375 8.066406 -40.166016 8.027344 -40.166016C7.988281 -40.166016 7.861328 -40.253906 7.646484 -40.429688C7.333984 -40.703125 7.128906 -40.839844 7.031250 -40.839844C7.011719 -40.839844 7.001953 -40.732422 7.001953 -40.517578L7.001953 -40.224609L7.412109 -39.990234C7.666016 -39.853516 7.783203 -39.750977 7.763672 -39.682617C7.744141 -39.614258 7.724609 -39.531250 7.705078 -39.433594L7.646484 -39.257812C7.626953 -39.218750 7.460938 -39.218750 7.148438 -39.257812C6.796875 -39.316406 6.582031 -39.321289 6.503906 -39.272461C6.425781 -39.223633 6.464844 -39.091797 6.621094 -38.876953C6.660156 -38.798828 6.704102 -38.754883 6.752930 -38.745117C6.801758 -38.735352 6.933594 -38.740234 7.148438 -38.759766L7.617188 -38.818359L7.675781 -38.525391C7.714844 -38.310547 7.719727 -38.193359 7.690430 -38.173828C7.661133 -38.154297 7.529297 -38.100586 7.294922 -38.012695C7.060547 -37.924805 6.884766 -37.841797 6.767578 -37.763672L6.621094 -37.675781L6.767578 -37.558594C6.923828 -37.441406 7.041016 -37.382812 7.119141 -37.382812C7.197266 -37.382812 7.343750 -37.451172 7.558594 -37.587891L7.939453 -37.822266L8.144531 -37.617188C8.242188 -37.500000 8.300781 -37.426758 8.320312 -37.397461C8.339844 -37.368164 8.320312 -37.324219 8.261719 -37.265625L7.968750 -36.884766C7.812500 -36.708984 7.724609 -36.582031 7.705078 -36.503906C7.685547 -36.425781 7.690430 -36.376953 7.719727 -36.357422C7.749023 -36.337891 7.832031 -36.328125 7.968750 -36.328125L8.291016 -36.328125L8.496094 -36.738281C8.632812 -37.011719 8.730469 -37.148438 8.789062 -37.148438C8.847656 -37.148438 8.881836 -37.128906 8.891602 -37.089844C8.901367 -37.050781 8.896484 -36.982422 8.876953 -36.884766L8.261719 -32.607422L7.851562 -32.607422C7.656250 -32.607422 7.539062 -32.612305 7.500000 -32.622070C7.460938 -32.631836 7.441406 -32.675781 7.441406 -32.753906C7.421875 -32.910156 7.402344 -32.998047 7.382812 -33.017578C7.363281 -33.037109 7.314453 -33.027344 7.236328 -32.988281C7.158203 -32.949219 7.128906 -32.900391 7.148438 -32.841797C7.167969 -32.783203 7.158203 -32.739258 7.119141 -32.709961C7.080078 -32.680664 7.001953 -32.646484 6.884766 -32.607422C6.669922 -32.529297 6.582031 -32.485352 6.621094 -32.475586C6.660156 -32.465820 6.772461 -32.500000 6.958008 -32.578125C7.143555 -32.656250 7.246094 -32.675781 7.265625 -32.636719C7.285156 -32.597656 7.280273 -32.568359 7.250977 -32.548828C7.221680 -32.529297 7.158203 -32.509766 7.060547 -32.490234C6.962891 -32.470703 6.860352 -32.397461 6.752930 -32.270508C6.645508 -32.143555 6.572266 -32.021484 6.533203 -31.904297C6.513672 -31.845703 6.508789 -31.806641 6.518555 -31.787109C6.528320 -31.767578 6.552734 -31.767578 6.591797 -31.787109C6.630859 -31.806641 6.655273 -31.806641 6.665039 -31.787109C6.674805 -31.767578 6.669922 -31.728516 6.650391 -31.669922L6.621094 -31.494141L7.001953 -31.787109L7.001953 -31.582031C7.001953 -31.425781 7.016602 -31.342773 7.045898 -31.333008C7.075195 -31.323242 7.197266 -31.103516 7.412109 -30.673828C7.939453 -29.638672 8.427734 -28.925781 8.876953 -28.535156C9.091797 -28.339844 9.243164 -28.178711 9.331055 -28.051758C9.418945 -27.924805 9.501953 -27.744141 9.580078 -27.509766C9.619141 -27.353516 9.643555 -27.270508 9.653320 -27.260742C9.663086 -27.250977 9.677734 -27.285156 9.697266 -27.363281C9.716797 -27.636719 9.755859 -27.739258 9.814453 -27.670898C9.873047 -27.602539 9.912109 -27.402344 9.931641 -27.070312C9.951172 -26.835938 9.980469 -26.684570 10.019531 -26.616211C10.058594 -26.547852 10.078125 -26.601562 10.078125 -26.777344C10.078125 -26.875000 10.107422 -27.011719 10.166016 -27.187500L10.253906 -27.421875L10.253906 -27.216797C10.253906 -27.060547 10.278320 -26.967773 10.327148 -26.938477C10.375977 -26.909180 10.410156 -26.962891 10.429688 -27.099609L10.458984 -27.275391L10.634766 -27.128906C10.751953 -27.011719 10.888672 -26.777344 11.044922 -26.425781C11.162109 -26.132812 11.264648 -25.932617 11.352539 -25.825195C11.440430 -25.717773 11.542969 -25.664062 11.660156 -25.664062C11.777344 -25.664062 11.875000 -25.629883 11.953125 -25.561523C12.031250 -25.493164 12.138672 -25.341797 12.275391 -25.107422C12.373047 -24.931641 12.602539 -24.658203 12.963867 -24.287109C13.325195 -23.916016 13.583984 -23.681641 13.740234 -23.583984C13.837891 -23.544922 14.033203 -23.525391 14.326172 -23.525391C14.619141 -23.525391 14.873047 -23.554688 15.087891 -23.613281C15.205078 -23.652344 15.317383 -23.706055 15.424805 -23.774414C15.532227 -23.842773 15.664062 -23.964844 15.820312 -24.140625C16.093750 -24.414062 16.230469 -24.589844 16.230469 -24.667969C16.230469 -24.746094 16.337891 -24.843750 16.552734 -24.960938C16.767578 -25.078125 16.904297 -25.205078 16.962891 -25.341797C17.021484 -25.478516 17.070312 -25.541992 17.109375 -25.532227C17.148438 -25.522461 17.280273 -25.385742 17.504883 -25.122070C17.729492 -24.858398 17.841797 -24.707031 17.841797 -24.667969C17.841797 -24.628906 17.861328 -24.638672 17.900391 -24.697266C17.939453 -24.755859 17.973633 -24.760742 18.002930 -24.711914C18.032227 -24.663086 18.056641 -24.531250 18.076172 -24.316406L18.134766 -23.906250L18.164062 -24.228516C18.222656 -24.580078 18.300781 -24.755859 18.398438 -24.755859C18.457031 -24.755859 18.618164 -24.877930 18.881836 -25.122070C19.145508 -25.366211 19.321289 -25.546875 19.409180 -25.664062C19.497070 -25.781250 19.555664 -25.849609 19.584961 -25.869141C19.614258 -25.888672 19.692383 -25.869141 19.819336 -25.810547C19.946289 -25.751953 20.034180 -25.722656 20.083008 -25.722656C20.131836 -25.722656 20.224609 -25.849609 20.361328 -26.103516L20.595703 -26.455078C20.615234 -26.474609 20.664062 -26.435547 20.742188 -26.337891C20.820312 -26.240234 20.937500 -26.147461 21.093750 -26.059570C21.250000 -25.971680 21.376953 -25.927734 21.474609 -25.927734C21.572266 -25.927734 21.679688 -25.961914 21.796875 -26.030273C21.914062 -26.098633 22.001953 -26.186523 22.060547 -26.293945C22.119141 -26.401367 22.221680 -26.562500 22.368164 -26.777344C22.514648 -26.992188 22.617188 -27.216797 22.675781 -27.451172C22.734375 -27.607422 22.773438 -27.695312 22.792969 -27.714844C22.812500 -27.734375 22.832031 -27.714844 22.851562 -27.656250C22.890625 -27.558594 22.929688 -27.519531 22.968750 -27.539062C23.007812 -27.558594 23.066406 -27.670898 23.144531 -27.875977C23.222656 -28.081055 23.305664 -28.188477 23.393555 -28.198242C23.481445 -28.208008 23.535156 -28.237305 23.554688 -28.286133C23.574219 -28.334961 23.593750 -28.359375 23.613281 -28.359375C23.632812 -28.359375 23.671875 -28.339844 23.730469 -28.300781C23.789062 -28.261719 23.833008 -28.242188 23.862305 -28.242188C23.891602 -28.242188 23.945312 -28.251953 24.023438 -28.271484C24.140625 -28.330078 24.238281 -28.496094 24.316406 -28.769531C24.433594 -29.082031 24.545898 -29.326172 24.653320 -29.501953C24.760742 -29.677734 24.980469 -29.941406 25.312500 -30.292969C25.722656 -30.722656 25.947266 -30.986328 25.986328 -31.083984L26.044922 -31.259766L26.132812 -31.083984C26.191406 -30.966797 26.225586 -30.908203 26.235352 -30.908203C26.245117 -30.908203 26.240234 -30.986328 26.220703 -31.142578L26.220703 -31.376953L26.601562 -30.996094L26.572266 -31.230469C26.552734 -31.347656 26.547852 -31.416016 26.557617 -31.435547C26.567383 -31.455078 26.601562 -31.459961 26.660156 -31.450195C26.718750 -31.440430 26.748047 -31.440430 26.748047 -31.450195C26.748047 -31.459961 26.728516 -31.503906 26.689453 -31.582031L26.572266 -31.757812L26.718750 -31.640625C26.855469 -31.503906 26.865234 -31.582031 26.748047 -31.875000C26.689453 -32.011719 26.660156 -32.089844 26.660156 -32.109375C26.660156 -32.128906 26.713867 -32.119141 26.821289 -32.080078C26.928711 -32.041016 26.987305 -32.026367 26.997070 -32.036133C27.006836 -32.045898 26.982422 -32.080078 26.923828 -32.138672C26.748047 -32.353516 26.474609 -32.490234 26.103516 -32.548828C25.927734 -32.568359 25.781250 -32.607422 25.664062 -32.666016C25.546875 -32.724609 25.415039 -32.753906 25.268555 -32.753906C25.122070 -32.753906 24.946289 -32.807617 24.741211 -32.915039C24.536133 -33.022461 24.404297 -33.076172 24.345703 -33.076172C24.287109 -33.076172 24.184570 -33.183594 24.038086 -33.398438C23.891602 -33.613281 23.808594 -33.784180 23.789062 -33.911133C23.769531 -34.038086 23.769531 -34.121094 23.789062 -34.160156C23.808594 -34.199219 23.857422 -34.267578 23.935547 -34.365234L24.404297 -34.804688C24.521484 -34.902344 24.604492 -34.960938 24.653320 -34.980469C24.702148 -35.000000 24.780273 -34.990234 24.887695 -34.951172C24.995117 -34.912109 25.200195 -34.814453 25.502930 -34.658203C25.805664 -34.501953 26.005859 -34.423828 26.103516 -34.423828C26.201172 -34.423828 26.430664 -34.497070 26.791992 -34.643555C27.153320 -34.790039 27.412109 -34.951172 27.568359 -35.126953C27.724609 -35.302734 27.812500 -35.415039 27.832031 -35.463867C27.851562 -35.512695 28.002930 -35.556641 28.286133 -35.595703C28.569336 -35.634766 28.769531 -35.683594 28.886719 -35.742188C29.062500 -35.839844 29.184570 -35.996094 29.252930 -36.210938C29.321289 -36.425781 29.306641 -36.601562 29.208984 -36.738281C29.150391 -36.835938 28.955078 -36.992188 28.623047 -37.207031C28.291016 -37.421875 28.037109 -37.558594 27.861328 -37.617188C27.685547 -37.675781 27.343750 -37.705078 26.835938 -37.705078C26.484375 -37.705078 26.250000 -37.700195 26.132812 -37.690430C26.015625 -37.680664 25.878906 -37.636719 25.722656 -37.558594C25.507812 -37.460938 25.292969 -37.314453 25.078125 -37.119141C24.863281 -36.923828 24.716797 -36.757812 24.638672 -36.621094C24.599609 -36.503906 24.580078 -36.425781 24.580078 -36.386719C24.580078 -36.347656 24.599609 -36.289062 24.638672 -36.210938C24.716797 -36.074219 24.741211 -35.991211 24.711914 -35.961914C24.682617 -35.932617 24.633789 -35.942383 24.565430 -35.991211C24.497070 -36.040039 24.448242 -36.113281 24.418945 -36.210938C24.389648 -36.308594 24.277344 -36.489258 24.082031 -36.752930C23.886719 -37.016602 23.764648 -37.197266 23.715820 -37.294922C23.666992 -37.392578 23.642578 -37.509766 23.642578 -37.646484C23.642578 -37.919922 23.789062 -38.056641 24.082031 -38.056641C24.238281 -38.056641 24.370117 -38.100586 24.477539 -38.188477C24.584961 -38.276367 24.692383 -38.427734 24.799805 -38.642578C24.907227 -38.857422 24.951172 -39.096680 24.931641 -39.360352C24.912109 -39.624023 24.843750 -39.833984 24.726562 -39.990234C24.531250 -40.244141 24.013672 -40.478516 23.173828 -40.693359C22.880859 -40.771484 22.626953 -40.815430 22.412109 -40.825195C22.197266 -40.834961 21.884766 -40.800781 21.474609 -40.722656C20.966797 -40.644531 20.620117 -40.546875 20.434570 -40.429688C20.249023 -40.312500 20.107422 -40.117188 20.009766 -39.843750C19.951172 -39.687500 19.926758 -39.506836 19.936523 -39.301758C19.946289 -39.096680 19.985352 -38.935547 20.053711 -38.818359C20.122070 -38.701172 20.273438 -38.579102 20.507812 -38.452148C20.742188 -38.325195 20.996094 -38.222656 21.269531 -38.144531C21.542969 -38.066406 21.777344 -37.963867 21.972656 -37.836914C22.167969 -37.709961 22.363281 -37.626953 22.558594 -37.587891C23.046875 -37.529297 23.447266 -37.226562 23.759766 -36.679688C23.896484 -36.406250 23.969727 -36.215820 23.979492 -36.108398C23.989258 -36.000977 23.925781 -35.878906 23.789062 -35.742188C23.710938 -35.644531 23.623047 -35.605469 23.525391 -35.625000C23.427734 -35.644531 23.344727 -35.737305 23.276367 -35.903320C23.208008 -36.069336 23.105469 -36.230469 22.968750 -36.386719C22.832031 -36.542969 22.705078 -36.640625 22.587891 -36.679688C22.470703 -36.718750 22.314453 -36.860352 22.119141 -37.104492C21.923828 -37.348633 21.723633 -37.519531 21.518555 -37.617188C21.313477 -37.714844 21.044922 -37.773438 20.712891 -37.792969C20.439453 -37.812500 20.107422 -37.797852 19.716797 -37.749023C19.326172 -37.700195 19.013672 -37.631836 18.779297 -37.543945C18.544922 -37.456055 18.359375 -37.333984 18.222656 -37.177734C18.085938 -37.021484 18.017578 -36.855469 18.017578 -36.679688C18.017578 -36.582031 17.998047 -36.533203 17.958984 -36.533203C17.919922 -36.533203 17.749023 -36.630859 17.446289 -36.826172C17.143555 -37.021484 16.923828 -37.177734 16.787109 -37.294922C16.748047 -37.333984 16.728516 -37.363281 16.728516 -37.382812C16.728516 -37.402344 16.748047 -37.421875 16.787109 -37.441406C16.826172 -37.460938 16.845703 -37.475586 16.845703 -37.485352C16.845703 -37.495117 16.826172 -37.500000 16.787109 -37.500000C16.748047 -37.500000 16.728516 -37.509766 16.728516 -37.529297L16.845703 -37.617188C16.845703 -37.617188 16.826172 -37.617188 16.787109 -37.617188C16.748047 -37.617188 16.728516 -37.622070 16.728516 -37.631836C16.728516 -37.641602 16.748047 -37.666016 16.787109 -37.705078L16.845703 -37.734375C16.845703 -37.753906 16.826172 -37.763672 16.787109 -37.763672C16.748047 -37.763672 16.728516 -37.763672 16.728516 -37.763672L16.845703 -37.851562C16.845703 -37.871094 16.826172 -37.880859 16.787109 -37.880859C16.748047 -37.880859 16.728516 -37.885742 16.728516 -37.895508C16.728516 -37.905273 16.748047 -37.919922 16.787109 -37.939453L16.845703 -37.998047C16.845703 -37.998047 16.826172 -37.998047 16.787109 -37.998047C16.748047 -37.998047 16.728516 -37.998047 16.728516 -37.998047L16.787109 -38.056641C16.845703 -38.095703 16.850586 -38.115234 16.801758 -38.115234C16.752930 -38.115234 16.728516 -38.222656 16.728516 -38.437500L16.699219 -38.759766L16.669922 -38.437500C16.669922 -38.222656 16.645508 -38.115234 16.596680 -38.115234C16.547852 -38.115234 16.552734 -38.095703 16.611328 -38.056641L16.669922 -37.998047C16.669922 -37.998047 16.650391 -37.998047 16.611328 -37.998047C16.572266 -37.998047 16.552734 -37.998047 16.552734 -37.998047L16.611328 -37.939453C16.650391 -37.919922 16.669922 -37.905273 16.669922 -37.895508C16.669922 -37.885742 16.650391 -37.880859 16.611328 -37.880859C16.572266 -37.880859 16.552734 -37.871094 16.552734 -37.851562L16.669922 -37.763672C16.669922 -37.763672 16.650391 -37.763672 16.611328 -37.763672C16.572266 -37.763672 16.552734 -37.753906 16.552734 -37.734375L16.611328 -37.705078C16.650391 -37.666016 16.669922 -37.641602 16.669922 -37.631836C16.669922 -37.622070 16.650391 -37.617188 16.611328 -37.617188C16.572266 -37.617188 16.552734 -37.617188 16.552734 -37.617188L16.669922 -37.529297C16.669922 -37.509766 16.650391 -37.500000 16.611328 -37.500000C16.572266 -37.500000 16.552734 -37.495117 16.552734 -37.485352C16.552734 -37.475586 16.572266 -37.460938 16.611328 -37.441406C16.650391 -37.421875 16.650391 -37.382812 16.611328 -37.324219C16.572266 -37.265625 16.445312 -37.153320 16.230469 -36.987305C16.015625 -36.821289 15.878906 -36.728516 15.820312 -36.708984C15.761719 -36.689453 15.703125 -36.728516 15.644531 -36.826172C15.605469 -36.865234 15.517578 -37.050781 15.380859 -37.382812C15.205078 -37.753906 15.087891 -37.978516 15.029297 -38.056641C14.931641 -38.193359 14.775391 -38.281250 14.560547 -38.320312C14.423828 -38.339844 14.072266 -38.349609 13.505859 -38.349609C12.861328 -38.330078 12.441406 -38.300781 12.246094 -38.261719C12.050781 -38.222656 11.923828 -38.125000 11.865234 -37.968750L11.777344 -37.822266L11.542969 -37.939453C11.386719 -38.017578 11.323242 -38.090820 11.352539 -38.159180C11.381836 -38.227539 11.411133 -38.325195 11.440430 -38.452148C11.469727 -38.579102 11.513672 -38.642578 11.572266 -38.642578L12.099609 -38.554688C12.392578 -38.496094 12.568359 -38.486328 12.626953 -38.525391C12.685547 -38.564453 12.675781 -38.671875 12.597656 -38.847656L12.480469 -39.111328L11.513672 -39.023438L11.396484 -39.550781C11.376953 -39.589844 11.396484 -39.628906 11.455078 -39.667969C11.513672 -39.707031 11.630859 -39.755859 11.806641 -39.814453C12.080078 -39.931641 12.265625 -40.019531 12.363281 -40.078125L12.509766 -40.195312L12.275391 -40.371094C12.119141 -40.468750 12.021484 -40.507812 11.982422 -40.488281L11.191406 -40.019531L10.751953 -40.458984L11.044922 -40.810547C11.376953 -41.201172 11.523438 -41.416016 11.484375 -41.455078C11.445312 -41.494141 11.328125 -41.513672 11.132812 -41.513672C11.015625 -41.513672 10.932617 -41.494141 10.883789 -41.455078C10.834961 -41.416016 10.761719 -41.298828 10.664062 -41.103516L10.429688 -40.664062L10.136719 -40.751953C10.000000 -40.791016 9.916992 -40.825195 9.887695 -40.854492C9.858398 -40.883789 9.853516 -40.932617 9.873047 -41.000977C9.892578 -41.069336 9.912109 -41.269531 9.931641 -41.601562ZM9.462891 -40.722656L9.462891 -40.400391C9.462891 -40.244141 9.453125 -40.146484 9.433594 -40.107422C9.414062 -40.068359 9.375000 -40.039062 9.316406 -40.019531L9.140625 -39.960938C9.121094 -39.960938 9.077148 -40.068359 9.008789 -40.283203C8.940430 -40.498047 8.911133 -40.610352 8.920898 -40.620117C8.930664 -40.629883 9.023438 -40.654297 9.199219 -40.693359ZM9.873047 -40.693359C9.931641 -40.693359 10.019531 -40.673828 10.136719 -40.634766C10.253906 -40.595703 10.312500 -40.561523 10.312500 -40.532227C10.312500 -40.502930 10.273438 -40.400391 10.195312 -40.224609C10.117188 -40.107422 10.048828 -40.029297 9.990234 -39.990234C9.931641 -39.951172 9.863281 -39.960938 9.785156 -40.019531C9.746094 -40.039062 9.731445 -40.146484 9.741211 -40.341797C9.750977 -40.537109 9.785156 -40.644531 9.843750 -40.664062ZM8.525391 -40.400391C8.564453 -40.400391 8.632812 -40.302734 8.730469 -40.107422C8.828125 -39.970703 8.876953 -39.887695 8.876953 -39.858398C8.876953 -39.829102 8.842773 -39.780273 8.774414 -39.711914C8.706055 -39.643555 8.662109 -39.609375 8.642578 -39.609375C8.623047 -39.609375 8.535156 -39.677734 8.378906 -39.814453L8.144531 -40.019531L8.320312 -40.224609C8.437500 -40.341797 8.505859 -40.400391 8.525391 -40.400391ZM10.664062 -40.341797L10.869141 -40.136719L11.074219 -39.960938L10.810547 -39.785156C10.654297 -39.687500 10.551758 -39.633789 10.502930 -39.624023C10.454102 -39.614258 10.400391 -39.638672 10.341797 -39.697266C10.283203 -39.755859 10.258789 -39.804688 10.268555 -39.843750C10.278320 -39.882812 10.341797 -39.970703 10.458984 -40.107422ZM9.492188 -39.902344C9.570312 -39.902344 9.614258 -39.887695 9.624023 -39.858398C9.633789 -39.829102 9.628906 -39.736328 9.609375 -39.580078C9.589844 -39.365234 9.575195 -39.252930 9.565430 -39.243164C9.555664 -39.233398 9.501953 -39.218750 9.404297 -39.199219C9.306641 -39.179688 9.174805 -39.233398 9.008789 -39.360352C8.842773 -39.487305 8.798828 -39.584961 8.876953 -39.653320C8.955078 -39.721680 9.057617 -39.780273 9.184570 -39.829102C9.311523 -39.877930 9.414062 -39.902344 9.492188 -39.902344ZM9.814453 -39.873047C9.833984 -39.873047 9.897461 -39.848633 10.004883 -39.799805C10.112305 -39.750977 10.214844 -39.672852 10.312500 -39.565430C10.410156 -39.458008 10.458984 -39.389648 10.458984 -39.360352C10.458984 -39.331055 10.390625 -39.287109 10.253906 -39.228516C10.078125 -39.169922 9.912109 -39.160156 9.755859 -39.199219C9.716797 -39.218750 9.692383 -39.248047 9.682617 -39.287109C9.672852 -39.326172 9.677734 -39.394531 9.697266 -39.492188L9.726562 -39.785156C9.746094 -39.843750 9.775391 -39.873047 9.814453 -39.873047ZM7.939453 -39.726562L8.232422 -39.550781C8.427734 -39.433594 8.515625 -39.350586 8.496094 -39.301758C8.476562 -39.252930 8.466797 -39.199219 8.466797 -39.140625C8.466797 -39.082031 8.447266 -39.052734 8.408203 -39.052734L7.939453 -39.140625C7.783203 -39.179688 7.763672 -39.316406 7.880859 -39.550781ZM11.162109 -39.580078C11.201172 -39.580078 11.240234 -39.550781 11.279297 -39.492188L11.367188 -39.052734L11.015625 -39.052734C10.839844 -39.052734 10.732422 -39.057617 10.693359 -39.067383C10.654297 -39.077148 10.629883 -39.116211 10.620117 -39.184570C10.610352 -39.252930 10.615234 -39.301758 10.634766 -39.331055C10.654297 -39.360352 10.703125 -39.394531 10.781250 -39.433594C10.976562 -39.531250 11.093750 -39.580078 11.132812 -39.580078ZM2.666016 -39.521484C2.255859 -39.521484 1.933594 -39.472656 1.699219 -39.375000C1.367188 -39.238281 1.059570 -39.028320 0.776367 -38.745117C0.493164 -38.461914 0.283203 -38.154297 0.146484 -37.822266C0.048828 -37.568359 0.000000 -37.236328 0.000000 -36.826172C0.000000 -36.416016 0.048828 -36.074219 0.146484 -35.800781C0.341797 -35.234375 0.693359 -34.687500 1.201172 -34.160156C1.474609 -33.867188 1.650391 -33.632812 1.728516 -33.457031C1.806641 -33.281250 1.845703 -33.037109 1.845703 -32.724609C1.826172 -32.470703 1.835938 -32.343750 1.875000 -32.343750C1.914062 -32.343750 1.943359 -32.236328 1.962891 -32.021484L2.021484 -31.728516L2.548828 -31.728516C2.861328 -31.728516 3.041992 -31.743164 3.090820 -31.772461C3.139648 -31.801758 3.164062 -31.914062 3.164062 -32.109375C3.164062 -32.265625 3.198242 -32.343750 3.266602 -32.343750C3.334961 -32.343750 3.369141 -32.392578 3.369141 -32.490234L3.369141 -32.636719L3.603516 -32.519531C3.935547 -32.343750 4.350586 -32.231445 4.848633 -32.182617C5.346680 -32.133789 5.751953 -32.167969 6.064453 -32.285156C6.259766 -32.363281 6.289062 -32.382812 6.152344 -32.343750C5.625000 -32.246094 5.097656 -32.231445 4.570312 -32.299805C4.042969 -32.368164 3.652344 -32.500000 3.398438 -32.695312L3.281250 -32.812500L3.369141 -33.222656C3.427734 -33.398438 3.486328 -33.535156 3.544922 -33.632812C3.603516 -33.730469 3.759766 -33.906250 4.013672 -34.160156C4.306641 -34.453125 4.536133 -34.721680 4.702148 -34.965820C4.868164 -35.209961 5.009766 -35.498047 5.126953 -35.830078C5.244141 -36.103516 5.302734 -36.440430 5.302734 -36.840820C5.302734 -37.241211 5.253906 -37.568359 5.156250 -37.822266C5.019531 -38.154297 4.814453 -38.461914 4.541016 -38.745117C4.267578 -39.028320 3.955078 -39.238281 3.603516 -39.375000C3.369141 -39.472656 3.056641 -39.521484 2.666016 -39.521484ZM8.759766 -39.433594C8.798828 -39.433594 8.867188 -39.394531 8.964844 -39.316406C9.062500 -39.238281 9.116211 -39.179688 9.125977 -39.140625C9.135742 -39.101562 9.116211 -39.028320 9.067383 -38.920898C9.018555 -38.813477 8.945312 -38.735352 8.847656 -38.686523C8.750000 -38.637695 8.681641 -38.613281 8.642578 -38.613281C8.603516 -38.613281 8.588867 -38.725586 8.598633 -38.950195C8.608398 -39.174805 8.632812 -39.311523 8.671875 -39.360352C8.710938 -39.409180 8.740234 -39.433594 8.759766 -39.433594ZM10.429688 -39.199219C10.488281 -39.199219 10.527344 -39.145508 10.546875 -39.038086C10.566406 -38.930664 10.556641 -38.803711 10.517578 -38.657227C10.478516 -38.510742 10.429688 -38.417969 10.371094 -38.378906C10.312500 -38.339844 10.244141 -38.354492 10.166016 -38.422852C10.087891 -38.491211 10.053711 -38.618164 10.063477 -38.803711C10.073242 -38.989258 10.117188 -39.091797 10.195312 -39.111328ZM16.699219 -39.199219C16.679688 -39.199219 16.669922 -39.160156 16.669922 -39.082031C16.669922 -38.945312 16.679688 -38.916016 16.699219 -38.994141C16.718750 -39.072266 16.718750 -39.140625 16.699219 -39.199219ZM7.734375 -38.789062L8.115234 -38.789062C8.291016 -38.789062 8.393555 -38.784180 8.422852 -38.774414C8.452148 -38.764648 8.471680 -38.720703 8.481445 -38.642578C8.491211 -38.564453 8.481445 -38.510742 8.452148 -38.481445C8.422852 -38.452148 8.349609 -38.408203 8.232422 -38.349609C8.037109 -38.271484 7.924805 -38.242188 7.895508 -38.261719C7.866211 -38.281250 7.822266 -38.408203 7.763672 -38.642578ZM10.722656 -38.789062C10.742188 -38.789062 10.791016 -38.779297 10.869141 -38.759766C11.005859 -38.740234 11.108398 -38.720703 11.176758 -38.701172C11.245117 -38.681641 11.284180 -38.632812 11.293945 -38.554688C11.303711 -38.476562 11.289062 -38.398438 11.250000 -38.320312C11.210938 -38.242188 11.171875 -38.203125 11.132812 -38.203125C11.093750 -38.203125 10.991211 -38.247070 10.825195 -38.334961C10.659180 -38.422852 10.585938 -38.496094 10.605469 -38.554688C10.625000 -38.613281 10.634766 -38.666992 10.634766 -38.715820C10.634766 -38.764648 10.664062 -38.789062 10.722656 -38.789062ZM9.023438 -38.613281C9.062500 -38.613281 9.082031 -38.603516 9.082031 -38.583984L9.082031 -38.408203C9.062500 -38.095703 8.964844 -38.066406 8.789062 -38.320312C8.710938 -38.417969 8.676758 -38.481445 8.686523 -38.510742C8.696289 -38.540039 8.769531 -38.564453 8.906250 -38.583984ZM9.433594 -38.613281C9.433594 -38.613281 9.438477 -38.603516 9.448242 -38.583984C9.458008 -38.564453 9.453125 -38.530273 9.433594 -38.481445C9.414062 -38.432617 9.404297 -38.437500 9.404297 -38.496094C9.404297 -38.554688 9.414062 -38.593750 9.433594 -38.613281ZM9.638672 -38.613281C9.658203 -38.613281 9.682617 -38.603516 9.711914 -38.583984C9.741211 -38.564453 9.736328 -38.515625 9.697266 -38.437500C9.658203 -38.359375 9.619141 -38.320312 9.580078 -38.320312C9.541016 -38.320312 9.521484 -38.364258 9.521484 -38.452148C9.521484 -38.540039 9.560547 -38.593750 9.638672 -38.613281ZM10.078125 -38.349609C10.097656 -38.349609 10.131836 -38.325195 10.180664 -38.276367C10.229492 -38.227539 10.244141 -38.188477 10.224609 -38.159180C10.205078 -38.129883 10.180664 -38.115234 10.151367 -38.115234C10.122070 -38.115234 10.092773 -38.149414 10.063477 -38.217773C10.034180 -38.286133 10.029297 -38.330078 10.048828 -38.349609ZM9.375000 -38.291016C9.375000 -38.291016 9.375000 -38.281250 9.375000 -38.261719C9.394531 -38.203125 9.394531 -38.149414 9.375000 -38.100586C9.355469 -38.051758 9.345703 -38.076172 9.345703 -38.173828C9.345703 -38.232422 9.355469 -38.271484 9.375000 -38.291016ZM9.726562 -38.261719C9.746094 -38.281250 9.765625 -38.247070 9.785156 -38.159180C9.804688 -38.071289 9.809570 -38.022461 9.799805 -38.012695C9.790039 -38.002930 9.760742 -38.027344 9.711914 -38.085938C9.663086 -38.144531 9.658203 -38.203125 9.697266 -38.261719ZM23.261719 -38.232422C23.339844 -38.232422 23.398438 -38.217773 23.437500 -38.188477C23.476562 -38.159180 23.496094 -38.129883 23.496094 -38.100586C23.496094 -38.071289 23.457031 -38.027344 23.378906 -37.968750C23.281250 -37.871094 23.222656 -37.822266 23.203125 -37.822266C23.183594 -37.822266 23.115234 -37.880859 22.998047 -37.998047C22.880859 -38.115234 22.851562 -38.173828 22.910156 -38.173828C22.968750 -38.173828 23.056641 -38.183594 23.173828 -38.203125ZM10.458984 -38.232422C10.478516 -38.232422 10.541992 -38.193359 10.649414 -38.115234C10.756836 -38.037109 10.830078 -37.973633 10.869141 -37.924805C10.908203 -37.875977 10.922852 -37.832031 10.913086 -37.792969C10.903320 -37.753906 10.859375 -37.695312 10.781250 -37.617188L10.605469 -37.441406L10.429688 -37.675781C10.332031 -37.832031 10.278320 -37.934570 10.268555 -37.983398C10.258789 -38.032227 10.283203 -38.095703 10.341797 -38.173828C10.380859 -38.193359 10.410156 -38.203125 10.429688 -38.203125ZM8.642578 -38.232422C8.681641 -38.212891 8.730469 -38.183594 8.789062 -38.144531L8.906250 -38.027344L8.701172 -37.763672C8.564453 -37.587891 8.486328 -37.500000 8.466797 -37.500000C8.447266 -37.500000 8.383789 -37.558594 8.276367 -37.675781C8.168945 -37.792969 8.115234 -37.866211 8.115234 -37.895508C8.115234 -37.924805 8.203125 -37.988281 8.378906 -38.085938C8.515625 -38.164062 8.603516 -38.203125 8.642578 -38.203125ZM22.412109 -38.115234C22.470703 -38.115234 22.509766 -38.105469 22.529297 -38.085938C22.548828 -38.066406 22.578125 -38.017578 22.617188 -37.939453C22.656250 -37.861328 22.675781 -37.812500 22.675781 -37.792969C22.675781 -37.773438 22.646484 -37.763672 22.587891 -37.763672C22.490234 -37.763672 22.363281 -37.797852 22.207031 -37.866211C22.050781 -37.934570 21.987305 -37.983398 22.016602 -38.012695C22.045898 -38.041992 22.138672 -38.066406 22.294922 -38.085938ZM9.550781 -38.085938C9.589844 -38.085938 9.624023 -38.066406 9.653320 -38.027344C9.682617 -37.988281 9.692383 -37.963867 9.682617 -37.954102C9.672852 -37.944336 9.633789 -37.939453 9.565430 -37.939453C9.497070 -37.939453 9.462891 -37.963867 9.462891 -38.012695C9.462891 -38.061523 9.482422 -38.085938 9.521484 -38.085938ZM11.103516 -37.734375L11.337891 -37.529297L11.572266 -37.353516L11.396484 -36.943359C11.279297 -36.669922 11.210938 -36.533203 11.191406 -36.533203C11.171875 -36.533203 11.083984 -36.650391 10.927734 -36.884766C10.771484 -37.119141 10.693359 -37.255859 10.693359 -37.294922C10.693359 -37.333984 10.761719 -37.421875 10.898438 -37.558594ZM8.935547 -37.529297C8.974609 -37.509766 8.974609 -37.451172 8.935547 -37.353516C8.916016 -37.294922 8.886719 -37.265625 8.847656 -37.265625C8.808594 -37.265625 8.808594 -37.314453 8.847656 -37.412109C8.886719 -37.470703 8.916016 -37.500000 8.935547 -37.500000ZM9.873047 -37.382812C9.873047 -37.382812 9.877930 -37.382812 9.887695 -37.382812C9.897461 -37.382812 9.902344 -37.343750 9.902344 -37.265625C9.902344 -37.187500 9.873047 -37.148438 9.814453 -37.148438C9.755859 -37.148438 9.726562 -37.153320 9.726562 -37.163086C9.726562 -37.172852 9.746094 -37.197266 9.785156 -37.236328ZM9.257812 -37.353516C9.257812 -37.353516 9.272461 -37.348633 9.301758 -37.338867C9.331055 -37.329102 9.345703 -37.294922 9.345703 -37.236328C9.345703 -37.177734 9.326172 -37.148438 9.287109 -37.148438C9.248047 -37.148438 9.228516 -37.182617 9.228516 -37.250977C9.228516 -37.319336 9.238281 -37.353516 9.257812 -37.353516ZM10.253906 -37.089844C10.292969 -37.089844 10.375977 -36.923828 10.502930 -36.591797C10.629883 -36.259766 10.717773 -36.079102 10.766602 -36.049805C10.815430 -36.020508 10.888672 -36.064453 10.986328 -36.181641C11.083984 -36.298828 11.035156 -36.162109 10.839844 -35.771484L10.605469 -35.302734C10.566406 -35.224609 10.541992 -35.180664 10.532227 -35.170898C10.522461 -35.161133 10.507812 -35.185547 10.488281 -35.244141C10.449219 -35.341797 10.395508 -35.668945 10.327148 -36.225586C10.258789 -36.782227 10.234375 -37.070312 10.253906 -37.089844ZM9.228516 -37.001953C9.267578 -37.001953 9.287109 -36.992188 9.287109 -36.972656C9.287109 -36.953125 9.262695 -36.933594 9.213867 -36.914062C9.165039 -36.894531 9.140625 -36.904297 9.140625 -36.943359C9.140625 -36.982422 9.169922 -37.001953 9.228516 -37.001953ZM9.902344 -37.001953C9.941406 -37.001953 9.960938 -36.982422 9.960938 -36.943359C9.960938 -36.904297 9.951172 -36.884766 9.931641 -36.884766C9.912109 -36.884766 9.887695 -36.904297 9.858398 -36.943359C9.829102 -36.982422 9.843750 -37.001953 9.902344 -37.001953ZM9.726562 -36.796875C9.746094 -36.796875 9.780273 -36.777344 9.829102 -36.738281C9.877930 -36.699219 9.902344 -36.674805 9.902344 -36.665039C9.902344 -36.655273 9.868164 -36.650391 9.799805 -36.650391C9.731445 -36.650391 9.697266 -36.674805 9.697266 -36.723633C9.697266 -36.772461 9.707031 -36.796875 9.726562 -36.796875ZM22.500000 -36.357422C22.578125 -36.357422 22.675781 -36.289062 22.792969 -36.152344C22.851562 -36.113281 22.880859 -36.083984 22.880859 -36.064453C22.880859 -36.044922 22.841797 -36.025391 22.763672 -36.005859C22.509766 -35.947266 22.333984 -35.947266 22.236328 -36.005859C22.197266 -36.044922 22.226562 -36.123047 22.324219 -36.240234C22.382812 -36.318359 22.441406 -36.357422 22.500000 -36.357422ZM9.814453 -36.328125C9.853516 -36.328125 9.873047 -36.323242 9.873047 -36.313477C9.873047 -36.303711 9.853516 -36.274414 9.814453 -36.225586C9.775391 -36.176758 9.746094 -36.152344 9.726562 -36.152344C9.707031 -36.152344 9.697266 -36.181641 9.697266 -36.240234C9.697266 -36.298828 9.736328 -36.328125 9.814453 -36.328125ZM10.019531 -36.152344C10.058594 -36.152344 10.087891 -36.059570 10.107422 -35.874023C10.126953 -35.688477 10.131836 -35.585938 10.122070 -35.566406C10.112305 -35.546875 10.039062 -35.595703 9.902344 -35.712891L9.697266 -35.859375L9.843750 -36.005859C9.941406 -36.103516 10.000000 -36.152344 10.019531 -36.152344ZM9.082031 -36.093750C9.121094 -36.093750 9.140625 -36.044922 9.140625 -35.947266C9.140625 -35.849609 9.165039 -35.791016 9.213867 -35.771484C9.262695 -35.751953 9.228516 -35.693359 9.111328 -35.595703L8.964844 -35.449219L8.994141 -35.654297C9.013672 -35.791016 9.023438 -35.898438 9.023438 -35.976562C9.023438 -36.054688 9.042969 -36.093750 9.082031 -36.093750ZM22.910156 -35.917969C22.949219 -35.917969 22.978516 -35.878906 22.998047 -35.800781C23.017578 -35.722656 23.071289 -35.644531 23.159180 -35.566406C23.247070 -35.488281 23.291016 -35.434570 23.291016 -35.405273C23.291016 -35.375977 23.256836 -35.327148 23.188477 -35.258789C23.120117 -35.190430 23.022461 -35.029297 22.895508 -34.775391C22.768555 -34.521484 22.578125 -34.262695 22.324219 -33.999023C22.070312 -33.735352 21.894531 -33.540039 21.796875 -33.413086C21.699219 -33.286133 21.616211 -33.217773 21.547852 -33.208008C21.479492 -33.198242 21.347656 -33.232422 21.152344 -33.310547C20.703125 -33.486328 20.234375 -33.486328 19.746094 -33.310547C19.316406 -33.173828 18.925781 -33.173828 18.574219 -33.310547C18.496094 -33.349609 18.447266 -33.388672 18.427734 -33.427734C18.408203 -33.466797 18.398438 -33.554688 18.398438 -33.691406L18.398438 -33.984375L18.750000 -33.984375C18.964844 -33.984375 19.072266 -34.018555 19.072266 -34.086914C19.072266 -34.155273 19.111328 -34.189453 19.189453 -34.189453C19.267578 -34.189453 19.384766 -34.223633 19.541016 -34.291992C19.697266 -34.360352 19.833984 -34.443359 19.951172 -34.541016L20.097656 -34.658203L19.599609 -34.658203C19.326172 -34.658203 19.082031 -34.682617 18.867188 -34.731445C18.652344 -34.780273 18.579102 -34.824219 18.647461 -34.863281C18.715820 -34.902344 18.706055 -34.921875 18.618164 -34.921875C18.530273 -34.921875 18.481445 -34.926758 18.471680 -34.936523C18.461914 -34.946289 18.476562 -34.960938 18.515625 -34.980469C18.554688 -35.000000 18.574219 -35.019531 18.574219 -35.039062C18.574219 -35.058594 18.559570 -35.078125 18.530273 -35.097656C18.500977 -35.117188 18.486328 -35.131836 18.486328 -35.141602C18.486328 -35.151367 18.505859 -35.166016 18.544922 -35.185547C18.583984 -35.205078 18.564453 -35.253906 18.486328 -35.332031C18.408203 -35.410156 18.359375 -35.419922 18.339844 -35.361328C18.320312 -35.302734 18.271484 -35.273438 18.193359 -35.273438C18.115234 -35.273438 18.066406 -35.288086 18.046875 -35.317383C18.027344 -35.346680 18.022461 -35.395508 18.032227 -35.463867C18.041992 -35.532227 18.066406 -35.581055 18.105469 -35.610352C18.144531 -35.639648 18.222656 -35.664062 18.339844 -35.683594C18.515625 -35.703125 18.710938 -35.673828 18.925781 -35.595703L19.248047 -35.449219L19.892578 -35.595703C20.322266 -35.693359 20.625000 -35.732422 20.800781 -35.712891C21.406250 -35.654297 21.777344 -35.683594 21.914062 -35.800781C21.992188 -35.878906 22.124023 -35.908203 22.309570 -35.888672C22.495117 -35.869141 22.646484 -35.869141 22.763672 -35.888672C22.822266 -35.908203 22.871094 -35.917969 22.910156 -35.917969ZM9.580078 -35.712891L9.814453 -35.566406C9.951172 -35.449219 10.019531 -35.385742 10.019531 -35.375977C10.019531 -35.366211 9.887695 -35.361328 9.624023 -35.361328C9.360352 -35.361328 9.228516 -35.375977 9.228516 -35.405273C9.228516 -35.434570 9.287109 -35.498047 9.404297 -35.595703ZM25.253906 -35.566406C25.351562 -35.566406 25.488281 -35.537109 25.664062 -35.478516C25.839844 -35.419922 25.927734 -35.375977 25.927734 -35.346680C25.927734 -35.317383 25.976562 -35.234375 26.074219 -35.097656L26.220703 -34.863281L26.074219 -34.833984C25.976562 -34.814453 25.903320 -34.809570 25.854492 -34.819336C25.805664 -34.829102 25.649414 -34.897461 25.385742 -35.024414C25.122070 -35.151367 24.970703 -35.234375 24.931641 -35.273438C24.892578 -35.312500 24.907227 -35.366211 24.975586 -35.434570C25.043945 -35.502930 25.107422 -35.546875 25.166016 -35.566406ZM27.304688 -35.537109C27.519531 -35.537109 27.626953 -35.517578 27.626953 -35.478516C27.626953 -35.439453 27.524414 -35.336914 27.319336 -35.170898C27.114258 -35.004883 26.987305 -34.921875 26.938477 -34.921875C26.889648 -34.921875 26.831055 -34.912109 26.762695 -34.892578C26.694336 -34.873047 26.660156 -34.868164 26.660156 -34.877930C26.660156 -34.887695 26.689453 -34.941406 26.748047 -35.039062C26.806641 -35.156250 26.835938 -35.253906 26.835938 -35.332031C26.835938 -35.410156 26.865234 -35.463867 26.923828 -35.493164C26.982422 -35.522461 27.080078 -35.537109 27.216797 -35.537109ZM26.308594 -35.419922C26.503906 -35.419922 26.616211 -35.395508 26.645508 -35.346680C26.674805 -35.297852 26.640625 -35.214844 26.542969 -35.097656C26.464844 -35.019531 26.406250 -34.980469 26.367188 -34.980469C26.328125 -34.980469 26.269531 -35.029297 26.191406 -35.126953C26.054688 -35.263672 25.996094 -35.346680 26.015625 -35.375977C26.035156 -35.405273 26.132812 -35.419922 26.308594 -35.419922ZM18.164062 -35.156250C18.203125 -35.156250 18.232422 -35.156250 18.251953 -35.156250C18.330078 -35.136719 18.305664 -35.126953 18.178711 -35.126953C18.051758 -35.126953 18.017578 -35.136719 18.076172 -35.156250ZM9.082031 -35.039062L9.550781 -35.039062L10.048828 -35.039062L9.843750 -34.863281C9.687500 -34.746094 9.599609 -34.687500 9.580078 -34.687500C9.560547 -34.687500 9.472656 -34.746094 9.316406 -34.863281ZM18.164062 -34.980469C18.203125 -34.980469 18.232422 -34.970703 18.251953 -34.951172C18.330078 -34.931641 18.305664 -34.921875 18.178711 -34.921875C18.051758 -34.921875 18.017578 -34.931641 18.076172 -34.951172ZM8.906250 -34.863281C8.945312 -34.863281 9.028320 -34.819336 9.155273 -34.731445C9.282227 -34.643555 9.345703 -34.584961 9.345703 -34.555664C9.345703 -34.526367 9.248047 -34.443359 9.052734 -34.306641L8.759766 -34.101562L8.818359 -34.306641C8.837891 -34.423828 8.847656 -34.545898 8.847656 -34.672852C8.847656 -34.799805 8.867188 -34.863281 8.906250 -34.863281ZM10.224609 -34.863281C10.224609 -34.863281 10.229492 -34.858398 10.239258 -34.848633C10.249023 -34.838867 10.253906 -34.814453 10.253906 -34.775391C10.253906 -34.736328 10.214844 -34.658203 10.136719 -34.541016C10.058594 -34.462891 10.004883 -34.418945 9.975586 -34.409180C9.946289 -34.399414 9.907227 -34.414062 9.858398 -34.453125C9.809570 -34.492188 9.790039 -34.521484 9.799805 -34.541016C9.809570 -34.560547 9.873047 -34.614258 9.990234 -34.702148C10.107422 -34.790039 10.185547 -34.833984 10.224609 -34.833984ZM9.550781 -34.365234C9.570312 -34.365234 9.584961 -34.365234 9.594727 -34.365234C9.604492 -34.365234 9.638672 -34.345703 9.697266 -34.306641C9.794922 -34.228516 9.829102 -34.155273 9.799805 -34.086914C9.770508 -34.018555 9.633789 -33.984375 9.389648 -33.984375C9.145508 -33.984375 9.023438 -33.994141 9.023438 -34.013672C9.023438 -34.033203 9.111328 -34.101562 9.287109 -34.218750C9.423828 -34.316406 9.511719 -34.365234 9.550781 -34.365234ZM9.169922 -33.691406C9.326172 -33.691406 9.414062 -33.686523 9.433594 -33.676758C9.453125 -33.666992 9.428711 -33.627930 9.360352 -33.559570C9.291992 -33.491211 9.243164 -33.457031 9.213867 -33.457031C9.184570 -33.457031 9.121094 -33.496094 9.023438 -33.574219L8.876953 -33.691406ZM8.759766 -33.457031C8.779297 -33.457031 8.828125 -33.427734 8.906250 -33.369141C8.984375 -33.310547 9.023438 -33.271484 9.023438 -33.251953C9.023438 -33.232422 8.989258 -33.183594 8.920898 -33.105469C8.852539 -33.027344 8.789062 -32.973633 8.730469 -32.944336C8.671875 -32.915039 8.637695 -32.915039 8.627930 -32.944336C8.618164 -32.973633 8.623047 -33.037109 8.642578 -33.134766C8.662109 -33.349609 8.701172 -33.457031 8.759766 -33.457031ZM2.373047 -33.310547C2.392578 -33.310547 2.421875 -33.310547 2.460938 -33.310547L3.310547 -33.310547L3.281250 -33.076172C3.242188 -32.919922 3.212891 -32.827148 3.193359 -32.797852C3.173828 -32.768555 2.968750 -32.753906 2.578125 -32.753906C2.246094 -32.753906 2.045898 -32.773438 1.977539 -32.812500C1.909180 -32.851562 1.875000 -32.968750 1.875000 -33.164062C1.875000 -33.242188 1.899414 -33.286133 1.948242 -33.295898C1.997070 -33.305664 2.138672 -33.310547 2.373047 -33.310547ZM23.730469 -28.710938C23.730469 -28.710938 23.740234 -28.710938 23.759766 -28.710938C23.779297 -28.710938 23.813477 -28.657227 23.862305 -28.549805C23.911133 -28.442383 23.935547 -28.374023 23.935547 -28.344727C23.935547 -28.315430 23.901367 -28.310547 23.833008 -28.330078C23.764648 -28.349609 23.720703 -28.378906 23.701172 -28.417969L23.671875 -28.564453C23.652344 -28.603516 23.662109 -28.642578 23.701172 -28.681641C23.701172 -28.701172 23.710938 -28.710938 23.730469 -28.710938ZM23.496094 -28.681641C23.496094 -28.681641 23.500977 -28.642578 23.510742 -28.564453C23.520508 -28.486328 23.510742 -28.417969 23.481445 -28.359375C23.452148 -28.300781 23.417969 -28.271484 23.378906 -28.271484C23.339844 -28.271484 23.325195 -28.310547 23.334961 -28.388672C23.344727 -28.466797 23.374023 -28.535156 23.422852 -28.593750C23.471680 -28.652344 23.496094 -28.681641 23.496094 -28.681641ZM22.617188 -28.066406C22.675781 -28.066406 22.675781 -27.949219 22.617188 -27.714844C22.558594 -27.480469 22.500000 -27.294922 22.441406 -27.158203L22.353516 -26.923828L22.382812 -27.187500C22.421875 -27.675781 22.480469 -27.949219 22.558594 -28.007812C22.597656 -28.046875 22.617188 -28.066406 22.617188 -28.066406ZM22.236328 -27.480469L22.207031 -27.275391C22.167969 -27.138672 22.128906 -26.992188 22.089844 -26.835938C22.050781 -26.718750 22.016602 -26.650391 21.987305 -26.630859C21.958008 -26.611328 21.875000 -26.601562 21.738281 -26.601562C21.601562 -26.601562 21.459961 -26.625977 21.313477 -26.674805C21.166992 -26.723633 21.093750 -26.762695 21.093750 -26.791992C21.093750 -26.821289 21.176758 -26.826172 21.342773 -26.806641C21.508789 -26.787109 21.635742 -26.801758 21.723633 -26.850586C21.811523 -26.899414 21.914062 -27.021484 22.031250 -27.216797ZM20.800781 -26.923828L21.005859 -26.718750C21.123047 -26.621094 21.269531 -26.542969 21.445312 -26.484375C21.621094 -26.425781 21.748047 -26.411133 21.826172 -26.440430C21.904297 -26.469727 21.933594 -26.450195 21.914062 -26.381836C21.894531 -26.313477 21.835938 -26.240234 21.738281 -26.162109C21.621094 -26.064453 21.508789 -26.025391 21.401367 -26.044922C21.293945 -26.064453 21.162109 -26.152344 21.005859 -26.308594C20.888672 -26.425781 20.815430 -26.508789 20.786133 -26.557617C20.756836 -26.606445 20.751953 -26.669922 20.771484 -26.748047ZM17.285156 -25.693359C17.382812 -25.693359 17.563477 -25.605469 17.827148 -25.429688C18.090820 -25.253906 18.286133 -25.156250 18.413086 -25.136719C18.540039 -25.117188 18.613281 -25.092773 18.632812 -25.063477C18.652344 -25.034180 18.613281 -24.980469 18.515625 -24.902344C18.222656 -24.707031 17.871094 -24.853516 17.460938 -25.341797C17.304688 -25.537109 17.226562 -25.644531 17.226562 -25.664062C17.226562 -25.683594 17.246094 -25.693359 17.285156 -25.693359ZM17.285156 -25.693359"></path></svg>