<svg width="29.648438" height="23.437500" viewBox="-0.175781 -46.757812 29.648438 23.437500" xmlns="http://www.w3.org/2000/svg"><path d="M-0.175781 -46.757812L14.648438 -23.320312L29.472656 -46.757812L18.896484 -46.757812L18.896484 -43.916016C19.072266 -43.837891 19.218750 -43.720703 19.335938 -43.564453C19.453125 -43.408203 19.511719 -43.232422 19.511719 -43.037109C19.511719 -42.763672 19.414062 -42.534180 19.218750 -42.348633C19.023438 -42.163086 18.793945 -42.070312 18.530273 -42.070312C18.266602 -42.070312 18.041992 -42.163086 17.856445 -42.348633C17.670898 -42.534180 17.578125 -42.763672 17.578125 -43.037109C17.578125 -43.232422 17.631836 -43.408203 17.739258 -43.564453C17.846680 -43.720703 17.988281 -43.837891 18.164062 -43.916016L18.164062 -46.757812L11.425781 -46.757812L11.425781 -43.916016C11.601562 -43.837891 11.748047 -43.720703 11.865234 -43.564453C11.982422 -43.408203 12.041016 -43.232422 12.041016 -43.037109C12.041016 -42.763672 11.943359 -42.534180 11.748047 -42.348633C11.552734 -42.163086 11.323242 -42.070312 11.059570 -42.070312C10.795898 -42.070312 10.571289 -42.163086 10.385742 -42.348633C10.200195 -42.534180 10.107422 -42.763672 10.107422 -43.037109C10.107422 -43.232422 10.161133 -43.408203 10.268555 -43.564453C10.375977 -43.720703 10.517578 -43.837891 10.693359 -43.916016L10.693359 -46.757812ZM-0.175781 -46.757812"></path></svg>