<svg width="15.273438" height="24.902344" viewBox="7.011719 -49.746094 15.273438 24.902344" xmlns="http://www.w3.org/2000/svg"><path d="M12.949219 -49.746094C12.558594 -49.726562 12.211914 -49.580078 11.909180 -49.306641C11.606445 -49.033203 11.435547 -48.710938 11.396484 -48.339844C11.337891 -47.890625 11.425781 -47.373047 11.660156 -46.787109L11.894531 -46.230469C11.972656 -45.996094 12.001953 -45.791016 11.982422 -45.615234L11.894531 -43.652344C11.835938 -42.910156 11.757812 -42.255859 11.660156 -41.689453C11.523438 -41.923828 11.250000 -42.392578 10.839844 -43.095703C10.507812 -43.701172 10.214844 -44.160156 9.960938 -44.472656C9.570312 -44.980469 9.140625 -45.253906 8.671875 -45.292969C8.300781 -45.332031 7.949219 -45.224609 7.617188 -44.970703C7.285156 -44.716797 7.089844 -44.404297 7.031250 -44.033203C7.011719 -43.818359 7.041016 -43.583984 7.119141 -43.330078L7.382812 -42.656250C7.500000 -42.343750 7.753906 -41.660156 8.144531 -40.605469C8.437500 -39.746094 8.710938 -39.072266 8.964844 -38.583984L9.287109 -37.998047C9.404297 -37.763672 9.501953 -37.558594 9.580078 -37.382812C9.658203 -37.167969 9.716797 -36.962891 9.755859 -36.767578C9.873047 -36.279297 9.980469 -35.654297 10.078125 -34.892578L10.371094 -33.017578C10.468750 -32.392578 10.517578 -32.089844 10.517578 -32.109375C10.576172 -31.777344 10.654297 -31.484375 10.751953 -31.230469C10.830078 -31.035156 10.986328 -30.756836 11.220703 -30.395508C11.455078 -30.034180 11.611328 -29.755859 11.689453 -29.560547C11.767578 -29.365234 11.875000 -28.945312 12.011719 -28.300781L12.744141 -24.843750C13.583984 -25.000000 14.746094 -25.224609 16.230469 -25.517578L20.566406 -26.337891C20.898438 -26.396484 21.171875 -26.455078 21.386719 -26.513672C21.679688 -26.572266 21.953125 -26.650391 22.207031 -26.748047C22.167969 -27.177734 22.080078 -27.724609 21.943359 -28.388672L21.591797 -30.000000C21.474609 -30.625000 21.425781 -31.171875 21.445312 -31.640625C21.445312 -31.933594 21.484375 -32.246094 21.562500 -32.578125C21.621094 -32.773438 21.708984 -33.076172 21.826172 -33.486328C21.943359 -33.896484 22.021484 -34.208984 22.060547 -34.423828L22.177734 -34.863281C22.216797 -35.039062 22.246094 -35.185547 22.265625 -35.302734C22.285156 -35.458984 22.285156 -35.605469 22.265625 -35.742188C22.226562 -35.937500 22.138672 -36.152344 22.001953 -36.386719C21.943359 -36.503906 21.816406 -36.694336 21.621094 -36.958008C21.425781 -37.221680 21.289062 -37.431641 21.210938 -37.587891C21.132812 -37.744141 21.083984 -37.949219 21.064453 -38.203125C21.064453 -38.125000 21.064453 -38.339844 21.064453 -38.847656C21.044922 -39.550781 21.083984 -40.449219 21.181641 -41.542969C21.337891 -43.085938 21.416016 -43.984375 21.416016 -44.238281C21.474609 -45.253906 21.464844 -46.152344 21.386719 -46.933594C21.347656 -47.265625 21.308594 -47.519531 21.269531 -47.695312C21.210938 -47.968750 21.132812 -48.203125 21.035156 -48.398438C20.839844 -48.789062 20.546875 -49.042969 20.156250 -49.160156C19.882812 -49.238281 19.604492 -49.252930 19.321289 -49.204102C19.038086 -49.155273 18.789062 -49.033203 18.574219 -48.837891C18.222656 -48.525391 17.968750 -48.037109 17.812500 -47.373047C17.695312 -46.943359 17.587891 -46.328125 17.490234 -45.527344C17.373047 -44.667969 17.275391 -44.052734 17.197266 -43.681641L16.787109 -44.531250C16.630859 -44.882812 16.503906 -45.180664 16.406250 -45.424805C16.308594 -45.668945 16.220703 -45.957031 16.142578 -46.289062L15.996094 -47.197266C15.957031 -47.568359 15.908203 -47.871094 15.849609 -48.105469C15.771484 -48.417969 15.668945 -48.701172 15.541992 -48.955078C15.415039 -49.208984 15.209961 -49.399414 14.926758 -49.526367C14.643555 -49.653320 14.345703 -49.716797 14.033203 -49.716797C13.896484 -49.697266 13.720703 -49.697266 13.505859 -49.716797ZM12.978516 -49.072266C12.998047 -49.072266 13.017578 -49.072266 13.037109 -49.072266L14.414062 -48.984375L14.560547 -48.955078C14.794922 -48.896484 14.980469 -48.769531 15.117188 -48.574219L15.205078 -48.427734L15.322266 -48.105469C15.361328 -47.968750 15.400391 -47.822266 15.439453 -47.666016C15.458984 -47.490234 15.488281 -47.275391 15.527344 -47.021484L15.703125 -45.908203C15.761719 -45.498047 15.859375 -45.146484 15.996094 -44.853516L16.347656 -44.091797C16.503906 -43.720703 16.650391 -43.398438 16.787109 -43.125000L17.226562 -42.392578L17.578125 -41.865234C17.617188 -42.119141 17.656250 -42.402344 17.695312 -42.714844C17.675781 -42.597656 17.714844 -43.017578 17.812500 -43.974609C17.871094 -44.482422 17.929688 -44.902344 17.988281 -45.234375L18.105469 -46.054688C18.144531 -46.386719 18.183594 -46.650391 18.222656 -46.845703C18.281250 -47.158203 18.354492 -47.421875 18.442383 -47.636719C18.530273 -47.851562 18.623047 -48.017578 18.720703 -48.134766L18.779297 -48.193359L18.984375 -48.369141L19.189453 -48.457031C19.287109 -48.496094 19.384766 -48.515625 19.482422 -48.515625L19.570312 -48.544922C19.667969 -48.544922 19.765625 -48.535156 19.863281 -48.515625L20.156250 -48.427734C20.351562 -48.369141 20.517578 -48.261719 20.654297 -48.105469L20.742188 -47.958984L20.830078 -47.812500L20.917969 -47.666016C20.996094 -47.451172 21.054688 -47.216797 21.093750 -46.962891L21.123047 -46.787109L21.152344 -45.527344C21.152344 -45.156250 21.142578 -44.746094 21.123047 -44.296875L20.859375 -40.810547C20.800781 -39.853516 20.771484 -38.974609 20.771484 -38.173828L20.771484 -38.027344L20.800781 -37.646484C20.839844 -37.470703 20.893555 -37.324219 20.961914 -37.207031C21.030273 -37.089844 21.171875 -36.865234 21.386719 -36.533203C21.582031 -36.279297 21.708984 -36.054688 21.767578 -35.859375C21.806641 -35.800781 21.826172 -35.732422 21.826172 -35.654297L21.855469 -35.507812L21.855469 -35.156250C21.835938 -34.902344 21.796875 -34.619141 21.738281 -34.306641L21.562500 -33.574219L21.210938 -32.138672C21.132812 -31.806641 21.103516 -31.513672 21.123047 -31.259766C21.123047 -30.927734 21.162109 -30.546875 21.240234 -30.117188L21.679688 -28.183594C21.718750 -27.988281 21.748047 -27.802734 21.767578 -27.626953L21.796875 -27.363281C21.816406 -27.167969 21.816406 -26.972656 21.796875 -26.777344L21.562500 -27.216797L21.445312 -27.421875L21.416016 -27.539062L20.859375 -30.292969L20.742188 -31.171875L19.921875 -30.966797L20.449219 -31.611328L20.683594 -31.962891C20.761719 -32.099609 20.820312 -32.226562 20.859375 -32.343750C20.937500 -32.597656 21.015625 -32.880859 21.093750 -33.193359L21.386719 -34.365234L21.445312 -34.833984L21.474609 -35.273438L21.416016 -35.537109L21.328125 -35.859375C21.250000 -36.035156 21.113281 -36.250000 20.917969 -36.503906L20.390625 -37.207031C20.097656 -37.558594 19.765625 -37.900391 19.394531 -38.232422L19.072266 -38.525391C18.857422 -38.662109 18.642578 -38.769531 18.427734 -38.847656C18.291016 -38.886719 18.125000 -38.916016 17.929688 -38.935547C17.734375 -38.974609 17.480469 -38.994141 17.167969 -38.994141C16.464844 -38.994141 16.210938 -38.994141 16.406250 -38.994141L16.376953 -38.437500L16.289062 -38.085938L16.201172 -37.910156C16.162109 -37.851562 16.123047 -37.802734 16.083984 -37.763672C16.044922 -37.724609 15.996094 -37.685547 15.937500 -37.646484L15.761719 -37.558594C15.605469 -37.480469 15.449219 -37.421875 15.292969 -37.382812L15.000000 -37.353516L14.267578 -37.294922L13.710938 -37.265625C13.789062 -37.167969 13.886719 -37.070312 14.003906 -36.972656L14.150391 -36.855469C14.404297 -36.679688 14.687500 -36.513672 15.000000 -36.357422L15.380859 -36.210938L15.937500 -36.035156C16.132812 -35.976562 16.328125 -35.937500 16.523438 -35.917969L16.816406 -35.888672L16.962891 -35.888672C17.060547 -35.908203 17.158203 -35.927734 17.255859 -35.947266L17.373047 -35.976562C17.529297 -36.035156 17.753906 -36.132812 18.046875 -36.269531C18.339844 -36.406250 18.564453 -36.494141 18.720703 -36.533203L18.574219 -36.357422C18.398438 -36.162109 18.173828 -35.976562 17.900391 -35.800781L17.578125 -35.625000L17.167969 -35.390625L17.431641 -34.833984L17.666016 -34.482422L17.958984 -34.189453L18.251953 -34.042969L18.486328 -33.955078C18.623047 -33.916016 18.789062 -33.896484 18.984375 -33.896484L19.101562 -33.896484C19.238281 -33.916016 19.414062 -33.935547 19.628906 -33.955078L20.126953 -34.042969L19.863281 -33.837891C19.707031 -33.740234 19.560547 -33.662109 19.423828 -33.603516L19.277344 -33.544922C19.179688 -33.525391 19.091797 -33.515625 19.013672 -33.515625L18.925781 -33.515625C18.867188 -33.496094 18.798828 -33.496094 18.720703 -33.515625L18.486328 -33.544922C18.408203 -33.583984 18.271484 -33.632812 18.076172 -33.691406L17.753906 -33.808594L17.548828 -33.867188L17.226562 -33.896484C17.070312 -33.857422 16.904297 -33.779297 16.728516 -33.662109L15.996094 -33.105469C16.054688 -33.281250 16.142578 -33.466797 16.259766 -33.662109L16.640625 -34.335938L16.640625 -34.453125C16.660156 -34.550781 16.640625 -34.667969 16.582031 -34.804688L16.406250 -35.097656L16.318359 -35.244141L16.142578 -35.390625C16.044922 -35.449219 15.917969 -35.507812 15.761719 -35.566406C15.957031 -35.488281 15.810547 -35.517578 15.322266 -35.654297C15.029297 -35.732422 14.785156 -35.810547 14.589844 -35.888672C14.472656 -35.947266 14.355469 -35.996094 14.238281 -36.035156C13.964844 -36.191406 13.740234 -36.376953 13.564453 -36.591797L13.476562 -36.708984L13.359375 -36.972656L13.271484 -37.207031C13.251953 -37.304688 13.242188 -37.402344 13.242188 -37.500000L13.242188 -37.910156L13.300781 -38.320312L13.417969 -38.701172L13.593750 -39.052734L13.710938 -39.169922L13.769531 -39.228516C13.808594 -39.248047 13.862305 -39.267578 13.930664 -39.287109C13.999023 -39.306641 14.072266 -39.316406 14.150391 -39.316406L15.556641 -39.257812L16.318359 -39.316406C16.630859 -39.316406 16.884766 -39.316406 17.080078 -39.316406L17.431641 -39.316406L18.251953 -39.228516L18.486328 -39.199219L18.808594 -39.111328L19.013672 -39.023438L19.306641 -38.847656C19.443359 -38.730469 19.619141 -38.574219 19.833984 -38.378906L20.332031 -37.910156C20.371094 -38.164062 20.400391 -38.457031 20.419922 -38.789062L20.478516 -40.488281L20.654297 -43.212891L20.800781 -46.318359C20.800781 -46.689453 20.771484 -46.992188 20.712891 -47.226562L20.654297 -47.431641C20.595703 -47.607422 20.517578 -47.763672 20.419922 -47.900391C20.380859 -47.958984 20.332031 -48.007812 20.273438 -48.046875L20.126953 -48.164062C20.048828 -48.203125 19.965820 -48.227539 19.877930 -48.237305C19.790039 -48.247070 19.707031 -48.251953 19.628906 -48.251953C19.277344 -48.251953 19.023438 -48.115234 18.867188 -47.841797L18.750000 -47.548828C18.710938 -47.451172 18.671875 -47.343750 18.632812 -47.226562C18.593750 -47.070312 18.535156 -46.708984 18.457031 -46.142578C18.261719 -44.345703 18.134766 -42.968750 18.076172 -42.011719L18.046875 -40.634766C18.242188 -40.595703 18.432617 -40.556641 18.618164 -40.517578C18.803711 -40.478516 18.994141 -40.439453 19.189453 -40.400391C19.072266 -40.341797 18.955078 -40.292969 18.837891 -40.253906L18.603516 -40.195312L18.222656 -40.107422C18.046875 -40.087891 17.880859 -40.068359 17.724609 -40.048828L17.197266 -40.019531L17.636719 -40.576172L17.167969 -41.601562L16.757812 -42.363281C16.562500 -42.675781 16.425781 -42.919922 16.347656 -43.095703C16.093750 -43.662109 15.908203 -44.072266 15.791016 -44.326172C15.751953 -43.916016 15.732422 -43.271484 15.732422 -42.392578L15.703125 -41.367188L15.703125 -40.224609L16.435547 -39.931641C16.123047 -39.814453 15.917969 -39.741211 15.820312 -39.711914C15.722656 -39.682617 15.625000 -39.658203 15.527344 -39.638672L15.380859 -39.609375L15.087891 -39.638672L14.853516 -39.697266L14.619141 -39.814453L14.296875 -39.990234L15.175781 -40.078125C15.253906 -40.781250 15.263672 -41.455078 15.205078 -42.099609C14.755859 -42.236328 14.433594 -42.333984 14.238281 -42.392578C13.886719 -42.509766 13.583984 -42.646484 13.330078 -42.802734L13.798828 -42.773438L14.267578 -42.714844L15.234375 -42.568359C15.253906 -42.744141 15.273438 -42.929688 15.292969 -43.125000L15.322266 -43.417969L15.322266 -43.974609C15.322266 -44.228516 15.312500 -44.511719 15.292969 -44.824219C15.019531 -44.902344 14.697266 -44.960938 14.326172 -45.000000L13.359375 -45.146484C13.632812 -45.302734 13.955078 -45.380859 14.326172 -45.380859C14.580078 -45.380859 14.921875 -45.351562 15.351562 -45.292969C15.332031 -45.781250 15.273438 -46.318359 15.175781 -46.904297L15.087891 -47.431641L15.000000 -47.958984C14.941406 -48.154297 14.873047 -48.320312 14.794922 -48.457031L14.707031 -48.574219L14.560547 -48.662109L14.355469 -48.750000L14.208984 -48.779297C14.091797 -48.779297 13.984375 -48.759766 13.886719 -48.720703L13.828125 -48.691406C13.789062 -48.652344 13.750000 -48.623047 13.710938 -48.603516L13.623047 -48.515625L13.476562 -48.310547C13.417969 -48.212891 13.369141 -48.095703 13.330078 -47.958984L13.183594 -47.519531C13.125000 -47.265625 13.066406 -46.787109 13.007812 -46.083984L12.861328 -44.736328C12.802734 -44.326172 12.763672 -44.003906 12.744141 -43.769531L12.597656 -40.429688L12.568359 -39.433594L13.359375 -39.580078L13.037109 -39.199219C12.900391 -39.042969 12.768555 -38.925781 12.641602 -38.847656C12.514648 -38.769531 12.353516 -38.701172 12.158203 -38.642578C12.041016 -38.603516 11.865234 -38.564453 11.630859 -38.525391L12.070312 -39.111328L11.132812 -40.869141C10.625000 -41.826172 10.205078 -42.597656 9.873047 -43.183594L9.521484 -43.740234L9.199219 -44.150391C9.082031 -44.267578 8.964844 -44.335938 8.847656 -44.355469L8.789062 -44.384766C8.730469 -44.384766 8.671875 -44.375000 8.613281 -44.355469L8.496094 -44.326172L8.232422 -44.238281L8.115234 -44.150391L7.998047 -44.062500C7.978516 -44.023438 7.958984 -43.984375 7.939453 -43.945312C7.919922 -43.906250 7.905273 -43.862305 7.895508 -43.813477C7.885742 -43.764648 7.890625 -43.720703 7.910156 -43.681641L7.939453 -43.359375L8.027344 -43.066406C8.066406 -42.929688 8.105469 -42.783203 8.144531 -42.626953L8.671875 -41.337891L9.199219 -39.843750C9.296875 -39.550781 9.394531 -39.296875 9.492188 -39.082031L9.697266 -38.613281L10.048828 -37.910156C10.322266 -37.363281 10.546875 -36.914062 10.722656 -36.562500L11.015625 -36.533203C11.289062 -36.533203 11.582031 -36.513672 11.894531 -36.474609L11.337891 -36.240234C11.123047 -36.142578 10.937500 -36.074219 10.781250 -36.035156C10.820312 -35.722656 10.898438 -35.205078 11.015625 -34.482422L11.220703 -32.929688C11.318359 -32.187500 11.455078 -31.650391 11.630859 -31.318359L11.835938 -30.966797L12.070312 -30.673828L12.246094 -30.527344C12.402344 -30.429688 12.597656 -30.312500 12.832031 -30.175781C13.281250 -29.941406 13.486328 -29.833984 13.447266 -29.853516L12.626953 -29.824219L12.773438 -28.974609L13.330078 -26.425781C13.349609 -26.347656 13.369141 -26.259766 13.388672 -26.162109L13.388672 -25.781250C13.369141 -25.664062 13.349609 -25.527344 13.330078 -25.371094C13.212891 -25.683594 13.105469 -26.054688 13.007812 -26.484375L12.597656 -28.476562L12.451172 -29.033203L12.363281 -29.296875L12.158203 -29.824219C12.099609 -29.941406 12.031250 -30.068359 11.953125 -30.205078L11.572266 -30.761719C11.435547 -30.996094 11.328125 -31.191406 11.250000 -31.347656C11.210938 -31.445312 11.171875 -31.552734 11.132812 -31.669922C11.093750 -31.845703 11.054688 -32.070312 11.015625 -32.343750L10.751953 -34.189453C10.673828 -34.814453 10.595703 -35.322266 10.517578 -35.712891L10.341797 -36.445312L10.253906 -36.708984C10.195312 -36.865234 10.126953 -37.031250 10.048828 -37.207031L9.902344 -37.558594L9.638672 -38.027344L9.316406 -38.730469L9.111328 -39.199219L8.320312 -41.396484L7.822266 -42.568359L7.646484 -43.095703L7.558594 -43.505859C7.539062 -43.642578 7.539062 -43.769531 7.558594 -43.886719L7.587891 -43.974609L7.646484 -44.150391L7.880859 -44.384766L8.056641 -44.501953L8.261719 -44.589844C8.339844 -44.609375 8.422852 -44.628906 8.510742 -44.648438C8.598633 -44.667969 8.691406 -44.667969 8.789062 -44.648438L8.935547 -44.648438C9.091797 -44.609375 9.228516 -44.541016 9.345703 -44.443359L9.462891 -44.296875L9.697266 -44.003906L10.781250 -42.187500L11.542969 -40.751953C11.796875 -40.244141 12.021484 -39.833984 12.216797 -39.521484C12.236328 -39.853516 12.255859 -40.244141 12.275391 -40.693359C12.314453 -42.646484 12.324219 -43.037109 12.304688 -41.865234L12.333984 -42.656250L12.509766 -45.146484C12.509766 -45.263672 12.509766 -45.380859 12.509766 -45.498047L12.480469 -45.615234L12.421875 -45.937500L12.187500 -46.552734C12.128906 -46.728516 12.080078 -46.894531 12.041016 -47.050781C12.001953 -47.187500 11.972656 -47.314453 11.953125 -47.431641L11.923828 -47.695312C11.904297 -47.832031 11.904297 -47.968750 11.923828 -48.105469L11.953125 -48.281250L12.099609 -48.574219L12.246094 -48.750000L12.480469 -48.925781L12.744141 -49.042969ZM13.271484 -48.837891C13.037109 -48.837891 12.827148 -48.789062 12.641602 -48.691406C12.456055 -48.593750 12.333984 -48.437500 12.275391 -48.222656C12.177734 -47.773438 12.304688 -47.207031 12.656250 -46.523438L12.949219 -47.695312C13.066406 -48.144531 13.203125 -48.525391 13.359375 -48.837891ZM18.925781 -45.087891C18.964844 -45.087891 19.023438 -45.087891 19.101562 -45.087891L19.511719 -45.058594L19.892578 -44.970703C20.009766 -44.931641 20.136719 -44.892578 20.273438 -44.853516L20.449219 -44.765625C20.234375 -44.726562 20.048828 -44.697266 19.892578 -44.677734L19.746094 -44.648438C19.609375 -44.648438 19.482422 -44.663086 19.365234 -44.692383C19.248047 -44.721680 19.140625 -44.755859 19.042969 -44.794922L18.574219 -45.058594ZM10.136719 -42.509766C10.097656 -42.470703 10.058594 -42.412109 10.019531 -42.333984C9.941406 -42.236328 9.873047 -42.148438 9.814453 -42.070312L9.755859 -41.982422C9.697266 -41.943359 9.638672 -41.904297 9.580078 -41.865234L9.404297 -41.748047L9.199219 -41.660156L8.789062 -41.572266L8.906250 -41.718750L9.140625 -41.953125L9.550781 -42.246094C9.726562 -42.343750 9.921875 -42.431641 10.136719 -42.509766ZM19.277344 -42.363281C19.316406 -42.363281 19.355469 -42.363281 19.394531 -42.363281L19.541016 -42.333984C19.697266 -42.314453 19.882812 -42.236328 20.097656 -42.099609L20.273438 -41.982422C19.960938 -41.962891 19.658203 -41.982422 19.365234 -42.041016C19.189453 -42.060547 19.003906 -42.099609 18.808594 -42.158203L18.486328 -42.275391L19.042969 -42.333984ZM11.044922 -40.693359C11.044922 -40.673828 11.025391 -40.644531 10.986328 -40.605469L10.722656 -40.371094L10.458984 -40.166016C10.205078 -39.990234 9.912109 -39.833984 9.580078 -39.697266C9.873047 -40.087891 10.126953 -40.351562 10.341797 -40.488281C10.439453 -40.527344 10.556641 -40.566406 10.693359 -40.605469ZM13.828125 -38.994141C13.691406 -38.564453 13.583984 -38.164062 13.505859 -37.792969L14.560547 -37.705078L14.824219 -37.705078L15.087891 -37.734375L15.351562 -37.763672L15.615234 -37.851562C15.693359 -37.871094 15.771484 -37.919922 15.849609 -37.998047L15.878906 -38.056641C15.917969 -38.115234 15.957031 -38.203125 15.996094 -38.320312L16.142578 -38.789062C15.498047 -38.867188 14.921875 -38.925781 14.414062 -38.964844ZM13.828125 -38.994141"></path></svg>