<svg width="26.201172" height="23.437500" viewBox="1.552734 -46.816406 26.201172 23.437500" xmlns="http://www.w3.org/2000/svg"><path d="M14.121094 -46.816406C13.964844 -46.796875 13.857422 -46.777344 13.798828 -46.757812C13.154297 -46.679688 12.524414 -46.499023 11.909180 -46.215820C11.293945 -45.932617 10.751953 -45.556641 10.283203 -45.087891C9.482422 -44.365234 8.925781 -43.476562 8.613281 -42.421875C8.437500 -41.835938 8.359375 -41.220703 8.378906 -40.576172C8.398438 -39.931641 8.515625 -39.316406 8.730469 -38.730469C9.062500 -37.851562 9.570312 -37.089844 10.253906 -36.445312L10.634766 -36.093750L8.203125 -32.138672C7.695312 -32.158203 7.255859 -32.089844 6.884766 -31.933594C6.298828 -31.679688 5.859375 -31.289062 5.566406 -30.761719C5.429688 -30.468750 5.341797 -30.166016 5.302734 -29.853516C5.263672 -29.541016 5.283203 -29.228516 5.361328 -28.916016C5.517578 -28.330078 5.839844 -27.861328 6.328125 -27.509766C6.621094 -27.314453 6.943359 -27.172852 7.294922 -27.084961C7.646484 -26.997070 7.998047 -26.977539 8.349609 -27.026367C8.701172 -27.075195 9.038086 -27.197266 9.360352 -27.392578C9.682617 -27.587891 9.951172 -27.832031 10.166016 -28.125000C10.400391 -28.457031 10.541992 -28.837891 10.590820 -29.267578C10.639648 -29.697266 10.585938 -30.097656 10.429688 -30.468750C10.410156 -30.566406 10.371094 -30.664062 10.312500 -30.761719C10.175781 -30.996094 10.117188 -31.093750 10.136719 -31.054688L13.476562 -36.474609L13.828125 -37.089844L13.476562 -37.177734C13.339844 -37.236328 13.232422 -37.275391 13.154297 -37.294922C12.705078 -37.490234 12.299805 -37.758789 11.938477 -38.100586C11.577148 -38.442383 11.298828 -38.828125 11.103516 -39.257812C10.771484 -39.960938 10.683594 -40.693359 10.839844 -41.455078C10.917969 -41.904297 11.083984 -42.324219 11.337891 -42.714844C11.591797 -43.105469 11.894531 -43.437500 12.246094 -43.710938C12.968750 -44.238281 13.769531 -44.501953 14.648438 -44.501953C15.175781 -44.521484 15.688477 -44.428711 16.186523 -44.223633C16.684570 -44.018555 17.119141 -43.720703 17.490234 -43.330078C17.822266 -43.017578 18.081055 -42.641602 18.266602 -42.202148C18.452148 -41.762695 18.554688 -41.318359 18.574219 -40.869141C18.574219 -40.537109 18.515625 -40.126953 18.398438 -39.638672L20.449219 -39.082031L20.683594 -39.052734C20.957031 -39.892578 21.025391 -40.732422 20.888672 -41.572266C20.810547 -42.216797 20.620117 -42.836914 20.317383 -43.432617C20.014648 -44.028320 19.628906 -44.550781 19.160156 -45.000000C18.339844 -45.820312 17.333984 -46.367188 16.142578 -46.640625C16.025391 -46.679688 15.869141 -46.708984 15.673828 -46.728516L15.205078 -46.816406ZM14.648438 -43.183594C14.316406 -43.183594 13.984375 -43.115234 13.652344 -42.978516C13.320312 -42.841797 13.022461 -42.641602 12.758789 -42.377930C12.495117 -42.114258 12.304688 -41.806641 12.187500 -41.455078C12.031250 -41.064453 11.992188 -40.634766 12.070312 -40.166016C12.128906 -39.814453 12.265625 -39.482422 12.480469 -39.169922C12.695312 -38.857422 12.968750 -38.613281 13.300781 -38.437500C13.769531 -38.144531 14.316406 -38.017578 14.941406 -38.056641C15.000000 -37.978516 15.048828 -37.900391 15.087891 -37.822266L18.310547 -32.314453C18.427734 -32.119141 18.505859 -32.001953 18.544922 -31.962891C19.072266 -32.470703 19.643555 -32.817383 20.258789 -33.002930C20.874023 -33.188477 21.508789 -33.222656 22.163086 -33.105469C22.817383 -32.988281 23.388672 -32.734375 23.876953 -32.343750C24.501953 -31.855469 24.926758 -31.254883 25.151367 -30.541992C25.375977 -29.829102 25.380859 -29.111328 25.166016 -28.388672C25.009766 -27.841797 24.731445 -27.353516 24.331055 -26.923828C23.930664 -26.494141 23.457031 -26.171875 22.910156 -25.957031C22.304688 -25.703125 21.655273 -25.620117 20.961914 -25.708008C20.268555 -25.795898 19.648438 -26.035156 19.101562 -26.425781C19.023438 -26.484375 18.935547 -26.552734 18.837891 -26.630859C18.642578 -26.806641 18.554688 -26.884766 18.574219 -26.865234C18.496094 -26.826172 18.408203 -26.757812 18.310547 -26.660156L16.875000 -25.253906C17.324219 -24.804688 17.832031 -24.428711 18.398438 -24.125977C18.964844 -23.823242 19.560547 -23.613281 20.185547 -23.496094L20.830078 -23.378906L21.972656 -23.378906L22.792969 -23.525391C24.042969 -23.779297 25.117188 -24.365234 26.015625 -25.283203C26.445312 -25.712891 26.801758 -26.206055 27.084961 -26.762695C27.368164 -27.319336 27.558594 -27.900391 27.656250 -28.505859C27.753906 -29.208984 27.734375 -29.907227 27.597656 -30.600586C27.460938 -31.293945 27.216797 -31.923828 26.865234 -32.490234C26.513672 -33.056641 26.083984 -33.554688 25.576172 -33.984375C25.068359 -34.414062 24.511719 -34.755859 23.906250 -35.009766C23.242188 -35.283203 22.553711 -35.439453 21.840820 -35.478516C21.127930 -35.517578 20.429688 -35.449219 19.746094 -35.273438L19.248047 -35.126953L16.875000 -39.140625C17.128906 -39.511719 17.285156 -39.873047 17.343750 -40.224609C17.441406 -40.849609 17.314453 -41.435547 16.962891 -41.982422C16.650391 -42.470703 16.220703 -42.812500 15.673828 -43.007812C15.341797 -43.125000 15.000000 -43.183594 14.648438 -43.183594ZM6.386719 -35.449219C5.253906 -35.195312 4.277344 -34.677734 3.457031 -33.896484C2.539062 -33.037109 1.943359 -32.011719 1.669922 -30.820312L1.552734 -30.117188L1.552734 -29.033203L1.611328 -28.593750C1.650391 -28.398438 1.689453 -28.242188 1.728516 -28.125000C1.865234 -27.519531 2.104492 -26.943359 2.446289 -26.396484C2.788086 -25.849609 3.203125 -25.371094 3.691406 -24.960938C4.667969 -24.160156 5.791016 -23.681641 7.060547 -23.525391C7.802734 -23.447266 8.544922 -23.491211 9.287109 -23.657227C10.029297 -23.823242 10.712891 -24.101562 11.337891 -24.492188C12.373047 -25.156250 13.134766 -26.044922 13.623047 -27.158203C13.759766 -27.490234 13.896484 -27.929688 14.033203 -28.476562C14.150391 -28.496094 14.326172 -28.496094 14.560547 -28.476562L18.310547 -28.417969C18.525391 -28.417969 18.691406 -28.408203 18.808594 -28.388672C19.023438 -27.998047 19.267578 -27.695312 19.541016 -27.480469C19.814453 -27.265625 20.122070 -27.109375 20.463867 -27.011719C20.805664 -26.914062 21.152344 -26.875000 21.503906 -26.894531C22.050781 -26.953125 22.539062 -27.148438 22.968750 -27.480469C23.496094 -27.890625 23.808594 -28.417969 23.906250 -29.062500C23.945312 -29.394531 23.930664 -29.716797 23.862305 -30.029297C23.793945 -30.341797 23.662109 -30.634766 23.466797 -30.908203C23.154297 -31.337891 22.753906 -31.650391 22.265625 -31.845703C21.933594 -31.982422 21.586914 -32.045898 21.225586 -32.036133C20.864258 -32.026367 20.517578 -31.953125 20.185547 -31.816406C19.638672 -31.582031 19.218750 -31.220703 18.925781 -30.732422L18.837891 -30.556641C18.583984 -30.556641 18.242188 -30.556641 17.812500 -30.556641L13.212891 -30.644531L11.572266 -30.673828L11.660156 -30.175781C11.816406 -29.335938 11.689453 -28.544922 11.279297 -27.802734C11.005859 -27.275391 10.615234 -26.835938 10.107422 -26.484375C9.599609 -26.132812 9.042969 -25.917969 8.437500 -25.839844C7.753906 -25.722656 7.070312 -25.795898 6.386719 -26.059570C5.703125 -26.323242 5.146484 -26.738281 4.716797 -27.304688C4.169922 -27.988281 3.906250 -28.759766 3.925781 -29.619141C3.945312 -30.341797 4.169922 -31.015625 4.599609 -31.640625C4.853516 -32.011719 5.166016 -32.324219 5.537109 -32.578125C5.908203 -32.832031 6.308594 -33.017578 6.738281 -33.134766L7.001953 -33.222656ZM6.386719 -35.449219"></path></svg>