<svg width="29.296875" height="11.748047" viewBox="0.000000 -29.179688 29.296875 11.748047" xmlns="http://www.w3.org/2000/svg"><path d="M5.800781 -29.179688C5.546875 -29.179688 5.341797 -29.111328 5.185547 -28.974609C5.029297 -28.837891 4.951172 -28.623047 4.951172 -28.330078L4.951172 -24.345703L0.849609 -24.345703C0.556641 -24.345703 0.341797 -24.267578 0.205078 -24.111328C0.068359 -23.955078 0.000000 -23.750000 0.000000 -23.496094L0.000000 -22.880859C0.000000 -22.626953 0.068359 -22.421875 0.205078 -22.265625C0.341797 -22.109375 0.556641 -22.031250 0.849609 -22.031250L4.951172 -22.031250L4.951172 -18.076172C4.951172 -17.900391 5.014648 -17.749023 5.141602 -17.622070C5.268555 -17.495117 5.419922 -17.431641 5.595703 -17.431641L8.730469 -17.431641C8.789062 -17.431641 8.862305 -17.465820 8.950195 -17.534180C9.038086 -17.602539 9.082031 -17.695312 9.082031 -17.812500L9.082031 -19.248047L7.500000 -19.248047C7.265625 -19.248047 7.109375 -19.306641 7.031250 -19.423828C6.953125 -19.541016 6.914062 -19.726562 6.914062 -19.980469L6.914062 -26.630859C6.914062 -26.884766 6.953125 -27.070312 7.031250 -27.187500C7.109375 -27.304688 7.265625 -27.363281 7.500000 -27.363281L9.082031 -27.363281L9.082031 -28.828125C9.082031 -28.925781 9.038086 -29.008789 8.950195 -29.077148C8.862305 -29.145508 8.789062 -29.179688 8.730469 -29.179688ZM20.566406 -29.179688C20.507812 -29.179688 20.434570 -29.145508 20.346680 -29.077148C20.258789 -29.008789 20.214844 -28.925781 20.214844 -28.828125L20.214844 -27.363281L21.796875 -27.363281C22.031250 -27.363281 22.187500 -27.304688 22.265625 -27.187500C22.343750 -27.070312 22.382812 -26.884766 22.382812 -26.630859L22.382812 -19.980469C22.382812 -19.726562 22.343750 -19.541016 22.265625 -19.423828C22.187500 -19.306641 22.031250 -19.248047 21.796875 -19.248047L20.214844 -19.248047L20.214844 -17.812500C20.214844 -17.695312 20.258789 -17.602539 20.346680 -17.534180C20.434570 -17.465820 20.507812 -17.431641 20.566406 -17.431641L23.701172 -17.431641C23.876953 -17.431641 24.028320 -17.495117 24.155273 -17.622070C24.282227 -17.749023 24.345703 -17.900391 24.345703 -18.076172L24.345703 -22.031250L28.447266 -22.031250C28.740234 -22.031250 28.955078 -22.109375 29.091797 -22.265625C29.228516 -22.421875 29.296875 -22.626953 29.296875 -22.880859L29.296875 -23.496094C29.296875 -23.750000 29.228516 -23.955078 29.091797 -24.111328C28.955078 -24.267578 28.740234 -24.345703 28.447266 -24.345703L24.345703 -24.345703L24.345703 -28.330078C24.345703 -28.623047 24.267578 -28.837891 24.111328 -28.974609C23.955078 -29.111328 23.750000 -29.179688 23.496094 -29.179688ZM8.203125 -26.396484C8.105469 -26.396484 8.027344 -26.362305 7.968750 -26.293945C7.910156 -26.225586 7.880859 -26.142578 7.880859 -26.044922L7.880859 -20.449219C7.880859 -20.351562 7.910156 -20.268555 7.968750 -20.200195C8.027344 -20.131836 8.105469 -20.097656 8.203125 -20.097656L14.648438 -20.097656L14.648438 -21.679688L13.066406 -23.261719L14.648438 -24.814453L14.648438 -26.396484ZM15.615234 -26.396484L15.615234 -24.814453L14.033203 -23.261719L15.615234 -21.679688L15.615234 -20.097656L21.093750 -20.097656C21.191406 -20.097656 21.269531 -20.131836 21.328125 -20.200195C21.386719 -20.268555 21.416016 -20.351562 21.416016 -20.449219L21.416016 -26.044922C21.416016 -26.142578 21.386719 -26.225586 21.328125 -26.293945C21.269531 -26.362305 21.191406 -26.396484 21.093750 -26.396484ZM11.191406 -24.345703C11.484375 -24.345703 11.728516 -24.243164 11.923828 -24.038086C12.119141 -23.833008 12.216797 -23.588867 12.216797 -23.305664C12.216797 -23.022461 12.119141 -22.783203 11.923828 -22.587891C11.728516 -22.392578 11.489258 -22.294922 11.206055 -22.294922C10.922852 -22.294922 10.678711 -22.392578 10.473633 -22.587891C10.268555 -22.783203 10.166016 -23.022461 10.166016 -23.305664C10.166016 -23.588867 10.268555 -23.833008 10.473633 -24.038086C10.678711 -24.243164 10.917969 -24.345703 11.191406 -24.345703ZM18.105469 -24.345703C18.378906 -24.345703 18.618164 -24.243164 18.823242 -24.038086C19.028320 -23.833008 19.130859 -23.588867 19.130859 -23.305664C19.130859 -23.022461 19.028320 -22.778320 18.823242 -22.573242C18.618164 -22.368164 18.374023 -22.270508 18.090820 -22.280273C17.807617 -22.290039 17.568359 -22.392578 17.373047 -22.587891C17.177734 -22.783203 17.080078 -23.022461 17.080078 -23.305664C17.080078 -23.588867 17.177734 -23.833008 17.373047 -24.038086C17.568359 -24.243164 17.812500 -24.345703 18.105469 -24.345703ZM18.105469 -24.345703"></path></svg>