<svg width="24.951172" height="24.990234" viewBox="2.148438 -49.902344 24.951172 24.990234" xmlns="http://www.w3.org/2000/svg"><path d="M23.701172 -49.892578C23.212891 -49.892578 22.753906 -49.785156 22.324219 -49.570312C21.640625 -49.277344 21.113281 -48.769531 20.742188 -48.046875C20.410156 -47.382812 20.283203 -46.660156 20.361328 -45.878906L20.361328 -36.503906L18.457031 -38.408203C17.675781 -39.189453 17.011719 -39.814453 16.464844 -40.283203C15.996094 -40.615234 15.473633 -40.791016 14.897461 -40.810547C14.321289 -40.830078 13.764648 -40.717773 13.227539 -40.473633C12.690430 -40.229492 12.246094 -39.882812 11.894531 -39.433594L8.935547 -36.503906L8.935547 -41.660156C8.955078 -43.789062 8.955078 -45.517578 8.935547 -46.845703C8.857422 -47.666016 8.500977 -48.374023 7.866211 -48.969727C7.231445 -49.565430 6.503906 -49.863281 5.683594 -49.863281C5.019531 -49.902344 4.409180 -49.746094 3.852539 -49.394531C3.295898 -49.042969 2.866211 -48.564453 2.563477 -47.958984C2.260742 -47.353516 2.148438 -46.728516 2.226562 -46.083984L2.226562 -37.089844C2.226562 -33.398438 2.226562 -30.390625 2.226562 -28.066406C2.265625 -27.363281 2.529297 -26.743164 3.017578 -26.206055C3.505859 -25.668945 4.096680 -25.302734 4.790039 -25.107422C5.483398 -24.912109 6.152344 -24.951172 6.796875 -25.224609C7.167969 -25.400391 7.548828 -25.644531 7.939453 -25.957031C8.173828 -26.171875 8.496094 -26.494141 8.906250 -26.923828C9.335938 -27.373047 9.648438 -27.685547 9.843750 -27.861328L14.648438 -32.695312L18.105469 -29.208984C19.531250 -27.802734 20.693359 -26.650391 21.591797 -25.751953C22.138672 -25.283203 22.783203 -25.034180 23.525391 -25.004883C24.267578 -24.975586 24.956055 -25.161133 25.590820 -25.561523C26.225586 -25.961914 26.660156 -26.503906 26.894531 -27.187500C26.992188 -27.578125 27.050781 -28.017578 27.070312 -28.505859C27.089844 -28.818359 27.094727 -29.277344 27.084961 -29.882812C27.075195 -30.488281 27.080078 -30.927734 27.099609 -31.201172L27.099609 -39.023438C27.099609 -42.226562 27.089844 -44.833984 27.070312 -46.845703C27.031250 -47.412109 26.850586 -47.924805 26.528320 -48.383789C26.206055 -48.842773 25.791016 -49.208984 25.283203 -49.482422C24.775391 -49.755859 24.248047 -49.892578 23.701172 -49.892578ZM5.654297 -47.929688C6.044922 -47.949219 6.367188 -47.802734 6.621094 -47.490234C6.875000 -47.177734 7.001953 -46.826172 7.001953 -46.435547C7.001953 -46.044922 6.855469 -45.717773 6.562500 -45.454102C6.269531 -45.190430 5.927734 -45.073242 5.537109 -45.102539C5.146484 -45.131836 4.809570 -45.283203 4.526367 -45.556641C4.243164 -45.830078 4.111328 -46.157227 4.130859 -46.538086C4.150391 -46.918945 4.301758 -47.250977 4.584961 -47.534180C4.868164 -47.817383 5.205078 -47.949219 5.595703 -47.929688ZM23.789062 -47.929688C24.179688 -47.949219 24.501953 -47.802734 24.755859 -47.490234C25.009766 -47.177734 25.136719 -46.826172 25.136719 -46.435547C25.136719 -46.044922 24.995117 -45.717773 24.711914 -45.454102C24.428711 -45.190430 24.086914 -45.073242 23.686523 -45.102539C23.286133 -45.131836 22.949219 -45.283203 22.675781 -45.556641C22.402344 -45.830078 22.270508 -46.157227 22.280273 -46.538086C22.290039 -46.918945 22.441406 -47.250977 22.734375 -47.534180C23.027344 -47.817383 23.359375 -47.949219 23.730469 -47.929688ZM14.707031 -38.876953C15.039062 -38.876953 15.332031 -38.754883 15.585938 -38.510742C15.839844 -38.266602 15.996094 -37.973633 16.054688 -37.631836C16.113281 -37.290039 16.054688 -36.972656 15.878906 -36.679688C15.703125 -36.386719 15.439453 -36.191406 15.087891 -36.093750C14.736328 -35.996094 14.389648 -36.020508 14.047852 -36.166992C13.706055 -36.313477 13.476562 -36.552734 13.359375 -36.884766C13.222656 -37.177734 13.198242 -37.480469 13.286133 -37.792969C13.374023 -38.105469 13.544922 -38.364258 13.798828 -38.569336C14.052734 -38.774414 14.335938 -38.876953 14.648438 -38.876953ZM23.789062 -29.794922C24.140625 -29.794922 24.443359 -29.663086 24.697266 -29.399414C24.951172 -29.135742 25.097656 -28.823242 25.136719 -28.461914C25.175781 -28.100586 25.087891 -27.778320 24.873047 -27.495117C24.658203 -27.211914 24.370117 -27.041016 24.008789 -26.982422C23.647461 -26.923828 23.305664 -26.982422 22.983398 -27.158203C22.661133 -27.333984 22.451172 -27.597656 22.353516 -27.949219C22.255859 -28.242188 22.260742 -28.535156 22.368164 -28.828125C22.475586 -29.121094 22.651367 -29.360352 22.895508 -29.545898C23.139648 -29.731445 23.417969 -29.814453 23.730469 -29.794922ZM5.654297 -29.794922C6.044922 -29.794922 6.367188 -29.638672 6.621094 -29.326172C6.875000 -29.013672 6.997070 -28.657227 6.987305 -28.256836C6.977539 -27.856445 6.816406 -27.539062 6.503906 -27.304688C6.230469 -27.031250 5.898438 -26.914062 5.507812 -26.953125C5.117188 -26.992188 4.790039 -27.153320 4.526367 -27.436523C4.262695 -27.719727 4.140625 -28.051758 4.160156 -28.432617C4.179688 -28.813477 4.331055 -29.135742 4.614258 -29.399414C4.897461 -29.663086 5.224609 -29.794922 5.595703 -29.794922ZM5.654297 -29.794922"></path></svg>