<svg width="24.902344" height="24.902344" viewBox="2.197266 -49.775391 24.902344 24.902344" xmlns="http://www.w3.org/2000/svg"><path d="M14.648438 -49.775391C12.402344 -49.775391 10.312500 -49.199219 8.378906 -48.046875C6.484375 -46.953125 4.990234 -45.468750 3.896484 -43.593750C2.763672 -41.660156 2.197266 -39.565430 2.197266 -37.309570C2.197266 -35.053711 2.763672 -32.958984 3.896484 -31.025391C4.990234 -29.150391 6.484375 -27.666016 8.378906 -26.572266C10.312500 -25.439453 12.402344 -24.873047 14.648438 -24.873047C16.894531 -24.873047 18.984375 -25.439453 20.917969 -26.572266C22.792969 -27.666016 24.287109 -29.150391 25.400391 -31.025391C26.533203 -32.958984 27.099609 -35.053711 27.099609 -37.309570C27.099609 -39.565430 26.533203 -41.660156 25.400391 -43.593750C24.287109 -45.468750 22.792969 -46.953125 20.917969 -48.046875C18.984375 -49.179688 16.894531 -49.755859 14.648438 -49.775391ZM14.648438 -49.189453C16.796875 -49.189453 18.789062 -48.652344 20.625000 -47.578125C22.421875 -46.523438 23.847656 -45.097656 24.902344 -43.300781C25.976562 -41.464844 26.513672 -39.472656 26.513672 -37.324219C26.513672 -35.175781 25.976562 -33.173828 24.902344 -31.318359C23.847656 -29.521484 22.421875 -28.095703 20.625000 -27.041016C18.789062 -25.966797 16.796875 -25.429688 14.648438 -25.429688C12.500000 -25.429688 10.498047 -25.966797 8.642578 -27.041016C6.865234 -28.095703 5.449219 -29.521484 4.394531 -31.318359C3.320312 -33.173828 2.783203 -35.175781 2.783203 -37.324219C2.783203 -39.472656 3.320312 -41.464844 4.394531 -43.300781C5.449219 -45.097656 6.865234 -46.523438 8.642578 -47.578125C10.498047 -48.652344 12.500000 -49.189453 14.648438 -49.189453ZM14.648438 -47.988281C12.812500 -47.988281 11.093750 -47.548828 9.492188 -46.669922C7.949219 -45.810547 6.689453 -44.648438 5.712891 -43.183594L6.416016 -43.154297C6.884766 -43.154297 7.500000 -43.183594 8.261719 -43.242188L9.257812 -43.300781C9.433594 -43.320312 9.565430 -43.256836 9.653320 -43.110352C9.741211 -42.963867 9.755859 -42.817383 9.697266 -42.670898C9.638672 -42.524414 9.511719 -42.441406 9.316406 -42.421875L8.964844 -42.392578C8.652344 -42.353516 8.369141 -42.324219 8.115234 -42.304688L11.982422 -30.761719L14.326172 -37.763672L12.656250 -42.304688L11.542969 -42.421875C11.367188 -42.441406 11.250000 -42.524414 11.191406 -42.670898C11.132812 -42.817383 11.142578 -42.963867 11.220703 -43.110352C11.298828 -43.256836 11.425781 -43.320312 11.601562 -43.300781L12.626953 -43.242188C13.388672 -43.183594 13.994141 -43.154297 14.443359 -43.154297C14.892578 -43.154297 15.498047 -43.183594 16.259766 -43.242188L17.285156 -43.300781C17.460938 -43.320312 17.587891 -43.256836 17.666016 -43.110352C17.744141 -42.963867 17.753906 -42.817383 17.695312 -42.670898C17.636719 -42.524414 17.519531 -42.441406 17.343750 -42.421875L16.962891 -42.392578C16.669922 -42.353516 16.386719 -42.324219 16.113281 -42.304688L19.980469 -30.849609L21.035156 -34.394531C21.347656 -35.390625 21.542969 -36.035156 21.621094 -36.328125C21.777344 -36.933594 21.855469 -37.441406 21.855469 -37.851562C21.855469 -38.437500 21.757812 -39.003906 21.562500 -39.550781C21.445312 -39.902344 21.250000 -40.322266 20.976562 -40.810547C20.585938 -41.435547 20.341797 -41.845703 20.244141 -42.041016C20.029297 -42.490234 19.921875 -42.910156 19.921875 -43.300781C19.921875 -43.808594 20.092773 -44.252930 20.434570 -44.633789C20.776367 -45.014648 21.201172 -45.205078 21.708984 -45.205078L21.855469 -45.175781C20.898438 -46.074219 19.804688 -46.767578 18.574219 -47.255859C17.324219 -47.744141 16.015625 -47.988281 14.648438 -47.988281ZM24.023438 -42.421875C24.062500 -42.070312 24.082031 -41.708984 24.082031 -41.337891C24.082031 -40.146484 23.818359 -38.867188 23.291016 -37.500000L20.009766 -28.066406C21.630859 -29.023438 22.919922 -30.302734 23.876953 -31.904297C24.853516 -33.564453 25.341797 -35.371094 25.341797 -37.324219C25.341797 -39.140625 24.902344 -40.839844 24.023438 -42.421875ZM4.892578 -41.660156C4.267578 -40.273438 3.955078 -38.828125 3.955078 -37.324219C3.955078 -35.234375 4.521484 -33.320312 5.654297 -31.582031C6.728516 -29.863281 8.173828 -28.564453 9.990234 -27.685547ZM14.824219 -36.386719L11.630859 -27.070312C12.626953 -26.777344 13.632812 -26.630859 14.648438 -26.630859C15.859375 -26.630859 17.041016 -26.835938 18.193359 -27.246094L18.134766 -27.392578ZM14.824219 -36.386719"></path></svg>