<svg width="29.296875" height="21.035156" viewBox="0.000000 -43.945312 29.296875 21.035156" xmlns="http://www.w3.org/2000/svg"><path d="M10.517578 -43.945312C8.603516 -43.945312 6.835938 -43.466797 5.214844 -42.509766C3.613281 -41.572266 2.353516 -40.312500 1.435547 -38.730469C0.478516 -37.089844 0.000000 -35.317383 0.000000 -33.413086C0.000000 -31.508789 0.478516 -29.746094 1.435547 -28.125000C2.353516 -26.542969 3.613281 -25.283203 5.214844 -24.345703C6.835938 -23.388672 8.603516 -22.910156 10.517578 -22.910156C11.943359 -22.910156 13.320312 -23.193359 14.648438 -23.759766C15.976562 -23.193359 17.353516 -22.910156 18.779297 -22.910156C20.693359 -22.910156 22.460938 -23.388672 24.082031 -24.345703C25.664062 -25.283203 26.923828 -26.542969 27.861328 -28.125000C28.818359 -29.746094 29.296875 -31.508789 29.296875 -33.413086C29.296875 -35.317383 28.818359 -37.089844 27.861328 -38.730469C26.923828 -40.312500 25.664062 -41.572266 24.082031 -42.509766C22.460938 -43.466797 20.693359 -43.945312 18.779297 -43.945312C17.353516 -43.945312 15.976562 -43.662109 14.648438 -43.095703C13.320312 -43.662109 11.943359 -43.945312 10.517578 -43.945312ZM10.312500 -40.634766C11.875000 -40.634766 13.291016 -40.175781 14.560547 -39.257812C15.830078 -40.175781 17.246094 -40.634766 18.808594 -40.634766C20.117188 -40.634766 21.328125 -40.307617 22.441406 -39.653320C23.554688 -38.999023 24.438477 -38.115234 25.092773 -37.001953C25.747070 -35.888672 26.074219 -34.672852 26.074219 -33.354492C26.074219 -32.036133 25.747070 -30.820312 25.092773 -29.707031C24.438477 -28.593750 23.554688 -27.709961 22.441406 -27.055664C21.328125 -26.401367 20.117188 -26.074219 18.808594 -26.074219C17.246094 -26.074219 15.830078 -26.533203 14.560547 -27.451172C13.291016 -26.533203 11.875000 -26.074219 10.312500 -26.074219C8.984375 -26.074219 7.763672 -26.401367 6.650391 -27.055664C5.537109 -27.709961 4.653320 -28.593750 3.999023 -29.707031C3.344727 -30.820312 3.017578 -32.036133 3.017578 -33.354492C3.017578 -34.672852 3.344727 -35.888672 3.999023 -37.001953C4.653320 -38.115234 5.537109 -38.999023 6.650391 -39.653320C7.763672 -40.307617 8.984375 -40.634766 10.312500 -40.634766ZM7.910156 -37.705078C7.207031 -36.201172 6.855469 -34.775391 6.855469 -33.427734C6.855469 -32.275391 7.099609 -31.269531 7.587891 -30.410156C7.998047 -29.667969 8.496094 -29.160156 9.082031 -28.886719C10.078125 -28.457031 11.005859 -28.291016 11.865234 -28.388672C13.037109 -28.544922 13.935547 -29.179688 14.560547 -30.292969C14.912109 -29.609375 15.429688 -29.101562 16.113281 -28.769531C16.699219 -28.476562 17.363281 -28.339844 18.105469 -28.359375C18.789062 -28.378906 19.443359 -28.530273 20.068359 -28.813477C20.693359 -29.096680 21.220703 -29.658203 21.650391 -30.498047C22.119141 -31.416016 22.343750 -32.451172 22.324219 -33.603516C22.304688 -34.951172 21.953125 -36.318359 21.269531 -37.705078L17.753906 -37.705078C18.144531 -36.806641 18.408203 -35.839844 18.544922 -34.804688C18.681641 -33.808594 18.681641 -32.954102 18.544922 -32.241211C18.408203 -31.528320 18.144531 -31.152344 17.753906 -31.113281C17.304688 -31.074219 16.992188 -31.142578 16.816406 -31.318359C16.582031 -31.513672 16.430664 -31.938477 16.362305 -32.592773C16.293945 -33.247070 16.279297 -34.287109 16.318359 -35.712891L12.890625 -35.712891C13.007812 -33.740234 12.910156 -32.402344 12.597656 -31.699219C12.324219 -31.113281 11.894531 -30.957031 11.308594 -31.230469C10.781250 -31.445312 10.522461 -32.128906 10.532227 -33.281250C10.541992 -34.433594 10.820312 -35.908203 11.367188 -37.705078ZM7.910156 -37.705078"></path></svg>