<svg width="29.296875" height="21.562500" viewBox="0.000000 -43.037109 29.296875 21.562500" xmlns="http://www.w3.org/2000/svg"><path d="M0.000000 -43.037109C0.058594 -40.771484 0.683594 -38.457031 1.875000 -36.093750C2.988281 -33.847656 4.521484 -31.718750 6.474609 -29.707031C8.388672 -27.753906 10.517578 -26.093750 12.861328 -24.726562C11.181641 -23.417969 9.414062 -22.529297 7.558594 -22.060547L7.529297 -21.650391C8.349609 -21.748047 9.160156 -21.904297 9.960938 -22.119141L10.107422 -22.148438C11.611328 -22.500000 13.125000 -23.037109 14.648438 -23.759766C15.175781 -23.486328 15.673828 -23.251953 16.142578 -23.056641C18.076172 -22.177734 20.068359 -21.650391 22.119141 -21.474609L22.119141 -21.914062C20.146484 -22.402344 18.291016 -23.349609 16.552734 -24.755859C18.876953 -26.103516 20.986328 -27.753906 22.880859 -29.707031C24.814453 -31.699219 26.337891 -33.818359 27.451172 -36.064453C28.623047 -38.427734 29.238281 -40.751953 29.296875 -43.037109L25.488281 -41.572266L24.169922 -41.132812L20.361328 -39.990234C20.380859 -39.755859 20.390625 -39.541016 20.390625 -39.345703C20.390625 -37.216797 19.892578 -34.990234 18.896484 -32.666016C17.861328 -30.302734 16.474609 -28.222656 14.736328 -26.425781C13.056641 -28.222656 11.718750 -30.283203 10.722656 -32.607422C9.746094 -34.892578 9.257812 -37.080078 9.257812 -39.169922C9.257812 -39.423828 9.267578 -39.648438 9.287109 -39.843750L5.478516 -40.957031L4.248047 -41.396484ZM0.000000 -43.037109"></path></svg>